<?xml version="1.0" encoding="utf-8" standalone="no"?>
<!DOCTYPE svg PUBLIC "-//W3C//DTD SVG 1.1//EN"
  "http://www.w3.org/Graphics/SVG/1.1/DTD/svg11.dtd">
<svg xmlns:xlink="http://www.w3.org/1999/xlink" width="504pt" height="288pt" viewBox="0 0 504 288" xmlns="http://www.w3.org/2000/svg" version="1.1">
 <metadata>
  <rdf:RDF xmlns:dc="http://purl.org/dc/elements/1.1/" xmlns:cc="http://creativecommons.org/ns#" xmlns:rdf="http://www.w3.org/1999/02/22-rdf-syntax-ns#">
   <cc:Work>
    <dc:type rdf:resource="http://purl.org/dc/dcmitype/StillImage"/>
    <dc:date>2024-06-25T14:54:24.673602</dc:date>
    <dc:format>image/svg+xml</dc:format>
    <dc:creator>
     <cc:Agent>
      <dc:title>Matplotlib v3.5.2, https://matplotlib.org/</dc:title>
     </cc:Agent>
    </dc:creator>
   </cc:Work>
  </rdf:RDF>
 </metadata>
 <defs>
  <style type="text/css">*{stroke-linejoin: round; stroke-linecap: butt}</style>
 </defs>
 <g id="figure_1">
  <g id="patch_1">
   <path d="M 0 288 
L 504 288 
L 504 0 
L 0 0 
L 0 288 
z
" style="fill: none"/>
  </g>
  <g id="axes_1">
   <g id="patch_2">
    <path d="M 63 252 
L 453.6 252 
L 453.6 34.56 
L 63 34.56 
z
" style="fill: #ffffff"/>
   </g>
   <g id="PolyCollection_1">
    <defs>
     <path id="m7dcc17d1ac" d="M 63 -243.556364 
L 63 -186.991654 
L 66.945455 -189.917089 
L 70.890909 -192.444295 
L 74.836364 -194.488402 
L 78.781818 -195.980886 
L 82.727273 -196.879522 
L 86.672727 -197.175145 
L 90.618182 -196.896551 
L 94.563636 -196.107684 
L 98.509091 -194.883128 
L 102.454545 -193.299775 
L 106.4 -191.430881 
L 110.345455 -189.340518 
L 114.290909 -187.06827 
L 118.236364 -184.626186 
L 122.181818 -182.021766 
L 126.127273 -179.264548 
L 130.072727 -176.368284 
L 134.018182 -173.348833 
L 137.963636 -170.196897 
L 141.909091 -166.880958 
L 145.854545 -163.374999 
L 149.8 -159.662316 
L 153.745455 -155.735452 
L 157.690909 -151.596655 
L 161.636364 -147.286188 
L 165.581818 -142.867784 
L 169.527273 -138.412059 
L 173.472727 -133.998361 
L 177.418182 -129.713862 
L 181.363636 -125.639312 
L 185.309091 -121.795998 
L 189.254545 -118.186743 
L 193.2 -114.821295 
L 197.145455 -111.717979 
L 201.090909 -108.902349 
L 205.036364 -106.383805 
L 208.981818 -104.107236 
L 212.927273 -102.00772 
L 216.872727 -100.027967 
L 220.818182 -98.119375 
L 224.763636 -96.240163 
L 228.709091 -94.355873 
L 232.654545 -92.442606 
L 236.6 -90.482355 
L 240.545455 -88.465228 
L 244.490909 -86.389951 
L 248.436364 -84.26174 
L 252.381818 -82.099393 
L 256.327273 -79.937786 
L 260.272727 -77.818235 
L 264.218182 -75.790493 
L 268.163636 -73.912755 
L 272.109091 -72.246483 
L 276.054545 -70.819455 
L 280 -69.633522 
L 283.945455 -68.695938 
L 287.890909 -68.022573 
L 291.836364 -67.637413 
L 295.781818 -67.562668 
L 299.727273 -67.767507 
L 303.672727 -68.196988 
L 307.618182 -68.802761 
L 311.563636 -69.545164 
L 315.509091 -70.39217 
L 319.454545 -71.313131 
L 323.4 -72.266318 
L 327.345455 -73.20977 
L 331.290909 -74.108759 
L 335.236364 -74.937136 
L 339.181818 -75.675706 
L 343.127273 -76.312012 
L 347.072727 -76.845274 
L 351.018182 -77.28075 
L 354.963636 -77.631522 
L 358.909091 -77.919403 
L 362.854545 -78.172575 
L 366.8 -78.400834 
L 370.745455 -78.579906 
L 374.690909 -78.688098 
L 378.636364 -78.712961 
L 382.581818 -78.651362 
L 386.527273 -78.506542 
L 390.472727 -78.282766 
L 394.418182 -77.984239 
L 398.363636 -77.618519 
L 402.309091 -77.197379 
L 406.254545 -76.734629 
L 410.2 -76.239345 
L 414.145455 -75.690741 
L 418.090909 -75.041961 
L 422.036364 -74.236932 
L 425.981818 -73.21595 
L 429.927273 -71.921614 
L 433.872727 -70.302498 
L 437.818182 -68.310304 
L 441.763636 -65.921267 
L 445.709091 -63.144636 
L 449.654545 -60.01596 
L 453.6 -56.587132 
L 453.6 -113.151842 
L 453.6 -113.151842 
L 449.654545 -111.340964 
L 445.709091 -109.799518 
L 441.763636 -108.580129 
L 437.818182 -107.719077 
L 433.872727 -107.226342 
L 429.927273 -107.078881 
L 425.981818 -107.225615 
L 422.036364 -107.603999 
L 418.090909 -108.144296 
L 414.145455 -108.774463 
L 410.2 -109.426093 
L 406.254545 -110.039936 
L 402.309091 -110.579887 
L 398.363636 -111.035397 
L 394.418182 -111.400309 
L 390.472727 -111.666425 
L 386.527273 -111.821337 
L 382.581818 -111.8505 
L 378.636364 -111.763996 
L 374.690909 -111.593631 
L 370.745455 -111.365695 
L 366.8 -111.097161 
L 362.854545 -110.795759 
L 358.909091 -110.462921 
L 354.963636 -110.096568 
L 351.018182 -109.69118 
L 347.072727 -109.234603 
L 343.127273 -108.70595 
L 339.181818 -108.076512 
L 335.236364 -107.322368 
L 331.290909 -106.469741 
L 327.345455 -105.56002 
L 323.4 -104.627663 
L 319.454545 -103.698551 
L 315.509091 -102.791335 
L 311.563636 -101.929838 
L 307.618182 -101.165551 
L 303.672727 -100.552059 
L 299.727273 -100.135313 
L 295.781818 -99.952577 
L 291.836364 -100.034271 
L 287.890909 -100.400018 
L 283.945455 -101.051865 
L 280 -101.985117 
L 276.054545 -103.186967 
L 272.109091 -104.635987 
L 268.163636 -106.304526 
L 264.218182 -108.160938 
L 260.272727 -110.169577 
L 256.327273 -112.289129 
L 252.381818 -114.469838 
L 248.436364 -116.65351 
L 244.490909 -118.779454 
L 240.545455 -120.832739 
L 236.6 -122.83395 
L 232.654545 -124.798533 
L 228.709091 -126.733318 
L 224.763636 -128.63702 
L 220.818182 -130.509284 
L 216.872727 -132.395772 
L 212.927273 -134.362791 
L 208.981818 -136.470026 
L 205.036364 -138.768479 
L 201.090909 -141.301514 
L 197.145455 -144.103399 
L 193.2 -147.18264 
L 189.254545 -150.536994 
L 185.309091 -154.15698 
L 181.363636 -158.024544 
L 177.418182 -162.114669 
L 173.472727 -166.392299 
L 169.527273 -170.801388 
L 165.581818 -175.278214 
L 161.636364 -179.751234 
L 157.690909 -184.140173 
L 153.745455 -188.358636 
L 149.8 -192.358644 
L 145.854545 -196.160787 
L 141.909091 -199.786491 
L 137.963636 -203.247931 
L 134.018182 -206.547971 
L 130.072727 -209.683079 
L 126.127273 -212.648207 
L 122.181818 -215.437835 
L 118.236364 -218.043064 
L 114.290909 -220.450778 
L 110.345455 -222.645825 
L 106.4 -224.617628 
L 102.454545 -226.383497 
L 98.509091 -227.985463 
L 94.563636 -229.474751 
L 90.618182 -230.906216 
L 86.672727 -232.332411 
L 82.727273 -233.803366 
L 78.781818 -235.389659 
L 74.836364 -237.147264 
L 70.890909 -239.099177 
L 66.945455 -241.242093 
L 63 -243.556364 
z
" style="stroke: #000000; stroke-opacity: 0.05"/>
    </defs>
    <g clip-path="url(#p5e8d582696)">
     <use xlink:href="#m7dcc17d1ac" x="0" y="288" style="fill-opacity: 0.05; stroke: #000000; stroke-opacity: 0.05"/>
    </g>
   </g>
   <g id="PathCollection_1">
    <defs>
     <path id="md88510e140" d="M 0 2.738613 
C 0.726289 2.738613 1.422928 2.450055 1.936492 1.936492 
C 2.450055 1.422928 2.738613 0.726289 2.738613 0 
C 2.738613 -0.726289 2.450055 -1.422928 1.936492 -1.936492 
C 1.422928 -2.450055 0.726289 -2.738613 0 -2.738613 
C -0.726289 -2.738613 -1.422928 -2.450055 -1.936492 -1.936492 
C -2.450055 -1.422928 -2.738613 -0.726289 -2.738613 0 
C -2.738613 0.726289 -2.450055 1.422928 -1.936492 1.936492 
C -1.422928 2.450055 -0.726289 2.738613 0 2.738613 
z
" style="stroke: #ffa500"/>
    </defs>
    <g clip-path="url(#p5e8d582696)">
     <use xlink:href="#md88510e140" x="63" y="90.617391" style="fill: #ffa500; stroke: #ffa500"/>
     <use xlink:href="#md88510e140" x="76.02" y="54.449009" style="fill: #ffa500; stroke: #ffa500"/>
     <use xlink:href="#md88510e140" x="89.04" y="69.277859" style="fill: #ffa500; stroke: #ffa500"/>
     <use xlink:href="#md88510e140" x="102.06" y="78.862865" style="fill: #ffa500; stroke: #ffa500"/>
     <use xlink:href="#md88510e140" x="115.08" y="88.040776" style="fill: #ffa500; stroke: #ffa500"/>
     <use xlink:href="#md88510e140" x="128.1" y="86.021575" style="fill: #ffa500; stroke: #ffa500"/>
     <use xlink:href="#md88510e140" x="141.12" y="130.986746" style="fill: #ffa500; stroke: #ffa500"/>
     <use xlink:href="#md88510e140" x="154.14" y="87.719619" style="fill: #ffa500; stroke: #ffa500"/>
     <use xlink:href="#md88510e140" x="167.16" y="98.800955" style="fill: #ffa500; stroke: #ffa500"/>
     <use xlink:href="#md88510e140" x="180.18" y="189.399598" style="fill: #ffa500; stroke: #ffa500"/>
     <use xlink:href="#md88510e140" x="193.2" y="163.52946" style="fill: #ffa500; stroke: #ffa500"/>
     <use xlink:href="#md88510e140" x="206.22" y="173.095812" style="fill: #ffa500; stroke: #ffa500"/>
     <use xlink:href="#md88510e140" x="219.24" y="161.121583" style="fill: #ffa500; stroke: #ffa500"/>
     <use xlink:href="#md88510e140" x="232.26" y="172.107285" style="fill: #ffa500; stroke: #ffa500"/>
     <use xlink:href="#md88510e140" x="245.28" y="188.209417" style="fill: #ffa500; stroke: #ffa500"/>
     <use xlink:href="#md88510e140" x="258.3" y="165.128847" style="fill: #ffa500; stroke: #ffa500"/>
     <use xlink:href="#md88510e140" x="271.32" y="229.298478" style="fill: #ffa500; stroke: #ffa500"/>
     <use xlink:href="#md88510e140" x="284.34" y="201.125127" style="fill: #ffa500; stroke: #ffa500"/>
     <use xlink:href="#md88510e140" x="297.36" y="215.58036" style="fill: #ffa500; stroke: #ffa500"/>
     <use xlink:href="#md88510e140" x="310.38" y="203.321343" style="fill: #ffa500; stroke: #ffa500"/>
     <use xlink:href="#md88510e140" x="323.4" y="189.850717" style="fill: #ffa500; stroke: #ffa500"/>
     <use xlink:href="#md88510e140" x="336.42" y="196.238204" style="fill: #ffa500; stroke: #ffa500"/>
     <use xlink:href="#md88510e140" x="349.44" y="176.86385" style="fill: #ffa500; stroke: #ffa500"/>
     <use xlink:href="#md88510e140" x="362.46" y="215.498934" style="fill: #ffa500; stroke: #ffa500"/>
     <use xlink:href="#md88510e140" x="375.48" y="196.330624" style="fill: #ffa500; stroke: #ffa500"/>
     <use xlink:href="#md88510e140" x="388.5" y="177.132118" style="fill: #ffa500; stroke: #ffa500"/>
     <use xlink:href="#md88510e140" x="401.52" y="190.95929" style="fill: #ffa500; stroke: #ffa500"/>
     <use xlink:href="#md88510e140" x="414.54" y="206.726944" style="fill: #ffa500; stroke: #ffa500"/>
     <use xlink:href="#md88510e140" x="427.56" y="199.776451" style="fill: #ffa500; stroke: #ffa500"/>
     <use xlink:href="#md88510e140" x="440.58" y="192.740043" style="fill: #ffa500; stroke: #ffa500"/>
     <use xlink:href="#md88510e140" x="453.6" y="206.963486" style="fill: #ffa500; stroke: #ffa500"/>
    </g>
   </g>
   <g id="PolyCollection_2">
    <defs>
     <path id="mf6ed13d672" d="M 63 -118.999571 
L 63 -45.883636 
L 66.945455 -50.220201 
L 70.890909 -54.159525 
L 74.836364 -57.627528 
L 78.781818 -60.571258 
L 82.727273 -62.971759 
L 86.672727 -64.852766 
L 90.618182 -66.27604 
L 94.563636 -67.322424 
L 98.509091 -68.08268 
L 102.454545 -68.650546 
L 106.4 -69.115067 
L 110.345455 -69.553415 
L 114.290909 -70.011336 
L 118.236364 -70.499311 
L 122.181818 -71.021966 
L 126.127273 -71.586564 
L 130.072727 -72.205814 
L 134.018182 -72.895625 
L 137.963636 -73.649009 
L 141.909091 -74.439161 
L 145.854545 -75.246723 
L 149.8 -76.064374 
L 153.745455 -76.896748 
L 157.690909 -77.755298 
L 161.636364 -78.642717 
L 165.581818 -79.558417 
L 169.527273 -80.510294 
L 173.472727 -81.517528 
L 177.418182 -82.609414 
L 181.363636 -83.816558 
L 185.309091 -85.147569 
L 189.254545 -86.606629 
L 193.2 -88.206892 
L 197.145455 -89.972604 
L 201.090909 -91.93735 
L 205.036364 -94.114301 
L 208.981818 -96.434785 
L 212.927273 -98.817778 
L 216.872727 -101.192118 
L 220.818182 -103.497876 
L 224.763636 -105.683831 
L 228.709091 -107.693568 
L 232.654545 -109.454656 
L 236.6 -110.898709 
L 240.545455 -111.967824 
L 244.490909 -112.615241 
L 248.436364 -112.803722 
L 252.381818 -112.55474 
L 256.327273 -111.962379 
L 260.272727 -111.132354 
L 264.218182 -110.181291 
L 268.163636 -109.23672 
L 272.109091 -108.429723 
L 276.054545 -107.837237 
L 280 -107.494271 
L 283.945455 -107.442584 
L 287.890909 -107.735075 
L 291.836364 -108.435128 
L 295.781818 -109.598841 
L 299.727273 -111.172352 
L 303.672727 -113.050152 
L 307.618182 -115.135115 
L 311.563636 -117.341344 
L 315.509091 -119.592808 
L 319.454545 -121.82048 
L 323.4 -123.96592 
L 327.345455 -125.977814 
L 331.290909 -127.8142 
L 335.236364 -129.444202 
L 339.181818 -130.845944 
L 343.127273 -132.013776 
L 347.072727 -132.978353 
L 351.018182 -133.781851 
L 354.963636 -134.476561 
L 358.909091 -135.126058 
L 362.854545 -135.801967 
L 366.8 -136.537328 
L 370.745455 -137.295623 
L 374.690909 -138.041142 
L 378.636364 -138.750128 
L 382.581818 -139.410863 
L 386.527273 -140.019652 
L 390.472727 -140.568321 
L 394.418182 -141.042353 
L 398.363636 -141.431255 
L 402.309091 -141.729981 
L 406.254545 -141.936121 
L 410.2 -142.041555 
L 414.145455 -142.004711 
L 418.090909 -141.753815 
L 422.036364 -141.205251 
L 425.981818 -140.270706 
L 429.927273 -138.864843 
L 433.872727 -136.912853 
L 437.818182 -134.363179 
L 441.763636 -131.204036 
L 445.709091 -127.466338 
L 449.654545 -123.214995 
L 453.6 -118.536045 
L 453.6 -191.65198 
L 453.6 -191.65198 
L 449.654545 -189.55805 
L 445.709091 -187.77276 
L 441.763636 -186.345175 
L 437.818182 -185.303231 
L 433.872727 -184.640868 
L 429.927273 -184.309368 
L 425.981818 -184.231833 
L 422.036364 -184.335753 
L 418.090909 -184.542122 
L 414.145455 -184.768958 
L 410.2 -184.938975 
L 406.254545 -184.986791 
L 402.309091 -184.880442 
L 398.363636 -184.626142 
L 394.418182 -184.236195 
L 390.472727 -183.720269 
L 386.527273 -183.082586 
L 382.581818 -182.324298 
L 378.636364 -181.472123 
L 374.690909 -180.575061 
L 370.745455 -179.674759 
L 366.8 -178.800827 
L 362.854545 -177.97092 
L 358.909091 -177.192034 
L 354.963636 -176.441103 
L 351.018182 -175.675797 
L 347.072727 -174.845022 
L 343.127273 -173.886404 
L 339.181818 -172.72745 
L 335.236364 -171.305576 
L 331.290909 -169.644229 
L 327.345455 -167.793971 
L 323.4 -165.796417 
L 319.454545 -163.682097 
L 315.509091 -161.472192 
L 311.563636 -159.201997 
L 307.618182 -156.967481 
L 303.672727 -154.872539 
L 299.727273 -153.0112 
L 295.781818 -151.466262 
L 291.836364 -150.31153 
L 287.890909 -149.586383 
L 283.945455 -149.266079 
L 280 -149.312166 
L 276.054545 -149.675706 
L 272.109091 -150.296619 
L 268.163636 -151.106546 
L 264.218182 -152.023551 
L 260.272727 -152.949923 
L 256.327273 -153.779947 
L 252.381818 -154.397 
L 248.436364 -154.673548 
L 244.490909 -154.482137 
L 240.545455 -153.806292 
L 236.6 -152.716604 
L 232.654545 -151.278151 
L 228.709091 -149.544876 
L 224.763636 -147.560233 
L 220.818182 -145.365296 
L 216.872727 -143.030967 
L 212.927273 -140.640166 
L 208.981818 -138.267152 
L 205.036364 -135.974953 
L 201.090909 -133.816734 
L 197.145455 -131.834221 
L 193.2 -130.03739 
L 189.254545 -128.422785 
L 185.309091 -126.977598 
L 181.363636 -125.677932 
L 177.418182 -124.49092 
L 173.472727 -123.390156 
L 169.527273 -122.376963 
L 165.581818 -121.452363 
L 161.636364 -120.607259 
L 157.690909 -119.821274 
L 153.745455 -119.065701 
L 149.8 -118.327873 
L 145.854545 -117.625859 
L 141.909091 -116.97308 
L 137.963636 -116.371005 
L 134.018182 -115.809061 
L 130.072727 -115.268748 
L 126.127273 -114.738512 
L 122.181818 -114.215808 
L 118.236364 -113.694198 
L 114.290909 -113.161797 
L 110.345455 -112.604085 
L 106.4 -112.012486 
L 102.454545 -111.414794 
L 98.509091 -110.870986 
L 94.563636 -110.452926 
L 90.618182 -110.237167 
L 86.672727 -110.297291 
L 82.727273 -110.699774 
L 78.781818 -111.51131 
L 74.836364 -112.768668 
L 70.890909 -114.465947 
L 66.945455 -116.563255 
L 63 -118.999571 
z
" style="stroke: #000000; stroke-opacity: 0.05"/>
    </defs>
    <g clip-path="url(#p5e8d582696)">
     <use xlink:href="#mf6ed13d672" x="0" y="288" style="fill-opacity: 0.05; stroke: #000000; stroke-opacity: 0.05"/>
    </g>
   </g>
   <g id="PathCollection_2">
    <defs>
     <path id="m35975f5599" d="M 0 2.738613 
C 0.726289 2.738613 1.422928 2.450055 1.936492 1.936492 
C 2.450055 1.422928 2.738613 0.726289 2.738613 0 
C 2.738613 -0.726289 2.450055 -1.422928 1.936492 -1.936492 
C 1.422928 -2.450055 0.726289 -2.738613 0 -2.738613 
C -0.726289 -2.738613 -1.422928 -2.450055 -1.936492 -1.936492 
C -2.450055 -1.422928 -2.738613 -0.726289 -2.738613 0 
C -2.738613 0.726289 -2.450055 1.422928 -1.936492 1.936492 
C -1.422928 2.450055 -0.726289 2.738613 0 2.738613 
z
" style="stroke: #0000ff"/>
    </defs>
    <g clip-path="url(#p5e8d582696)">
     <use xlink:href="#m35975f5599" x="63" y="210.619734" style="fill: #0000ff; stroke: #0000ff"/>
     <use xlink:href="#m35975f5599" x="76.02" y="196.826788" style="fill: #0000ff; stroke: #0000ff"/>
     <use xlink:href="#m35975f5599" x="89.04" y="196.568235" style="fill: #0000ff; stroke: #0000ff"/>
     <use xlink:href="#m35975f5599" x="102.06" y="202.13074" style="fill: #0000ff; stroke: #0000ff"/>
     <use xlink:href="#m35975f5599" x="115.08" y="195.592663" style="fill: #0000ff; stroke: #0000ff"/>
     <use xlink:href="#m35975f5599" x="128.1" y="187.513673" style="fill: #0000ff; stroke: #0000ff"/>
     <use xlink:href="#m35975f5599" x="141.12" y="210.790783" style="fill: #0000ff; stroke: #0000ff"/>
     <use xlink:href="#m35975f5599" x="154.14" y="175.753324" style="fill: #0000ff; stroke: #0000ff"/>
     <use xlink:href="#m35975f5599" x="167.16" y="186.850838" style="fill: #0000ff; stroke: #0000ff"/>
     <use xlink:href="#m35975f5599" x="180.18" y="174.350777" style="fill: #0000ff; stroke: #0000ff"/>
     <use xlink:href="#m35975f5599" x="193.2" y="195.910379" style="fill: #0000ff; stroke: #0000ff"/>
     <use xlink:href="#m35975f5599" x="206.22" y="185.445281" style="fill: #0000ff; stroke: #0000ff"/>
     <use xlink:href="#m35975f5599" x="219.24" y="170.07877" style="fill: #0000ff; stroke: #0000ff"/>
     <use xlink:href="#m35975f5599" x="232.26" y="145.089538" style="fill: #0000ff; stroke: #0000ff"/>
     <use xlink:href="#m35975f5599" x="245.28" y="143.500936" style="fill: #0000ff; stroke: #0000ff"/>
     <use xlink:href="#m35975f5599" x="258.3" y="92.733112" style="fill: #0000ff; stroke: #0000ff"/>
     <use xlink:href="#m35975f5599" x="271.32" y="214.394163" style="fill: #0000ff; stroke: #0000ff"/>
     <use xlink:href="#m35975f5599" x="284.34" y="174.14637" style="fill: #0000ff; stroke: #0000ff"/>
     <use xlink:href="#m35975f5599" x="297.36" y="179.639418" style="fill: #0000ff; stroke: #0000ff"/>
     <use xlink:href="#m35975f5599" x="310.38" y="137.142636" style="fill: #0000ff; stroke: #0000ff"/>
     <use xlink:href="#m35975f5599" x="323.4" y="131.741769" style="fill: #0000ff; stroke: #0000ff"/>
     <use xlink:href="#m35975f5599" x="336.42" y="127.464176" style="fill: #0000ff; stroke: #0000ff"/>
     <use xlink:href="#m35975f5599" x="349.44" y="102.885085" style="fill: #0000ff; stroke: #0000ff"/>
     <use xlink:href="#m35975f5599" x="362.46" y="187.808618" style="fill: #0000ff; stroke: #0000ff"/>
     <use xlink:href="#m35975f5599" x="375.48" y="118.790584" style="fill: #0000ff; stroke: #0000ff"/>
     <use xlink:href="#m35975f5599" x="388.5" y="107.744434" style="fill: #0000ff; stroke: #0000ff"/>
     <use xlink:href="#m35975f5599" x="401.52" y="135.334409" style="fill: #0000ff; stroke: #0000ff"/>
     <use xlink:href="#m35975f5599" x="414.54" y="122.540123" style="fill: #0000ff; stroke: #0000ff"/>
     <use xlink:href="#m35975f5599" x="427.56" y="123.500273" style="fill: #0000ff; stroke: #0000ff"/>
     <use xlink:href="#m35975f5599" x="440.58" y="120.996294" style="fill: #0000ff; stroke: #0000ff"/>
     <use xlink:href="#m35975f5599" x="453.6" y="141.890844" style="fill: #0000ff; stroke: #0000ff"/>
    </g>
   </g>
   <g id="matplotlib.axis_1">
    <g id="xtick_1">
     <g id="line2d_1">
      <defs>
       <path id="m7a283535b4" d="M 0 0 
L 0 3.5 
" style="stroke: #000000; stroke-width: 0.8"/>
      </defs>
      <g>
       <use xlink:href="#m7a283535b4" x="63" y="252" style="stroke: #000000; stroke-width: 0.8"/>
      </g>
     </g>
     <g id="text_1">
      <!--                            8 weeks post-conception -->
      <g transform="translate(-42.163281 266.598437)scale(0.1 -0.1)">
       <defs>
        <path id="DejaVuSans-20" transform="scale(0.015625)"/>
        <path id="DejaVuSans-38" d="M 2034 2216 
Q 1584 2216 1326 1975 
Q 1069 1734 1069 1313 
Q 1069 891 1326 650 
Q 1584 409 2034 409 
Q 2484 409 2743 651 
Q 3003 894 3003 1313 
Q 3003 1734 2745 1975 
Q 2488 2216 2034 2216 
z
M 1403 2484 
Q 997 2584 770 2862 
Q 544 3141 544 3541 
Q 544 4100 942 4425 
Q 1341 4750 2034 4750 
Q 2731 4750 3128 4425 
Q 3525 4100 3525 3541 
Q 3525 3141 3298 2862 
Q 3072 2584 2669 2484 
Q 3125 2378 3379 2068 
Q 3634 1759 3634 1313 
Q 3634 634 3220 271 
Q 2806 -91 2034 -91 
Q 1263 -91 848 271 
Q 434 634 434 1313 
Q 434 1759 690 2068 
Q 947 2378 1403 2484 
z
M 1172 3481 
Q 1172 3119 1398 2916 
Q 1625 2713 2034 2713 
Q 2441 2713 2670 2916 
Q 2900 3119 2900 3481 
Q 2900 3844 2670 4047 
Q 2441 4250 2034 4250 
Q 1625 4250 1398 4047 
Q 1172 3844 1172 3481 
z
" transform="scale(0.015625)"/>
        <path id="DejaVuSans-77" d="M 269 3500 
L 844 3500 
L 1563 769 
L 2278 3500 
L 2956 3500 
L 3675 769 
L 4391 3500 
L 4966 3500 
L 4050 0 
L 3372 0 
L 2619 2869 
L 1863 0 
L 1184 0 
L 269 3500 
z
" transform="scale(0.015625)"/>
        <path id="DejaVuSans-65" d="M 3597 1894 
L 3597 1613 
L 953 1613 
Q 991 1019 1311 708 
Q 1631 397 2203 397 
Q 2534 397 2845 478 
Q 3156 559 3463 722 
L 3463 178 
Q 3153 47 2828 -22 
Q 2503 -91 2169 -91 
Q 1331 -91 842 396 
Q 353 884 353 1716 
Q 353 2575 817 3079 
Q 1281 3584 2069 3584 
Q 2775 3584 3186 3129 
Q 3597 2675 3597 1894 
z
M 3022 2063 
Q 3016 2534 2758 2815 
Q 2500 3097 2075 3097 
Q 1594 3097 1305 2825 
Q 1016 2553 972 2059 
L 3022 2063 
z
" transform="scale(0.015625)"/>
        <path id="DejaVuSans-6b" d="M 581 4863 
L 1159 4863 
L 1159 1991 
L 2875 3500 
L 3609 3500 
L 1753 1863 
L 3688 0 
L 2938 0 
L 1159 1709 
L 1159 0 
L 581 0 
L 581 4863 
z
" transform="scale(0.015625)"/>
        <path id="DejaVuSans-73" d="M 2834 3397 
L 2834 2853 
Q 2591 2978 2328 3040 
Q 2066 3103 1784 3103 
Q 1356 3103 1142 2972 
Q 928 2841 928 2578 
Q 928 2378 1081 2264 
Q 1234 2150 1697 2047 
L 1894 2003 
Q 2506 1872 2764 1633 
Q 3022 1394 3022 966 
Q 3022 478 2636 193 
Q 2250 -91 1575 -91 
Q 1294 -91 989 -36 
Q 684 19 347 128 
L 347 722 
Q 666 556 975 473 
Q 1284 391 1588 391 
Q 1994 391 2212 530 
Q 2431 669 2431 922 
Q 2431 1156 2273 1281 
Q 2116 1406 1581 1522 
L 1381 1569 
Q 847 1681 609 1914 
Q 372 2147 372 2553 
Q 372 3047 722 3315 
Q 1072 3584 1716 3584 
Q 2034 3584 2315 3537 
Q 2597 3491 2834 3397 
z
" transform="scale(0.015625)"/>
        <path id="DejaVuSans-70" d="M 1159 525 
L 1159 -1331 
L 581 -1331 
L 581 3500 
L 1159 3500 
L 1159 2969 
Q 1341 3281 1617 3432 
Q 1894 3584 2278 3584 
Q 2916 3584 3314 3078 
Q 3713 2572 3713 1747 
Q 3713 922 3314 415 
Q 2916 -91 2278 -91 
Q 1894 -91 1617 61 
Q 1341 213 1159 525 
z
M 3116 1747 
Q 3116 2381 2855 2742 
Q 2594 3103 2138 3103 
Q 1681 3103 1420 2742 
Q 1159 2381 1159 1747 
Q 1159 1113 1420 752 
Q 1681 391 2138 391 
Q 2594 391 2855 752 
Q 3116 1113 3116 1747 
z
" transform="scale(0.015625)"/>
        <path id="DejaVuSans-6f" d="M 1959 3097 
Q 1497 3097 1228 2736 
Q 959 2375 959 1747 
Q 959 1119 1226 758 
Q 1494 397 1959 397 
Q 2419 397 2687 759 
Q 2956 1122 2956 1747 
Q 2956 2369 2687 2733 
Q 2419 3097 1959 3097 
z
M 1959 3584 
Q 2709 3584 3137 3096 
Q 3566 2609 3566 1747 
Q 3566 888 3137 398 
Q 2709 -91 1959 -91 
Q 1206 -91 779 398 
Q 353 888 353 1747 
Q 353 2609 779 3096 
Q 1206 3584 1959 3584 
z
" transform="scale(0.015625)"/>
        <path id="DejaVuSans-74" d="M 1172 4494 
L 1172 3500 
L 2356 3500 
L 2356 3053 
L 1172 3053 
L 1172 1153 
Q 1172 725 1289 603 
Q 1406 481 1766 481 
L 2356 481 
L 2356 0 
L 1766 0 
Q 1100 0 847 248 
Q 594 497 594 1153 
L 594 3053 
L 172 3053 
L 172 3500 
L 594 3500 
L 594 4494 
L 1172 4494 
z
" transform="scale(0.015625)"/>
        <path id="DejaVuSans-2d" d="M 313 2009 
L 1997 2009 
L 1997 1497 
L 313 1497 
L 313 2009 
z
" transform="scale(0.015625)"/>
        <path id="DejaVuSans-63" d="M 3122 3366 
L 3122 2828 
Q 2878 2963 2633 3030 
Q 2388 3097 2138 3097 
Q 1578 3097 1268 2742 
Q 959 2388 959 1747 
Q 959 1106 1268 751 
Q 1578 397 2138 397 
Q 2388 397 2633 464 
Q 2878 531 3122 666 
L 3122 134 
Q 2881 22 2623 -34 
Q 2366 -91 2075 -91 
Q 1284 -91 818 406 
Q 353 903 353 1747 
Q 353 2603 823 3093 
Q 1294 3584 2113 3584 
Q 2378 3584 2631 3529 
Q 2884 3475 3122 3366 
z
" transform="scale(0.015625)"/>
        <path id="DejaVuSans-6e" d="M 3513 2113 
L 3513 0 
L 2938 0 
L 2938 2094 
Q 2938 2591 2744 2837 
Q 2550 3084 2163 3084 
Q 1697 3084 1428 2787 
Q 1159 2491 1159 1978 
L 1159 0 
L 581 0 
L 581 3500 
L 1159 3500 
L 1159 2956 
Q 1366 3272 1645 3428 
Q 1925 3584 2291 3584 
Q 2894 3584 3203 3211 
Q 3513 2838 3513 2113 
z
" transform="scale(0.015625)"/>
        <path id="DejaVuSans-69" d="M 603 3500 
L 1178 3500 
L 1178 0 
L 603 0 
L 603 3500 
z
M 603 4863 
L 1178 4863 
L 1178 4134 
L 603 4134 
L 603 4863 
z
" transform="scale(0.015625)"/>
       </defs>
       <use xlink:href="#DejaVuSans-20"/>
       <use xlink:href="#DejaVuSans-20" x="31.787109"/>
       <use xlink:href="#DejaVuSans-20" x="63.574219"/>
       <use xlink:href="#DejaVuSans-20" x="95.361328"/>
       <use xlink:href="#DejaVuSans-20" x="127.148438"/>
       <use xlink:href="#DejaVuSans-20" x="158.935547"/>
       <use xlink:href="#DejaVuSans-20" x="190.722656"/>
       <use xlink:href="#DejaVuSans-20" x="222.509766"/>
       <use xlink:href="#DejaVuSans-20" x="254.296875"/>
       <use xlink:href="#DejaVuSans-20" x="286.083984"/>
       <use xlink:href="#DejaVuSans-20" x="317.871094"/>
       <use xlink:href="#DejaVuSans-20" x="349.658203"/>
       <use xlink:href="#DejaVuSans-20" x="381.445312"/>
       <use xlink:href="#DejaVuSans-20" x="413.232422"/>
       <use xlink:href="#DejaVuSans-20" x="445.019531"/>
       <use xlink:href="#DejaVuSans-20" x="476.806641"/>
       <use xlink:href="#DejaVuSans-20" x="508.59375"/>
       <use xlink:href="#DejaVuSans-20" x="540.380859"/>
       <use xlink:href="#DejaVuSans-20" x="572.167969"/>
       <use xlink:href="#DejaVuSans-20" x="603.955078"/>
       <use xlink:href="#DejaVuSans-20" x="635.742188"/>
       <use xlink:href="#DejaVuSans-20" x="667.529297"/>
       <use xlink:href="#DejaVuSans-20" x="699.316406"/>
       <use xlink:href="#DejaVuSans-20" x="731.103516"/>
       <use xlink:href="#DejaVuSans-20" x="762.890625"/>
       <use xlink:href="#DejaVuSans-20" x="794.677734"/>
       <use xlink:href="#DejaVuSans-20" x="826.464844"/>
       <use xlink:href="#DejaVuSans-38" x="858.251953"/>
       <use xlink:href="#DejaVuSans-20" x="921.875"/>
       <use xlink:href="#DejaVuSans-77" x="953.662109"/>
       <use xlink:href="#DejaVuSans-65" x="1035.449219"/>
       <use xlink:href="#DejaVuSans-65" x="1096.972656"/>
       <use xlink:href="#DejaVuSans-6b" x="1158.496094"/>
       <use xlink:href="#DejaVuSans-73" x="1216.40625"/>
       <use xlink:href="#DejaVuSans-20" x="1268.505859"/>
       <use xlink:href="#DejaVuSans-70" x="1300.292969"/>
       <use xlink:href="#DejaVuSans-6f" x="1363.769531"/>
       <use xlink:href="#DejaVuSans-73" x="1424.951172"/>
       <use xlink:href="#DejaVuSans-74" x="1477.050781"/>
       <use xlink:href="#DejaVuSans-2d" x="1516.259766"/>
       <use xlink:href="#DejaVuSans-63" x="1552.34375"/>
       <use xlink:href="#DejaVuSans-6f" x="1607.324219"/>
       <use xlink:href="#DejaVuSans-6e" x="1668.505859"/>
       <use xlink:href="#DejaVuSans-63" x="1731.884766"/>
       <use xlink:href="#DejaVuSans-65" x="1786.865234"/>
       <use xlink:href="#DejaVuSans-70" x="1848.388672"/>
       <use xlink:href="#DejaVuSans-74" x="1911.865234"/>
       <use xlink:href="#DejaVuSans-69" x="1951.074219"/>
       <use xlink:href="#DejaVuSans-6f" x="1978.857422"/>
       <use xlink:href="#DejaVuSans-6e" x="2040.039062"/>
      </g>
     </g>
    </g>
    <g id="xtick_2">
     <g id="line2d_2">
      <g>
       <use xlink:href="#m7a283535b4" x="219.24" y="252" style="stroke: #000000; stroke-width: 0.8"/>
      </g>
     </g>
     <g id="text_2">
      <!-- birth -->
      <g transform="translate(207.492344 266.598437)scale(0.1 -0.1)">
       <defs>
        <path id="DejaVuSans-62" d="M 3116 1747 
Q 3116 2381 2855 2742 
Q 2594 3103 2138 3103 
Q 1681 3103 1420 2742 
Q 1159 2381 1159 1747 
Q 1159 1113 1420 752 
Q 1681 391 2138 391 
Q 2594 391 2855 752 
Q 3116 1113 3116 1747 
z
M 1159 2969 
Q 1341 3281 1617 3432 
Q 1894 3584 2278 3584 
Q 2916 3584 3314 3078 
Q 3713 2572 3713 1747 
Q 3713 922 3314 415 
Q 2916 -91 2278 -91 
Q 1894 -91 1617 61 
Q 1341 213 1159 525 
L 1159 0 
L 581 0 
L 581 4863 
L 1159 4863 
L 1159 2969 
z
" transform="scale(0.015625)"/>
        <path id="DejaVuSans-72" d="M 2631 2963 
Q 2534 3019 2420 3045 
Q 2306 3072 2169 3072 
Q 1681 3072 1420 2755 
Q 1159 2438 1159 1844 
L 1159 0 
L 581 0 
L 581 3500 
L 1159 3500 
L 1159 2956 
Q 1341 3275 1631 3429 
Q 1922 3584 2338 3584 
Q 2397 3584 2469 3576 
Q 2541 3569 2628 3553 
L 2631 2963 
z
" transform="scale(0.015625)"/>
        <path id="DejaVuSans-68" d="M 3513 2113 
L 3513 0 
L 2938 0 
L 2938 2094 
Q 2938 2591 2744 2837 
Q 2550 3084 2163 3084 
Q 1697 3084 1428 2787 
Q 1159 2491 1159 1978 
L 1159 0 
L 581 0 
L 581 4863 
L 1159 4863 
L 1159 2956 
Q 1366 3272 1645 3428 
Q 1925 3584 2291 3584 
Q 2894 3584 3203 3211 
Q 3513 2838 3513 2113 
z
" transform="scale(0.015625)"/>
       </defs>
       <use xlink:href="#DejaVuSans-62"/>
       <use xlink:href="#DejaVuSans-69" x="63.476562"/>
       <use xlink:href="#DejaVuSans-72" x="91.259766"/>
       <use xlink:href="#DejaVuSans-74" x="132.373047"/>
       <use xlink:href="#DejaVuSans-68" x="171.582031"/>
      </g>
     </g>
    </g>
    <g id="xtick_3">
     <g id="line2d_3">
      <g>
       <use xlink:href="#m7a283535b4" x="258.3" y="252" style="stroke: #000000; stroke-width: 0.8"/>
      </g>
     </g>
     <g id="text_3">
      <!-- 1 year -->
      <g transform="translate(242.374219 266.598437)scale(0.1 -0.1)">
       <defs>
        <path id="DejaVuSans-31" d="M 794 531 
L 1825 531 
L 1825 4091 
L 703 3866 
L 703 4441 
L 1819 4666 
L 2450 4666 
L 2450 531 
L 3481 531 
L 3481 0 
L 794 0 
L 794 531 
z
" transform="scale(0.015625)"/>
        <path id="DejaVuSans-79" d="M 2059 -325 
Q 1816 -950 1584 -1140 
Q 1353 -1331 966 -1331 
L 506 -1331 
L 506 -850 
L 844 -850 
Q 1081 -850 1212 -737 
Q 1344 -625 1503 -206 
L 1606 56 
L 191 3500 
L 800 3500 
L 1894 763 
L 2988 3500 
L 3597 3500 
L 2059 -325 
z
" transform="scale(0.015625)"/>
        <path id="DejaVuSans-61" d="M 2194 1759 
Q 1497 1759 1228 1600 
Q 959 1441 959 1056 
Q 959 750 1161 570 
Q 1363 391 1709 391 
Q 2188 391 2477 730 
Q 2766 1069 2766 1631 
L 2766 1759 
L 2194 1759 
z
M 3341 1997 
L 3341 0 
L 2766 0 
L 2766 531 
Q 2569 213 2275 61 
Q 1981 -91 1556 -91 
Q 1019 -91 701 211 
Q 384 513 384 1019 
Q 384 1609 779 1909 
Q 1175 2209 1959 2209 
L 2766 2209 
L 2766 2266 
Q 2766 2663 2505 2880 
Q 2244 3097 1772 3097 
Q 1472 3097 1187 3025 
Q 903 2953 641 2809 
L 641 3341 
Q 956 3463 1253 3523 
Q 1550 3584 1831 3584 
Q 2591 3584 2966 3190 
Q 3341 2797 3341 1997 
z
" transform="scale(0.015625)"/>
       </defs>
       <use xlink:href="#DejaVuSans-31"/>
       <use xlink:href="#DejaVuSans-20" x="63.623047"/>
       <use xlink:href="#DejaVuSans-79" x="95.410156"/>
       <use xlink:href="#DejaVuSans-65" x="154.589844"/>
       <use xlink:href="#DejaVuSans-61" x="216.113281"/>
       <use xlink:href="#DejaVuSans-72" x="277.392578"/>
      </g>
     </g>
    </g>
    <g id="xtick_4">
     <g id="line2d_4">
      <g>
       <use xlink:href="#m7a283535b4" x="336.42" y="252" style="stroke: #000000; stroke-width: 0.8"/>
      </g>
     </g>
     <g id="text_4">
      <!-- 13 years -->
      <g transform="translate(314.708281 266.598437)scale(0.1 -0.1)">
       <defs>
        <path id="DejaVuSans-33" d="M 2597 2516 
Q 3050 2419 3304 2112 
Q 3559 1806 3559 1356 
Q 3559 666 3084 287 
Q 2609 -91 1734 -91 
Q 1441 -91 1130 -33 
Q 819 25 488 141 
L 488 750 
Q 750 597 1062 519 
Q 1375 441 1716 441 
Q 2309 441 2620 675 
Q 2931 909 2931 1356 
Q 2931 1769 2642 2001 
Q 2353 2234 1838 2234 
L 1294 2234 
L 1294 2753 
L 1863 2753 
Q 2328 2753 2575 2939 
Q 2822 3125 2822 3475 
Q 2822 3834 2567 4026 
Q 2313 4219 1838 4219 
Q 1578 4219 1281 4162 
Q 984 4106 628 3988 
L 628 4550 
Q 988 4650 1302 4700 
Q 1616 4750 1894 4750 
Q 2613 4750 3031 4423 
Q 3450 4097 3450 3541 
Q 3450 3153 3228 2886 
Q 3006 2619 2597 2516 
z
" transform="scale(0.015625)"/>
       </defs>
       <use xlink:href="#DejaVuSans-31"/>
       <use xlink:href="#DejaVuSans-33" x="63.623047"/>
       <use xlink:href="#DejaVuSans-20" x="127.246094"/>
       <use xlink:href="#DejaVuSans-79" x="159.033203"/>
       <use xlink:href="#DejaVuSans-65" x="218.212891"/>
       <use xlink:href="#DejaVuSans-61" x="279.736328"/>
       <use xlink:href="#DejaVuSans-72" x="341.015625"/>
       <use xlink:href="#DejaVuSans-73" x="382.128906"/>
      </g>
     </g>
    </g>
    <g id="xtick_5">
     <g id="line2d_5">
      <g>
       <use xlink:href="#m7a283535b4" x="453.6" y="252" style="stroke: #000000; stroke-width: 0.8"/>
      </g>
     </g>
     <g id="text_5">
      <!-- 40 years -->
      <g transform="translate(431.888281 266.598437)scale(0.1 -0.1)">
       <defs>
        <path id="DejaVuSans-34" d="M 2419 4116 
L 825 1625 
L 2419 1625 
L 2419 4116 
z
M 2253 4666 
L 3047 4666 
L 3047 1625 
L 3713 1625 
L 3713 1100 
L 3047 1100 
L 3047 0 
L 2419 0 
L 2419 1100 
L 313 1100 
L 313 1709 
L 2253 4666 
z
" transform="scale(0.015625)"/>
        <path id="DejaVuSans-30" d="M 2034 4250 
Q 1547 4250 1301 3770 
Q 1056 3291 1056 2328 
Q 1056 1369 1301 889 
Q 1547 409 2034 409 
Q 2525 409 2770 889 
Q 3016 1369 3016 2328 
Q 3016 3291 2770 3770 
Q 2525 4250 2034 4250 
z
M 2034 4750 
Q 2819 4750 3233 4129 
Q 3647 3509 3647 2328 
Q 3647 1150 3233 529 
Q 2819 -91 2034 -91 
Q 1250 -91 836 529 
Q 422 1150 422 2328 
Q 422 3509 836 4129 
Q 1250 4750 2034 4750 
z
" transform="scale(0.015625)"/>
       </defs>
       <use xlink:href="#DejaVuSans-34"/>
       <use xlink:href="#DejaVuSans-30" x="63.623047"/>
       <use xlink:href="#DejaVuSans-20" x="127.246094"/>
       <use xlink:href="#DejaVuSans-79" x="159.033203"/>
       <use xlink:href="#DejaVuSans-65" x="218.212891"/>
       <use xlink:href="#DejaVuSans-61" x="279.736328"/>
       <use xlink:href="#DejaVuSans-72" x="341.015625"/>
       <use xlink:href="#DejaVuSans-73" x="382.128906"/>
      </g>
     </g>
    </g>
   </g>
   <g id="matplotlib.axis_2">
    <g id="ytick_1">
     <g id="line2d_6">
      <defs>
       <path id="m204c6d6b76" d="M 0 0 
L -3.5 0 
" style="stroke: #000000; stroke-width: 0.8"/>
      </defs>
      <g>
       <use xlink:href="#m204c6d6b76" x="63" y="244.173524" style="stroke: #000000; stroke-width: 0.8"/>
      </g>
     </g>
     <g id="text_6">
      <!-- 0.25 -->
      <g transform="translate(33.734375 247.972743)scale(0.1 -0.1)">
       <defs>
        <path id="DejaVuSans-2e" d="M 684 794 
L 1344 794 
L 1344 0 
L 684 0 
L 684 794 
z
" transform="scale(0.015625)"/>
        <path id="DejaVuSans-32" d="M 1228 531 
L 3431 531 
L 3431 0 
L 469 0 
L 469 531 
Q 828 903 1448 1529 
Q 2069 2156 2228 2338 
Q 2531 2678 2651 2914 
Q 2772 3150 2772 3378 
Q 2772 3750 2511 3984 
Q 2250 4219 1831 4219 
Q 1534 4219 1204 4116 
Q 875 4013 500 3803 
L 500 4441 
Q 881 4594 1212 4672 
Q 1544 4750 1819 4750 
Q 2544 4750 2975 4387 
Q 3406 4025 3406 3419 
Q 3406 3131 3298 2873 
Q 3191 2616 2906 2266 
Q 2828 2175 2409 1742 
Q 1991 1309 1228 531 
z
" transform="scale(0.015625)"/>
        <path id="DejaVuSans-35" d="M 691 4666 
L 3169 4666 
L 3169 4134 
L 1269 4134 
L 1269 2991 
Q 1406 3038 1543 3061 
Q 1681 3084 1819 3084 
Q 2600 3084 3056 2656 
Q 3513 2228 3513 1497 
Q 3513 744 3044 326 
Q 2575 -91 1722 -91 
Q 1428 -91 1123 -41 
Q 819 9 494 109 
L 494 744 
Q 775 591 1075 516 
Q 1375 441 1709 441 
Q 2250 441 2565 725 
Q 2881 1009 2881 1497 
Q 2881 1984 2565 2268 
Q 2250 2553 1709 2553 
Q 1456 2553 1204 2497 
Q 953 2441 691 2322 
L 691 4666 
z
" transform="scale(0.015625)"/>
       </defs>
       <use xlink:href="#DejaVuSans-30"/>
       <use xlink:href="#DejaVuSans-2e" x="63.623047"/>
       <use xlink:href="#DejaVuSans-32" x="95.410156"/>
       <use xlink:href="#DejaVuSans-35" x="159.033203"/>
      </g>
     </g>
    </g>
    <g id="ytick_2">
     <g id="line2d_7">
      <g>
       <use xlink:href="#m204c6d6b76" x="63" y="216.500358" style="stroke: #000000; stroke-width: 0.8"/>
      </g>
     </g>
     <g id="text_7">
      <!-- 0.50 -->
      <g transform="translate(33.734375 220.299577)scale(0.1 -0.1)">
       <use xlink:href="#DejaVuSans-30"/>
       <use xlink:href="#DejaVuSans-2e" x="63.623047"/>
       <use xlink:href="#DejaVuSans-35" x="95.410156"/>
       <use xlink:href="#DejaVuSans-30" x="159.033203"/>
      </g>
     </g>
    </g>
    <g id="ytick_3">
     <g id="line2d_8">
      <g>
       <use xlink:href="#m204c6d6b76" x="63" y="188.827191" style="stroke: #000000; stroke-width: 0.8"/>
      </g>
     </g>
     <g id="text_8">
      <!-- 0.75 -->
      <g transform="translate(33.734375 192.62641)scale(0.1 -0.1)">
       <defs>
        <path id="DejaVuSans-37" d="M 525 4666 
L 3525 4666 
L 3525 4397 
L 1831 0 
L 1172 0 
L 2766 4134 
L 525 4134 
L 525 4666 
z
" transform="scale(0.015625)"/>
       </defs>
       <use xlink:href="#DejaVuSans-30"/>
       <use xlink:href="#DejaVuSans-2e" x="63.623047"/>
       <use xlink:href="#DejaVuSans-37" x="95.410156"/>
       <use xlink:href="#DejaVuSans-35" x="159.033203"/>
      </g>
     </g>
    </g>
    <g id="ytick_4">
     <g id="line2d_9">
      <g>
       <use xlink:href="#m204c6d6b76" x="63" y="161.154025" style="stroke: #000000; stroke-width: 0.8"/>
      </g>
     </g>
     <g id="text_9">
      <!-- 1.00 -->
      <g transform="translate(33.734375 164.953244)scale(0.1 -0.1)">
       <use xlink:href="#DejaVuSans-31"/>
       <use xlink:href="#DejaVuSans-2e" x="63.623047"/>
       <use xlink:href="#DejaVuSans-30" x="95.410156"/>
       <use xlink:href="#DejaVuSans-30" x="159.033203"/>
      </g>
     </g>
    </g>
    <g id="ytick_5">
     <g id="line2d_10">
      <g>
       <use xlink:href="#m204c6d6b76" x="63" y="133.480858" style="stroke: #000000; stroke-width: 0.8"/>
      </g>
     </g>
     <g id="text_10">
      <!-- 1.25 -->
      <g transform="translate(33.734375 137.280077)scale(0.1 -0.1)">
       <use xlink:href="#DejaVuSans-31"/>
       <use xlink:href="#DejaVuSans-2e" x="63.623047"/>
       <use xlink:href="#DejaVuSans-32" x="95.410156"/>
       <use xlink:href="#DejaVuSans-35" x="159.033203"/>
      </g>
     </g>
    </g>
    <g id="ytick_6">
     <g id="line2d_11">
      <g>
       <use xlink:href="#m204c6d6b76" x="63" y="105.807692" style="stroke: #000000; stroke-width: 0.8"/>
      </g>
     </g>
     <g id="text_11">
      <!-- 1.50 -->
      <g transform="translate(33.734375 109.606911)scale(0.1 -0.1)">
       <use xlink:href="#DejaVuSans-31"/>
       <use xlink:href="#DejaVuSans-2e" x="63.623047"/>
       <use xlink:href="#DejaVuSans-35" x="95.410156"/>
       <use xlink:href="#DejaVuSans-30" x="159.033203"/>
      </g>
     </g>
    </g>
    <g id="ytick_7">
     <g id="line2d_12">
      <g>
       <use xlink:href="#m204c6d6b76" x="63" y="78.134525" style="stroke: #000000; stroke-width: 0.8"/>
      </g>
     </g>
     <g id="text_12">
      <!-- 1.75 -->
      <g transform="translate(33.734375 81.933744)scale(0.1 -0.1)">
       <use xlink:href="#DejaVuSans-31"/>
       <use xlink:href="#DejaVuSans-2e" x="63.623047"/>
       <use xlink:href="#DejaVuSans-37" x="95.410156"/>
       <use xlink:href="#DejaVuSans-35" x="159.033203"/>
      </g>
     </g>
    </g>
    <g id="text_13">
     <!-- Mean scaled gene-expression -->
     <g transform="translate(27.654687 217.408125)rotate(-90)scale(0.1 -0.1)">
      <defs>
       <path id="DejaVuSans-4d" d="M 628 4666 
L 1569 4666 
L 2759 1491 
L 3956 4666 
L 4897 4666 
L 4897 0 
L 4281 0 
L 4281 4097 
L 3078 897 
L 2444 897 
L 1241 4097 
L 1241 0 
L 628 0 
L 628 4666 
z
" transform="scale(0.015625)"/>
       <path id="DejaVuSans-6c" d="M 603 4863 
L 1178 4863 
L 1178 0 
L 603 0 
L 603 4863 
z
" transform="scale(0.015625)"/>
       <path id="DejaVuSans-64" d="M 2906 2969 
L 2906 4863 
L 3481 4863 
L 3481 0 
L 2906 0 
L 2906 525 
Q 2725 213 2448 61 
Q 2172 -91 1784 -91 
Q 1150 -91 751 415 
Q 353 922 353 1747 
Q 353 2572 751 3078 
Q 1150 3584 1784 3584 
Q 2172 3584 2448 3432 
Q 2725 3281 2906 2969 
z
M 947 1747 
Q 947 1113 1208 752 
Q 1469 391 1925 391 
Q 2381 391 2643 752 
Q 2906 1113 2906 1747 
Q 2906 2381 2643 2742 
Q 2381 3103 1925 3103 
Q 1469 3103 1208 2742 
Q 947 2381 947 1747 
z
" transform="scale(0.015625)"/>
       <path id="DejaVuSans-67" d="M 2906 1791 
Q 2906 2416 2648 2759 
Q 2391 3103 1925 3103 
Q 1463 3103 1205 2759 
Q 947 2416 947 1791 
Q 947 1169 1205 825 
Q 1463 481 1925 481 
Q 2391 481 2648 825 
Q 2906 1169 2906 1791 
z
M 3481 434 
Q 3481 -459 3084 -895 
Q 2688 -1331 1869 -1331 
Q 1566 -1331 1297 -1286 
Q 1028 -1241 775 -1147 
L 775 -588 
Q 1028 -725 1275 -790 
Q 1522 -856 1778 -856 
Q 2344 -856 2625 -561 
Q 2906 -266 2906 331 
L 2906 616 
Q 2728 306 2450 153 
Q 2172 0 1784 0 
Q 1141 0 747 490 
Q 353 981 353 1791 
Q 353 2603 747 3093 
Q 1141 3584 1784 3584 
Q 2172 3584 2450 3431 
Q 2728 3278 2906 2969 
L 2906 3500 
L 3481 3500 
L 3481 434 
z
" transform="scale(0.015625)"/>
       <path id="DejaVuSans-78" d="M 3513 3500 
L 2247 1797 
L 3578 0 
L 2900 0 
L 1881 1375 
L 863 0 
L 184 0 
L 1544 1831 
L 300 3500 
L 978 3500 
L 1906 2253 
L 2834 3500 
L 3513 3500 
z
" transform="scale(0.015625)"/>
      </defs>
      <use xlink:href="#DejaVuSans-4d"/>
      <use xlink:href="#DejaVuSans-65" x="86.279297"/>
      <use xlink:href="#DejaVuSans-61" x="147.802734"/>
      <use xlink:href="#DejaVuSans-6e" x="209.082031"/>
      <use xlink:href="#DejaVuSans-20" x="272.460938"/>
      <use xlink:href="#DejaVuSans-73" x="304.248047"/>
      <use xlink:href="#DejaVuSans-63" x="356.347656"/>
      <use xlink:href="#DejaVuSans-61" x="411.328125"/>
      <use xlink:href="#DejaVuSans-6c" x="472.607422"/>
      <use xlink:href="#DejaVuSans-65" x="500.390625"/>
      <use xlink:href="#DejaVuSans-64" x="561.914062"/>
      <use xlink:href="#DejaVuSans-20" x="625.390625"/>
      <use xlink:href="#DejaVuSans-67" x="657.177734"/>
      <use xlink:href="#DejaVuSans-65" x="720.654297"/>
      <use xlink:href="#DejaVuSans-6e" x="782.177734"/>
      <use xlink:href="#DejaVuSans-65" x="845.556641"/>
      <use xlink:href="#DejaVuSans-2d" x="907.080078"/>
      <use xlink:href="#DejaVuSans-65" x="943.164062"/>
      <use xlink:href="#DejaVuSans-78" x="1002.9375"/>
      <use xlink:href="#DejaVuSans-70" x="1062.117188"/>
      <use xlink:href="#DejaVuSans-72" x="1125.59375"/>
      <use xlink:href="#DejaVuSans-65" x="1164.457031"/>
      <use xlink:href="#DejaVuSans-73" x="1225.980469"/>
      <use xlink:href="#DejaVuSans-73" x="1278.080078"/>
      <use xlink:href="#DejaVuSans-69" x="1330.179688"/>
      <use xlink:href="#DejaVuSans-6f" x="1357.962891"/>
      <use xlink:href="#DejaVuSans-6e" x="1419.144531"/>
     </g>
    </g>
   </g>
   <g id="line2d_13">
    <path d="M 63 72.725991 
L 66.945455 72.420409 
L 70.890909 72.228264 
L 74.836364 72.182167 
L 78.781818 72.314727 
L 82.727273 72.658556 
L 86.672727 73.246222 
L 90.618182 74.098616 
L 94.563636 75.208783 
L 98.509091 76.565705 
L 102.454545 78.158364 
L 106.4 79.975746 
L 110.345455 82.006829 
L 114.290909 84.240476 
L 118.236364 86.665375 
L 122.181818 89.270199 
L 126.127273 92.043623 
L 130.072727 94.974319 
L 134.018182 98.051598 
L 137.963636 101.277586 
L 141.909091 104.666275 
L 145.854545 108.232107 
L 149.8 111.98952 
L 153.745455 115.952956 
L 157.690909 120.131586 
L 161.636364 124.481289 
L 165.581818 128.927001 
L 169.527273 133.393277 
L 173.472727 137.80467 
L 177.418182 142.085735 
L 181.363636 146.168072 
L 185.309091 150.023511 
L 189.254545 153.638132 
L 193.2 156.998032 
L 197.145455 160.089311 
L 201.090909 162.898069 
L 205.036364 165.423858 
L 208.981818 167.711369 
L 212.927273 169.814745 
L 216.872727 171.78813 
L 220.818182 173.68567 
L 224.763636 175.561408 
L 228.709091 177.455404 
L 232.654545 179.379431 
L 236.6 181.341848 
L 240.545455 183.351017 
L 244.490909 185.415297 
L 248.436364 187.542375 
L 252.381818 189.715384 
L 256.327273 191.886542 
L 260.272727 194.006094 
L 264.218182 196.024285 
L 268.163636 197.891359 
L 272.109091 199.558765 
L 276.054545 200.996789 
L 280 202.19068 
L 283.945455 203.126099 
L 287.890909 203.788704 
L 291.836364 204.164158 
L 295.781818 204.242378 
L 299.727273 204.04859 
L 303.672727 203.625477 
L 307.618182 203.015844 
L 311.563636 202.262499 
L 315.509091 201.408247 
L 319.454545 200.494159 
L 323.4 199.55301 
L 327.345455 198.615105 
L 331.290909 197.71075 
L 335.236364 196.870248 
L 339.181818 196.123891 
L 343.127273 195.491019 
L 347.072727 194.960062 
L 351.018182 194.514035 
L 354.963636 194.135955 
L 358.909091 193.808838 
L 362.854545 193.515833 
L 366.8 193.251002 
L 370.745455 193.027199 
L 374.690909 192.859135 
L 378.636364 192.761522 
L 382.581818 192.749069 
L 386.527273 192.836061 
L 390.472727 193.025404 
L 394.418182 193.307726 
L 398.363636 193.673042 
L 402.309091 194.111367 
L 406.254545 194.612717 
L 410.2 195.167281 
L 414.145455 195.767398 
L 418.090909 196.406872 
L 422.036364 197.079534 
L 425.981818 197.779218 
L 429.927273 198.499753 
L 433.872727 199.23558 
L 437.818182 199.98531 
L 441.763636 200.749302 
L 445.709091 201.527923 
L 449.654545 202.321538 
L 453.6 203.130513 
" clip-path="url(#p5e8d582696)" style="fill: none; stroke: #ffa500; stroke-width: 1.5; stroke-linecap: square"/>
   </g>
   <g id="line2d_14">
    <path d="M 63 101.008346 
L 66.945455 98.082911 
L 70.890909 95.555705 
L 74.836364 93.511598 
L 78.781818 92.019114 
L 82.727273 91.120478 
L 86.672727 90.824855 
L 90.618182 91.103449 
L 94.563636 91.892316 
L 98.509091 93.116872 
L 102.454545 94.700225 
L 106.4 96.569119 
L 110.345455 98.659482 
L 114.290909 100.93173 
L 118.236364 103.373814 
L 122.181818 105.978234 
L 126.127273 108.735452 
L 130.072727 111.631716 
L 134.018182 114.651167 
L 137.963636 117.803103 
L 141.909091 121.119042 
L 145.854545 124.625001 
L 149.8 128.337684 
L 153.745455 132.264548 
L 157.690909 136.403345 
L 161.636364 140.713812 
L 165.581818 145.132216 
L 169.527273 149.587941 
L 173.472727 154.001639 
L 177.418182 158.286138 
L 181.363636 162.360688 
L 185.309091 166.204002 
L 189.254545 169.813257 
L 193.2 173.178705 
L 197.145455 176.282021 
L 201.090909 179.097651 
L 205.036364 181.616195 
L 208.981818 183.892764 
L 212.927273 185.99228 
L 216.872727 187.972033 
L 220.818182 189.880625 
L 224.763636 191.759837 
L 228.709091 193.644127 
L 232.654545 195.557394 
L 236.6 197.517645 
L 240.545455 199.534772 
L 244.490909 201.610049 
L 248.436364 203.73826 
L 252.381818 205.900607 
L 256.327273 208.062214 
L 260.272727 210.181765 
L 264.218182 212.209507 
L 268.163636 214.087245 
L 272.109091 215.753517 
L 276.054545 217.180545 
L 280 218.366478 
L 283.945455 219.304062 
L 287.890909 219.977427 
L 291.836364 220.362587 
L 295.781818 220.437332 
L 299.727273 220.232493 
L 303.672727 219.803012 
L 307.618182 219.197239 
L 311.563636 218.454836 
L 315.509091 217.60783 
L 319.454545 216.686869 
L 323.4 215.733682 
L 327.345455 214.79023 
L 331.290909 213.891241 
L 335.236364 213.062864 
L 339.181818 212.324294 
L 343.127273 211.687988 
L 347.072727 211.154726 
L 351.018182 210.71925 
L 354.963636 210.368478 
L 358.909091 210.080597 
L 362.854545 209.827425 
L 366.8 209.599166 
L 370.745455 209.420094 
L 374.690909 209.311902 
L 378.636364 209.287039 
L 382.581818 209.348638 
L 386.527273 209.493458 
L 390.472727 209.717234 
L 394.418182 210.015761 
L 398.363636 210.381481 
L 402.309091 210.802621 
L 406.254545 211.265371 
L 410.2 211.760655 
L 414.145455 212.309259 
L 418.090909 212.958039 
L 422.036364 213.763068 
L 425.981818 214.78405 
L 429.927273 216.078386 
L 433.872727 217.697502 
L 437.818182 219.689696 
L 441.763636 222.078733 
L 445.709091 224.855364 
L 449.654545 227.98404 
L 453.6 231.412868 
" clip-path="url(#p5e8d582696)" style="fill: none; stroke: #ffa500; stroke-width: 0.4; stroke-linecap: square"/>
   </g>
   <g id="line2d_15">
    <path d="M 63 44.443636 
L 66.945455 46.757907 
L 70.890909 48.900823 
L 74.836364 50.852736 
L 78.781818 52.610341 
L 82.727273 54.196634 
L 86.672727 55.667589 
L 90.618182 57.093784 
L 94.563636 58.525249 
L 98.509091 60.014537 
L 102.454545 61.616503 
L 106.4 63.382372 
L 110.345455 65.354175 
L 114.290909 67.549222 
L 118.236364 69.956936 
L 122.181818 72.562165 
L 126.127273 75.351793 
L 130.072727 78.316921 
L 134.018182 81.452029 
L 137.963636 84.752069 
L 141.909091 88.213509 
L 145.854545 91.839213 
L 149.8 95.641356 
L 153.745455 99.641364 
L 157.690909 103.859827 
L 161.636364 108.248766 
L 165.581818 112.721786 
L 169.527273 117.198612 
L 173.472727 121.607701 
L 177.418182 125.885331 
L 181.363636 129.975456 
L 185.309091 133.84302 
L 189.254545 137.463006 
L 193.2 140.81736 
L 197.145455 143.896601 
L 201.090909 146.698486 
L 205.036364 149.231521 
L 208.981818 151.529974 
L 212.927273 153.637209 
L 216.872727 155.604228 
L 220.818182 157.490716 
L 224.763636 159.36298 
L 228.709091 161.266682 
L 232.654545 163.201467 
L 236.6 165.16605 
L 240.545455 167.167261 
L 244.490909 169.220546 
L 248.436364 171.34649 
L 252.381818 173.530162 
L 256.327273 175.710871 
L 260.272727 177.830423 
L 264.218182 179.839062 
L 268.163636 181.695474 
L 272.109091 183.364013 
L 276.054545 184.813033 
L 280 186.014883 
L 283.945455 186.948135 
L 287.890909 187.599982 
L 291.836364 187.965729 
L 295.781818 188.047423 
L 299.727273 187.864687 
L 303.672727 187.447941 
L 307.618182 186.834449 
L 311.563636 186.070162 
L 315.509091 185.208665 
L 319.454545 184.301449 
L 323.4 183.372337 
L 327.345455 182.43998 
L 331.290909 181.530259 
L 335.236364 180.677632 
L 339.181818 179.923488 
L 343.127273 179.29405 
L 347.072727 178.765397 
L 351.018182 178.30882 
L 354.963636 177.903432 
L 358.909091 177.537079 
L 362.854545 177.204241 
L 366.8 176.902839 
L 370.745455 176.634305 
L 374.690909 176.406369 
L 378.636364 176.236004 
L 382.581818 176.1495 
L 386.527273 176.178663 
L 390.472727 176.333575 
L 394.418182 176.599691 
L 398.363636 176.964603 
L 402.309091 177.420113 
L 406.254545 177.960064 
L 410.2 178.573907 
L 414.145455 179.225537 
L 418.090909 179.855704 
L 422.036364 180.396001 
L 425.981818 180.774385 
L 429.927273 180.921119 
L 433.872727 180.773658 
L 437.818182 180.280923 
L 441.763636 179.419871 
L 445.709091 178.200482 
L 449.654545 176.659036 
L 453.6 174.848158 
" clip-path="url(#p5e8d582696)" style="fill: none; stroke: #ffa500; stroke-width: 0.4; stroke-linecap: square"/>
   </g>
   <g id="line2d_16">
    <path d="M 63 205.558396 
L 66.945455 204.608272 
L 70.890909 203.687264 
L 74.836364 202.801902 
L 78.781818 201.958716 
L 82.727273 201.164234 
L 86.672727 200.424971 
L 90.618182 199.743396 
L 94.563636 199.112325 
L 98.509091 198.523167 
L 102.454545 197.96733 
L 106.4 197.436224 
L 110.345455 196.92125 
L 114.290909 196.413433 
L 118.236364 195.903246 
L 122.181818 195.381113 
L 126.127273 194.837462 
L 130.072727 194.262719 
L 134.018182 193.647657 
L 137.963636 192.989993 
L 141.909091 192.293879 
L 145.854545 191.563709 
L 149.8 190.803877 
L 153.745455 190.018776 
L 157.690909 189.211714 
L 161.636364 188.375012 
L 165.581818 187.49461 
L 169.527273 186.556372 
L 173.472727 185.546158 
L 177.418182 184.449833 
L 181.363636 183.252755 
L 185.309091 181.937417 
L 189.254545 180.485293 
L 193.2 178.877859 
L 197.145455 177.096588 
L 201.090909 175.122958 
L 205.036364 172.955373 
L 208.981818 170.649031 
L 212.927273 168.271028 
L 216.872727 165.888457 
L 220.818182 163.568414 
L 224.763636 161.377968 
L 228.709091 159.380778 
L 232.654545 157.633596 
L 236.6 156.192344 
L 240.545455 155.112942 
L 244.490909 154.451311 
L 248.436364 154.261365 
L 252.381818 154.52413 
L 256.327273 155.128837 
L 260.272727 155.958861 
L 264.218182 156.897579 
L 268.163636 157.828367 
L 272.109091 158.636829 
L 276.054545 159.243529 
L 280 159.596781 
L 283.945455 159.645668 
L 287.890909 159.339271 
L 291.836364 158.626671 
L 295.781818 157.467449 
L 299.727273 155.908224 
L 303.672727 154.038654 
L 307.618182 151.948702 
L 311.563636 149.72833 
L 315.509091 147.4675 
L 319.454545 145.248711 
L 323.4 143.118831 
L 327.345455 141.114108 
L 331.290909 139.270786 
L 335.236364 137.625111 
L 339.181818 136.213303 
L 343.127273 135.04991 
L 347.072727 134.088312 
L 351.018182 133.271176 
L 354.963636 132.541168 
L 358.909091 131.840954 
L 362.854545 131.113557 
L 366.8 130.330922 
L 370.745455 129.514809 
L 374.690909 128.691898 
L 378.636364 127.888875 
L 382.581818 127.13242 
L 386.527273 126.448881 
L 390.472727 125.855705 
L 394.418182 125.360726 
L 398.363636 124.971302 
L 402.309091 124.694789 
L 406.254545 124.538544 
L 410.2 124.509735 
L 414.145455 124.613166 
L 418.090909 124.852032 
L 422.036364 125.229498 
L 425.981818 125.748731 
L 429.927273 126.412895 
L 433.872727 127.223139 
L 437.818182 128.166795 
L 441.763636 129.225395 
L 445.709091 130.380451 
L 449.654545 131.613478 
L 453.6 132.905987 
" clip-path="url(#p5e8d582696)" style="fill: none; stroke: #0000ff; stroke-width: 1.5; stroke-linecap: square"/>
   </g>
   <g id="line2d_17">
    <path d="M 63 242.116364 
L 66.945455 237.779799 
L 70.890909 233.840475 
L 74.836364 230.372472 
L 78.781818 227.428742 
L 82.727273 225.028241 
L 86.672727 223.147234 
L 90.618182 221.72396 
L 94.563636 220.677576 
L 98.509091 219.91732 
L 102.454545 219.349454 
L 106.4 218.884933 
L 110.345455 218.446585 
L 114.290909 217.988664 
L 118.236364 217.500689 
L 122.181818 216.978034 
L 126.127273 216.413436 
L 130.072727 215.794186 
L 134.018182 215.104375 
L 137.963636 214.350991 
L 141.909091 213.560839 
L 145.854545 212.753277 
L 149.8 211.935626 
L 153.745455 211.103252 
L 157.690909 210.244702 
L 161.636364 209.357283 
L 165.581818 208.441583 
L 169.527273 207.489706 
L 173.472727 206.482472 
L 177.418182 205.390586 
L 181.363636 204.183442 
L 185.309091 202.852431 
L 189.254545 201.393371 
L 193.2 199.793108 
L 197.145455 198.027396 
L 201.090909 196.06265 
L 205.036364 193.885699 
L 208.981818 191.565215 
L 212.927273 189.182222 
L 216.872727 186.807882 
L 220.818182 184.502124 
L 224.763636 182.316169 
L 228.709091 180.306432 
L 232.654545 178.545344 
L 236.6 177.101291 
L 240.545455 176.032176 
L 244.490909 175.384759 
L 248.436364 175.196278 
L 252.381818 175.44526 
L 256.327273 176.037621 
L 260.272727 176.867646 
L 264.218182 177.818709 
L 268.163636 178.76328 
L 272.109091 179.570277 
L 276.054545 180.162763 
L 280 180.505729 
L 283.945455 180.557416 
L 287.890909 180.264925 
L 291.836364 179.564872 
L 295.781818 178.401159 
L 299.727273 176.827648 
L 303.672727 174.949848 
L 307.618182 172.864885 
L 311.563636 170.658656 
L 315.509091 168.407192 
L 319.454545 166.17952 
L 323.4 164.03408 
L 327.345455 162.022186 
L 331.290909 160.1858 
L 335.236364 158.555798 
L 339.181818 157.154056 
L 343.127273 155.986224 
L 347.072727 155.021647 
L 351.018182 154.218149 
L 354.963636 153.523439 
L 358.909091 152.873942 
L 362.854545 152.198033 
L 366.8 151.462672 
L 370.745455 150.704377 
L 374.690909 149.958858 
L 378.636364 149.249872 
L 382.581818 148.589137 
L 386.527273 147.980348 
L 390.472727 147.431679 
L 394.418182 146.957647 
L 398.363636 146.568745 
L 402.309091 146.270019 
L 406.254545 146.063879 
L 410.2 145.958445 
L 414.145455 145.995289 
L 418.090909 146.246185 
L 422.036364 146.794749 
L 425.981818 147.729294 
L 429.927273 149.135157 
L 433.872727 151.087147 
L 437.818182 153.636821 
L 441.763636 156.795964 
L 445.709091 160.533662 
L 449.654545 164.785005 
L 453.6 169.463955 
" clip-path="url(#p5e8d582696)" style="fill: none; stroke: #0000ff; stroke-width: 0.4; stroke-linecap: square"/>
   </g>
   <g id="line2d_18">
    <path d="M 63 169.000429 
L 66.945455 171.436745 
L 70.890909 173.534053 
L 74.836364 175.231332 
L 78.781818 176.48869 
L 82.727273 177.300226 
L 86.672727 177.702709 
L 90.618182 177.762833 
L 94.563636 177.547074 
L 98.509091 177.129014 
L 102.454545 176.585206 
L 106.4 175.987514 
L 110.345455 175.395915 
L 114.290909 174.838203 
L 118.236364 174.305802 
L 122.181818 173.784192 
L 126.127273 173.261488 
L 130.072727 172.731252 
L 134.018182 172.190939 
L 137.963636 171.628995 
L 141.909091 171.02692 
L 145.854545 170.374141 
L 149.8 169.672127 
L 153.745455 168.934299 
L 157.690909 168.178726 
L 161.636364 167.392741 
L 165.581818 166.547637 
L 169.527273 165.623037 
L 173.472727 164.609844 
L 177.418182 163.50908 
L 181.363636 162.322068 
L 185.309091 161.022402 
L 189.254545 159.577215 
L 193.2 157.96261 
L 197.145455 156.165779 
L 201.090909 154.183266 
L 205.036364 152.025047 
L 208.981818 149.732848 
L 212.927273 147.359834 
L 216.872727 144.969033 
L 220.818182 142.634704 
L 224.763636 140.439767 
L 228.709091 138.455124 
L 232.654545 136.721849 
L 236.6 135.283396 
L 240.545455 134.193708 
L 244.490909 133.517863 
L 248.436364 133.326452 
L 252.381818 133.603 
L 256.327273 134.220053 
L 260.272727 135.050077 
L 264.218182 135.976449 
L 268.163636 136.893454 
L 272.109091 137.703381 
L 276.054545 138.324294 
L 280 138.687834 
L 283.945455 138.733921 
L 287.890909 138.413617 
L 291.836364 137.68847 
L 295.781818 136.533738 
L 299.727273 134.9888 
L 303.672727 133.127461 
L 307.618182 131.032519 
L 311.563636 128.798003 
L 315.509091 126.527808 
L 319.454545 124.317903 
L 323.4 122.203583 
L 327.345455 120.206029 
L 331.290909 118.355771 
L 335.236364 116.694424 
L 339.181818 115.27255 
L 343.127273 114.113596 
L 347.072727 113.154978 
L 351.018182 112.324203 
L 354.963636 111.558897 
L 358.909091 110.807966 
L 362.854545 110.02908 
L 366.8 109.199173 
L 370.745455 108.325241 
L 374.690909 107.424939 
L 378.636364 106.527877 
L 382.581818 105.675702 
L 386.527273 104.917414 
L 390.472727 104.279731 
L 394.418182 103.763805 
L 398.363636 103.373858 
L 402.309091 103.119558 
L 406.254545 103.013209 
L 410.2 103.061025 
L 414.145455 103.231042 
L 418.090909 103.457878 
L 422.036364 103.664247 
L 425.981818 103.768167 
L 429.927273 103.690632 
L 433.872727 103.359132 
L 437.818182 102.696769 
L 441.763636 101.654825 
L 445.709091 100.22724 
L 449.654545 98.44195 
L 453.6 96.34802 
" clip-path="url(#p5e8d582696)" style="fill: none; stroke: #0000ff; stroke-width: 0.4; stroke-linecap: square"/>
   </g>
   <g id="line2d_19">
    <path d="M 219.24 252 
L 219.24 34.56 
" clip-path="url(#p5e8d582696)" style="fill: none; stroke-dasharray: 5.55,2.4; stroke-dashoffset: 0; stroke: #000000; stroke-opacity: 0.5; stroke-width: 1.5"/>
   </g>
   <g id="patch_3">
    <path d="M 63 252 
L 63 34.56 
" style="fill: none; stroke: #000000; stroke-width: 0.8; stroke-linejoin: miter; stroke-linecap: square"/>
   </g>
   <g id="patch_4">
    <path d="M 453.6 252 
L 453.6 34.56 
" style="fill: none; stroke: #000000; stroke-width: 0.8; stroke-linejoin: miter; stroke-linecap: square"/>
   </g>
   <g id="patch_5">
    <path d="M 63 252 
L 453.6 252 
" style="fill: none; stroke: #000000; stroke-width: 0.8; stroke-linejoin: miter; stroke-linecap: square"/>
   </g>
   <g id="patch_6">
    <path d="M 63 34.56 
L 453.6 34.56 
" style="fill: none; stroke: #000000; stroke-width: 0.8; stroke-linejoin: miter; stroke-linecap: square"/>
   </g>
   <g id="legend_1">
    <g id="line2d_20">
     <path d="M 42.189062 25.914437 
L 52.189062 25.914437 
L 62.189062 25.914437 
" style="fill: none; stroke: #ffa500; stroke-width: 1.5; stroke-linecap: square"/>
    </g>
    <g id="text_14">
     <!-- Neurodevelopmental cluster (N=59) -->
     <g transform="translate(70.189062 29.414437)scale(0.1 -0.1)">
      <defs>
       <path id="DejaVuSans-4e" d="M 628 4666 
L 1478 4666 
L 3547 763 
L 3547 4666 
L 4159 4666 
L 4159 0 
L 3309 0 
L 1241 3903 
L 1241 0 
L 628 0 
L 628 4666 
z
" transform="scale(0.015625)"/>
       <path id="DejaVuSans-75" d="M 544 1381 
L 544 3500 
L 1119 3500 
L 1119 1403 
Q 1119 906 1312 657 
Q 1506 409 1894 409 
Q 2359 409 2629 706 
Q 2900 1003 2900 1516 
L 2900 3500 
L 3475 3500 
L 3475 0 
L 2900 0 
L 2900 538 
Q 2691 219 2414 64 
Q 2138 -91 1772 -91 
Q 1169 -91 856 284 
Q 544 659 544 1381 
z
M 1991 3584 
L 1991 3584 
z
" transform="scale(0.015625)"/>
       <path id="DejaVuSans-76" d="M 191 3500 
L 800 3500 
L 1894 563 
L 2988 3500 
L 3597 3500 
L 2284 0 
L 1503 0 
L 191 3500 
z
" transform="scale(0.015625)"/>
       <path id="DejaVuSans-6d" d="M 3328 2828 
Q 3544 3216 3844 3400 
Q 4144 3584 4550 3584 
Q 5097 3584 5394 3201 
Q 5691 2819 5691 2113 
L 5691 0 
L 5113 0 
L 5113 2094 
Q 5113 2597 4934 2840 
Q 4756 3084 4391 3084 
Q 3944 3084 3684 2787 
Q 3425 2491 3425 1978 
L 3425 0 
L 2847 0 
L 2847 2094 
Q 2847 2600 2669 2842 
Q 2491 3084 2119 3084 
Q 1678 3084 1418 2786 
Q 1159 2488 1159 1978 
L 1159 0 
L 581 0 
L 581 3500 
L 1159 3500 
L 1159 2956 
Q 1356 3278 1631 3431 
Q 1906 3584 2284 3584 
Q 2666 3584 2933 3390 
Q 3200 3197 3328 2828 
z
" transform="scale(0.015625)"/>
       <path id="DejaVuSans-28" d="M 1984 4856 
Q 1566 4138 1362 3434 
Q 1159 2731 1159 2009 
Q 1159 1288 1364 580 
Q 1569 -128 1984 -844 
L 1484 -844 
Q 1016 -109 783 600 
Q 550 1309 550 2009 
Q 550 2706 781 3412 
Q 1013 4119 1484 4856 
L 1984 4856 
z
" transform="scale(0.015625)"/>
       <path id="DejaVuSans-3d" d="M 678 2906 
L 4684 2906 
L 4684 2381 
L 678 2381 
L 678 2906 
z
M 678 1631 
L 4684 1631 
L 4684 1100 
L 678 1100 
L 678 1631 
z
" transform="scale(0.015625)"/>
       <path id="DejaVuSans-39" d="M 703 97 
L 703 672 
Q 941 559 1184 500 
Q 1428 441 1663 441 
Q 2288 441 2617 861 
Q 2947 1281 2994 2138 
Q 2813 1869 2534 1725 
Q 2256 1581 1919 1581 
Q 1219 1581 811 2004 
Q 403 2428 403 3163 
Q 403 3881 828 4315 
Q 1253 4750 1959 4750 
Q 2769 4750 3195 4129 
Q 3622 3509 3622 2328 
Q 3622 1225 3098 567 
Q 2575 -91 1691 -91 
Q 1453 -91 1209 -44 
Q 966 3 703 97 
z
M 1959 2075 
Q 2384 2075 2632 2365 
Q 2881 2656 2881 3163 
Q 2881 3666 2632 3958 
Q 2384 4250 1959 4250 
Q 1534 4250 1286 3958 
Q 1038 3666 1038 3163 
Q 1038 2656 1286 2365 
Q 1534 2075 1959 2075 
z
" transform="scale(0.015625)"/>
       <path id="DejaVuSans-29" d="M 513 4856 
L 1013 4856 
Q 1481 4119 1714 3412 
Q 1947 2706 1947 2009 
Q 1947 1309 1714 600 
Q 1481 -109 1013 -844 
L 513 -844 
Q 928 -128 1133 580 
Q 1338 1288 1338 2009 
Q 1338 2731 1133 3434 
Q 928 4138 513 4856 
z
" transform="scale(0.015625)"/>
      </defs>
      <use xlink:href="#DejaVuSans-4e"/>
      <use xlink:href="#DejaVuSans-65" x="74.804688"/>
      <use xlink:href="#DejaVuSans-75" x="136.328125"/>
      <use xlink:href="#DejaVuSans-72" x="199.707031"/>
      <use xlink:href="#DejaVuSans-6f" x="238.570312"/>
      <use xlink:href="#DejaVuSans-64" x="299.751953"/>
      <use xlink:href="#DejaVuSans-65" x="363.228516"/>
      <use xlink:href="#DejaVuSans-76" x="424.751953"/>
      <use xlink:href="#DejaVuSans-65" x="483.931641"/>
      <use xlink:href="#DejaVuSans-6c" x="545.455078"/>
      <use xlink:href="#DejaVuSans-6f" x="573.238281"/>
      <use xlink:href="#DejaVuSans-70" x="634.419922"/>
      <use xlink:href="#DejaVuSans-6d" x="697.896484"/>
      <use xlink:href="#DejaVuSans-65" x="795.308594"/>
      <use xlink:href="#DejaVuSans-6e" x="856.832031"/>
      <use xlink:href="#DejaVuSans-74" x="920.210938"/>
      <use xlink:href="#DejaVuSans-61" x="959.419922"/>
      <use xlink:href="#DejaVuSans-6c" x="1020.699219"/>
      <use xlink:href="#DejaVuSans-20" x="1048.482422"/>
      <use xlink:href="#DejaVuSans-63" x="1080.269531"/>
      <use xlink:href="#DejaVuSans-6c" x="1135.25"/>
      <use xlink:href="#DejaVuSans-75" x="1163.033203"/>
      <use xlink:href="#DejaVuSans-73" x="1226.412109"/>
      <use xlink:href="#DejaVuSans-74" x="1278.511719"/>
      <use xlink:href="#DejaVuSans-65" x="1317.720703"/>
      <use xlink:href="#DejaVuSans-72" x="1379.244141"/>
      <use xlink:href="#DejaVuSans-20" x="1420.357422"/>
      <use xlink:href="#DejaVuSans-28" x="1452.144531"/>
      <use xlink:href="#DejaVuSans-4e" x="1491.158203"/>
      <use xlink:href="#DejaVuSans-3d" x="1565.962891"/>
      <use xlink:href="#DejaVuSans-35" x="1649.751953"/>
      <use xlink:href="#DejaVuSans-39" x="1713.375"/>
      <use xlink:href="#DejaVuSans-29" x="1776.998047"/>
     </g>
    </g>
    <g id="line2d_21">
     <path d="M 271.795313 25.914437 
L 281.795313 25.914437 
L 291.795313 25.914437 
" style="fill: none; stroke: #0000ff; stroke-width: 1.5; stroke-linecap: square"/>
    </g>
    <g id="text_15">
     <!-- Synaptic signaling cluster (N=120) -->
     <g transform="translate(299.795313 29.414437)scale(0.1 -0.1)">
      <defs>
       <path id="DejaVuSans-53" d="M 3425 4513 
L 3425 3897 
Q 3066 4069 2747 4153 
Q 2428 4238 2131 4238 
Q 1616 4238 1336 4038 
Q 1056 3838 1056 3469 
Q 1056 3159 1242 3001 
Q 1428 2844 1947 2747 
L 2328 2669 
Q 3034 2534 3370 2195 
Q 3706 1856 3706 1288 
Q 3706 609 3251 259 
Q 2797 -91 1919 -91 
Q 1588 -91 1214 -16 
Q 841 59 441 206 
L 441 856 
Q 825 641 1194 531 
Q 1563 422 1919 422 
Q 2459 422 2753 634 
Q 3047 847 3047 1241 
Q 3047 1584 2836 1778 
Q 2625 1972 2144 2069 
L 1759 2144 
Q 1053 2284 737 2584 
Q 422 2884 422 3419 
Q 422 4038 858 4394 
Q 1294 4750 2059 4750 
Q 2388 4750 2728 4690 
Q 3069 4631 3425 4513 
z
" transform="scale(0.015625)"/>
      </defs>
      <use xlink:href="#DejaVuSans-53"/>
      <use xlink:href="#DejaVuSans-79" x="63.476562"/>
      <use xlink:href="#DejaVuSans-6e" x="122.65625"/>
      <use xlink:href="#DejaVuSans-61" x="186.035156"/>
      <use xlink:href="#DejaVuSans-70" x="247.314453"/>
      <use xlink:href="#DejaVuSans-74" x="310.791016"/>
      <use xlink:href="#DejaVuSans-69" x="350"/>
      <use xlink:href="#DejaVuSans-63" x="377.783203"/>
      <use xlink:href="#DejaVuSans-20" x="432.763672"/>
      <use xlink:href="#DejaVuSans-73" x="464.550781"/>
      <use xlink:href="#DejaVuSans-69" x="516.650391"/>
      <use xlink:href="#DejaVuSans-67" x="544.433594"/>
      <use xlink:href="#DejaVuSans-6e" x="607.910156"/>
      <use xlink:href="#DejaVuSans-61" x="671.289062"/>
      <use xlink:href="#DejaVuSans-6c" x="732.568359"/>
      <use xlink:href="#DejaVuSans-69" x="760.351562"/>
      <use xlink:href="#DejaVuSans-6e" x="788.134766"/>
      <use xlink:href="#DejaVuSans-67" x="851.513672"/>
      <use xlink:href="#DejaVuSans-20" x="914.990234"/>
      <use xlink:href="#DejaVuSans-63" x="946.777344"/>
      <use xlink:href="#DejaVuSans-6c" x="1001.757812"/>
      <use xlink:href="#DejaVuSans-75" x="1029.541016"/>
      <use xlink:href="#DejaVuSans-73" x="1092.919922"/>
      <use xlink:href="#DejaVuSans-74" x="1145.019531"/>
      <use xlink:href="#DejaVuSans-65" x="1184.228516"/>
      <use xlink:href="#DejaVuSans-72" x="1245.751953"/>
      <use xlink:href="#DejaVuSans-20" x="1286.865234"/>
      <use xlink:href="#DejaVuSans-28" x="1318.652344"/>
      <use xlink:href="#DejaVuSans-4e" x="1357.666016"/>
      <use xlink:href="#DejaVuSans-3d" x="1432.470703"/>
      <use xlink:href="#DejaVuSans-31" x="1516.259766"/>
      <use xlink:href="#DejaVuSans-32" x="1579.882812"/>
      <use xlink:href="#DejaVuSans-30" x="1643.505859"/>
      <use xlink:href="#DejaVuSans-29" x="1707.128906"/>
     </g>
    </g>
   </g>
  </g>
 </g>
 <defs>
  <clipPath id="p5e8d582696">
   <rect x="63" y="34.56" width="390.6" height="217.44"/>
  </clipPath>
 </defs>
</svg>
