<?xml version="1.0" encoding="utf-8" standalone="no"?>
<!DOCTYPE svg PUBLIC "-//W3C//DTD SVG 1.1//EN"
  "http://www.w3.org/Graphics/SVG/1.1/DTD/svg11.dtd">
<svg xmlns:xlink="http://www.w3.org/1999/xlink" width="504pt" height="288pt" viewBox="0 0 504 288" xmlns="http://www.w3.org/2000/svg" version="1.1">
 <metadata>
  <rdf:RDF xmlns:dc="http://purl.org/dc/elements/1.1/" xmlns:cc="http://creativecommons.org/ns#" xmlns:rdf="http://www.w3.org/1999/02/22-rdf-syntax-ns#">
   <cc:Work>
    <dc:type rdf:resource="http://purl.org/dc/dcmitype/StillImage"/>
    <dc:date>2023-12-20T08:49:09.786728</dc:date>
    <dc:format>image/svg+xml</dc:format>
    <dc:creator>
     <cc:Agent>
      <dc:title>Matplotlib v3.5.2, https://matplotlib.org/</dc:title>
     </cc:Agent>
    </dc:creator>
   </cc:Work>
  </rdf:RDF>
 </metadata>
 <defs>
  <style type="text/css">*{stroke-linejoin: round; stroke-linecap: butt}</style>
 </defs>
 <g id="figure_1">
  <g id="patch_1">
   <path d="M 0 288 
L 504 288 
L 504 0 
L 0 0 
L 0 288 
z
" style="fill: none"/>
  </g>
  <g id="axes_1">
   <g id="patch_2">
    <path d="M 63 252 
L 453.6 252 
L 453.6 34.56 
L 63 34.56 
z
" style="fill: #ffffff"/>
   </g>
   <g id="PolyCollection_1">
    <defs>
     <path id="mdaec37969e" d="M 63 -249.411447 
L 63 -186.825671 
L 66.945455 -190.411469 
L 70.890909 -193.536129 
L 74.836364 -196.100724 
L 78.781818 -198.024416 
L 82.727273 -199.255462 
L 86.672727 -199.778706 
L 90.618182 -199.622782 
L 94.563636 -198.859466 
L 98.509091 -197.572936 
L 102.454545 -195.849917 
L 106.4 -193.773113 
L 110.345455 -191.415113 
L 114.290909 -188.823692 
L 118.236364 -186.01952 
L 122.181818 -183.018505 
L 126.127273 -179.838809 
L 130.072727 -176.503257 
L 134.018182 -173.036991 
L 137.963636 -169.437082 
L 141.909091 -165.675794 
L 145.854545 -161.731466 
L 149.8 -157.592744 
L 153.745455 -153.258505 
L 157.690909 -148.737711 
L 161.636364 -144.074773 
L 165.581818 -139.336232 
L 169.527273 -134.596197 
L 173.472727 -129.93844 
L 177.418182 -125.455388 
L 181.363636 -121.23221 
L 185.309091 -117.287414 
L 189.254545 -113.618769 
L 193.2 -110.231705 
L 197.145455 -107.141143 
L 201.090909 -104.370002 
L 205.036364 -101.924356 
L 208.981818 -99.742339 
L 212.927273 -97.751955 
L 216.872727 -95.889652 
L 220.818182 -94.101489 
L 224.763636 -92.341064 
L 228.709091 -90.569096 
L 232.654545 -88.755979 
L 236.6 -86.878395 
L 240.545455 -84.921999 
L 244.490909 -82.881983 
L 248.436364 -80.760783 
L 252.381818 -78.578116 
L 256.327273 -76.374336 
L 260.272727 -74.197098 
L 264.218182 -72.1034 
L 268.163636 -70.159573 
L 272.109091 -68.435684 
L 276.054545 -66.966388 
L 280 -65.75913 
L 283.945455 -64.827368 
L 287.890909 -64.1941 
L 291.836364 -63.891299 
L 295.781818 -63.948284 
L 299.727273 -64.329986 
L 303.672727 -64.97183 
L 307.618182 -65.816518 
L 311.563636 -66.816365 
L 315.509091 -67.932132 
L 319.454545 -69.12639 
L 323.4 -70.350799 
L 327.345455 -71.55717 
L 331.290909 -72.705312 
L 335.236364 -73.764529 
L 339.181818 -74.711818 
L 343.127273 -75.533221 
L 347.072727 -76.232164 
L 351.018182 -76.819541 
L 354.963636 -77.314904 
L 358.909091 -77.747463 
L 362.854545 -78.153452 
L 366.8 -78.546914 
L 370.745455 -78.901011 
L 374.690909 -79.191442 
L 378.636364 -79.404139 
L 382.581818 -79.535338 
L 386.527273 -79.588221 
L 390.472727 -79.564212 
L 394.418182 -79.461546 
L 398.363636 -79.282017 
L 402.309091 -79.032077 
L 406.254545 -78.720439 
L 410.2 -78.350659 
L 414.145455 -77.894362 
L 418.090909 -77.295074 
L 422.036364 -76.486141 
L 425.981818 -75.39689 
L 429.927273 -73.959196 
L 433.872727 -72.112612 
L 437.818182 -69.807471 
L 441.763636 -67.024322 
L 445.709091 -63.78025 
L 449.654545 -60.121441 
L 453.6 -56.112164 
L 453.6 -118.697939 
L 453.6 -118.697939 
L 449.654545 -116.909767 
L 445.709091 -115.40134 
L 441.763636 -114.224033 
L 437.818182 -113.411135 
L 433.872727 -112.966837 
L 429.927273 -112.8588 
L 425.981818 -113.026735 
L 422.036364 -113.404987 
L 418.090909 -113.921007 
L 414.145455 -114.499701 
L 410.2 -115.069991 
L 406.254545 -115.57095 
L 402.309091 -115.968008 
L 398.363636 -116.255975 
L 394.418182 -116.43461 
L 390.472727 -116.501415 
L 386.527273 -116.44923 
L 382.581818 -116.268379 
L 378.636364 -115.973311 
L 374.690909 -115.599625 
L 370.745455 -115.176703 
L 366.8 -114.723623 
L 362.854545 -114.249231 
L 358.909091 -113.755096 
L 354.963636 -113.235712 
L 351.018182 -112.67992 
L 347.072727 -112.069194 
L 343.127273 -111.375352 
L 339.181818 -110.561549 
L 335.236364 -109.597027 
L 331.290909 -108.51098 
L 327.345455 -107.350963 
L 323.4 -106.156868 
L 319.454545 -104.959095 
L 315.509091 -103.780046 
L 311.563636 -102.648245 
L 307.618182 -101.624186 
L 303.672727 -100.770956 
L 299.727273 -100.143203 
L 295.781818 -99.785957 
L 291.836364 -99.73666 
L 287.890909 -100.017982 
L 283.945455 -100.627442 
L 280 -101.55441 
L 276.054545 -102.77928 
L 272.109091 -104.272908 
L 268.163636 -105.999305 
L 264.218182 -107.919536 
L 260.272727 -109.9921 
L 256.327273 -112.169337 
L 252.381818 -114.394253 
L 248.436364 -116.600515 
L 244.490909 -118.719208 
L 240.545455 -120.734891 
L 236.6 -122.673676 
L 232.654545 -124.556054 
L 228.709091 -126.392977 
L 224.763636 -128.186426 
L 220.818182 -129.939162 
L 216.872727 -131.702868 
L 212.927273 -133.551081 
L 208.981818 -135.550007 
L 205.036364 -137.756236 
L 201.090909 -140.217916 
L 197.145455 -142.973848 
L 193.2 -146.037773 
L 189.254545 -149.412562 
L 185.309091 -153.093081 
L 181.363636 -157.064708 
L 177.418182 -161.305118 
L 173.472727 -165.780571 
L 169.527273 -170.433228 
L 165.581818 -175.19661 
L 161.636364 -179.995581 
L 157.690909 -184.745344 
L 153.745455 -189.354284 
L 149.8 -193.769452 
L 145.854545 -198.007158 
L 141.909091 -202.083977 
L 137.963636 -206.006255 
L 134.018182 -209.770032 
L 130.072727 -213.364266 
L 126.127273 -216.776013 
L 122.181818 -219.991569 
L 118.236364 -222.993478 
L 114.290909 -225.759622 
L 110.345455 -228.265625 
L 106.4 -230.492445 
L 102.454545 -232.455256 
L 98.509091 -234.19887 
L 94.563636 -235.778312 
L 90.618182 -237.252626 
L 86.672727 -238.67831 
L 82.727273 -240.109688 
L 78.781818 -241.62808 
L 74.836364 -243.300435 
L 70.890909 -245.157218 
L 66.945455 -247.199795 
L 63 -249.411447 
z
" style="stroke: #000000; stroke-opacity: 0.05"/>
    </defs>
    <g clip-path="url(#p7afbcd47ab)">
     <use xlink:href="#mdaec37969e" x="0" y="288" style="fill-opacity: 0.05; stroke: #000000; stroke-opacity: 0.05"/>
    </g>
   </g>
   <g id="PathCollection_1">
    <defs>
     <path id="m3956572860" d="M 0 2.738613 
C 0.726289 2.738613 1.422928 2.450055 1.936492 1.936492 
C 2.450055 1.422928 2.738613 0.726289 2.738613 0 
C 2.738613 -0.726289 2.450055 -1.422928 1.936492 -1.936492 
C 1.422928 -2.450055 0.726289 -2.738613 0 -2.738613 
C -0.726289 -2.738613 -1.422928 -2.450055 -1.936492 -1.936492 
C -2.450055 -1.422928 -2.738613 -0.726289 -2.738613 0 
C -2.738613 0.726289 -2.450055 1.422928 -1.936492 1.936492 
C -1.422928 2.450055 -0.726289 2.738613 0 2.738613 
z
" style="stroke: #ffa500"/>
    </defs>
    <g clip-path="url(#p7afbcd47ab)">
     <use xlink:href="#m3956572860" x="63" y="93.194337" style="fill: #ffa500; stroke: #ffa500"/>
     <use xlink:href="#m3956572860" x="76.02" y="44.124981" style="fill: #ffa500; stroke: #ffa500"/>
     <use xlink:href="#m3956572860" x="89.04" y="64.92797" style="fill: #ffa500; stroke: #ffa500"/>
     <use xlink:href="#m3956572860" x="102.06" y="75.151201" style="fill: #ffa500; stroke: #ffa500"/>
     <use xlink:href="#m3956572860" x="115.08" y="82.141804" style="fill: #ffa500; stroke: #ffa500"/>
     <use xlink:href="#m3956572860" x="128.1" y="83.664897" style="fill: #ffa500; stroke: #ffa500"/>
     <use xlink:href="#m3956572860" x="141.12" y="134.169792" style="fill: #ffa500; stroke: #ffa500"/>
     <use xlink:href="#m3956572860" x="154.14" y="85.608926" style="fill: #ffa500; stroke: #ffa500"/>
     <use xlink:href="#m3956572860" x="167.16" y="101.570761" style="fill: #ffa500; stroke: #ffa500"/>
     <use xlink:href="#m3956572860" x="180.18" y="194.495822" style="fill: #ffa500; stroke: #ffa500"/>
     <use xlink:href="#m3956572860" x="193.2" y="166.049116" style="fill: #ffa500; stroke: #ffa500"/>
     <use xlink:href="#m3956572860" x="206.22" y="176.449127" style="fill: #ffa500; stroke: #ffa500"/>
     <use xlink:href="#m3956572860" x="219.24" y="162.027482" style="fill: #ffa500; stroke: #ffa500"/>
     <use xlink:href="#m3956572860" x="232.26" y="175.246404" style="fill: #ffa500; stroke: #ffa500"/>
     <use xlink:href="#m3956572860" x="245.28" y="189.344279" style="fill: #ffa500; stroke: #ffa500"/>
     <use xlink:href="#m3956572860" x="258.3" y="161.466755" style="fill: #ffa500; stroke: #ffa500"/>
     <use xlink:href="#m3956572860" x="271.32" y="234.766233" style="fill: #ffa500; stroke: #ffa500"/>
     <use xlink:href="#m3956572860" x="284.34" y="203.888745" style="fill: #ffa500; stroke: #ffa500"/>
     <use xlink:href="#m3956572860" x="297.36" y="220.845735" style="fill: #ffa500; stroke: #ffa500"/>
     <use xlink:href="#m3956572860" x="310.38" y="204.46666" style="fill: #ffa500; stroke: #ffa500"/>
     <use xlink:href="#m3956572860" x="323.4" y="188.483959" style="fill: #ffa500; stroke: #ffa500"/>
     <use xlink:href="#m3956572860" x="336.42" y="191.971122" style="fill: #ffa500; stroke: #ffa500"/>
     <use xlink:href="#m3956572860" x="349.44" y="175.703413" style="fill: #ffa500; stroke: #ffa500"/>
     <use xlink:href="#m3956572860" x="362.46" y="217.899726" style="fill: #ffa500; stroke: #ffa500"/>
     <use xlink:href="#m3956572860" x="375.48" y="192.489161" style="fill: #ffa500; stroke: #ffa500"/>
     <use xlink:href="#m3956572860" x="388.5" y="174.887961" style="fill: #ffa500; stroke: #ffa500"/>
     <use xlink:href="#m3956572860" x="401.52" y="188.606546" style="fill: #ffa500; stroke: #ffa500"/>
     <use xlink:href="#m3956572860" x="414.54" y="201.760841" style="fill: #ffa500; stroke: #ffa500"/>
     <use xlink:href="#m3956572860" x="427.56" y="193.568158" style="fill: #ffa500; stroke: #ffa500"/>
     <use xlink:href="#m3956572860" x="440.58" y="187.615937" style="fill: #ffa500; stroke: #ffa500"/>
     <use xlink:href="#m3956572860" x="453.6" y="207.247939" style="fill: #ffa500; stroke: #ffa500"/>
    </g>
   </g>
   <g id="PolyCollection_2">
    <defs>
     <path id="m8eeb683048" d="M 63 -119.175178 
L 63 -43.560553 
L 66.945455 -48.144076 
L 70.890909 -52.319526 
L 74.836364 -56.010738 
L 78.781818 -59.163397 
L 82.727273 -61.758345 
L 86.672727 -63.820575 
L 90.618182 -65.41383 
L 94.563636 -66.620225 
L 98.509091 -67.531935 
L 102.454545 -68.24421 
L 106.4 -68.847449 
L 110.345455 -69.419766 
L 114.290909 -70.006427 
L 118.236364 -70.615722 
L 122.181818 -71.249845 
L 126.127273 -71.913716 
L 130.072727 -72.61789 
L 134.018182 -73.376305 
L 137.963636 -74.180744 
L 141.909091 -75.003913 
L 145.854545 -75.826271 
L 149.8 -76.640726 
L 153.745455 -77.45255 
L 157.690909 -78.274256 
L 161.636364 -79.111239 
L 165.581818 -79.966621 
L 169.527273 -80.852314 
L 173.472727 -81.791903 
L 177.418182 -82.819427 
L 181.363636 -83.969878 
L 185.309091 -85.253164 
L 189.254545 -86.673792 
L 193.2 -88.245544 
L 197.145455 -89.993672 
L 201.090909 -91.953092 
L 205.036364 -94.137574 
L 208.981818 -96.476168 
L 212.927273 -98.885125 
L 216.872727 -101.2909 
L 220.818182 -103.631559 
L 224.763636 -105.854185 
L 228.709091 -107.901161 
L 232.654545 -109.699672 
L 236.6 -111.18125 
L 240.545455 -112.288271 
L 244.490909 -112.974632 
L 248.436364 -113.203999 
L 252.381818 -112.997793 
L 256.327273 -112.448807 
L 260.272727 -111.661622 
L 264.218182 -110.752101 
L 268.163636 -109.847388 
L 272.109091 -109.078366 
L 276.054545 -108.521004 
L 280 -108.208764 
L 283.945455 -108.182112 
L 287.890909 -108.493037 
L 291.836364 -109.204371 
L 295.781818 -110.37183 
L 299.727273 -111.940891 
L 303.672727 -113.805346 
L 307.618182 -115.867664 
L 311.563636 -118.041929 
L 315.509091 -120.252425 
L 319.454545 -122.430954 
L 323.4 -124.521558 
L 327.345455 -126.476035 
L 331.290909 -128.255853 
L 335.236364 -129.833945 
L 339.181818 -131.19255 
L 343.127273 -132.328891 
L 347.072727 -133.272662 
L 351.018182 -134.064583 
L 354.963636 -134.755834 
L 358.909091 -135.409268 
L 362.854545 -136.096057 
L 366.8 -136.847365 
L 370.745455 -137.622229 
L 374.690909 -138.380506 
L 378.636364 -139.094413 
L 382.581818 -139.748619 
L 386.527273 -140.336161 
L 390.472727 -140.847384 
L 394.418182 -141.268164 
L 398.363636 -141.588644 
L 402.309091 -141.8046 
L 406.254545 -141.914533 
L 410.2 -141.911029 
L 414.145455 -141.75193 
L 418.090909 -141.363751 
L 422.036364 -140.660752 
L 425.981818 -139.552338 
L 429.927273 -137.950994 
L 433.872727 -135.780079 
L 437.818182 -132.986931 
L 441.763636 -129.559987 
L 445.709091 -125.531844 
L 449.654545 -120.970258 
L 453.6 -115.964832 
L 453.6 -191.579457 
L 453.6 -191.579457 
L 449.654545 -189.580544 
L 445.709091 -187.8992 
L 441.763636 -186.58554 
L 437.818182 -185.667826 
L 433.872727 -185.139169 
L 429.927273 -184.948557 
L 425.981818 -185.015809 
L 422.036364 -185.26521 
L 418.090909 -185.61432 
L 414.145455 -185.977618 
L 410.2 -186.27444 
L 406.254545 -186.436432 
L 402.309091 -186.4297 
L 398.363636 -186.259688 
L 394.418182 -185.938128 
L 390.472727 -185.474023 
L 386.527273 -184.870744 
L 382.581818 -184.128594 
L 378.636364 -183.276406 
L 374.690909 -182.367995 
L 370.745455 -181.449645 
L 366.8 -180.555192 
L 362.854545 -179.706107 
L 358.909091 -178.912822 
L 354.963636 -178.154488 
L 351.018182 -177.390227 
L 347.072727 -176.570098 
L 343.127273 -175.63249 
L 339.181818 -174.505331 
L 335.236364 -173.125905 
L 331.290909 -171.515397 
L 327.345455 -169.721232 
L 323.4 -167.781587 
L 319.454545 -165.723165 
L 315.509091 -163.56301 
L 311.563636 -161.333142 
L 307.618182 -159.129625 
L 303.672727 -157.056987 
L 299.727273 -155.209556 
L 295.781818 -153.670043 
L 291.836364 -152.511873 
L 287.890909 -151.774587 
L 283.945455 -151.434899 
L 280 -151.455759 
L 276.054545 -151.789276 
L 272.109091 -152.376037 
L 268.163636 -153.148089 
L 264.218182 -154.024293 
L 260.272727 -154.908279 
L 256.327273 -155.695464 
L 252.381818 -156.269986 
L 248.436364 -156.504699 
L 244.490909 -156.272303 
L 240.545455 -155.556542 
L 236.6 -154.428244 
L 232.654545 -152.952458 
L 228.709091 -151.182711 
L 224.763636 -149.161686 
L 220.818182 -146.929772 
L 216.872727 -144.559564 
L 212.927273 -142.136766 
L 208.981818 -139.738129 
L 205.036364 -137.428788 
L 201.090909 -135.263677 
L 197.145455 -133.285883 
L 193.2 -131.505572 
L 189.254545 -129.918989 
L 185.309091 -128.512708 
L 181.363636 -127.261838 
L 177.418182 -126.132208 
L 173.472727 -125.095501 
L 169.527273 -124.149751 
L 165.581818 -123.292265 
L 161.636364 -122.509892 
L 157.690909 -121.77781 
L 153.745455 -121.062599 
L 149.8 -120.348553 
L 145.854545 -119.653687 
L 141.909091 -118.991401 
L 137.963636 -118.362736 
L 134.018182 -117.756279 
L 130.072727 -117.152472 
L 126.127273 -116.540355 
L 122.181818 -115.919809 
L 118.236364 -115.286766 
L 114.290909 -114.631527 
L 110.345455 -113.941665 
L 106.4 -113.21086 
L 102.454545 -112.469899 
L 98.509091 -111.782504 
L 94.563636 -111.224684 
L 90.618182 -110.8773 
L 86.672727 -110.818138 
L 82.727273 -111.117435 
L 78.781818 -111.844293 
L 74.836364 -113.036291 
L 70.890909 -114.686882 
L 66.945455 -116.754362 
L 63 -119.175178 
z
" style="stroke: #000000; stroke-opacity: 0.05"/>
    </defs>
    <g clip-path="url(#p7afbcd47ab)">
     <use xlink:href="#m8eeb683048" x="0" y="288" style="fill-opacity: 0.05; stroke: #000000; stroke-opacity: 0.05"/>
    </g>
   </g>
   <g id="PathCollection_2">
    <defs>
     <path id="ma27b27c4f1" d="M 0 2.738613 
C 0.726289 2.738613 1.422928 2.450055 1.936492 1.936492 
C 2.450055 1.422928 2.738613 0.726289 2.738613 0 
C 2.738613 -0.726289 2.450055 -1.422928 1.936492 -1.936492 
C 1.422928 -2.450055 0.726289 -2.738613 0 -2.738613 
C -0.726289 -2.738613 -1.422928 -2.450055 -1.936492 -1.936492 
C -2.450055 -1.422928 -2.738613 -0.726289 -2.738613 0 
C -2.738613 0.726289 -2.450055 1.422928 -1.936492 1.936492 
C -1.422928 2.450055 -0.726289 2.738613 0 2.738613 
z
" style="stroke: #0000ff"/>
    </defs>
    <g clip-path="url(#p7afbcd47ab)">
     <use xlink:href="#ma27b27c4f1" x="63" y="211.334756" style="fill: #0000ff; stroke: #0000ff"/>
     <use xlink:href="#ma27b27c4f1" x="76.02" y="198.058348" style="fill: #0000ff; stroke: #0000ff"/>
     <use xlink:href="#ma27b27c4f1" x="89.04" y="196.583931" style="fill: #0000ff; stroke: #0000ff"/>
     <use xlink:href="#ma27b27c4f1" x="102.06" y="202.325879" style="fill: #0000ff; stroke: #0000ff"/>
     <use xlink:href="#ma27b27c4f1" x="115.08" y="194.728074" style="fill: #0000ff; stroke: #0000ff"/>
     <use xlink:href="#ma27b27c4f1" x="128.1" y="186.345456" style="fill: #0000ff; stroke: #0000ff"/>
     <use xlink:href="#ma27b27c4f1" x="141.12" y="208.734912" style="fill: #0000ff; stroke: #0000ff"/>
     <use xlink:href="#ma27b27c4f1" x="154.14" y="174.278071" style="fill: #0000ff; stroke: #0000ff"/>
     <use xlink:href="#ma27b27c4f1" x="167.16" y="184.806754" style="fill: #0000ff; stroke: #0000ff"/>
     <use xlink:href="#ma27b27c4f1" x="180.18" y="174.391808" style="fill: #0000ff; stroke: #0000ff"/>
     <use xlink:href="#ma27b27c4f1" x="193.2" y="196.7829" style="fill: #0000ff; stroke: #0000ff"/>
     <use xlink:href="#ma27b27c4f1" x="206.22" y="184.396966" style="fill: #0000ff; stroke: #0000ff"/>
     <use xlink:href="#ma27b27c4f1" x="219.24" y="168.212916" style="fill: #0000ff; stroke: #0000ff"/>
     <use xlink:href="#ma27b27c4f1" x="232.26" y="143.428446" style="fill: #0000ff; stroke: #0000ff"/>
     <use xlink:href="#ma27b27c4f1" x="245.28" y="145.450332" style="fill: #0000ff; stroke: #0000ff"/>
     <use xlink:href="#ma27b27c4f1" x="258.3" y="88.196608" style="fill: #0000ff; stroke: #0000ff"/>
     <use xlink:href="#ma27b27c4f1" x="271.32" y="214.152177" style="fill: #0000ff; stroke: #0000ff"/>
     <use xlink:href="#ma27b27c4f1" x="284.34" y="174.195207" style="fill: #0000ff; stroke: #0000ff"/>
     <use xlink:href="#ma27b27c4f1" x="297.36" y="176.973614" style="fill: #0000ff; stroke: #0000ff"/>
     <use xlink:href="#ma27b27c4f1" x="310.38" y="134.417314" style="fill: #0000ff; stroke: #0000ff"/>
     <use xlink:href="#ma27b27c4f1" x="323.4" y="130.097512" style="fill: #0000ff; stroke: #0000ff"/>
     <use xlink:href="#ma27b27c4f1" x="336.42" y="129.028919" style="fill: #0000ff; stroke: #0000ff"/>
     <use xlink:href="#ma27b27c4f1" x="349.44" y="100.008624" style="fill: #0000ff; stroke: #0000ff"/>
     <use xlink:href="#ma27b27c4f1" x="362.46" y="189.001251" style="fill: #0000ff; stroke: #0000ff"/>
     <use xlink:href="#ma27b27c4f1" x="375.48" y="117.553873" style="fill: #0000ff; stroke: #0000ff"/>
     <use xlink:href="#ma27b27c4f1" x="388.5" y="104.290515" style="fill: #0000ff; stroke: #0000ff"/>
     <use xlink:href="#ma27b27c4f1" x="401.52" y="135.371628" style="fill: #0000ff; stroke: #0000ff"/>
     <use xlink:href="#ma27b27c4f1" x="414.54" y="122.474787" style="fill: #0000ff; stroke: #0000ff"/>
     <use xlink:href="#ma27b27c4f1" x="427.56" y="123.161347" style="fill: #0000ff; stroke: #0000ff"/>
     <use xlink:href="#ma27b27c4f1" x="440.58" y="121.327664" style="fill: #0000ff; stroke: #0000ff"/>
     <use xlink:href="#ma27b27c4f1" x="453.6" y="143.725202" style="fill: #0000ff; stroke: #0000ff"/>
    </g>
   </g>
   <g id="matplotlib.axis_1">
    <g id="xtick_1">
     <g id="line2d_1">
      <defs>
       <path id="m66a883b81c" d="M 0 0 
L 0 3.5 
" style="stroke: #000000; stroke-width: 0.8"/>
      </defs>
      <g>
       <use xlink:href="#m66a883b81c" x="63" y="252" style="stroke: #000000; stroke-width: 0.8"/>
      </g>
     </g>
     <g id="text_1">
      <!--                            8 weeks post-conception -->
      <g transform="translate(-42.163281 266.598437)scale(0.1 -0.1)">
       <defs>
        <path id="DejaVuSans-20" transform="scale(0.015625)"/>
        <path id="DejaVuSans-38" d="M 2034 2216 
Q 1584 2216 1326 1975 
Q 1069 1734 1069 1313 
Q 1069 891 1326 650 
Q 1584 409 2034 409 
Q 2484 409 2743 651 
Q 3003 894 3003 1313 
Q 3003 1734 2745 1975 
Q 2488 2216 2034 2216 
z
M 1403 2484 
Q 997 2584 770 2862 
Q 544 3141 544 3541 
Q 544 4100 942 4425 
Q 1341 4750 2034 4750 
Q 2731 4750 3128 4425 
Q 3525 4100 3525 3541 
Q 3525 3141 3298 2862 
Q 3072 2584 2669 2484 
Q 3125 2378 3379 2068 
Q 3634 1759 3634 1313 
Q 3634 634 3220 271 
Q 2806 -91 2034 -91 
Q 1263 -91 848 271 
Q 434 634 434 1313 
Q 434 1759 690 2068 
Q 947 2378 1403 2484 
z
M 1172 3481 
Q 1172 3119 1398 2916 
Q 1625 2713 2034 2713 
Q 2441 2713 2670 2916 
Q 2900 3119 2900 3481 
Q 2900 3844 2670 4047 
Q 2441 4250 2034 4250 
Q 1625 4250 1398 4047 
Q 1172 3844 1172 3481 
z
" transform="scale(0.015625)"/>
        <path id="DejaVuSans-77" d="M 269 3500 
L 844 3500 
L 1563 769 
L 2278 3500 
L 2956 3500 
L 3675 769 
L 4391 3500 
L 4966 3500 
L 4050 0 
L 3372 0 
L 2619 2869 
L 1863 0 
L 1184 0 
L 269 3500 
z
" transform="scale(0.015625)"/>
        <path id="DejaVuSans-65" d="M 3597 1894 
L 3597 1613 
L 953 1613 
Q 991 1019 1311 708 
Q 1631 397 2203 397 
Q 2534 397 2845 478 
Q 3156 559 3463 722 
L 3463 178 
Q 3153 47 2828 -22 
Q 2503 -91 2169 -91 
Q 1331 -91 842 396 
Q 353 884 353 1716 
Q 353 2575 817 3079 
Q 1281 3584 2069 3584 
Q 2775 3584 3186 3129 
Q 3597 2675 3597 1894 
z
M 3022 2063 
Q 3016 2534 2758 2815 
Q 2500 3097 2075 3097 
Q 1594 3097 1305 2825 
Q 1016 2553 972 2059 
L 3022 2063 
z
" transform="scale(0.015625)"/>
        <path id="DejaVuSans-6b" d="M 581 4863 
L 1159 4863 
L 1159 1991 
L 2875 3500 
L 3609 3500 
L 1753 1863 
L 3688 0 
L 2938 0 
L 1159 1709 
L 1159 0 
L 581 0 
L 581 4863 
z
" transform="scale(0.015625)"/>
        <path id="DejaVuSans-73" d="M 2834 3397 
L 2834 2853 
Q 2591 2978 2328 3040 
Q 2066 3103 1784 3103 
Q 1356 3103 1142 2972 
Q 928 2841 928 2578 
Q 928 2378 1081 2264 
Q 1234 2150 1697 2047 
L 1894 2003 
Q 2506 1872 2764 1633 
Q 3022 1394 3022 966 
Q 3022 478 2636 193 
Q 2250 -91 1575 -91 
Q 1294 -91 989 -36 
Q 684 19 347 128 
L 347 722 
Q 666 556 975 473 
Q 1284 391 1588 391 
Q 1994 391 2212 530 
Q 2431 669 2431 922 
Q 2431 1156 2273 1281 
Q 2116 1406 1581 1522 
L 1381 1569 
Q 847 1681 609 1914 
Q 372 2147 372 2553 
Q 372 3047 722 3315 
Q 1072 3584 1716 3584 
Q 2034 3584 2315 3537 
Q 2597 3491 2834 3397 
z
" transform="scale(0.015625)"/>
        <path id="DejaVuSans-70" d="M 1159 525 
L 1159 -1331 
L 581 -1331 
L 581 3500 
L 1159 3500 
L 1159 2969 
Q 1341 3281 1617 3432 
Q 1894 3584 2278 3584 
Q 2916 3584 3314 3078 
Q 3713 2572 3713 1747 
Q 3713 922 3314 415 
Q 2916 -91 2278 -91 
Q 1894 -91 1617 61 
Q 1341 213 1159 525 
z
M 3116 1747 
Q 3116 2381 2855 2742 
Q 2594 3103 2138 3103 
Q 1681 3103 1420 2742 
Q 1159 2381 1159 1747 
Q 1159 1113 1420 752 
Q 1681 391 2138 391 
Q 2594 391 2855 752 
Q 3116 1113 3116 1747 
z
" transform="scale(0.015625)"/>
        <path id="DejaVuSans-6f" d="M 1959 3097 
Q 1497 3097 1228 2736 
Q 959 2375 959 1747 
Q 959 1119 1226 758 
Q 1494 397 1959 397 
Q 2419 397 2687 759 
Q 2956 1122 2956 1747 
Q 2956 2369 2687 2733 
Q 2419 3097 1959 3097 
z
M 1959 3584 
Q 2709 3584 3137 3096 
Q 3566 2609 3566 1747 
Q 3566 888 3137 398 
Q 2709 -91 1959 -91 
Q 1206 -91 779 398 
Q 353 888 353 1747 
Q 353 2609 779 3096 
Q 1206 3584 1959 3584 
z
" transform="scale(0.015625)"/>
        <path id="DejaVuSans-74" d="M 1172 4494 
L 1172 3500 
L 2356 3500 
L 2356 3053 
L 1172 3053 
L 1172 1153 
Q 1172 725 1289 603 
Q 1406 481 1766 481 
L 2356 481 
L 2356 0 
L 1766 0 
Q 1100 0 847 248 
Q 594 497 594 1153 
L 594 3053 
L 172 3053 
L 172 3500 
L 594 3500 
L 594 4494 
L 1172 4494 
z
" transform="scale(0.015625)"/>
        <path id="DejaVuSans-2d" d="M 313 2009 
L 1997 2009 
L 1997 1497 
L 313 1497 
L 313 2009 
z
" transform="scale(0.015625)"/>
        <path id="DejaVuSans-63" d="M 3122 3366 
L 3122 2828 
Q 2878 2963 2633 3030 
Q 2388 3097 2138 3097 
Q 1578 3097 1268 2742 
Q 959 2388 959 1747 
Q 959 1106 1268 751 
Q 1578 397 2138 397 
Q 2388 397 2633 464 
Q 2878 531 3122 666 
L 3122 134 
Q 2881 22 2623 -34 
Q 2366 -91 2075 -91 
Q 1284 -91 818 406 
Q 353 903 353 1747 
Q 353 2603 823 3093 
Q 1294 3584 2113 3584 
Q 2378 3584 2631 3529 
Q 2884 3475 3122 3366 
z
" transform="scale(0.015625)"/>
        <path id="DejaVuSans-6e" d="M 3513 2113 
L 3513 0 
L 2938 0 
L 2938 2094 
Q 2938 2591 2744 2837 
Q 2550 3084 2163 3084 
Q 1697 3084 1428 2787 
Q 1159 2491 1159 1978 
L 1159 0 
L 581 0 
L 581 3500 
L 1159 3500 
L 1159 2956 
Q 1366 3272 1645 3428 
Q 1925 3584 2291 3584 
Q 2894 3584 3203 3211 
Q 3513 2838 3513 2113 
z
" transform="scale(0.015625)"/>
        <path id="DejaVuSans-69" d="M 603 3500 
L 1178 3500 
L 1178 0 
L 603 0 
L 603 3500 
z
M 603 4863 
L 1178 4863 
L 1178 4134 
L 603 4134 
L 603 4863 
z
" transform="scale(0.015625)"/>
       </defs>
       <use xlink:href="#DejaVuSans-20"/>
       <use xlink:href="#DejaVuSans-20" x="31.787109"/>
       <use xlink:href="#DejaVuSans-20" x="63.574219"/>
       <use xlink:href="#DejaVuSans-20" x="95.361328"/>
       <use xlink:href="#DejaVuSans-20" x="127.148438"/>
       <use xlink:href="#DejaVuSans-20" x="158.935547"/>
       <use xlink:href="#DejaVuSans-20" x="190.722656"/>
       <use xlink:href="#DejaVuSans-20" x="222.509766"/>
       <use xlink:href="#DejaVuSans-20" x="254.296875"/>
       <use xlink:href="#DejaVuSans-20" x="286.083984"/>
       <use xlink:href="#DejaVuSans-20" x="317.871094"/>
       <use xlink:href="#DejaVuSans-20" x="349.658203"/>
       <use xlink:href="#DejaVuSans-20" x="381.445312"/>
       <use xlink:href="#DejaVuSans-20" x="413.232422"/>
       <use xlink:href="#DejaVuSans-20" x="445.019531"/>
       <use xlink:href="#DejaVuSans-20" x="476.806641"/>
       <use xlink:href="#DejaVuSans-20" x="508.59375"/>
       <use xlink:href="#DejaVuSans-20" x="540.380859"/>
       <use xlink:href="#DejaVuSans-20" x="572.167969"/>
       <use xlink:href="#DejaVuSans-20" x="603.955078"/>
       <use xlink:href="#DejaVuSans-20" x="635.742188"/>
       <use xlink:href="#DejaVuSans-20" x="667.529297"/>
       <use xlink:href="#DejaVuSans-20" x="699.316406"/>
       <use xlink:href="#DejaVuSans-20" x="731.103516"/>
       <use xlink:href="#DejaVuSans-20" x="762.890625"/>
       <use xlink:href="#DejaVuSans-20" x="794.677734"/>
       <use xlink:href="#DejaVuSans-20" x="826.464844"/>
       <use xlink:href="#DejaVuSans-38" x="858.251953"/>
       <use xlink:href="#DejaVuSans-20" x="921.875"/>
       <use xlink:href="#DejaVuSans-77" x="953.662109"/>
       <use xlink:href="#DejaVuSans-65" x="1035.449219"/>
       <use xlink:href="#DejaVuSans-65" x="1096.972656"/>
       <use xlink:href="#DejaVuSans-6b" x="1158.496094"/>
       <use xlink:href="#DejaVuSans-73" x="1216.40625"/>
       <use xlink:href="#DejaVuSans-20" x="1268.505859"/>
       <use xlink:href="#DejaVuSans-70" x="1300.292969"/>
       <use xlink:href="#DejaVuSans-6f" x="1363.769531"/>
       <use xlink:href="#DejaVuSans-73" x="1424.951172"/>
       <use xlink:href="#DejaVuSans-74" x="1477.050781"/>
       <use xlink:href="#DejaVuSans-2d" x="1516.259766"/>
       <use xlink:href="#DejaVuSans-63" x="1552.34375"/>
       <use xlink:href="#DejaVuSans-6f" x="1607.324219"/>
       <use xlink:href="#DejaVuSans-6e" x="1668.505859"/>
       <use xlink:href="#DejaVuSans-63" x="1731.884766"/>
       <use xlink:href="#DejaVuSans-65" x="1786.865234"/>
       <use xlink:href="#DejaVuSans-70" x="1848.388672"/>
       <use xlink:href="#DejaVuSans-74" x="1911.865234"/>
       <use xlink:href="#DejaVuSans-69" x="1951.074219"/>
       <use xlink:href="#DejaVuSans-6f" x="1978.857422"/>
       <use xlink:href="#DejaVuSans-6e" x="2040.039062"/>
      </g>
     </g>
    </g>
    <g id="xtick_2">
     <g id="line2d_2">
      <g>
       <use xlink:href="#m66a883b81c" x="219.24" y="252" style="stroke: #000000; stroke-width: 0.8"/>
      </g>
     </g>
     <g id="text_2">
      <!-- birth -->
      <g transform="translate(207.492344 266.598437)scale(0.1 -0.1)">
       <defs>
        <path id="DejaVuSans-62" d="M 3116 1747 
Q 3116 2381 2855 2742 
Q 2594 3103 2138 3103 
Q 1681 3103 1420 2742 
Q 1159 2381 1159 1747 
Q 1159 1113 1420 752 
Q 1681 391 2138 391 
Q 2594 391 2855 752 
Q 3116 1113 3116 1747 
z
M 1159 2969 
Q 1341 3281 1617 3432 
Q 1894 3584 2278 3584 
Q 2916 3584 3314 3078 
Q 3713 2572 3713 1747 
Q 3713 922 3314 415 
Q 2916 -91 2278 -91 
Q 1894 -91 1617 61 
Q 1341 213 1159 525 
L 1159 0 
L 581 0 
L 581 4863 
L 1159 4863 
L 1159 2969 
z
" transform="scale(0.015625)"/>
        <path id="DejaVuSans-72" d="M 2631 2963 
Q 2534 3019 2420 3045 
Q 2306 3072 2169 3072 
Q 1681 3072 1420 2755 
Q 1159 2438 1159 1844 
L 1159 0 
L 581 0 
L 581 3500 
L 1159 3500 
L 1159 2956 
Q 1341 3275 1631 3429 
Q 1922 3584 2338 3584 
Q 2397 3584 2469 3576 
Q 2541 3569 2628 3553 
L 2631 2963 
z
" transform="scale(0.015625)"/>
        <path id="DejaVuSans-68" d="M 3513 2113 
L 3513 0 
L 2938 0 
L 2938 2094 
Q 2938 2591 2744 2837 
Q 2550 3084 2163 3084 
Q 1697 3084 1428 2787 
Q 1159 2491 1159 1978 
L 1159 0 
L 581 0 
L 581 4863 
L 1159 4863 
L 1159 2956 
Q 1366 3272 1645 3428 
Q 1925 3584 2291 3584 
Q 2894 3584 3203 3211 
Q 3513 2838 3513 2113 
z
" transform="scale(0.015625)"/>
       </defs>
       <use xlink:href="#DejaVuSans-62"/>
       <use xlink:href="#DejaVuSans-69" x="63.476562"/>
       <use xlink:href="#DejaVuSans-72" x="91.259766"/>
       <use xlink:href="#DejaVuSans-74" x="132.373047"/>
       <use xlink:href="#DejaVuSans-68" x="171.582031"/>
      </g>
     </g>
    </g>
    <g id="xtick_3">
     <g id="line2d_3">
      <g>
       <use xlink:href="#m66a883b81c" x="258.3" y="252" style="stroke: #000000; stroke-width: 0.8"/>
      </g>
     </g>
     <g id="text_3">
      <!-- 1 year -->
      <g transform="translate(242.374219 266.598437)scale(0.1 -0.1)">
       <defs>
        <path id="DejaVuSans-31" d="M 794 531 
L 1825 531 
L 1825 4091 
L 703 3866 
L 703 4441 
L 1819 4666 
L 2450 4666 
L 2450 531 
L 3481 531 
L 3481 0 
L 794 0 
L 794 531 
z
" transform="scale(0.015625)"/>
        <path id="DejaVuSans-79" d="M 2059 -325 
Q 1816 -950 1584 -1140 
Q 1353 -1331 966 -1331 
L 506 -1331 
L 506 -850 
L 844 -850 
Q 1081 -850 1212 -737 
Q 1344 -625 1503 -206 
L 1606 56 
L 191 3500 
L 800 3500 
L 1894 763 
L 2988 3500 
L 3597 3500 
L 2059 -325 
z
" transform="scale(0.015625)"/>
        <path id="DejaVuSans-61" d="M 2194 1759 
Q 1497 1759 1228 1600 
Q 959 1441 959 1056 
Q 959 750 1161 570 
Q 1363 391 1709 391 
Q 2188 391 2477 730 
Q 2766 1069 2766 1631 
L 2766 1759 
L 2194 1759 
z
M 3341 1997 
L 3341 0 
L 2766 0 
L 2766 531 
Q 2569 213 2275 61 
Q 1981 -91 1556 -91 
Q 1019 -91 701 211 
Q 384 513 384 1019 
Q 384 1609 779 1909 
Q 1175 2209 1959 2209 
L 2766 2209 
L 2766 2266 
Q 2766 2663 2505 2880 
Q 2244 3097 1772 3097 
Q 1472 3097 1187 3025 
Q 903 2953 641 2809 
L 641 3341 
Q 956 3463 1253 3523 
Q 1550 3584 1831 3584 
Q 2591 3584 2966 3190 
Q 3341 2797 3341 1997 
z
" transform="scale(0.015625)"/>
       </defs>
       <use xlink:href="#DejaVuSans-31"/>
       <use xlink:href="#DejaVuSans-20" x="63.623047"/>
       <use xlink:href="#DejaVuSans-79" x="95.410156"/>
       <use xlink:href="#DejaVuSans-65" x="154.589844"/>
       <use xlink:href="#DejaVuSans-61" x="216.113281"/>
       <use xlink:href="#DejaVuSans-72" x="277.392578"/>
      </g>
     </g>
    </g>
    <g id="xtick_4">
     <g id="line2d_4">
      <g>
       <use xlink:href="#m66a883b81c" x="336.42" y="252" style="stroke: #000000; stroke-width: 0.8"/>
      </g>
     </g>
     <g id="text_4">
      <!-- 13 years -->
      <g transform="translate(314.708281 266.598437)scale(0.1 -0.1)">
       <defs>
        <path id="DejaVuSans-33" d="M 2597 2516 
Q 3050 2419 3304 2112 
Q 3559 1806 3559 1356 
Q 3559 666 3084 287 
Q 2609 -91 1734 -91 
Q 1441 -91 1130 -33 
Q 819 25 488 141 
L 488 750 
Q 750 597 1062 519 
Q 1375 441 1716 441 
Q 2309 441 2620 675 
Q 2931 909 2931 1356 
Q 2931 1769 2642 2001 
Q 2353 2234 1838 2234 
L 1294 2234 
L 1294 2753 
L 1863 2753 
Q 2328 2753 2575 2939 
Q 2822 3125 2822 3475 
Q 2822 3834 2567 4026 
Q 2313 4219 1838 4219 
Q 1578 4219 1281 4162 
Q 984 4106 628 3988 
L 628 4550 
Q 988 4650 1302 4700 
Q 1616 4750 1894 4750 
Q 2613 4750 3031 4423 
Q 3450 4097 3450 3541 
Q 3450 3153 3228 2886 
Q 3006 2619 2597 2516 
z
" transform="scale(0.015625)"/>
       </defs>
       <use xlink:href="#DejaVuSans-31"/>
       <use xlink:href="#DejaVuSans-33" x="63.623047"/>
       <use xlink:href="#DejaVuSans-20" x="127.246094"/>
       <use xlink:href="#DejaVuSans-79" x="159.033203"/>
       <use xlink:href="#DejaVuSans-65" x="218.212891"/>
       <use xlink:href="#DejaVuSans-61" x="279.736328"/>
       <use xlink:href="#DejaVuSans-72" x="341.015625"/>
       <use xlink:href="#DejaVuSans-73" x="382.128906"/>
      </g>
     </g>
    </g>
    <g id="xtick_5">
     <g id="line2d_5">
      <g>
       <use xlink:href="#m66a883b81c" x="453.6" y="252" style="stroke: #000000; stroke-width: 0.8"/>
      </g>
     </g>
     <g id="text_5">
      <!-- 40 years -->
      <g transform="translate(431.888281 266.598437)scale(0.1 -0.1)">
       <defs>
        <path id="DejaVuSans-34" d="M 2419 4116 
L 825 1625 
L 2419 1625 
L 2419 4116 
z
M 2253 4666 
L 3047 4666 
L 3047 1625 
L 3713 1625 
L 3713 1100 
L 3047 1100 
L 3047 0 
L 2419 0 
L 2419 1100 
L 313 1100 
L 313 1709 
L 2253 4666 
z
" transform="scale(0.015625)"/>
        <path id="DejaVuSans-30" d="M 2034 4250 
Q 1547 4250 1301 3770 
Q 1056 3291 1056 2328 
Q 1056 1369 1301 889 
Q 1547 409 2034 409 
Q 2525 409 2770 889 
Q 3016 1369 3016 2328 
Q 3016 3291 2770 3770 
Q 2525 4250 2034 4250 
z
M 2034 4750 
Q 2819 4750 3233 4129 
Q 3647 3509 3647 2328 
Q 3647 1150 3233 529 
Q 2819 -91 2034 -91 
Q 1250 -91 836 529 
Q 422 1150 422 2328 
Q 422 3509 836 4129 
Q 1250 4750 2034 4750 
z
" transform="scale(0.015625)"/>
       </defs>
       <use xlink:href="#DejaVuSans-34"/>
       <use xlink:href="#DejaVuSans-30" x="63.623047"/>
       <use xlink:href="#DejaVuSans-20" x="127.246094"/>
       <use xlink:href="#DejaVuSans-79" x="159.033203"/>
       <use xlink:href="#DejaVuSans-65" x="218.212891"/>
       <use xlink:href="#DejaVuSans-61" x="279.736328"/>
       <use xlink:href="#DejaVuSans-72" x="341.015625"/>
       <use xlink:href="#DejaVuSans-73" x="382.128906"/>
      </g>
     </g>
    </g>
   </g>
   <g id="matplotlib.axis_2">
    <g id="ytick_1">
     <g id="line2d_6">
      <defs>
       <path id="m9a0e4a70ef" d="M 0 0 
L -3.5 0 
" style="stroke: #000000; stroke-width: 0.8"/>
      </defs>
      <g>
       <use xlink:href="#m9a0e4a70ef" x="63" y="246.277895" style="stroke: #000000; stroke-width: 0.8"/>
      </g>
     </g>
     <g id="text_6">
      <!-- 0.25 -->
      <g transform="translate(33.734375 250.077113)scale(0.1 -0.1)">
       <defs>
        <path id="DejaVuSans-2e" d="M 684 794 
L 1344 794 
L 1344 0 
L 684 0 
L 684 794 
z
" transform="scale(0.015625)"/>
        <path id="DejaVuSans-32" d="M 1228 531 
L 3431 531 
L 3431 0 
L 469 0 
L 469 531 
Q 828 903 1448 1529 
Q 2069 2156 2228 2338 
Q 2531 2678 2651 2914 
Q 2772 3150 2772 3378 
Q 2772 3750 2511 3984 
Q 2250 4219 1831 4219 
Q 1534 4219 1204 4116 
Q 875 4013 500 3803 
L 500 4441 
Q 881 4594 1212 4672 
Q 1544 4750 1819 4750 
Q 2544 4750 2975 4387 
Q 3406 4025 3406 3419 
Q 3406 3131 3298 2873 
Q 3191 2616 2906 2266 
Q 2828 2175 2409 1742 
Q 1991 1309 1228 531 
z
" transform="scale(0.015625)"/>
        <path id="DejaVuSans-35" d="M 691 4666 
L 3169 4666 
L 3169 4134 
L 1269 4134 
L 1269 2991 
Q 1406 3038 1543 3061 
Q 1681 3084 1819 3084 
Q 2600 3084 3056 2656 
Q 3513 2228 3513 1497 
Q 3513 744 3044 326 
Q 2575 -91 1722 -91 
Q 1428 -91 1123 -41 
Q 819 9 494 109 
L 494 744 
Q 775 591 1075 516 
Q 1375 441 1709 441 
Q 2250 441 2565 725 
Q 2881 1009 2881 1497 
Q 2881 1984 2565 2268 
Q 2250 2553 1709 2553 
Q 1456 2553 1204 2497 
Q 953 2441 691 2322 
L 691 4666 
z
" transform="scale(0.015625)"/>
       </defs>
       <use xlink:href="#DejaVuSans-30"/>
       <use xlink:href="#DejaVuSans-2e" x="63.623047"/>
       <use xlink:href="#DejaVuSans-32" x="95.410156"/>
       <use xlink:href="#DejaVuSans-35" x="159.033203"/>
      </g>
     </g>
    </g>
    <g id="ytick_2">
     <g id="line2d_7">
      <g>
       <use xlink:href="#m9a0e4a70ef" x="63" y="217.667368" style="stroke: #000000; stroke-width: 0.8"/>
      </g>
     </g>
     <g id="text_7">
      <!-- 0.50 -->
      <g transform="translate(33.734375 221.466587)scale(0.1 -0.1)">
       <use xlink:href="#DejaVuSans-30"/>
       <use xlink:href="#DejaVuSans-2e" x="63.623047"/>
       <use xlink:href="#DejaVuSans-35" x="95.410156"/>
       <use xlink:href="#DejaVuSans-30" x="159.033203"/>
      </g>
     </g>
    </g>
    <g id="ytick_3">
     <g id="line2d_8">
      <g>
       <use xlink:href="#m9a0e4a70ef" x="63" y="189.056842" style="stroke: #000000; stroke-width: 0.8"/>
      </g>
     </g>
     <g id="text_8">
      <!-- 0.75 -->
      <g transform="translate(33.734375 192.856061)scale(0.1 -0.1)">
       <defs>
        <path id="DejaVuSans-37" d="M 525 4666 
L 3525 4666 
L 3525 4397 
L 1831 0 
L 1172 0 
L 2766 4134 
L 525 4134 
L 525 4666 
z
" transform="scale(0.015625)"/>
       </defs>
       <use xlink:href="#DejaVuSans-30"/>
       <use xlink:href="#DejaVuSans-2e" x="63.623047"/>
       <use xlink:href="#DejaVuSans-37" x="95.410156"/>
       <use xlink:href="#DejaVuSans-35" x="159.033203"/>
      </g>
     </g>
    </g>
    <g id="ytick_4">
     <g id="line2d_9">
      <g>
       <use xlink:href="#m9a0e4a70ef" x="63" y="160.446316" style="stroke: #000000; stroke-width: 0.8"/>
      </g>
     </g>
     <g id="text_9">
      <!-- 1.00 -->
      <g transform="translate(33.734375 164.245535)scale(0.1 -0.1)">
       <use xlink:href="#DejaVuSans-31"/>
       <use xlink:href="#DejaVuSans-2e" x="63.623047"/>
       <use xlink:href="#DejaVuSans-30" x="95.410156"/>
       <use xlink:href="#DejaVuSans-30" x="159.033203"/>
      </g>
     </g>
    </g>
    <g id="ytick_5">
     <g id="line2d_10">
      <g>
       <use xlink:href="#m9a0e4a70ef" x="63" y="131.835789" style="stroke: #000000; stroke-width: 0.8"/>
      </g>
     </g>
     <g id="text_10">
      <!-- 1.25 -->
      <g transform="translate(33.734375 135.635008)scale(0.1 -0.1)">
       <use xlink:href="#DejaVuSans-31"/>
       <use xlink:href="#DejaVuSans-2e" x="63.623047"/>
       <use xlink:href="#DejaVuSans-32" x="95.410156"/>
       <use xlink:href="#DejaVuSans-35" x="159.033203"/>
      </g>
     </g>
    </g>
    <g id="ytick_6">
     <g id="line2d_11">
      <g>
       <use xlink:href="#m9a0e4a70ef" x="63" y="103.225263" style="stroke: #000000; stroke-width: 0.8"/>
      </g>
     </g>
     <g id="text_11">
      <!-- 1.50 -->
      <g transform="translate(33.734375 107.024482)scale(0.1 -0.1)">
       <use xlink:href="#DejaVuSans-31"/>
       <use xlink:href="#DejaVuSans-2e" x="63.623047"/>
       <use xlink:href="#DejaVuSans-35" x="95.410156"/>
       <use xlink:href="#DejaVuSans-30" x="159.033203"/>
      </g>
     </g>
    </g>
    <g id="ytick_7">
     <g id="line2d_12">
      <g>
       <use xlink:href="#m9a0e4a70ef" x="63" y="74.614737" style="stroke: #000000; stroke-width: 0.8"/>
      </g>
     </g>
     <g id="text_12">
      <!-- 1.75 -->
      <g transform="translate(33.734375 78.413956)scale(0.1 -0.1)">
       <use xlink:href="#DejaVuSans-31"/>
       <use xlink:href="#DejaVuSans-2e" x="63.623047"/>
       <use xlink:href="#DejaVuSans-37" x="95.410156"/>
       <use xlink:href="#DejaVuSans-35" x="159.033203"/>
      </g>
     </g>
    </g>
    <g id="text_13">
     <!-- Mean scaled gene-expression -->
     <g transform="translate(27.654687 217.408125)rotate(-90)scale(0.1 -0.1)">
      <defs>
       <path id="DejaVuSans-4d" d="M 628 4666 
L 1569 4666 
L 2759 1491 
L 3956 4666 
L 4897 4666 
L 4897 0 
L 4281 0 
L 4281 4097 
L 3078 897 
L 2444 897 
L 1241 4097 
L 1241 0 
L 628 0 
L 628 4666 
z
" transform="scale(0.015625)"/>
       <path id="DejaVuSans-6c" d="M 603 4863 
L 1178 4863 
L 1178 0 
L 603 0 
L 603 4863 
z
" transform="scale(0.015625)"/>
       <path id="DejaVuSans-64" d="M 2906 2969 
L 2906 4863 
L 3481 4863 
L 3481 0 
L 2906 0 
L 2906 525 
Q 2725 213 2448 61 
Q 2172 -91 1784 -91 
Q 1150 -91 751 415 
Q 353 922 353 1747 
Q 353 2572 751 3078 
Q 1150 3584 1784 3584 
Q 2172 3584 2448 3432 
Q 2725 3281 2906 2969 
z
M 947 1747 
Q 947 1113 1208 752 
Q 1469 391 1925 391 
Q 2381 391 2643 752 
Q 2906 1113 2906 1747 
Q 2906 2381 2643 2742 
Q 2381 3103 1925 3103 
Q 1469 3103 1208 2742 
Q 947 2381 947 1747 
z
" transform="scale(0.015625)"/>
       <path id="DejaVuSans-67" d="M 2906 1791 
Q 2906 2416 2648 2759 
Q 2391 3103 1925 3103 
Q 1463 3103 1205 2759 
Q 947 2416 947 1791 
Q 947 1169 1205 825 
Q 1463 481 1925 481 
Q 2391 481 2648 825 
Q 2906 1169 2906 1791 
z
M 3481 434 
Q 3481 -459 3084 -895 
Q 2688 -1331 1869 -1331 
Q 1566 -1331 1297 -1286 
Q 1028 -1241 775 -1147 
L 775 -588 
Q 1028 -725 1275 -790 
Q 1522 -856 1778 -856 
Q 2344 -856 2625 -561 
Q 2906 -266 2906 331 
L 2906 616 
Q 2728 306 2450 153 
Q 2172 0 1784 0 
Q 1141 0 747 490 
Q 353 981 353 1791 
Q 353 2603 747 3093 
Q 1141 3584 1784 3584 
Q 2172 3584 2450 3431 
Q 2728 3278 2906 2969 
L 2906 3500 
L 3481 3500 
L 3481 434 
z
" transform="scale(0.015625)"/>
       <path id="DejaVuSans-78" d="M 3513 3500 
L 2247 1797 
L 3578 0 
L 2900 0 
L 1881 1375 
L 863 0 
L 184 0 
L 1544 1831 
L 300 3500 
L 978 3500 
L 1906 2253 
L 2834 3500 
L 3513 3500 
z
" transform="scale(0.015625)"/>
      </defs>
      <use xlink:href="#DejaVuSans-4d"/>
      <use xlink:href="#DejaVuSans-65" x="86.279297"/>
      <use xlink:href="#DejaVuSans-61" x="147.802734"/>
      <use xlink:href="#DejaVuSans-6e" x="209.082031"/>
      <use xlink:href="#DejaVuSans-20" x="272.460938"/>
      <use xlink:href="#DejaVuSans-73" x="304.248047"/>
      <use xlink:href="#DejaVuSans-63" x="356.347656"/>
      <use xlink:href="#DejaVuSans-61" x="411.328125"/>
      <use xlink:href="#DejaVuSans-6c" x="472.607422"/>
      <use xlink:href="#DejaVuSans-65" x="500.390625"/>
      <use xlink:href="#DejaVuSans-64" x="561.914062"/>
      <use xlink:href="#DejaVuSans-20" x="625.390625"/>
      <use xlink:href="#DejaVuSans-67" x="657.177734"/>
      <use xlink:href="#DejaVuSans-65" x="720.654297"/>
      <use xlink:href="#DejaVuSans-6e" x="782.177734"/>
      <use xlink:href="#DejaVuSans-65" x="845.556641"/>
      <use xlink:href="#DejaVuSans-2d" x="907.080078"/>
      <use xlink:href="#DejaVuSans-65" x="943.164062"/>
      <use xlink:href="#DejaVuSans-78" x="1002.9375"/>
      <use xlink:href="#DejaVuSans-70" x="1062.117188"/>
      <use xlink:href="#DejaVuSans-72" x="1125.59375"/>
      <use xlink:href="#DejaVuSans-65" x="1164.457031"/>
      <use xlink:href="#DejaVuSans-73" x="1225.980469"/>
      <use xlink:href="#DejaVuSans-73" x="1278.080078"/>
      <use xlink:href="#DejaVuSans-69" x="1330.179688"/>
      <use xlink:href="#DejaVuSans-6f" x="1357.962891"/>
      <use xlink:href="#DejaVuSans-6e" x="1419.144531"/>
     </g>
    </g>
   </g>
   <g id="line2d_13">
    <path d="M 63 69.881441 
L 66.945455 69.194368 
L 70.890909 68.653327 
L 74.836364 68.29942 
L 78.781818 68.173752 
L 82.727273 68.317425 
L 86.672727 68.771492 
L 90.618182 69.562296 
L 94.563636 70.681111 
L 98.509091 72.114097 
L 102.454545 73.847414 
L 106.4 75.867221 
L 110.345455 78.159631 
L 114.290909 80.708343 
L 118.236364 83.493501 
L 122.181818 86.494963 
L 126.127273 89.692589 
L 130.072727 93.066239 
L 134.018182 96.596488 
L 137.963636 100.278331 
L 141.909091 104.120115 
L 145.854545 108.130688 
L 149.8 112.318902 
L 153.745455 116.693605 
L 157.690909 121.258472 
L 161.636364 125.964823 
L 165.581818 130.733579 
L 169.527273 135.485287 
L 173.472727 140.140494 
L 177.418182 144.619747 
L 181.363636 148.851541 
L 185.309091 152.809752 
L 189.254545 156.484335 
L 193.2 159.865261 
L 197.145455 162.942505 
L 201.090909 165.706041 
L 205.036364 168.159704 
L 208.981818 170.353827 
L 212.927273 172.348482 
L 216.872727 174.20374 
L 220.818182 175.979675 
L 224.763636 177.736255 
L 228.709091 179.518963 
L 232.654545 181.343984 
L 236.6 183.223964 
L 240.545455 185.171555 
L 244.490909 187.199404 
L 248.436364 189.319351 
L 252.381818 191.513815 
L 256.327273 193.728164 
L 260.272727 195.905401 
L 264.218182 197.988532 
L 268.163636 199.920561 
L 272.109091 201.645704 
L 276.054545 203.127166 
L 280 204.34323 
L 283.945455 205.272595 
L 287.890909 205.893959 
L 291.836364 206.18602 
L 295.781818 206.132879 
L 299.727273 205.763405 
L 303.672727 205.128607 
L 307.618182 204.279648 
L 311.563636 203.267695 
L 315.509091 202.143911 
L 319.454545 200.957257 
L 323.4 199.746166 
L 327.345455 198.545934 
L 331.290909 197.391854 
L 335.236364 196.319222 
L 339.181818 195.363316 
L 343.127273 194.545714 
L 347.072727 193.849321 
L 351.018182 193.25027 
L 354.963636 192.724692 
L 358.909091 192.24872 
L 362.854545 191.798658 
L 366.8 191.364732 
L 370.745455 190.961143 
L 374.690909 190.604467 
L 378.636364 190.311275 
L 382.581818 190.098142 
L 386.527273 189.981275 
L 390.472727 189.967187 
L 394.418182 190.051922 
L 398.363636 190.231004 
L 402.309091 190.499957 
L 406.254545 190.854305 
L 410.2 191.289675 
L 414.145455 191.802968 
L 418.090909 192.391959 
L 422.036364 193.054436 
L 425.981818 193.788187 
L 429.927273 194.591002 
L 433.872727 195.460275 
L 437.818182 196.390697 
L 441.763636 197.375822 
L 445.709091 198.409205 
L 449.654545 199.484396 
L 453.6 200.594948 
" clip-path="url(#p7afbcd47ab)" style="fill: none; stroke: #ffa500; stroke-width: 1.5; stroke-linecap: square"/>
   </g>
   <g id="line2d_14">
    <path d="M 63 101.174329 
L 66.945455 97.588531 
L 70.890909 94.463871 
L 74.836364 91.899276 
L 78.781818 89.975584 
L 82.727273 88.744538 
L 86.672727 88.221294 
L 90.618182 88.377218 
L 94.563636 89.140534 
L 98.509091 90.427064 
L 102.454545 92.150083 
L 106.4 94.226887 
L 110.345455 96.584887 
L 114.290909 99.176308 
L 118.236364 101.98048 
L 122.181818 104.981495 
L 126.127273 108.161191 
L 130.072727 111.496743 
L 134.018182 114.963009 
L 137.963636 118.562918 
L 141.909091 122.324206 
L 145.854545 126.268534 
L 149.8 130.407256 
L 153.745455 134.741495 
L 157.690909 139.262289 
L 161.636364 143.925227 
L 165.581818 148.663768 
L 169.527273 153.403803 
L 173.472727 158.06156 
L 177.418182 162.544612 
L 181.363636 166.76779 
L 185.309091 170.712586 
L 189.254545 174.381231 
L 193.2 177.768295 
L 197.145455 180.858857 
L 201.090909 183.629998 
L 205.036364 186.075644 
L 208.981818 188.257661 
L 212.927273 190.248045 
L 216.872727 192.110348 
L 220.818182 193.898511 
L 224.763636 195.658936 
L 228.709091 197.430904 
L 232.654545 199.244021 
L 236.6 201.121605 
L 240.545455 203.078001 
L 244.490909 205.118017 
L 248.436364 207.239217 
L 252.381818 209.421884 
L 256.327273 211.625664 
L 260.272727 213.802902 
L 264.218182 215.8966 
L 268.163636 217.840427 
L 272.109091 219.564316 
L 276.054545 221.033612 
L 280 222.24087 
L 283.945455 223.172632 
L 287.890909 223.8059 
L 291.836364 224.108701 
L 295.781818 224.051716 
L 299.727273 223.670014 
L 303.672727 223.02817 
L 307.618182 222.183482 
L 311.563636 221.183635 
L 315.509091 220.067868 
L 319.454545 218.87361 
L 323.4 217.649201 
L 327.345455 216.44283 
L 331.290909 215.294688 
L 335.236364 214.235471 
L 339.181818 213.288182 
L 343.127273 212.466779 
L 347.072727 211.767836 
L 351.018182 211.180459 
L 354.963636 210.685096 
L 358.909091 210.252537 
L 362.854545 209.846548 
L 366.8 209.453086 
L 370.745455 209.098989 
L 374.690909 208.808558 
L 378.636364 208.595861 
L 382.581818 208.464662 
L 386.527273 208.411779 
L 390.472727 208.435788 
L 394.418182 208.538454 
L 398.363636 208.717983 
L 402.309091 208.967923 
L 406.254545 209.279561 
L 410.2 209.649341 
L 414.145455 210.105638 
L 418.090909 210.704926 
L 422.036364 211.513859 
L 425.981818 212.60311 
L 429.927273 214.040804 
L 433.872727 215.887388 
L 437.818182 218.192529 
L 441.763636 220.975678 
L 445.709091 224.21975 
L 449.654545 227.878559 
L 453.6 231.887836 
" clip-path="url(#p7afbcd47ab)" style="fill: none; stroke: #ffa500; stroke-width: 0.4; stroke-linecap: square"/>
   </g>
   <g id="line2d_15">
    <path d="M 63 38.588553 
L 66.945455 40.800205 
L 70.890909 42.842782 
L 74.836364 44.699565 
L 78.781818 46.37192 
L 82.727273 47.890312 
L 86.672727 49.32169 
L 90.618182 50.747374 
L 94.563636 52.221688 
L 98.509091 53.80113 
L 102.454545 55.544744 
L 106.4 57.507555 
L 110.345455 59.734375 
L 114.290909 62.240378 
L 118.236364 65.006522 
L 122.181818 68.008431 
L 126.127273 71.223987 
L 130.072727 74.635734 
L 134.018182 78.229968 
L 137.963636 81.993745 
L 141.909091 85.916023 
L 145.854545 89.992842 
L 149.8 94.230548 
L 153.745455 98.645716 
L 157.690909 103.254656 
L 161.636364 108.004419 
L 165.581818 112.80339 
L 169.527273 117.566772 
L 173.472727 122.219429 
L 177.418182 126.694882 
L 181.363636 130.935292 
L 185.309091 134.906919 
L 189.254545 138.587438 
L 193.2 141.962227 
L 197.145455 145.026152 
L 201.090909 147.782084 
L 205.036364 150.243764 
L 208.981818 152.449993 
L 212.927273 154.448919 
L 216.872727 156.297132 
L 220.818182 158.060838 
L 224.763636 159.813574 
L 228.709091 161.607023 
L 232.654545 163.443946 
L 236.6 165.326324 
L 240.545455 167.265109 
L 244.490909 169.280792 
L 248.436364 171.399485 
L 252.381818 173.605747 
L 256.327273 175.830663 
L 260.272727 178.0079 
L 264.218182 180.080464 
L 268.163636 182.000695 
L 272.109091 183.727092 
L 276.054545 185.22072 
L 280 186.44559 
L 283.945455 187.372558 
L 287.890909 187.982018 
L 291.836364 188.26334 
L 295.781818 188.214043 
L 299.727273 187.856797 
L 303.672727 187.229044 
L 307.618182 186.375814 
L 311.563636 185.351755 
L 315.509091 184.219954 
L 319.454545 183.040905 
L 323.4 181.843132 
L 327.345455 180.649037 
L 331.290909 179.48902 
L 335.236364 178.402973 
L 339.181818 177.438451 
L 343.127273 176.624648 
L 347.072727 175.930806 
L 351.018182 175.32008 
L 354.963636 174.764288 
L 358.909091 174.244904 
L 362.854545 173.750769 
L 366.8 173.276377 
L 370.745455 172.823297 
L 374.690909 172.400375 
L 378.636364 172.026689 
L 382.581818 171.731621 
L 386.527273 171.55077 
L 390.472727 171.498585 
L 394.418182 171.56539 
L 398.363636 171.744025 
L 402.309091 172.031992 
L 406.254545 172.42905 
L 410.2 172.930009 
L 414.145455 173.500299 
L 418.090909 174.078993 
L 422.036364 174.595013 
L 425.981818 174.973265 
L 429.927273 175.1412 
L 433.872727 175.033163 
L 437.818182 174.588865 
L 441.763636 173.775967 
L 445.709091 172.59866 
L 449.654545 171.090233 
L 453.6 169.302061 
" clip-path="url(#p7afbcd47ab)" style="fill: none; stroke: #ffa500; stroke-width: 0.4; stroke-linecap: square"/>
   </g>
   <g id="line2d_16">
    <path d="M 63 206.632135 
L 66.945455 205.550781 
L 70.890909 204.496796 
L 74.836364 203.476485 
L 78.781818 202.496155 
L 82.727273 201.56211 
L 86.672727 200.680644 
L 90.618182 199.854435 
L 94.563636 199.077546 
L 98.509091 198.342781 
L 102.454545 197.642945 
L 106.4 196.970845 
L 110.345455 196.319285 
L 114.290909 195.681023 
L 118.236364 195.048756 
L 122.181818 194.415173 
L 126.127273 193.772964 
L 130.072727 193.114819 
L 134.018182 192.433708 
L 137.963636 191.72826 
L 141.909091 191.002343 
L 145.854545 190.260021 
L 149.8 189.50536 
L 153.745455 188.742425 
L 157.690909 187.973967 
L 161.636364 187.189435 
L 165.581818 186.370557 
L 169.527273 185.498967 
L 173.472727 184.556298 
L 177.418182 183.524182 
L 181.363636 182.384142 
L 185.309091 181.117064 
L 189.254545 179.70361 
L 193.2 178.124442 
L 197.145455 176.360223 
L 201.090909 174.391616 
L 205.036364 172.216819 
L 208.981818 169.892851 
L 212.927273 167.489054 
L 216.872727 165.074768 
L 220.818182 162.719334 
L 224.763636 160.492064 
L 228.709091 158.458064 
L 232.654545 156.673935 
L 236.6 155.195253 
L 240.545455 154.077594 
L 244.490909 153.376533 
L 248.436364 153.145651 
L 252.381818 153.36611 
L 256.327273 153.927864 
L 260.272727 154.71505 
L 264.218182 155.611803 
L 268.163636 156.502262 
L 272.109091 157.272799 
L 276.054545 157.84486 
L 280 158.167739 
L 283.945455 158.191495 
L 287.890909 157.866188 
L 291.836364 157.141878 
L 295.781818 155.979064 
L 299.727273 154.424776 
L 303.672727 152.568833 
L 307.618182 150.501355 
L 311.563636 148.312465 
L 315.509091 146.092283 
L 319.454545 143.92294 
L 323.4 141.848427 
L 327.345455 139.901366 
L 331.290909 138.114375 
L 335.236364 136.520075 
L 339.181818 135.151059 
L 343.127273 134.019309 
L 347.072727 133.07862 
L 351.018182 132.272595 
L 354.963636 131.544839 
L 358.909091 130.838955 
L 362.854545 130.098918 
L 366.8 129.298722 
L 370.745455 128.464063 
L 374.690909 127.62575 
L 378.636364 126.81459 
L 382.581818 126.061394 
L 386.527273 125.396548 
L 390.472727 124.839297 
L 394.418182 124.396854 
L 398.363636 124.075834 
L 402.309091 123.88285 
L 406.254545 123.824517 
L 410.2 123.907266 
L 414.145455 124.135226 
L 418.090909 124.510964 
L 422.036364 125.037019 
L 425.981818 125.715927 
L 429.927273 126.550225 
L 433.872727 127.540376 
L 437.818182 128.672621 
L 441.763636 129.927237 
L 445.709091 131.284478 
L 449.654545 132.724599 
L 453.6 134.227855 
" clip-path="url(#p7afbcd47ab)" style="fill: none; stroke: #0000ff; stroke-width: 1.5; stroke-linecap: square"/>
   </g>
   <g id="line2d_17">
    <path d="M 63 244.439447 
L 66.945455 239.855924 
L 70.890909 235.680474 
L 74.836364 231.989262 
L 78.781818 228.836603 
L 82.727273 226.241655 
L 86.672727 224.179425 
L 90.618182 222.58617 
L 94.563636 221.379775 
L 98.509091 220.468065 
L 102.454545 219.75579 
L 106.4 219.152551 
L 110.345455 218.580234 
L 114.290909 217.993573 
L 118.236364 217.384278 
L 122.181818 216.750155 
L 126.127273 216.086284 
L 130.072727 215.38211 
L 134.018182 214.623695 
L 137.963636 213.819256 
L 141.909091 212.996087 
L 145.854545 212.173729 
L 149.8 211.359274 
L 153.745455 210.54745 
L 157.690909 209.725744 
L 161.636364 208.888761 
L 165.581818 208.033379 
L 169.527273 207.147686 
L 173.472727 206.208097 
L 177.418182 205.180573 
L 181.363636 204.030122 
L 185.309091 202.746836 
L 189.254545 201.326208 
L 193.2 199.754456 
L 197.145455 198.006328 
L 201.090909 196.046908 
L 205.036364 193.862426 
L 208.981818 191.523832 
L 212.927273 189.114875 
L 216.872727 186.7091 
L 220.818182 184.368441 
L 224.763636 182.145815 
L 228.709091 180.098839 
L 232.654545 178.300328 
L 236.6 176.81875 
L 240.545455 175.711729 
L 244.490909 175.025368 
L 248.436364 174.796001 
L 252.381818 175.002207 
L 256.327273 175.551193 
L 260.272727 176.338378 
L 264.218182 177.247899 
L 268.163636 178.152612 
L 272.109091 178.921634 
L 276.054545 179.478996 
L 280 179.791236 
L 283.945455 179.817888 
L 287.890909 179.506963 
L 291.836364 178.795629 
L 295.781818 177.62817 
L 299.727273 176.059109 
L 303.672727 174.194654 
L 307.618182 172.132336 
L 311.563636 169.958071 
L 315.509091 167.747575 
L 319.454545 165.569046 
L 323.4 163.478442 
L 327.345455 161.523965 
L 331.290909 159.744147 
L 335.236364 158.166055 
L 339.181818 156.80745 
L 343.127273 155.671109 
L 347.072727 154.727338 
L 351.018182 153.935417 
L 354.963636 153.244166 
L 358.909091 152.590732 
L 362.854545 151.903943 
L 366.8 151.152635 
L 370.745455 150.377771 
L 374.690909 149.619494 
L 378.636364 148.905587 
L 382.581818 148.251381 
L 386.527273 147.663839 
L 390.472727 147.152616 
L 394.418182 146.731836 
L 398.363636 146.411356 
L 402.309091 146.1954 
L 406.254545 146.085467 
L 410.2 146.088971 
L 414.145455 146.24807 
L 418.090909 146.636249 
L 422.036364 147.339248 
L 425.981818 148.447662 
L 429.927273 150.049006 
L 433.872727 152.219921 
L 437.818182 155.013069 
L 441.763636 158.440013 
L 445.709091 162.468156 
L 449.654545 167.029742 
L 453.6 172.035168 
" clip-path="url(#p7afbcd47ab)" style="fill: none; stroke: #0000ff; stroke-width: 0.4; stroke-linecap: square"/>
   </g>
   <g id="line2d_18">
    <path d="M 63 168.824822 
L 66.945455 171.245638 
L 70.890909 173.313118 
L 74.836364 174.963709 
L 78.781818 176.155707 
L 82.727273 176.882565 
L 86.672727 177.181862 
L 90.618182 177.1227 
L 94.563636 176.775316 
L 98.509091 176.217496 
L 102.454545 175.530101 
L 106.4 174.78914 
L 110.345455 174.058335 
L 114.290909 173.368473 
L 118.236364 172.713234 
L 122.181818 172.080191 
L 126.127273 171.459645 
L 130.072727 170.847528 
L 134.018182 170.243721 
L 137.963636 169.637264 
L 141.909091 169.008599 
L 145.854545 168.346313 
L 149.8 167.651447 
L 153.745455 166.937401 
L 157.690909 166.22219 
L 161.636364 165.490108 
L 165.581818 164.707735 
L 169.527273 163.850249 
L 173.472727 162.904499 
L 177.418182 161.867792 
L 181.363636 160.738162 
L 185.309091 159.487292 
L 189.254545 158.081011 
L 193.2 156.494428 
L 197.145455 154.714117 
L 201.090909 152.736323 
L 205.036364 150.571212 
L 208.981818 148.261871 
L 212.927273 145.863234 
L 216.872727 143.440436 
L 220.818182 141.070228 
L 224.763636 138.838314 
L 228.709091 136.817289 
L 232.654545 135.047542 
L 236.6 133.571756 
L 240.545455 132.443458 
L 244.490909 131.727697 
L 248.436364 131.495301 
L 252.381818 131.730014 
L 256.327273 132.304536 
L 260.272727 133.091721 
L 264.218182 133.975707 
L 268.163636 134.851911 
L 272.109091 135.623963 
L 276.054545 136.210724 
L 280 136.544241 
L 283.945455 136.565101 
L 287.890909 136.225413 
L 291.836364 135.488127 
L 295.781818 134.329957 
L 299.727273 132.790444 
L 303.672727 130.943013 
L 307.618182 128.870375 
L 311.563636 126.666858 
L 315.509091 124.43699 
L 319.454545 122.276835 
L 323.4 120.218413 
L 327.345455 118.278768 
L 331.290909 116.484603 
L 335.236364 114.874095 
L 339.181818 113.494669 
L 343.127273 112.36751 
L 347.072727 111.429902 
L 351.018182 110.609773 
L 354.963636 109.845512 
L 358.909091 109.087178 
L 362.854545 108.293893 
L 366.8 107.444808 
L 370.745455 106.550355 
L 374.690909 105.632005 
L 378.636364 104.723594 
L 382.581818 103.871406 
L 386.527273 103.129256 
L 390.472727 102.525977 
L 394.418182 102.061872 
L 398.363636 101.740312 
L 402.309091 101.5703 
L 406.254545 101.563568 
L 410.2 101.72556 
L 414.145455 102.022382 
L 418.090909 102.38568 
L 422.036364 102.73479 
L 425.981818 102.984191 
L 429.927273 103.051443 
L 433.872727 102.860831 
L 437.818182 102.332174 
L 441.763636 101.41446 
L 445.709091 100.1008 
L 449.654545 98.419456 
L 453.6 96.420543 
" clip-path="url(#p7afbcd47ab)" style="fill: none; stroke: #0000ff; stroke-width: 0.4; stroke-linecap: square"/>
   </g>
   <g id="line2d_19">
    <path d="M 219.24 252 
L 219.24 34.56 
" clip-path="url(#p7afbcd47ab)" style="fill: none; stroke-dasharray: 5.55,2.4; stroke-dashoffset: 0; stroke: #000000; stroke-opacity: 0.5; stroke-width: 1.5"/>
   </g>
   <g id="patch_3">
    <path d="M 63 252 
L 63 34.56 
" style="fill: none; stroke: #000000; stroke-width: 0.8; stroke-linejoin: miter; stroke-linecap: square"/>
   </g>
   <g id="patch_4">
    <path d="M 453.6 252 
L 453.6 34.56 
" style="fill: none; stroke: #000000; stroke-width: 0.8; stroke-linejoin: miter; stroke-linecap: square"/>
   </g>
   <g id="patch_5">
    <path d="M 63 252 
L 453.6 252 
" style="fill: none; stroke: #000000; stroke-width: 0.8; stroke-linejoin: miter; stroke-linecap: square"/>
   </g>
   <g id="patch_6">
    <path d="M 63 34.56 
L 453.6 34.56 
" style="fill: none; stroke: #000000; stroke-width: 0.8; stroke-linejoin: miter; stroke-linecap: square"/>
   </g>
   <g id="legend_1">
    <g id="line2d_20">
     <path d="M 42.189062 25.914437 
L 52.189062 25.914437 
L 62.189062 25.914437 
" style="fill: none; stroke: #ffa500; stroke-width: 1.5; stroke-linecap: square"/>
    </g>
    <g id="text_14">
     <!-- Neurodevelopmental cluster (N=68) -->
     <g transform="translate(70.189062 29.414437)scale(0.1 -0.1)">
      <defs>
       <path id="DejaVuSans-4e" d="M 628 4666 
L 1478 4666 
L 3547 763 
L 3547 4666 
L 4159 4666 
L 4159 0 
L 3309 0 
L 1241 3903 
L 1241 0 
L 628 0 
L 628 4666 
z
" transform="scale(0.015625)"/>
       <path id="DejaVuSans-75" d="M 544 1381 
L 544 3500 
L 1119 3500 
L 1119 1403 
Q 1119 906 1312 657 
Q 1506 409 1894 409 
Q 2359 409 2629 706 
Q 2900 1003 2900 1516 
L 2900 3500 
L 3475 3500 
L 3475 0 
L 2900 0 
L 2900 538 
Q 2691 219 2414 64 
Q 2138 -91 1772 -91 
Q 1169 -91 856 284 
Q 544 659 544 1381 
z
M 1991 3584 
L 1991 3584 
z
" transform="scale(0.015625)"/>
       <path id="DejaVuSans-76" d="M 191 3500 
L 800 3500 
L 1894 563 
L 2988 3500 
L 3597 3500 
L 2284 0 
L 1503 0 
L 191 3500 
z
" transform="scale(0.015625)"/>
       <path id="DejaVuSans-6d" d="M 3328 2828 
Q 3544 3216 3844 3400 
Q 4144 3584 4550 3584 
Q 5097 3584 5394 3201 
Q 5691 2819 5691 2113 
L 5691 0 
L 5113 0 
L 5113 2094 
Q 5113 2597 4934 2840 
Q 4756 3084 4391 3084 
Q 3944 3084 3684 2787 
Q 3425 2491 3425 1978 
L 3425 0 
L 2847 0 
L 2847 2094 
Q 2847 2600 2669 2842 
Q 2491 3084 2119 3084 
Q 1678 3084 1418 2786 
Q 1159 2488 1159 1978 
L 1159 0 
L 581 0 
L 581 3500 
L 1159 3500 
L 1159 2956 
Q 1356 3278 1631 3431 
Q 1906 3584 2284 3584 
Q 2666 3584 2933 3390 
Q 3200 3197 3328 2828 
z
" transform="scale(0.015625)"/>
       <path id="DejaVuSans-28" d="M 1984 4856 
Q 1566 4138 1362 3434 
Q 1159 2731 1159 2009 
Q 1159 1288 1364 580 
Q 1569 -128 1984 -844 
L 1484 -844 
Q 1016 -109 783 600 
Q 550 1309 550 2009 
Q 550 2706 781 3412 
Q 1013 4119 1484 4856 
L 1984 4856 
z
" transform="scale(0.015625)"/>
       <path id="DejaVuSans-3d" d="M 678 2906 
L 4684 2906 
L 4684 2381 
L 678 2381 
L 678 2906 
z
M 678 1631 
L 4684 1631 
L 4684 1100 
L 678 1100 
L 678 1631 
z
" transform="scale(0.015625)"/>
       <path id="DejaVuSans-36" d="M 2113 2584 
Q 1688 2584 1439 2293 
Q 1191 2003 1191 1497 
Q 1191 994 1439 701 
Q 1688 409 2113 409 
Q 2538 409 2786 701 
Q 3034 994 3034 1497 
Q 3034 2003 2786 2293 
Q 2538 2584 2113 2584 
z
M 3366 4563 
L 3366 3988 
Q 3128 4100 2886 4159 
Q 2644 4219 2406 4219 
Q 1781 4219 1451 3797 
Q 1122 3375 1075 2522 
Q 1259 2794 1537 2939 
Q 1816 3084 2150 3084 
Q 2853 3084 3261 2657 
Q 3669 2231 3669 1497 
Q 3669 778 3244 343 
Q 2819 -91 2113 -91 
Q 1303 -91 875 529 
Q 447 1150 447 2328 
Q 447 3434 972 4092 
Q 1497 4750 2381 4750 
Q 2619 4750 2861 4703 
Q 3103 4656 3366 4563 
z
" transform="scale(0.015625)"/>
       <path id="DejaVuSans-29" d="M 513 4856 
L 1013 4856 
Q 1481 4119 1714 3412 
Q 1947 2706 1947 2009 
Q 1947 1309 1714 600 
Q 1481 -109 1013 -844 
L 513 -844 
Q 928 -128 1133 580 
Q 1338 1288 1338 2009 
Q 1338 2731 1133 3434 
Q 928 4138 513 4856 
z
" transform="scale(0.015625)"/>
      </defs>
      <use xlink:href="#DejaVuSans-4e"/>
      <use xlink:href="#DejaVuSans-65" x="74.804688"/>
      <use xlink:href="#DejaVuSans-75" x="136.328125"/>
      <use xlink:href="#DejaVuSans-72" x="199.707031"/>
      <use xlink:href="#DejaVuSans-6f" x="238.570312"/>
      <use xlink:href="#DejaVuSans-64" x="299.751953"/>
      <use xlink:href="#DejaVuSans-65" x="363.228516"/>
      <use xlink:href="#DejaVuSans-76" x="424.751953"/>
      <use xlink:href="#DejaVuSans-65" x="483.931641"/>
      <use xlink:href="#DejaVuSans-6c" x="545.455078"/>
      <use xlink:href="#DejaVuSans-6f" x="573.238281"/>
      <use xlink:href="#DejaVuSans-70" x="634.419922"/>
      <use xlink:href="#DejaVuSans-6d" x="697.896484"/>
      <use xlink:href="#DejaVuSans-65" x="795.308594"/>
      <use xlink:href="#DejaVuSans-6e" x="856.832031"/>
      <use xlink:href="#DejaVuSans-74" x="920.210938"/>
      <use xlink:href="#DejaVuSans-61" x="959.419922"/>
      <use xlink:href="#DejaVuSans-6c" x="1020.699219"/>
      <use xlink:href="#DejaVuSans-20" x="1048.482422"/>
      <use xlink:href="#DejaVuSans-63" x="1080.269531"/>
      <use xlink:href="#DejaVuSans-6c" x="1135.25"/>
      <use xlink:href="#DejaVuSans-75" x="1163.033203"/>
      <use xlink:href="#DejaVuSans-73" x="1226.412109"/>
      <use xlink:href="#DejaVuSans-74" x="1278.511719"/>
      <use xlink:href="#DejaVuSans-65" x="1317.720703"/>
      <use xlink:href="#DejaVuSans-72" x="1379.244141"/>
      <use xlink:href="#DejaVuSans-20" x="1420.357422"/>
      <use xlink:href="#DejaVuSans-28" x="1452.144531"/>
      <use xlink:href="#DejaVuSans-4e" x="1491.158203"/>
      <use xlink:href="#DejaVuSans-3d" x="1565.962891"/>
      <use xlink:href="#DejaVuSans-36" x="1649.751953"/>
      <use xlink:href="#DejaVuSans-38" x="1713.375"/>
      <use xlink:href="#DejaVuSans-29" x="1776.998047"/>
     </g>
    </g>
    <g id="line2d_21">
     <path d="M 271.795313 25.914437 
L 281.795313 25.914437 
L 291.795313 25.914437 
" style="fill: none; stroke: #0000ff; stroke-width: 1.5; stroke-linecap: square"/>
    </g>
    <g id="text_15">
     <!-- Synaptic signaling cluster (N=114) -->
     <g transform="translate(299.795313 29.414437)scale(0.1 -0.1)">
      <defs>
       <path id="DejaVuSans-53" d="M 3425 4513 
L 3425 3897 
Q 3066 4069 2747 4153 
Q 2428 4238 2131 4238 
Q 1616 4238 1336 4038 
Q 1056 3838 1056 3469 
Q 1056 3159 1242 3001 
Q 1428 2844 1947 2747 
L 2328 2669 
Q 3034 2534 3370 2195 
Q 3706 1856 3706 1288 
Q 3706 609 3251 259 
Q 2797 -91 1919 -91 
Q 1588 -91 1214 -16 
Q 841 59 441 206 
L 441 856 
Q 825 641 1194 531 
Q 1563 422 1919 422 
Q 2459 422 2753 634 
Q 3047 847 3047 1241 
Q 3047 1584 2836 1778 
Q 2625 1972 2144 2069 
L 1759 2144 
Q 1053 2284 737 2584 
Q 422 2884 422 3419 
Q 422 4038 858 4394 
Q 1294 4750 2059 4750 
Q 2388 4750 2728 4690 
Q 3069 4631 3425 4513 
z
" transform="scale(0.015625)"/>
      </defs>
      <use xlink:href="#DejaVuSans-53"/>
      <use xlink:href="#DejaVuSans-79" x="63.476562"/>
      <use xlink:href="#DejaVuSans-6e" x="122.65625"/>
      <use xlink:href="#DejaVuSans-61" x="186.035156"/>
      <use xlink:href="#DejaVuSans-70" x="247.314453"/>
      <use xlink:href="#DejaVuSans-74" x="310.791016"/>
      <use xlink:href="#DejaVuSans-69" x="350"/>
      <use xlink:href="#DejaVuSans-63" x="377.783203"/>
      <use xlink:href="#DejaVuSans-20" x="432.763672"/>
      <use xlink:href="#DejaVuSans-73" x="464.550781"/>
      <use xlink:href="#DejaVuSans-69" x="516.650391"/>
      <use xlink:href="#DejaVuSans-67" x="544.433594"/>
      <use xlink:href="#DejaVuSans-6e" x="607.910156"/>
      <use xlink:href="#DejaVuSans-61" x="671.289062"/>
      <use xlink:href="#DejaVuSans-6c" x="732.568359"/>
      <use xlink:href="#DejaVuSans-69" x="760.351562"/>
      <use xlink:href="#DejaVuSans-6e" x="788.134766"/>
      <use xlink:href="#DejaVuSans-67" x="851.513672"/>
      <use xlink:href="#DejaVuSans-20" x="914.990234"/>
      <use xlink:href="#DejaVuSans-63" x="946.777344"/>
      <use xlink:href="#DejaVuSans-6c" x="1001.757812"/>
      <use xlink:href="#DejaVuSans-75" x="1029.541016"/>
      <use xlink:href="#DejaVuSans-73" x="1092.919922"/>
      <use xlink:href="#DejaVuSans-74" x="1145.019531"/>
      <use xlink:href="#DejaVuSans-65" x="1184.228516"/>
      <use xlink:href="#DejaVuSans-72" x="1245.751953"/>
      <use xlink:href="#DejaVuSans-20" x="1286.865234"/>
      <use xlink:href="#DejaVuSans-28" x="1318.652344"/>
      <use xlink:href="#DejaVuSans-4e" x="1357.666016"/>
      <use xlink:href="#DejaVuSans-3d" x="1432.470703"/>
      <use xlink:href="#DejaVuSans-31" x="1516.259766"/>
      <use xlink:href="#DejaVuSans-31" x="1579.882812"/>
      <use xlink:href="#DejaVuSans-34" x="1643.505859"/>
      <use xlink:href="#DejaVuSans-29" x="1707.128906"/>
     </g>
    </g>
   </g>
  </g>
 </g>
 <defs>
  <clipPath id="p7afbcd47ab">
   <rect x="63" y="34.56" width="390.6" height="217.44"/>
  </clipPath>
 </defs>
</svg>
