<?xml version="1.0" encoding="utf-8" standalone="no"?>
<!DOCTYPE svg PUBLIC "-//W3C//DTD SVG 1.1//EN"
  "http://www.w3.org/Graphics/SVG/1.1/DTD/svg11.dtd">
<svg xmlns:xlink="http://www.w3.org/1999/xlink" width="720pt" height="576pt" viewBox="0 0 720 576" xmlns="http://www.w3.org/2000/svg" version="1.1">
 <metadata>
  <rdf:RDF xmlns:dc="http://purl.org/dc/elements/1.1/" xmlns:cc="http://creativecommons.org/ns#" xmlns:rdf="http://www.w3.org/1999/02/22-rdf-syntax-ns#">
   <cc:Work>
    <dc:type rdf:resource="http://purl.org/dc/dcmitype/StillImage"/>
    <dc:date>2024-07-03T17:57:40.749485</dc:date>
    <dc:format>image/svg+xml</dc:format>
    <dc:creator>
     <cc:Agent>
      <dc:title>Matplotlib v3.5.2, https://matplotlib.org/</dc:title>
     </cc:Agent>
    </dc:creator>
   </cc:Work>
  </rdf:RDF>
 </metadata>
 <defs>
  <style type="text/css">*{stroke-linejoin: round; stroke-linecap: butt}</style>
 </defs>
 <g id="figure_1">
  <g id="patch_1">
   <path d="M 0 576 
L 720 576 
L 720 0 
L 0 0 
L 0 576 
z
" style="fill: none"/>
  </g>
  <g id="axes_1">
   <g id="patch_2">
    <path d="M 52.8 439.736 
L 701.2 439.736 
L 701.2 30.8 
L 52.8 30.8 
z
" style="fill: #ffffff"/>
   </g>
   <g id="matplotlib.axis_1">
    <g id="xtick_1">
     <g id="line2d_1">
      <path d="M 117.64 439.736 
L 117.64 30.8 
" clip-path="url(#pf46dac9c0c)" style="fill: none; stroke-dasharray: 2.96,1.28; stroke-dashoffset: 0; stroke: #b0b0b0; stroke-opacity: 0.5; stroke-width: 0.8"/>
     </g>
     <g id="line2d_2">
      <defs>
       <path id="meb124fad6c" d="M 0 0 
L 0 3.5 
" style="stroke: #000000; stroke-width: 0.8"/>
      </defs>
      <g>
       <use xlink:href="#meb124fad6c" x="117.64" y="439.736" style="stroke: #000000; stroke-width: 0.8"/>
      </g>
     </g>
     <g id="text_1">
      <!-- 0.1 -->
      <g transform="translate(109.688438 454.334437)scale(0.1 -0.1)">
       <defs>
        <path id="DejaVuSans-30" d="M 2034 4250 
Q 1547 4250 1301 3770 
Q 1056 3291 1056 2328 
Q 1056 1369 1301 889 
Q 1547 409 2034 409 
Q 2525 409 2770 889 
Q 3016 1369 3016 2328 
Q 3016 3291 2770 3770 
Q 2525 4250 2034 4250 
z
M 2034 4750 
Q 2819 4750 3233 4129 
Q 3647 3509 3647 2328 
Q 3647 1150 3233 529 
Q 2819 -91 2034 -91 
Q 1250 -91 836 529 
Q 422 1150 422 2328 
Q 422 3509 836 4129 
Q 1250 4750 2034 4750 
z
" transform="scale(0.015625)"/>
        <path id="DejaVuSans-2e" d="M 684 794 
L 1344 794 
L 1344 0 
L 684 0 
L 684 794 
z
" transform="scale(0.015625)"/>
        <path id="DejaVuSans-31" d="M 794 531 
L 1825 531 
L 1825 4091 
L 703 3866 
L 703 4441 
L 1819 4666 
L 2450 4666 
L 2450 531 
L 3481 531 
L 3481 0 
L 794 0 
L 794 531 
z
" transform="scale(0.015625)"/>
       </defs>
       <use xlink:href="#DejaVuSans-30"/>
       <use xlink:href="#DejaVuSans-2e" x="63.623047"/>
       <use xlink:href="#DejaVuSans-31" x="95.410156"/>
      </g>
     </g>
    </g>
    <g id="xtick_2">
     <g id="line2d_3">
      <path d="M 182.48 439.736 
L 182.48 30.8 
" clip-path="url(#pf46dac9c0c)" style="fill: none; stroke-dasharray: 2.96,1.28; stroke-dashoffset: 0; stroke: #b0b0b0; stroke-opacity: 0.5; stroke-width: 0.8"/>
     </g>
     <g id="line2d_4">
      <g>
       <use xlink:href="#meb124fad6c" x="182.48" y="439.736" style="stroke: #000000; stroke-width: 0.8"/>
      </g>
     </g>
     <g id="text_2">
      <!-- 0.2 -->
      <g transform="translate(174.528438 454.334437)scale(0.1 -0.1)">
       <defs>
        <path id="DejaVuSans-32" d="M 1228 531 
L 3431 531 
L 3431 0 
L 469 0 
L 469 531 
Q 828 903 1448 1529 
Q 2069 2156 2228 2338 
Q 2531 2678 2651 2914 
Q 2772 3150 2772 3378 
Q 2772 3750 2511 3984 
Q 2250 4219 1831 4219 
Q 1534 4219 1204 4116 
Q 875 4013 500 3803 
L 500 4441 
Q 881 4594 1212 4672 
Q 1544 4750 1819 4750 
Q 2544 4750 2975 4387 
Q 3406 4025 3406 3419 
Q 3406 3131 3298 2873 
Q 3191 2616 2906 2266 
Q 2828 2175 2409 1742 
Q 1991 1309 1228 531 
z
" transform="scale(0.015625)"/>
       </defs>
       <use xlink:href="#DejaVuSans-30"/>
       <use xlink:href="#DejaVuSans-2e" x="63.623047"/>
       <use xlink:href="#DejaVuSans-32" x="95.410156"/>
      </g>
     </g>
    </g>
    <g id="xtick_3">
     <g id="line2d_5">
      <path d="M 247.32 439.736 
L 247.32 30.8 
" clip-path="url(#pf46dac9c0c)" style="fill: none; stroke-dasharray: 2.96,1.28; stroke-dashoffset: 0; stroke: #b0b0b0; stroke-opacity: 0.5; stroke-width: 0.8"/>
     </g>
     <g id="line2d_6">
      <g>
       <use xlink:href="#meb124fad6c" x="247.32" y="439.736" style="stroke: #000000; stroke-width: 0.8"/>
      </g>
     </g>
     <g id="text_3">
      <!-- 0.3 -->
      <g transform="translate(239.368438 454.334437)scale(0.1 -0.1)">
       <defs>
        <path id="DejaVuSans-33" d="M 2597 2516 
Q 3050 2419 3304 2112 
Q 3559 1806 3559 1356 
Q 3559 666 3084 287 
Q 2609 -91 1734 -91 
Q 1441 -91 1130 -33 
Q 819 25 488 141 
L 488 750 
Q 750 597 1062 519 
Q 1375 441 1716 441 
Q 2309 441 2620 675 
Q 2931 909 2931 1356 
Q 2931 1769 2642 2001 
Q 2353 2234 1838 2234 
L 1294 2234 
L 1294 2753 
L 1863 2753 
Q 2328 2753 2575 2939 
Q 2822 3125 2822 3475 
Q 2822 3834 2567 4026 
Q 2313 4219 1838 4219 
Q 1578 4219 1281 4162 
Q 984 4106 628 3988 
L 628 4550 
Q 988 4650 1302 4700 
Q 1616 4750 1894 4750 
Q 2613 4750 3031 4423 
Q 3450 4097 3450 3541 
Q 3450 3153 3228 2886 
Q 3006 2619 2597 2516 
z
" transform="scale(0.015625)"/>
       </defs>
       <use xlink:href="#DejaVuSans-30"/>
       <use xlink:href="#DejaVuSans-2e" x="63.623047"/>
       <use xlink:href="#DejaVuSans-33" x="95.410156"/>
      </g>
     </g>
    </g>
    <g id="xtick_4">
     <g id="line2d_7">
      <path d="M 312.16 439.736 
L 312.16 30.8 
" clip-path="url(#pf46dac9c0c)" style="fill: none; stroke-dasharray: 2.96,1.28; stroke-dashoffset: 0; stroke: #b0b0b0; stroke-opacity: 0.5; stroke-width: 0.8"/>
     </g>
     <g id="line2d_8">
      <g>
       <use xlink:href="#meb124fad6c" x="312.16" y="439.736" style="stroke: #000000; stroke-width: 0.8"/>
      </g>
     </g>
     <g id="text_4">
      <!-- 0.4 -->
      <g transform="translate(304.208438 454.334437)scale(0.1 -0.1)">
       <defs>
        <path id="DejaVuSans-34" d="M 2419 4116 
L 825 1625 
L 2419 1625 
L 2419 4116 
z
M 2253 4666 
L 3047 4666 
L 3047 1625 
L 3713 1625 
L 3713 1100 
L 3047 1100 
L 3047 0 
L 2419 0 
L 2419 1100 
L 313 1100 
L 313 1709 
L 2253 4666 
z
" transform="scale(0.015625)"/>
       </defs>
       <use xlink:href="#DejaVuSans-30"/>
       <use xlink:href="#DejaVuSans-2e" x="63.623047"/>
       <use xlink:href="#DejaVuSans-34" x="95.410156"/>
      </g>
     </g>
    </g>
    <g id="xtick_5">
     <g id="line2d_9">
      <path d="M 377 439.736 
L 377 30.8 
" clip-path="url(#pf46dac9c0c)" style="fill: none; stroke-dasharray: 2.96,1.28; stroke-dashoffset: 0; stroke: #b0b0b0; stroke-opacity: 0.5; stroke-width: 0.8"/>
     </g>
     <g id="line2d_10">
      <g>
       <use xlink:href="#meb124fad6c" x="377" y="439.736" style="stroke: #000000; stroke-width: 0.8"/>
      </g>
     </g>
     <g id="text_5">
      <!-- 0.5 -->
      <g transform="translate(369.048438 454.334437)scale(0.1 -0.1)">
       <defs>
        <path id="DejaVuSans-35" d="M 691 4666 
L 3169 4666 
L 3169 4134 
L 1269 4134 
L 1269 2991 
Q 1406 3038 1543 3061 
Q 1681 3084 1819 3084 
Q 2600 3084 3056 2656 
Q 3513 2228 3513 1497 
Q 3513 744 3044 326 
Q 2575 -91 1722 -91 
Q 1428 -91 1123 -41 
Q 819 9 494 109 
L 494 744 
Q 775 591 1075 516 
Q 1375 441 1709 441 
Q 2250 441 2565 725 
Q 2881 1009 2881 1497 
Q 2881 1984 2565 2268 
Q 2250 2553 1709 2553 
Q 1456 2553 1204 2497 
Q 953 2441 691 2322 
L 691 4666 
z
" transform="scale(0.015625)"/>
       </defs>
       <use xlink:href="#DejaVuSans-30"/>
       <use xlink:href="#DejaVuSans-2e" x="63.623047"/>
       <use xlink:href="#DejaVuSans-35" x="95.410156"/>
      </g>
     </g>
    </g>
    <g id="xtick_6">
     <g id="line2d_11">
      <path d="M 441.84 439.736 
L 441.84 30.8 
" clip-path="url(#pf46dac9c0c)" style="fill: none; stroke-dasharray: 2.96,1.28; stroke-dashoffset: 0; stroke: #b0b0b0; stroke-opacity: 0.5; stroke-width: 0.8"/>
     </g>
     <g id="line2d_12">
      <g>
       <use xlink:href="#meb124fad6c" x="441.84" y="439.736" style="stroke: #000000; stroke-width: 0.8"/>
      </g>
     </g>
     <g id="text_6">
      <!-- 0.6 -->
      <g transform="translate(433.888438 454.334437)scale(0.1 -0.1)">
       <defs>
        <path id="DejaVuSans-36" d="M 2113 2584 
Q 1688 2584 1439 2293 
Q 1191 2003 1191 1497 
Q 1191 994 1439 701 
Q 1688 409 2113 409 
Q 2538 409 2786 701 
Q 3034 994 3034 1497 
Q 3034 2003 2786 2293 
Q 2538 2584 2113 2584 
z
M 3366 4563 
L 3366 3988 
Q 3128 4100 2886 4159 
Q 2644 4219 2406 4219 
Q 1781 4219 1451 3797 
Q 1122 3375 1075 2522 
Q 1259 2794 1537 2939 
Q 1816 3084 2150 3084 
Q 2853 3084 3261 2657 
Q 3669 2231 3669 1497 
Q 3669 778 3244 343 
Q 2819 -91 2113 -91 
Q 1303 -91 875 529 
Q 447 1150 447 2328 
Q 447 3434 972 4092 
Q 1497 4750 2381 4750 
Q 2619 4750 2861 4703 
Q 3103 4656 3366 4563 
z
" transform="scale(0.015625)"/>
       </defs>
       <use xlink:href="#DejaVuSans-30"/>
       <use xlink:href="#DejaVuSans-2e" x="63.623047"/>
       <use xlink:href="#DejaVuSans-36" x="95.410156"/>
      </g>
     </g>
    </g>
    <g id="xtick_7">
     <g id="line2d_13">
      <path d="M 506.68 439.736 
L 506.68 30.8 
" clip-path="url(#pf46dac9c0c)" style="fill: none; stroke-dasharray: 2.96,1.28; stroke-dashoffset: 0; stroke: #b0b0b0; stroke-opacity: 0.5; stroke-width: 0.8"/>
     </g>
     <g id="line2d_14">
      <g>
       <use xlink:href="#meb124fad6c" x="506.68" y="439.736" style="stroke: #000000; stroke-width: 0.8"/>
      </g>
     </g>
     <g id="text_7">
      <!-- 0.7 -->
      <g transform="translate(498.728438 454.334437)scale(0.1 -0.1)">
       <defs>
        <path id="DejaVuSans-37" d="M 525 4666 
L 3525 4666 
L 3525 4397 
L 1831 0 
L 1172 0 
L 2766 4134 
L 525 4134 
L 525 4666 
z
" transform="scale(0.015625)"/>
       </defs>
       <use xlink:href="#DejaVuSans-30"/>
       <use xlink:href="#DejaVuSans-2e" x="63.623047"/>
       <use xlink:href="#DejaVuSans-37" x="95.410156"/>
      </g>
     </g>
    </g>
    <g id="xtick_8">
     <g id="line2d_15">
      <path d="M 571.52 439.736 
L 571.52 30.8 
" clip-path="url(#pf46dac9c0c)" style="fill: none; stroke-dasharray: 2.96,1.28; stroke-dashoffset: 0; stroke: #b0b0b0; stroke-opacity: 0.5; stroke-width: 0.8"/>
     </g>
     <g id="line2d_16">
      <g>
       <use xlink:href="#meb124fad6c" x="571.52" y="439.736" style="stroke: #000000; stroke-width: 0.8"/>
      </g>
     </g>
     <g id="text_8">
      <!-- 0.8 -->
      <g transform="translate(563.568438 454.334437)scale(0.1 -0.1)">
       <defs>
        <path id="DejaVuSans-38" d="M 2034 2216 
Q 1584 2216 1326 1975 
Q 1069 1734 1069 1313 
Q 1069 891 1326 650 
Q 1584 409 2034 409 
Q 2484 409 2743 651 
Q 3003 894 3003 1313 
Q 3003 1734 2745 1975 
Q 2488 2216 2034 2216 
z
M 1403 2484 
Q 997 2584 770 2862 
Q 544 3141 544 3541 
Q 544 4100 942 4425 
Q 1341 4750 2034 4750 
Q 2731 4750 3128 4425 
Q 3525 4100 3525 3541 
Q 3525 3141 3298 2862 
Q 3072 2584 2669 2484 
Q 3125 2378 3379 2068 
Q 3634 1759 3634 1313 
Q 3634 634 3220 271 
Q 2806 -91 2034 -91 
Q 1263 -91 848 271 
Q 434 634 434 1313 
Q 434 1759 690 2068 
Q 947 2378 1403 2484 
z
M 1172 3481 
Q 1172 3119 1398 2916 
Q 1625 2713 2034 2713 
Q 2441 2713 2670 2916 
Q 2900 3119 2900 3481 
Q 2900 3844 2670 4047 
Q 2441 4250 2034 4250 
Q 1625 4250 1398 4047 
Q 1172 3844 1172 3481 
z
" transform="scale(0.015625)"/>
       </defs>
       <use xlink:href="#DejaVuSans-30"/>
       <use xlink:href="#DejaVuSans-2e" x="63.623047"/>
       <use xlink:href="#DejaVuSans-38" x="95.410156"/>
      </g>
     </g>
    </g>
    <g id="xtick_9">
     <g id="line2d_17">
      <path d="M 636.36 439.736 
L 636.36 30.8 
" clip-path="url(#pf46dac9c0c)" style="fill: none; stroke-dasharray: 2.96,1.28; stroke-dashoffset: 0; stroke: #b0b0b0; stroke-opacity: 0.5; stroke-width: 0.8"/>
     </g>
     <g id="line2d_18">
      <g>
       <use xlink:href="#meb124fad6c" x="636.36" y="439.736" style="stroke: #000000; stroke-width: 0.8"/>
      </g>
     </g>
     <g id="text_9">
      <!-- 0.9 -->
      <g transform="translate(628.408437 454.334437)scale(0.1 -0.1)">
       <defs>
        <path id="DejaVuSans-39" d="M 703 97 
L 703 672 
Q 941 559 1184 500 
Q 1428 441 1663 441 
Q 2288 441 2617 861 
Q 2947 1281 2994 2138 
Q 2813 1869 2534 1725 
Q 2256 1581 1919 1581 
Q 1219 1581 811 2004 
Q 403 2428 403 3163 
Q 403 3881 828 4315 
Q 1253 4750 1959 4750 
Q 2769 4750 3195 4129 
Q 3622 3509 3622 2328 
Q 3622 1225 3098 567 
Q 2575 -91 1691 -91 
Q 1453 -91 1209 -44 
Q 966 3 703 97 
z
M 1959 2075 
Q 2384 2075 2632 2365 
Q 2881 2656 2881 3163 
Q 2881 3666 2632 3958 
Q 2384 4250 1959 4250 
Q 1534 4250 1286 3958 
Q 1038 3666 1038 3163 
Q 1038 2656 1286 2365 
Q 1534 2075 1959 2075 
z
" transform="scale(0.015625)"/>
       </defs>
       <use xlink:href="#DejaVuSans-30"/>
       <use xlink:href="#DejaVuSans-2e" x="63.623047"/>
       <use xlink:href="#DejaVuSans-39" x="95.410156"/>
      </g>
     </g>
    </g>
    <g id="xtick_10">
     <g id="line2d_19">
      <path d="M 701.2 439.736 
L 701.2 30.8 
" clip-path="url(#pf46dac9c0c)" style="fill: none; stroke-dasharray: 2.96,1.28; stroke-dashoffset: 0; stroke: #b0b0b0; stroke-opacity: 0.5; stroke-width: 0.8"/>
     </g>
     <g id="line2d_20">
      <g>
       <use xlink:href="#meb124fad6c" x="701.2" y="439.736" style="stroke: #000000; stroke-width: 0.8"/>
      </g>
     </g>
     <g id="text_10">
      <!-- 1.0 -->
      <g transform="translate(693.248438 454.334437)scale(0.1 -0.1)">
       <use xlink:href="#DejaVuSans-31"/>
       <use xlink:href="#DejaVuSans-2e" x="63.623047"/>
       <use xlink:href="#DejaVuSans-30" x="95.410156"/>
      </g>
     </g>
    </g>
    <g id="text_11">
     <!-- Recall -->
     <g transform="translate(353.1325 472.571625)scale(0.16 -0.16)">
      <defs>
       <path id="DejaVuSans-52" d="M 2841 2188 
Q 3044 2119 3236 1894 
Q 3428 1669 3622 1275 
L 4263 0 
L 3584 0 
L 2988 1197 
Q 2756 1666 2539 1819 
Q 2322 1972 1947 1972 
L 1259 1972 
L 1259 0 
L 628 0 
L 628 4666 
L 2053 4666 
Q 2853 4666 3247 4331 
Q 3641 3997 3641 3322 
Q 3641 2881 3436 2590 
Q 3231 2300 2841 2188 
z
M 1259 4147 
L 1259 2491 
L 2053 2491 
Q 2509 2491 2742 2702 
Q 2975 2913 2975 3322 
Q 2975 3731 2742 3939 
Q 2509 4147 2053 4147 
L 1259 4147 
z
" transform="scale(0.015625)"/>
       <path id="DejaVuSans-65" d="M 3597 1894 
L 3597 1613 
L 953 1613 
Q 991 1019 1311 708 
Q 1631 397 2203 397 
Q 2534 397 2845 478 
Q 3156 559 3463 722 
L 3463 178 
Q 3153 47 2828 -22 
Q 2503 -91 2169 -91 
Q 1331 -91 842 396 
Q 353 884 353 1716 
Q 353 2575 817 3079 
Q 1281 3584 2069 3584 
Q 2775 3584 3186 3129 
Q 3597 2675 3597 1894 
z
M 3022 2063 
Q 3016 2534 2758 2815 
Q 2500 3097 2075 3097 
Q 1594 3097 1305 2825 
Q 1016 2553 972 2059 
L 3022 2063 
z
" transform="scale(0.015625)"/>
       <path id="DejaVuSans-63" d="M 3122 3366 
L 3122 2828 
Q 2878 2963 2633 3030 
Q 2388 3097 2138 3097 
Q 1578 3097 1268 2742 
Q 959 2388 959 1747 
Q 959 1106 1268 751 
Q 1578 397 2138 397 
Q 2388 397 2633 464 
Q 2878 531 3122 666 
L 3122 134 
Q 2881 22 2623 -34 
Q 2366 -91 2075 -91 
Q 1284 -91 818 406 
Q 353 903 353 1747 
Q 353 2603 823 3093 
Q 1294 3584 2113 3584 
Q 2378 3584 2631 3529 
Q 2884 3475 3122 3366 
z
" transform="scale(0.015625)"/>
       <path id="DejaVuSans-61" d="M 2194 1759 
Q 1497 1759 1228 1600 
Q 959 1441 959 1056 
Q 959 750 1161 570 
Q 1363 391 1709 391 
Q 2188 391 2477 730 
Q 2766 1069 2766 1631 
L 2766 1759 
L 2194 1759 
z
M 3341 1997 
L 3341 0 
L 2766 0 
L 2766 531 
Q 2569 213 2275 61 
Q 1981 -91 1556 -91 
Q 1019 -91 701 211 
Q 384 513 384 1019 
Q 384 1609 779 1909 
Q 1175 2209 1959 2209 
L 2766 2209 
L 2766 2266 
Q 2766 2663 2505 2880 
Q 2244 3097 1772 3097 
Q 1472 3097 1187 3025 
Q 903 2953 641 2809 
L 641 3341 
Q 956 3463 1253 3523 
Q 1550 3584 1831 3584 
Q 2591 3584 2966 3190 
Q 3341 2797 3341 1997 
z
" transform="scale(0.015625)"/>
       <path id="DejaVuSans-6c" d="M 603 4863 
L 1178 4863 
L 1178 0 
L 603 0 
L 603 4863 
z
" transform="scale(0.015625)"/>
      </defs>
      <use xlink:href="#DejaVuSans-52"/>
      <use xlink:href="#DejaVuSans-65" x="64.982422"/>
      <use xlink:href="#DejaVuSans-63" x="126.505859"/>
      <use xlink:href="#DejaVuSans-61" x="181.486328"/>
      <use xlink:href="#DejaVuSans-6c" x="242.765625"/>
      <use xlink:href="#DejaVuSans-6c" x="270.548828"/>
     </g>
    </g>
   </g>
   <g id="matplotlib.axis_2">
    <g id="ytick_1">
     <g id="line2d_21">
      <path d="M 52.8 439.736 
L 701.2 439.736 
" clip-path="url(#pf46dac9c0c)" style="fill: none; stroke-dasharray: 2.96,1.28; stroke-dashoffset: 0; stroke: #b0b0b0; stroke-opacity: 0.5; stroke-width: 0.8"/>
     </g>
     <g id="line2d_22">
      <defs>
       <path id="m5ea6527e1a" d="M 0 0 
L -3.5 0 
" style="stroke: #000000; stroke-width: 0.8"/>
      </defs>
      <g>
       <use xlink:href="#m5ea6527e1a" x="52.8" y="439.736" style="stroke: #000000; stroke-width: 0.8"/>
      </g>
     </g>
     <g id="text_12">
      <!-- 0.0 -->
      <g transform="translate(29.896875 443.535219)scale(0.1 -0.1)">
       <use xlink:href="#DejaVuSans-30"/>
       <use xlink:href="#DejaVuSans-2e" x="63.623047"/>
       <use xlink:href="#DejaVuSans-30" x="95.410156"/>
      </g>
     </g>
    </g>
    <g id="ytick_2">
     <g id="line2d_23">
      <path d="M 52.8 400.789714 
L 701.2 400.789714 
" clip-path="url(#pf46dac9c0c)" style="fill: none; stroke-dasharray: 2.96,1.28; stroke-dashoffset: 0; stroke: #b0b0b0; stroke-opacity: 0.5; stroke-width: 0.8"/>
     </g>
     <g id="line2d_24">
      <g>
       <use xlink:href="#m5ea6527e1a" x="52.8" y="400.789714" style="stroke: #000000; stroke-width: 0.8"/>
      </g>
     </g>
     <g id="text_13">
      <!-- 0.1 -->
      <g transform="translate(29.896875 404.588933)scale(0.1 -0.1)">
       <use xlink:href="#DejaVuSans-30"/>
       <use xlink:href="#DejaVuSans-2e" x="63.623047"/>
       <use xlink:href="#DejaVuSans-31" x="95.410156"/>
      </g>
     </g>
    </g>
    <g id="ytick_3">
     <g id="line2d_25">
      <path d="M 52.8 361.843429 
L 701.2 361.843429 
" clip-path="url(#pf46dac9c0c)" style="fill: none; stroke-dasharray: 2.96,1.28; stroke-dashoffset: 0; stroke: #b0b0b0; stroke-opacity: 0.5; stroke-width: 0.8"/>
     </g>
     <g id="line2d_26">
      <g>
       <use xlink:href="#m5ea6527e1a" x="52.8" y="361.843429" style="stroke: #000000; stroke-width: 0.8"/>
      </g>
     </g>
     <g id="text_14">
      <!-- 0.2 -->
      <g transform="translate(29.896875 365.642647)scale(0.1 -0.1)">
       <use xlink:href="#DejaVuSans-30"/>
       <use xlink:href="#DejaVuSans-2e" x="63.623047"/>
       <use xlink:href="#DejaVuSans-32" x="95.410156"/>
      </g>
     </g>
    </g>
    <g id="ytick_4">
     <g id="line2d_27">
      <path d="M 52.8 322.897143 
L 701.2 322.897143 
" clip-path="url(#pf46dac9c0c)" style="fill: none; stroke-dasharray: 2.96,1.28; stroke-dashoffset: 0; stroke: #b0b0b0; stroke-opacity: 0.5; stroke-width: 0.8"/>
     </g>
     <g id="line2d_28">
      <g>
       <use xlink:href="#m5ea6527e1a" x="52.8" y="322.897143" style="stroke: #000000; stroke-width: 0.8"/>
      </g>
     </g>
     <g id="text_15">
      <!-- 0.3 -->
      <g transform="translate(29.896875 326.696362)scale(0.1 -0.1)">
       <use xlink:href="#DejaVuSans-30"/>
       <use xlink:href="#DejaVuSans-2e" x="63.623047"/>
       <use xlink:href="#DejaVuSans-33" x="95.410156"/>
      </g>
     </g>
    </g>
    <g id="ytick_5">
     <g id="line2d_29">
      <path d="M 52.8 283.950857 
L 701.2 283.950857 
" clip-path="url(#pf46dac9c0c)" style="fill: none; stroke-dasharray: 2.96,1.28; stroke-dashoffset: 0; stroke: #b0b0b0; stroke-opacity: 0.5; stroke-width: 0.8"/>
     </g>
     <g id="line2d_30">
      <g>
       <use xlink:href="#m5ea6527e1a" x="52.8" y="283.950857" style="stroke: #000000; stroke-width: 0.8"/>
      </g>
     </g>
     <g id="text_16">
      <!-- 0.4 -->
      <g transform="translate(29.896875 287.750076)scale(0.1 -0.1)">
       <use xlink:href="#DejaVuSans-30"/>
       <use xlink:href="#DejaVuSans-2e" x="63.623047"/>
       <use xlink:href="#DejaVuSans-34" x="95.410156"/>
      </g>
     </g>
    </g>
    <g id="ytick_6">
     <g id="line2d_31">
      <path d="M 52.8 245.004571 
L 701.2 245.004571 
" clip-path="url(#pf46dac9c0c)" style="fill: none; stroke-dasharray: 2.96,1.28; stroke-dashoffset: 0; stroke: #b0b0b0; stroke-opacity: 0.5; stroke-width: 0.8"/>
     </g>
     <g id="line2d_32">
      <g>
       <use xlink:href="#m5ea6527e1a" x="52.8" y="245.004571" style="stroke: #000000; stroke-width: 0.8"/>
      </g>
     </g>
     <g id="text_17">
      <!-- 0.5 -->
      <g transform="translate(29.896875 248.80379)scale(0.1 -0.1)">
       <use xlink:href="#DejaVuSans-30"/>
       <use xlink:href="#DejaVuSans-2e" x="63.623047"/>
       <use xlink:href="#DejaVuSans-35" x="95.410156"/>
      </g>
     </g>
    </g>
    <g id="ytick_7">
     <g id="line2d_33">
      <path d="M 52.8 206.058286 
L 701.2 206.058286 
" clip-path="url(#pf46dac9c0c)" style="fill: none; stroke-dasharray: 2.96,1.28; stroke-dashoffset: 0; stroke: #b0b0b0; stroke-opacity: 0.5; stroke-width: 0.8"/>
     </g>
     <g id="line2d_34">
      <g>
       <use xlink:href="#m5ea6527e1a" x="52.8" y="206.058286" style="stroke: #000000; stroke-width: 0.8"/>
      </g>
     </g>
     <g id="text_18">
      <!-- 0.6 -->
      <g transform="translate(29.896875 209.857504)scale(0.1 -0.1)">
       <use xlink:href="#DejaVuSans-30"/>
       <use xlink:href="#DejaVuSans-2e" x="63.623047"/>
       <use xlink:href="#DejaVuSans-36" x="95.410156"/>
      </g>
     </g>
    </g>
    <g id="ytick_8">
     <g id="line2d_35">
      <path d="M 52.8 167.112 
L 701.2 167.112 
" clip-path="url(#pf46dac9c0c)" style="fill: none; stroke-dasharray: 2.96,1.28; stroke-dashoffset: 0; stroke: #b0b0b0; stroke-opacity: 0.5; stroke-width: 0.8"/>
     </g>
     <g id="line2d_36">
      <g>
       <use xlink:href="#m5ea6527e1a" x="52.8" y="167.112" style="stroke: #000000; stroke-width: 0.8"/>
      </g>
     </g>
     <g id="text_19">
      <!-- 0.7 -->
      <g transform="translate(29.896875 170.911219)scale(0.1 -0.1)">
       <use xlink:href="#DejaVuSans-30"/>
       <use xlink:href="#DejaVuSans-2e" x="63.623047"/>
       <use xlink:href="#DejaVuSans-37" x="95.410156"/>
      </g>
     </g>
    </g>
    <g id="ytick_9">
     <g id="line2d_37">
      <path d="M 52.8 128.165714 
L 701.2 128.165714 
" clip-path="url(#pf46dac9c0c)" style="fill: none; stroke-dasharray: 2.96,1.28; stroke-dashoffset: 0; stroke: #b0b0b0; stroke-opacity: 0.5; stroke-width: 0.8"/>
     </g>
     <g id="line2d_38">
      <g>
       <use xlink:href="#m5ea6527e1a" x="52.8" y="128.165714" style="stroke: #000000; stroke-width: 0.8"/>
      </g>
     </g>
     <g id="text_20">
      <!-- 0.8 -->
      <g transform="translate(29.896875 131.964933)scale(0.1 -0.1)">
       <use xlink:href="#DejaVuSans-30"/>
       <use xlink:href="#DejaVuSans-2e" x="63.623047"/>
       <use xlink:href="#DejaVuSans-38" x="95.410156"/>
      </g>
     </g>
    </g>
    <g id="ytick_10">
     <g id="line2d_39">
      <path d="M 52.8 89.219429 
L 701.2 89.219429 
" clip-path="url(#pf46dac9c0c)" style="fill: none; stroke-dasharray: 2.96,1.28; stroke-dashoffset: 0; stroke: #b0b0b0; stroke-opacity: 0.5; stroke-width: 0.8"/>
     </g>
     <g id="line2d_40">
      <g>
       <use xlink:href="#m5ea6527e1a" x="52.8" y="89.219429" style="stroke: #000000; stroke-width: 0.8"/>
      </g>
     </g>
     <g id="text_21">
      <!-- 0.9 -->
      <g transform="translate(29.896875 93.018647)scale(0.1 -0.1)">
       <use xlink:href="#DejaVuSans-30"/>
       <use xlink:href="#DejaVuSans-2e" x="63.623047"/>
       <use xlink:href="#DejaVuSans-39" x="95.410156"/>
      </g>
     </g>
    </g>
    <g id="ytick_11">
     <g id="line2d_41">
      <path d="M 52.8 50.273143 
L 701.2 50.273143 
" clip-path="url(#pf46dac9c0c)" style="fill: none; stroke-dasharray: 2.96,1.28; stroke-dashoffset: 0; stroke: #b0b0b0; stroke-opacity: 0.5; stroke-width: 0.8"/>
     </g>
     <g id="line2d_42">
      <g>
       <use xlink:href="#m5ea6527e1a" x="52.8" y="50.273143" style="stroke: #000000; stroke-width: 0.8"/>
      </g>
     </g>
     <g id="text_22">
      <!-- 1.0 -->
      <g transform="translate(29.896875 54.072362)scale(0.1 -0.1)">
       <use xlink:href="#DejaVuSans-31"/>
       <use xlink:href="#DejaVuSans-2e" x="63.623047"/>
       <use xlink:href="#DejaVuSans-30" x="95.410156"/>
      </g>
     </g>
    </g>
    <g id="text_23">
     <!-- Precision -->
     <g transform="translate(22.569375 270.95925)rotate(-90)scale(0.16 -0.16)">
      <defs>
       <path id="DejaVuSans-50" d="M 1259 4147 
L 1259 2394 
L 2053 2394 
Q 2494 2394 2734 2622 
Q 2975 2850 2975 3272 
Q 2975 3691 2734 3919 
Q 2494 4147 2053 4147 
L 1259 4147 
z
M 628 4666 
L 2053 4666 
Q 2838 4666 3239 4311 
Q 3641 3956 3641 3272 
Q 3641 2581 3239 2228 
Q 2838 1875 2053 1875 
L 1259 1875 
L 1259 0 
L 628 0 
L 628 4666 
z
" transform="scale(0.015625)"/>
       <path id="DejaVuSans-72" d="M 2631 2963 
Q 2534 3019 2420 3045 
Q 2306 3072 2169 3072 
Q 1681 3072 1420 2755 
Q 1159 2438 1159 1844 
L 1159 0 
L 581 0 
L 581 3500 
L 1159 3500 
L 1159 2956 
Q 1341 3275 1631 3429 
Q 1922 3584 2338 3584 
Q 2397 3584 2469 3576 
Q 2541 3569 2628 3553 
L 2631 2963 
z
" transform="scale(0.015625)"/>
       <path id="DejaVuSans-69" d="M 603 3500 
L 1178 3500 
L 1178 0 
L 603 0 
L 603 3500 
z
M 603 4863 
L 1178 4863 
L 1178 4134 
L 603 4134 
L 603 4863 
z
" transform="scale(0.015625)"/>
       <path id="DejaVuSans-73" d="M 2834 3397 
L 2834 2853 
Q 2591 2978 2328 3040 
Q 2066 3103 1784 3103 
Q 1356 3103 1142 2972 
Q 928 2841 928 2578 
Q 928 2378 1081 2264 
Q 1234 2150 1697 2047 
L 1894 2003 
Q 2506 1872 2764 1633 
Q 3022 1394 3022 966 
Q 3022 478 2636 193 
Q 2250 -91 1575 -91 
Q 1294 -91 989 -36 
Q 684 19 347 128 
L 347 722 
Q 666 556 975 473 
Q 1284 391 1588 391 
Q 1994 391 2212 530 
Q 2431 669 2431 922 
Q 2431 1156 2273 1281 
Q 2116 1406 1581 1522 
L 1381 1569 
Q 847 1681 609 1914 
Q 372 2147 372 2553 
Q 372 3047 722 3315 
Q 1072 3584 1716 3584 
Q 2034 3584 2315 3537 
Q 2597 3491 2834 3397 
z
" transform="scale(0.015625)"/>
       <path id="DejaVuSans-6f" d="M 1959 3097 
Q 1497 3097 1228 2736 
Q 959 2375 959 1747 
Q 959 1119 1226 758 
Q 1494 397 1959 397 
Q 2419 397 2687 759 
Q 2956 1122 2956 1747 
Q 2956 2369 2687 2733 
Q 2419 3097 1959 3097 
z
M 1959 3584 
Q 2709 3584 3137 3096 
Q 3566 2609 3566 1747 
Q 3566 888 3137 398 
Q 2709 -91 1959 -91 
Q 1206 -91 779 398 
Q 353 888 353 1747 
Q 353 2609 779 3096 
Q 1206 3584 1959 3584 
z
" transform="scale(0.015625)"/>
       <path id="DejaVuSans-6e" d="M 3513 2113 
L 3513 0 
L 2938 0 
L 2938 2094 
Q 2938 2591 2744 2837 
Q 2550 3084 2163 3084 
Q 1697 3084 1428 2787 
Q 1159 2491 1159 1978 
L 1159 0 
L 581 0 
L 581 3500 
L 1159 3500 
L 1159 2956 
Q 1366 3272 1645 3428 
Q 1925 3584 2291 3584 
Q 2894 3584 3203 3211 
Q 3513 2838 3513 2113 
z
" transform="scale(0.015625)"/>
      </defs>
      <use xlink:href="#DejaVuSans-50"/>
      <use xlink:href="#DejaVuSans-72" x="58.552734"/>
      <use xlink:href="#DejaVuSans-65" x="97.416016"/>
      <use xlink:href="#DejaVuSans-63" x="158.939453"/>
      <use xlink:href="#DejaVuSans-69" x="213.919922"/>
      <use xlink:href="#DejaVuSans-73" x="241.703125"/>
      <use xlink:href="#DejaVuSans-69" x="293.802734"/>
      <use xlink:href="#DejaVuSans-6f" x="321.585938"/>
      <use xlink:href="#DejaVuSans-6e" x="382.767578"/>
     </g>
    </g>
   </g>
   <g id="line2d_43">
    <path d="M 52.8 50.273143 
L 96.026667 50.273143 
L 96.026667 98.956 
L 96.026667 93.546794 
L 102.201905 93.546794 
L 102.201905 89.219429 
L 108.377143 89.219429 
L 108.377143 85.678857 
L 114.552381 85.678857 
L 114.552381 82.728381 
L 120.727619 82.728381 
L 120.727619 80.231824 
L 126.902857 80.231824 
L 126.902857 78.091918 
L 133.078095 78.091918 
L 133.078095 76.237333 
L 139.253333 76.237333 
L 139.253333 74.614571 
L 145.428571 74.614571 
L 145.428571 73.182723 
L 151.60381 73.182723 
L 151.60381 71.909968 
L 157.779048 71.909968 
L 157.779048 70.771188 
L 163.954286 70.771188 
L 163.954286 69.746286 
L 170.129524 69.746286 
L 170.129524 68.818993 
L 176.304762 68.818993 
L 176.304762 67.976 
L 182.48 67.976 
L 182.48 67.206311 
L 188.655238 67.206311 
L 188.655238 66.500762 
L 194.830476 66.500762 
L 194.830476 81.430171 
L 194.830476 80.231824 
L 201.005714 80.231824 
L 201.005714 93.546794 
L 201.005714 92.001306 
L 207.180952 92.001306 
L 207.180952 90.562404 
L 213.35619 90.562404 
L 213.35619 89.219429 
L 219.531429 89.219429 
L 219.531429 87.963097 
L 225.706667 87.963097 
L 225.706667 86.785286 
L 231.881905 86.785286 
L 231.881905 97.480762 
L 231.881905 96.092303 
L 238.057143 96.092303 
L 238.057143 94.783184 
L 244.232381 94.783184 
L 244.232381 93.546794 
L 250.407619 93.546794 
L 250.407619 92.377236 
L 256.582857 92.377236 
L 256.582857 91.269233 
L 262.758095 91.269233 
L 262.758095 90.218051 
L 268.933333 90.218051 
L 268.933333 89.219429 
L 275.108571 89.219429 
L 275.108571 97.768613 
L 275.108571 96.637769 
L 281.28381 96.637769 
L 281.28381 95.559522 
L 287.459048 95.559522 
L 287.459048 94.530286 
L 293.634286 94.530286 
L 293.634286 93.546794 
L 299.809524 93.546794 
L 299.809524 92.606062 
L 305.984762 92.606062 
L 305.984762 91.705362 
L 312.16 91.705362 
L 312.16 90.84219 
L 318.335238 90.84219 
L 318.335238 97.962472 
L 318.335238 97.008686 
L 324.510476 97.008686 
L 324.510476 110.190505 
L 324.510476 109.059989 
L 330.685714 109.059989 
L 330.685714 115.183619 
L 330.685714 114.003429 
L 336.860952 114.003429 
L 336.860952 112.865388 
L 343.03619 112.865388 
L 343.03619 118.59996 
L 343.03619 117.421911 
L 349.211429 117.421911 
L 349.211429 116.283797 
L 355.386667 116.283797 
L 355.386667 115.183619 
L 361.561905 115.183619 
L 361.561905 114.119513 
L 367.737143 114.119513 
L 367.737143 113.089733 
L 373.912381 113.089733 
L 373.912381 112.092644 
L 380.087619 112.092644 
L 380.087619 111.126714 
L 386.262857 111.126714 
L 386.262857 116.182242 
L 386.262857 115.183619 
L 392.438095 115.183619 
L 392.438095 124.729277 
L 392.438095 123.650203 
L 398.613333 123.650203 
L 398.613333 128.165714 
L 398.613333 127.068636 
L 404.788571 127.068636 
L 404.788571 126.002032 
L 410.96381 126.002032 
L 410.96381 130.299757 
L 410.96381 129.218317 
L 417.139048 129.218317 
L 417.139048 128.165714 
L 423.314286 128.165714 
L 423.314286 132.265323 
L 423.314286 131.20049 
L 429.489524 131.20049 
L 429.489524 130.16296 
L 435.664762 130.16296 
L 435.664762 129.151696 
L 441.84 129.151696 
L 441.84 128.165714 
L 448.015238 128.165714 
L 448.015238 127.204078 
L 454.190476 127.204078 
L 454.190476 131.015443 
L 454.190476 130.042644 
L 460.365714 130.042644 
L 460.365714 129.093007 
L 466.540952 129.093007 
L 466.540952 128.165714 
L 472.71619 128.165714 
L 472.71619 127.259987 
L 478.891429 127.259987 
L 478.891429 126.37508 
L 485.066667 126.37508 
L 485.066667 125.510286 
L 491.241905 125.510286 
L 491.241905 132.493079 
L 491.241905 131.589564 
L 497.417143 131.589564 
L 497.417143 130.705689 
L 503.592381 130.705689 
L 503.592381 129.840823 
L 509.767619 129.840823 
L 509.767619 136.364932 
L 509.767619 135.468143 
L 515.942857 135.468143 
L 515.942857 134.589844 
L 522.118095 134.589844 
L 522.118095 137.70358 
L 522.118095 136.820444 
L 528.293333 136.820444 
L 528.293333 139.8496 
L 528.293333 138.962704 
L 534.468571 138.962704 
L 534.468571 144.802963 
L 534.468571 143.894022 
L 540.64381 143.894022 
L 540.64381 143.002395 
L 546.819048 143.002395 
L 546.819048 161.548245 
L 546.819048 160.563509 
L 552.994286 160.563509 
L 552.994286 176.848571 
L 552.994286 175.802494 
L 559.169524 175.802494 
L 559.169524 180.094095 
L 559.169524 179.047152 
L 565.344762 179.047152 
L 565.344762 178.01696 
L 571.52 178.01696 
L 571.52 182.13852 
L 571.52 181.108321 
L 577.695238 181.108321 
L 577.695238 180.094095 
L 583.870476 180.094095 
L 583.870476 179.095473 
L 590.045714 179.095473 
L 590.045714 178.112096 
L 596.220952 178.112096 
L 596.220952 177.143619 
L 602.39619 177.143619 
L 602.39619 228.381157 
L 602.39619 227.301714 
L 608.571429 227.301714 
L 608.571429 229.845837 
L 608.571429 228.776952 
L 614.746667 228.776952 
L 614.746667 240.628584 
L 614.746667 239.565146 
L 620.921905 239.565146 
L 620.921905 243.940465 
L 620.921905 242.887925 
L 627.097143 242.887925 
L 627.097143 249.10418 
L 627.097143 248.06318 
L 633.272381 248.06318 
L 633.272381 258.500809 
L 633.272381 257.475057 
L 639.447619 257.475057 
L 639.447619 286.213297 
L 639.447619 285.238338 
L 645.622857 285.238338 
L 645.622857 293.687429 
L 645.622857 292.740291 
L 651.798095 292.740291 
L 651.798095 298.245749 
L 651.798095 297.320478 
L 657.973333 297.320478 
L 657.973333 303.424 
L 657.973333 302.523107 
L 664.148571 302.523107 
L 664.148571 336.366502 
L 664.148571 335.601546 
L 670.32381 335.601546 
L 670.32381 350.614065 
L 670.32381 349.928355 
L 676.499048 349.928355 
L 676.499048 366.892021 
L 676.499048 366.306774 
L 682.674286 366.306774 
L 682.674286 374.719287 
L 682.674286 374.189147 
L 688.849524 374.189147 
L 688.849524 374.296075 
L 688.849524 390.272776 
L 688.849524 389.854058 
L 695.024762 389.854058 
L 695.024762 389.915413 
L 695.024762 396.829075 
L 695.024762 396.462349 
L 701.2 396.462349 
L 701.2 396.55374 
L 701.2 402.35611 
L 701.2 402.35611 
" clip-path="url(#pf46dac9c0c)" style="fill: none; stroke: #008000; stroke-width: 1.5; stroke-linecap: square"/>
   </g>
   <g id="line2d_44">
    <path d="M 52.8 50.273143 
L 58.975238 50.273143 
L 58.975238 245.004571 
L 58.975238 180.094095 
L 65.150476 180.094095 
L 65.150476 147.638857 
L 71.325714 147.638857 
L 71.325714 206.058286 
L 71.325714 180.094095 
L 77.500952 180.094095 
L 77.500952 161.548245 
L 83.67619 161.548245 
L 83.67619 147.638857 
L 89.851429 147.638857 
L 89.851429 136.820444 
L 96.026667 136.820444 
L 96.026667 128.165714 
L 102.201905 128.165714 
L 102.201905 121.084571 
L 108.377143 121.084571 
L 108.377143 147.638857 
L 108.377143 140.149187 
L 114.552381 140.149187 
L 114.552381 133.729469 
L 120.727619 133.729469 
L 120.727619 128.165714 
L 126.902857 128.165714 
L 126.902857 123.297429 
L 133.078095 123.297429 
L 133.078095 119.001882 
L 139.253333 119.001882 
L 139.253333 115.183619 
L 145.428571 115.183619 
L 145.428571 111.767278 
L 151.60381 111.767278 
L 151.60381 108.692571 
L 157.779048 108.692571 
L 157.779048 105.910694 
L 163.954286 105.910694 
L 163.954286 103.381714 
L 170.129524 103.381714 
L 170.129524 101.072646 
L 176.304762 101.072646 
L 176.304762 98.956 
L 182.48 98.956 
L 182.48 97.008686 
L 188.655238 97.008686 
L 188.655238 95.211165 
L 194.830476 95.211165 
L 194.830476 93.546794 
L 201.005714 93.546794 
L 201.005714 92.001306 
L 207.180952 92.001306 
L 207.180952 90.562404 
L 213.35619 90.562404 
L 213.35619 89.219429 
L 219.531429 89.219429 
L 219.531429 130.456672 
L 219.531429 128.165714 
L 225.706667 128.165714 
L 225.706667 126.002032 
L 231.881905 126.002032 
L 231.881905 134.481328 
L 231.881905 132.265323 
L 238.057143 132.265323 
L 238.057143 130.16296 
L 244.232381 130.16296 
L 244.232381 128.165714 
L 250.407619 128.165714 
L 250.407619 126.265895 
L 256.582857 126.265895 
L 256.582857 124.456544 
L 262.758095 124.456544 
L 262.758095 122.731349 
L 268.933333 122.731349 
L 268.933333 121.084571 
L 275.108571 121.084571 
L 275.108571 119.510984 
L 281.28381 119.510984 
L 281.28381 118.005814 
L 287.459048 118.005814 
L 287.459048 116.564693 
L 293.634286 116.564693 
L 293.634286 123.297429 
L 293.634286 121.807137 
L 299.809524 121.807137 
L 299.809524 120.376457 
L 305.984762 120.376457 
L 305.984762 132.659516 
L 305.984762 131.105057 
L 312.16 131.105057 
L 312.16 129.608169 
L 318.335238 129.608169 
L 318.335238 128.165714 
L 324.510476 128.165714 
L 324.510476 139.098005 
L 324.510476 137.566542 
L 330.685714 137.566542 
L 330.685714 136.086993 
L 336.860952 136.086993 
L 336.860952 134.656762 
L 343.03619 134.656762 
L 343.03619 139.658061 
L 343.03619 138.216369 
L 349.211429 138.216369 
L 349.211429 143.002395 
L 349.211429 141.5535 
L 355.386667 141.5535 
L 355.386667 146.140923 
L 355.386667 144.688381 
L 361.561905 144.688381 
L 361.561905 157.516538 
L 361.561905 155.98449 
L 367.737143 155.98449 
L 367.737143 163.866476 
L 367.737143 162.310403 
L 373.912381 162.310403 
L 373.912381 192.759554 
L 373.912381 191.04285 
L 380.087619 191.04285 
L 380.087619 196.894454 
L 380.087619 195.189555 
L 386.262857 195.189555 
L 386.262857 208.626173 
L 386.262857 206.904944 
L 392.438095 206.904944 
L 392.438095 216.606238 
L 392.438095 214.891464 
L 398.613333 214.891464 
L 398.613333 223.796198 
L 398.613333 222.094992 
L 404.788571 222.094992 
L 404.788571 220.426818 
L 410.96381 220.426818 
L 410.96381 222.53556 
L 410.96381 220.894966 
L 417.139048 220.894966 
L 417.139048 219.285326 
L 423.314286 219.285326 
L 423.314286 221.345613 
L 423.314286 219.761608 
L 429.489524 219.761608 
L 429.489524 223.761143 
L 429.489524 222.198188 
L 435.664762 222.198188 
L 435.664762 233.353973 
L 435.664762 231.802441 
L 441.84 231.802441 
L 441.84 235.268 
L 441.84 233.739117 
L 448.015238 233.739117 
L 448.015238 241.913596 
L 448.015238 240.404616 
L 454.190476 240.404616 
L 454.190476 238.919214 
L 460.365714 238.919214 
L 460.365714 246.468718 
L 460.365714 245.004571 
L 466.540952 245.004571 
L 466.540952 247.868269 
L 466.540952 246.425969 
L 472.71619 246.425969 
L 472.71619 247.826766 
L 472.71619 246.405517 
L 478.891429 246.405517 
L 478.891429 253.118381 
L 478.891429 251.719448 
L 485.066667 251.719448 
L 485.066667 253.007233 
L 485.066667 251.628089 
L 491.241905 251.628089 
L 491.241905 256.61108 
L 491.241905 255.253594 
L 497.417143 255.253594 
L 497.417143 258.824221 
L 497.417143 257.487355 
L 503.592381 257.487355 
L 503.592381 258.648175 
L 503.592381 257.329345 
L 509.767619 257.329345 
L 509.767619 269.201968 
L 509.767619 267.914151 
L 515.942857 267.914151 
L 515.942857 268.918957 
L 515.942857 267.647761 
L 522.118095 267.647761 
L 522.118095 266.39126 
L 528.293333 266.39126 
L 528.293333 265.149202 
L 534.468571 265.149202 
L 534.468571 270.025928 
L 534.468571 268.805079 
L 540.64381 268.805079 
L 540.64381 275.203563 
L 540.64381 274.007125 
L 546.819048 274.007125 
L 546.819048 272.823347 
L 552.994286 272.823347 
L 552.994286 279.601526 
L 552.994286 278.443302 
L 559.169524 278.443302 
L 559.169524 289.801942 
L 559.169524 288.682649 
L 565.344762 288.682649 
L 565.344762 292.131356 
L 565.344762 291.032 
L 571.52 291.032 
L 571.52 289.942593 
L 577.695238 289.942593 
L 577.695238 290.617338 
L 577.695238 289.539562 
L 583.870476 289.539562 
L 583.870476 293.47484 
L 583.870476 292.417441 
L 590.045714 292.417441 
L 590.045714 318.724327 
L 590.045714 317.768984 
L 596.220952 317.768984 
L 596.220952 316.820417 
L 602.39619 316.820417 
L 602.39619 317.68602 
L 602.39619 316.747729 
L 608.571429 316.747729 
L 608.571429 318.028857 
L 608.571429 317.102367 
L 614.746667 317.102367 
L 614.746667 322.381298 
L 614.746667 321.483251 
L 620.921905 321.483251 
L 620.921905 320.591113 
L 627.097143 320.591113 
L 627.097143 327.599636 
L 627.097143 326.74369 
L 633.272381 326.74369 
L 633.272381 342.370286 
L 633.272381 341.595492 
L 639.447619 341.595492 
L 639.447619 356.964252 
L 639.447619 356.279673 
L 645.622857 356.279673 
L 645.622857 357.563617 
L 645.622857 356.889734 
L 651.798095 356.889734 
L 651.798095 361.032048 
L 651.798095 360.385979 
L 657.973333 360.385979 
L 657.973333 362.002069 
L 657.973333 361.368474 
L 664.148571 361.368474 
L 664.148571 362.776274 
L 664.148571 362.153758 
L 670.32381 362.153758 
L 670.32381 381.952193 
L 670.32381 381.460817 
L 676.499048 381.460817 
L 676.499048 381.547023 
L 676.499048 381.057697 
L 682.674286 381.057697 
L 682.674286 381.144243 
L 682.674286 385.688093 
L 682.674286 385.232366 
L 688.849524 385.232366 
L 688.849524 385.30632 
L 688.849524 392.597722 
L 688.849524 392.195933 
L 695.024762 392.195933 
L 695.024762 392.251666 
L 695.024762 396.874479 
L 695.024762 396.508093 
L 701.2 396.508093 
L 701.2 396.599291 
L 701.2 402.35611 
L 701.2 402.35611 
" clip-path="url(#pf46dac9c0c)" style="fill: none; stroke: #bf00bf; stroke-width: 1.5; stroke-linecap: square"/>
   </g>
   <g id="line2d_45">
    <path d="M 52.8 50.273143 
L 157.779048 50.273143 
L 157.779048 91.269233 
L 157.779048 89.219429 
L 163.954286 89.219429 
L 163.954286 87.364844 
L 170.129524 87.364844 
L 170.129524 85.678857 
L 176.304762 85.678857 
L 176.304762 84.139478 
L 182.48 84.139478 
L 182.48 82.728381 
L 188.655238 82.728381 
L 188.655238 81.430171 
L 194.830476 81.430171 
L 194.830476 80.231824 
L 201.005714 80.231824 
L 201.005714 79.122243 
L 207.180952 79.122243 
L 207.180952 78.091918 
L 213.35619 78.091918 
L 213.35619 77.13265 
L 219.531429 77.13265 
L 219.531429 76.237333 
L 225.706667 76.237333 
L 225.706667 119.001882 
L 225.706667 117.038204 
L 231.881905 117.038204 
L 231.881905 115.183619 
L 238.057143 115.183619 
L 238.057143 113.429282 
L 244.232381 113.429282 
L 244.232381 122.016301 
L 244.232381 120.176733 
L 250.407619 120.176733 
L 250.407619 118.429143 
L 256.582857 118.429143 
L 256.582857 116.766801 
L 262.758095 116.766801 
L 262.758095 115.183619 
L 268.933333 115.183619 
L 268.933333 113.674073 
L 275.108571 113.674073 
L 275.108571 112.233143 
L 281.28381 112.233143 
L 281.28381 110.856254 
L 287.459048 110.856254 
L 287.459048 109.53923 
L 293.634286 109.53923 
L 293.634286 116.564693 
L 293.634286 115.183619 
L 299.809524 115.183619 
L 299.809524 113.858915 
L 305.984762 113.858915 
L 305.984762 112.5872 
L 312.16 112.5872 
L 312.16 111.365356 
L 318.335238 111.365356 
L 318.335238 117.680176 
L 318.335238 116.408345 
L 324.510476 116.408345 
L 324.510476 122.395894 
L 324.510476 121.084571 
L 330.685714 121.084571 
L 330.685714 126.774776 
L 330.685714 125.432642 
L 336.860952 125.432642 
L 336.860952 124.136788 
L 343.03619 124.136788 
L 343.03619 122.884862 
L 349.211429 122.884862 
L 349.211429 128.165714 
L 349.211429 126.888787 
L 355.386667 126.888787 
L 355.386667 125.653051 
L 361.561905 125.653051 
L 361.561905 124.456544 
L 367.737143 124.456544 
L 367.737143 123.297429 
L 373.912381 123.297429 
L 373.912381 128.165714 
L 373.912381 126.985524 
L 380.087619 126.985524 
L 380.087619 136.184067 
L 380.087619 134.938981 
L 386.262857 134.938981 
L 386.262857 133.729469 
L 392.438095 133.729469 
L 392.438095 132.554028 
L 398.613333 132.554028 
L 398.613333 131.411238 
L 404.788571 131.411238 
L 404.788571 143.744229 
L 404.788571 142.514346 
L 410.96381 142.514346 
L 410.96381 146.374367 
L 410.96381 145.1423 
L 417.139048 145.1423 
L 417.139048 143.941425 
L 423.314286 143.941425 
L 423.314286 142.770571 
L 429.489524 142.770571 
L 429.489524 146.436811 
L 429.489524 145.264084 
L 435.664762 145.264084 
L 435.664762 144.119614 
L 441.84 144.119614 
L 441.84 157.711172 
L 441.84 156.490286 
L 448.015238 156.490286 
L 448.015238 155.296835 
L 454.190476 155.296835 
L 454.190476 158.45727 
L 454.190476 157.268433 
L 460.365714 157.268433 
L 460.365714 160.338733 
L 460.365714 159.155232 
L 466.540952 159.155232 
L 466.540952 157.996912 
L 472.71619 157.996912 
L 472.71619 156.862977 
L 478.891429 156.862977 
L 478.891429 168.29219 
L 478.891429 167.112 
L 485.066667 167.112 
L 485.066667 184.947215 
L 485.066667 183.700233 
L 491.241905 183.700233 
L 491.241905 182.476131 
L 497.417143 182.476131 
L 497.417143 181.274286 
L 503.592381 181.274286 
L 503.592381 188.136101 
L 503.592381 186.926777 
L 509.767619 186.926777 
L 509.767619 185.738484 
L 515.942857 185.738484 
L 515.942857 200.312112 
L 515.942857 199.092283 
L 522.118095 199.092283 
L 522.118095 201.032959 
L 522.118095 199.82688 
L 528.293333 199.82688 
L 528.293333 205.44975 
L 528.293333 204.246831 
L 534.468571 204.246831 
L 534.468571 207.842085 
L 534.468571 206.648381 
L 540.64381 206.648381 
L 540.64381 208.400919 
L 540.64381 207.220861 
L 546.819048 207.220861 
L 546.819048 210.640202 
L 546.819048 209.469639 
L 552.994286 209.469639 
L 552.994286 211.138236 
L 552.994286 209.980933 
L 559.169524 209.980933 
L 559.169524 214.834913 
L 559.169524 213.684132 
L 565.344762 213.684132 
L 565.344762 218.329033 
L 565.344762 217.185796 
L 571.52 217.185796 
L 571.52 216.058008 
L 577.695238 216.058008 
L 577.695238 217.559202 
L 577.695238 216.443962 
L 583.870476 216.443962 
L 583.870476 229.083134 
L 583.870476 227.965571 
L 590.045714 227.965571 
L 590.045714 226.861892 
L 596.220952 226.861892 
L 596.220952 251.424289 
L 596.220952 250.325102 
L 602.39619 250.325102 
L 602.39619 253.380117 
L 602.39619 252.293983 
L 608.571429 252.293983 
L 608.571429 251.219404 
L 614.746667 251.219404 
L 614.746667 253.203789 
L 614.746667 252.141325 
L 620.921905 252.141325 
L 620.921905 273.853672 
L 620.921905 272.823347 
L 627.097143 272.823347 
L 627.097143 297.696605 
L 627.097143 296.730107 
L 633.272381 296.730107 
L 633.272381 306.124655 
L 633.272381 305.194286 
L 639.447619 305.194286 
L 639.447619 310.819723 
L 639.447619 309.915048 
L 645.622857 309.915048 
L 645.622857 334.416467 
L 645.622857 333.618311 
L 651.798095 333.618311 
L 651.798095 342.118695 
L 651.798095 341.366515 
L 657.973333 341.366515 
L 657.973333 365.911319 
L 657.973333 365.301979 
L 664.148571 365.301979 
L 664.148571 366.013585 
L 664.148571 365.411027 
L 670.32381 365.411027 
L 670.32381 369.688724 
L 670.32381 369.115266 
L 676.499048 369.115266 
L 676.499048 375.356706 
L 676.499048 374.825524 
L 682.674286 374.825524 
L 682.674286 374.931414 
L 682.674286 380.267121 
L 682.674286 379.773856 
L 688.849524 379.773856 
L 688.849524 379.863352 
L 688.849524 385.380073 
L 688.849524 384.926613 
L 695.024762 384.926613 
L 695.024762 385.00068 
L 695.024762 392.251666 
L 695.024762 391.851222 
L 701.2 391.851222 
L 701.2 391.907228 
L 701.2 402.35611 
L 701.2 402.35611 
" clip-path="url(#pf46dac9c0c)" style="fill: none; stroke: #0000ff; stroke-width: 1.5; stroke-linecap: square"/>
   </g>
   <g id="line2d_46">
    <path d="M 52.8 50.273143 
L 52.8 50.273143 
L 77.50404 50.273143 
L 77.50404 89.219429 
L 108.374364 89.219429 
L 108.374364 115.184917 
L 114.553616 115.184917 
L 114.553616 105.911807 
L 126.905636 105.911807 
L 126.905636 102.200226 
L 133.078404 102.200226 
L 133.078404 96.093448 
L 145.430424 96.093448 
L 145.430424 93.546361 
L 151.603192 93.546361 
L 151.603192 91.268003 
L 157.77596 91.268003 
L 157.77596 89.219429 
L 163.955212 89.219429 
L 163.955212 98.956 
L 182.48 98.956 
L 182.48 110.192003 
L 188.652768 110.192003 
L 188.652768 107.972065 
L 194.83202 107.972065 
L 194.83202 117.420434 
L 201.004788 117.420434 
L 201.004788 125.653679 
L 207.18404 125.653679 
L 207.18404 123.297429 
L 213.356808 123.297429 
L 213.356808 121.08528 
L 219.529576 121.08528 
L 219.529576 128.165714 
L 225.708828 128.165714 
L 225.708828 134.482802 
L 231.881596 134.482802 
L 231.881596 132.266758 
L 238.054364 132.266758 
L 238.054364 130.163659 
L 244.233616 130.163659 
L 244.233616 128.165714 
L 250.406384 128.165714 
L 250.406384 126.265136 
L 256.585636 126.265136 
L 256.585636 145.473444 
L 262.758404 145.473444 
L 262.758404 149.7108 
L 268.931172 149.7108 
L 268.931172 147.638857 
L 275.110424 147.638857 
L 275.110424 145.652597 
L 281.283192 145.652597 
L 281.283192 143.744229 
L 287.45596 143.744229 
L 287.45596 147.638857 
L 293.635212 147.638857 
L 293.635212 149.410913 
L 305.987232 149.410913 
L 305.987232 157.710367 
L 312.16 157.710367 
L 312.16 155.891575 
L 318.332768 155.891575 
L 318.332768 158.812547 
L 324.51202 158.812547 
L 324.51202 170.106969 
L 330.684788 170.106969 
L 330.684788 168.292072 
L 336.86404 168.292072 
L 336.86404 174.44948 
L 343.036808 174.44948 
L 343.036808 183.652488 
L 349.209576 183.652488 
L 349.209576 181.849275 
L 355.388828 181.849275 
L 355.388828 193.241063 
L 361.561596 193.241063 
L 361.561596 194.518501 
L 367.734364 194.518501 
L 367.734364 192.758129 
L 373.913616 192.758129 
L 373.913616 191.044493 
L 380.086384 191.044493 
L 380.086384 192.314141 
L 386.265636 192.314141 
L 386.265636 196.321714 
L 392.438404 196.321714 
L 392.438404 194.682076 
L 398.611172 194.682076 
L 398.611172 208.492429 
L 404.790424 208.492429 
L 404.790424 211.565291 
L 410.963192 211.565291 
L 410.963192 214.459 
L 417.13596 214.459 
L 417.13596 219.284444 
L 423.315212 219.284444 
L 423.315212 227.618949 
L 429.48798 227.618949 
L 429.48798 236.821957 
L 435.667232 236.821957 
L 435.667232 262.958809 
L 448.012768 262.958809 
L 448.012768 402.355355 
L 701.2 402.355355 
" clip-path="url(#pf46dac9c0c)" style="fill: none; stroke: #bfbf00; stroke-width: 1.5; stroke-linecap: square"/>
   </g>
   <g id="line2d_47">
    <defs>
     <path id="mcb13dff81d" d="M 0 6.363961 
L 6.363961 0 
L 0 -6.363961 
L -6.363961 0 
z
" style="stroke: #000000; stroke-linejoin: miter"/>
    </defs>
    <g clip-path="url(#pf46dac9c0c)">
     <use xlink:href="#mcb13dff81d" x="460.365714" y="122.395894" style="fill: #ffa500; stroke: #000000; stroke-linejoin: miter"/>
    </g>
   </g>
   <g id="line2d_48">
    <defs>
     <path id="mfbc2ed8e8d" d="M 0 6.363961 
L 6.363961 0 
L 0 -6.363961 
L -6.363961 0 
z
" style="stroke: #000000; stroke-linejoin: miter"/>
    </defs>
    <g clip-path="url(#pf46dac9c0c)">
     <use xlink:href="#mfbc2ed8e8d" x="528.293333" y="148.584155" style="fill: #008000; stroke: #000000; stroke-linejoin: miter"/>
    </g>
   </g>
   <g id="line2d_49">
    <defs>
     <path id="m47701c3fb2" d="M 0 3 
C 0.795609 3 1.55874 2.683901 2.12132 2.12132 
C 2.683901 1.55874 3 0.795609 3 0 
C 3 -0.795609 2.683901 -1.55874 2.12132 -2.12132 
C 1.55874 -2.683901 0.795609 -3 0 -3 
C -0.795609 -3 -1.55874 -2.683901 -2.12132 -2.12132 
C -2.683901 -1.55874 -3 -0.795609 -3 0 
C -3 0.795609 -2.683901 1.55874 -2.12132 2.12132 
C -1.55874 2.683901 -0.795609 3 0 3 
z
" style="stroke: #000000"/>
    </defs>
    <g clip-path="url(#pf46dac9c0c)">
     <use xlink:href="#m47701c3fb2" x="491.241905" y="171.271312" style="fill: #0000ff; stroke: #000000"/>
    </g>
   </g>
   <g id="line2d_50">
    <defs>
     <path id="m9fd0027227" d="M 0 -4.5 
L -4.5 4.5 
L 4.5 4.5 
z
" style="stroke: #000000; stroke-linejoin: miter"/>
    </defs>
    <g clip-path="url(#pf46dac9c0c)">
     <use xlink:href="#m9fd0027227" x="503.592381" y="163.708926" style="fill: #ffffff; stroke: #000000; stroke-linejoin: miter"/>
    </g>
   </g>
   <g id="line2d_51">
    <defs>
     <path id="mc31f0be9c2" d="M 0 -4.5 
L -4.5 4.5 
L 4.5 4.5 
z
" style="stroke: #000000; stroke-linejoin: miter"/>
    </defs>
    <g clip-path="url(#pf46dac9c0c)">
     <use xlink:href="#mc31f0be9c2" x="373.912381" y="113.089733" style="fill: #808080; stroke: #000000; stroke-linejoin: miter"/>
    </g>
   </g>
   <g id="line2d_52">
    <defs>
     <path id="m66536ab385" d="M -2.25 4.5 
L 0 2.25 
L 2.25 4.5 
L 4.5 2.25 
L 2.25 0 
L 4.5 -2.25 
L 2.25 -4.5 
L 0 -2.25 
L -2.25 -4.5 
L -4.5 -2.25 
L -2.25 0 
L -4.5 2.25 
z
" style="stroke: #000000; stroke-linejoin: miter"/>
    </defs>
    <g clip-path="url(#pf46dac9c0c)">
     <use xlink:href="#m66536ab385" x="454.190476" y="196.321714" style="stroke: #000000; stroke-linejoin: miter"/>
    </g>
   </g>
   <g id="line2d_53">
    <defs>
     <path id="m5c72c2e07c" d="M 0 -4.5 
L -4.279754 -1.390576 
L -2.645034 3.640576 
L 2.645034 3.640576 
L 4.279754 -1.390576 
z
" style="stroke: #000000; stroke-linejoin: miter"/>
    </defs>
    <g clip-path="url(#pf46dac9c0c)">
     <use xlink:href="#m5c72c2e07c" x="349.211429" y="254.644741" style="fill: #00bfbf; stroke: #000000; stroke-linejoin: miter"/>
    </g>
   </g>
   <g id="line2d_54">
    <defs>
     <path id="ma208fea365" d="M -3 3 
L 3 -3 
M -3 -3 
L 3 3 
" style="stroke: #000000"/>
    </defs>
    <g clip-path="url(#pf46dac9c0c)">
     <use xlink:href="#ma208fea365" x="161.983572" y="374.154652" style="stroke: #000000"/>
    </g>
   </g>
   <g id="patch_3">
    <path d="M 52.8 439.736 
L 52.8 30.8 
" style="fill: none; stroke: #000000; stroke-width: 0.8; stroke-linejoin: miter; stroke-linecap: square"/>
   </g>
   <g id="patch_4">
    <path d="M 701.2 439.736 
L 701.2 30.8 
" style="fill: none; stroke: #000000; stroke-width: 0.8; stroke-linejoin: miter; stroke-linecap: square"/>
   </g>
   <g id="patch_5">
    <path d="M 52.8 439.736 
L 701.2 439.736 
" style="fill: none; stroke: #000000; stroke-width: 0.8; stroke-linejoin: miter; stroke-linecap: square"/>
   </g>
   <g id="patch_6">
    <path d="M 52.8 30.8 
L 701.2 30.8 
" style="fill: none; stroke: #000000; stroke-width: 0.8; stroke-linejoin: miter; stroke-linecap: square"/>
   </g>
   <g id="text_24">
    <!-- Precision-Recall Curve Expert Curated set -->
    <g transform="translate(189.524375 24.8)scale(0.18 -0.18)">
     <defs>
      <path id="DejaVuSans-2d" d="M 313 2009 
L 1997 2009 
L 1997 1497 
L 313 1497 
L 313 2009 
z
" transform="scale(0.015625)"/>
      <path id="DejaVuSans-20" transform="scale(0.015625)"/>
      <path id="DejaVuSans-43" d="M 4122 4306 
L 4122 3641 
Q 3803 3938 3442 4084 
Q 3081 4231 2675 4231 
Q 1875 4231 1450 3742 
Q 1025 3253 1025 2328 
Q 1025 1406 1450 917 
Q 1875 428 2675 428 
Q 3081 428 3442 575 
Q 3803 722 4122 1019 
L 4122 359 
Q 3791 134 3420 21 
Q 3050 -91 2638 -91 
Q 1578 -91 968 557 
Q 359 1206 359 2328 
Q 359 3453 968 4101 
Q 1578 4750 2638 4750 
Q 3056 4750 3426 4639 
Q 3797 4528 4122 4306 
z
" transform="scale(0.015625)"/>
      <path id="DejaVuSans-75" d="M 544 1381 
L 544 3500 
L 1119 3500 
L 1119 1403 
Q 1119 906 1312 657 
Q 1506 409 1894 409 
Q 2359 409 2629 706 
Q 2900 1003 2900 1516 
L 2900 3500 
L 3475 3500 
L 3475 0 
L 2900 0 
L 2900 538 
Q 2691 219 2414 64 
Q 2138 -91 1772 -91 
Q 1169 -91 856 284 
Q 544 659 544 1381 
z
M 1991 3584 
L 1991 3584 
z
" transform="scale(0.015625)"/>
      <path id="DejaVuSans-76" d="M 191 3500 
L 800 3500 
L 1894 563 
L 2988 3500 
L 3597 3500 
L 2284 0 
L 1503 0 
L 191 3500 
z
" transform="scale(0.015625)"/>
      <path id="DejaVuSans-45" d="M 628 4666 
L 3578 4666 
L 3578 4134 
L 1259 4134 
L 1259 2753 
L 3481 2753 
L 3481 2222 
L 1259 2222 
L 1259 531 
L 3634 531 
L 3634 0 
L 628 0 
L 628 4666 
z
" transform="scale(0.015625)"/>
      <path id="DejaVuSans-78" d="M 3513 3500 
L 2247 1797 
L 3578 0 
L 2900 0 
L 1881 1375 
L 863 0 
L 184 0 
L 1544 1831 
L 300 3500 
L 978 3500 
L 1906 2253 
L 2834 3500 
L 3513 3500 
z
" transform="scale(0.015625)"/>
      <path id="DejaVuSans-70" d="M 1159 525 
L 1159 -1331 
L 581 -1331 
L 581 3500 
L 1159 3500 
L 1159 2969 
Q 1341 3281 1617 3432 
Q 1894 3584 2278 3584 
Q 2916 3584 3314 3078 
Q 3713 2572 3713 1747 
Q 3713 922 3314 415 
Q 2916 -91 2278 -91 
Q 1894 -91 1617 61 
Q 1341 213 1159 525 
z
M 3116 1747 
Q 3116 2381 2855 2742 
Q 2594 3103 2138 3103 
Q 1681 3103 1420 2742 
Q 1159 2381 1159 1747 
Q 1159 1113 1420 752 
Q 1681 391 2138 391 
Q 2594 391 2855 752 
Q 3116 1113 3116 1747 
z
" transform="scale(0.015625)"/>
      <path id="DejaVuSans-74" d="M 1172 4494 
L 1172 3500 
L 2356 3500 
L 2356 3053 
L 1172 3053 
L 1172 1153 
Q 1172 725 1289 603 
Q 1406 481 1766 481 
L 2356 481 
L 2356 0 
L 1766 0 
Q 1100 0 847 248 
Q 594 497 594 1153 
L 594 3053 
L 172 3053 
L 172 3500 
L 594 3500 
L 594 4494 
L 1172 4494 
z
" transform="scale(0.015625)"/>
      <path id="DejaVuSans-64" d="M 2906 2969 
L 2906 4863 
L 3481 4863 
L 3481 0 
L 2906 0 
L 2906 525 
Q 2725 213 2448 61 
Q 2172 -91 1784 -91 
Q 1150 -91 751 415 
Q 353 922 353 1747 
Q 353 2572 751 3078 
Q 1150 3584 1784 3584 
Q 2172 3584 2448 3432 
Q 2725 3281 2906 2969 
z
M 947 1747 
Q 947 1113 1208 752 
Q 1469 391 1925 391 
Q 2381 391 2643 752 
Q 2906 1113 2906 1747 
Q 2906 2381 2643 2742 
Q 2381 3103 1925 3103 
Q 1469 3103 1208 2742 
Q 947 2381 947 1747 
z
" transform="scale(0.015625)"/>
     </defs>
     <use xlink:href="#DejaVuSans-50"/>
     <use xlink:href="#DejaVuSans-72" x="58.552734"/>
     <use xlink:href="#DejaVuSans-65" x="97.416016"/>
     <use xlink:href="#DejaVuSans-63" x="158.939453"/>
     <use xlink:href="#DejaVuSans-69" x="213.919922"/>
     <use xlink:href="#DejaVuSans-73" x="241.703125"/>
     <use xlink:href="#DejaVuSans-69" x="293.802734"/>
     <use xlink:href="#DejaVuSans-6f" x="321.585938"/>
     <use xlink:href="#DejaVuSans-6e" x="382.767578"/>
     <use xlink:href="#DejaVuSans-2d" x="446.146484"/>
     <use xlink:href="#DejaVuSans-52" x="482.230469"/>
     <use xlink:href="#DejaVuSans-65" x="547.212891"/>
     <use xlink:href="#DejaVuSans-63" x="608.736328"/>
     <use xlink:href="#DejaVuSans-61" x="663.716797"/>
     <use xlink:href="#DejaVuSans-6c" x="724.996094"/>
     <use xlink:href="#DejaVuSans-6c" x="752.779297"/>
     <use xlink:href="#DejaVuSans-20" x="780.5625"/>
     <use xlink:href="#DejaVuSans-43" x="812.349609"/>
     <use xlink:href="#DejaVuSans-75" x="882.173828"/>
     <use xlink:href="#DejaVuSans-72" x="945.552734"/>
     <use xlink:href="#DejaVuSans-76" x="986.666016"/>
     <use xlink:href="#DejaVuSans-65" x="1045.845703"/>
     <use xlink:href="#DejaVuSans-20" x="1107.369141"/>
     <use xlink:href="#DejaVuSans-45" x="1139.15625"/>
     <use xlink:href="#DejaVuSans-78" x="1202.339844"/>
     <use xlink:href="#DejaVuSans-70" x="1261.519531"/>
     <use xlink:href="#DejaVuSans-65" x="1324.996094"/>
     <use xlink:href="#DejaVuSans-72" x="1386.519531"/>
     <use xlink:href="#DejaVuSans-74" x="1427.632812"/>
     <use xlink:href="#DejaVuSans-20" x="1466.841797"/>
     <use xlink:href="#DejaVuSans-43" x="1498.628906"/>
     <use xlink:href="#DejaVuSans-75" x="1568.453125"/>
     <use xlink:href="#DejaVuSans-72" x="1631.832031"/>
     <use xlink:href="#DejaVuSans-61" x="1672.945312"/>
     <use xlink:href="#DejaVuSans-74" x="1734.224609"/>
     <use xlink:href="#DejaVuSans-65" x="1773.433594"/>
     <use xlink:href="#DejaVuSans-64" x="1834.957031"/>
     <use xlink:href="#DejaVuSans-20" x="1898.433594"/>
     <use xlink:href="#DejaVuSans-73" x="1930.220703"/>
     <use xlink:href="#DejaVuSans-65" x="1982.320312"/>
     <use xlink:href="#DejaVuSans-74" x="2043.84375"/>
    </g>
   </g>
   <g id="legend_1">
    <g id="patch_7">
     <path d="M 92.22 557.4168 
L 615.596563 557.4168 
Q 617.596563 557.4168 617.596563 555.4168 
L 617.596563 512.382425 
Q 617.596563 510.382425 615.596563 510.382425 
L 92.22 510.382425 
Q 90.22 510.382425 90.22 512.382425 
L 90.22 555.4168 
Q 90.22 557.4168 92.22 557.4168 
z
" style="fill: #ffffff; opacity: 0.8; stroke: #cccccc; stroke-linejoin: miter"/>
    </g>
    <g id="line2d_55">
     <path d="M 94.22 518.480862 
L 94.22 518.480862 
L 104.22 518.480862 
L 104.22 518.480862 
L 114.22 518.480862 
" style="fill: none; stroke: #008000; stroke-width: 1.5; stroke-linecap: square"/>
    </g>
    <g id="text_25">
     <!-- FLAMES (0.77) -->
     <g transform="translate(122.22 521.980862)scale(0.1 -0.1)">
      <defs>
       <path id="DejaVuSans-46" d="M 628 4666 
L 3309 4666 
L 3309 4134 
L 1259 4134 
L 1259 2759 
L 3109 2759 
L 3109 2228 
L 1259 2228 
L 1259 0 
L 628 0 
L 628 4666 
z
" transform="scale(0.015625)"/>
       <path id="DejaVuSans-4c" d="M 628 4666 
L 1259 4666 
L 1259 531 
L 3531 531 
L 3531 0 
L 628 0 
L 628 4666 
z
" transform="scale(0.015625)"/>
       <path id="DejaVuSans-41" d="M 2188 4044 
L 1331 1722 
L 3047 1722 
L 2188 4044 
z
M 1831 4666 
L 2547 4666 
L 4325 0 
L 3669 0 
L 3244 1197 
L 1141 1197 
L 716 0 
L 50 0 
L 1831 4666 
z
" transform="scale(0.015625)"/>
       <path id="DejaVuSans-4d" d="M 628 4666 
L 1569 4666 
L 2759 1491 
L 3956 4666 
L 4897 4666 
L 4897 0 
L 4281 0 
L 4281 4097 
L 3078 897 
L 2444 897 
L 1241 4097 
L 1241 0 
L 628 0 
L 628 4666 
z
" transform="scale(0.015625)"/>
       <path id="DejaVuSans-53" d="M 3425 4513 
L 3425 3897 
Q 3066 4069 2747 4153 
Q 2428 4238 2131 4238 
Q 1616 4238 1336 4038 
Q 1056 3838 1056 3469 
Q 1056 3159 1242 3001 
Q 1428 2844 1947 2747 
L 2328 2669 
Q 3034 2534 3370 2195 
Q 3706 1856 3706 1288 
Q 3706 609 3251 259 
Q 2797 -91 1919 -91 
Q 1588 -91 1214 -16 
Q 841 59 441 206 
L 441 856 
Q 825 641 1194 531 
Q 1563 422 1919 422 
Q 2459 422 2753 634 
Q 3047 847 3047 1241 
Q 3047 1584 2836 1778 
Q 2625 1972 2144 2069 
L 1759 2144 
Q 1053 2284 737 2584 
Q 422 2884 422 3419 
Q 422 4038 858 4394 
Q 1294 4750 2059 4750 
Q 2388 4750 2728 4690 
Q 3069 4631 3425 4513 
z
" transform="scale(0.015625)"/>
       <path id="DejaVuSans-28" d="M 1984 4856 
Q 1566 4138 1362 3434 
Q 1159 2731 1159 2009 
Q 1159 1288 1364 580 
Q 1569 -128 1984 -844 
L 1484 -844 
Q 1016 -109 783 600 
Q 550 1309 550 2009 
Q 550 2706 781 3412 
Q 1013 4119 1484 4856 
L 1984 4856 
z
" transform="scale(0.015625)"/>
       <path id="DejaVuSans-29" d="M 513 4856 
L 1013 4856 
Q 1481 4119 1714 3412 
Q 1947 2706 1947 2009 
Q 1947 1309 1714 600 
Q 1481 -109 1013 -844 
L 513 -844 
Q 928 -128 1133 580 
Q 1338 1288 1338 2009 
Q 1338 2731 1133 3434 
Q 928 4138 513 4856 
z
" transform="scale(0.015625)"/>
      </defs>
      <use xlink:href="#DejaVuSans-46"/>
      <use xlink:href="#DejaVuSans-4c" x="57.519531"/>
      <use xlink:href="#DejaVuSans-41" x="115.482422"/>
      <use xlink:href="#DejaVuSans-4d" x="183.890625"/>
      <use xlink:href="#DejaVuSans-45" x="270.169922"/>
      <use xlink:href="#DejaVuSans-53" x="333.353516"/>
      <use xlink:href="#DejaVuSans-20" x="396.830078"/>
      <use xlink:href="#DejaVuSans-28" x="428.617188"/>
      <use xlink:href="#DejaVuSans-30" x="467.630859"/>
      <use xlink:href="#DejaVuSans-2e" x="531.253906"/>
      <use xlink:href="#DejaVuSans-37" x="563.041016"/>
      <use xlink:href="#DejaVuSans-37" x="626.664062"/>
      <use xlink:href="#DejaVuSans-29" x="690.287109"/>
     </g>
    </g>
    <g id="line2d_56">
     <path d="M 94.22 533.158987 
L 94.22 533.158987 
L 104.22 533.158987 
L 104.22 533.158987 
L 114.22 533.158987 
" style="fill: none; stroke: #bf00bf; stroke-width: 1.5; stroke-linecap: square"/>
    </g>
    <g id="text_26">
     <!-- XGB (0.6) -->
     <g transform="translate(122.22 536.658987)scale(0.1 -0.1)">
      <defs>
       <path id="DejaVuSans-58" d="M 403 4666 
L 1081 4666 
L 2241 2931 
L 3406 4666 
L 4084 4666 
L 2584 2425 
L 4184 0 
L 3506 0 
L 2194 1984 
L 872 0 
L 191 0 
L 1856 2491 
L 403 4666 
z
" transform="scale(0.015625)"/>
       <path id="DejaVuSans-47" d="M 3809 666 
L 3809 1919 
L 2778 1919 
L 2778 2438 
L 4434 2438 
L 4434 434 
Q 4069 175 3628 42 
Q 3188 -91 2688 -91 
Q 1594 -91 976 548 
Q 359 1188 359 2328 
Q 359 3472 976 4111 
Q 1594 4750 2688 4750 
Q 3144 4750 3555 4637 
Q 3966 4525 4313 4306 
L 4313 3634 
Q 3963 3931 3569 4081 
Q 3175 4231 2741 4231 
Q 1884 4231 1454 3753 
Q 1025 3275 1025 2328 
Q 1025 1384 1454 906 
Q 1884 428 2741 428 
Q 3075 428 3337 486 
Q 3600 544 3809 666 
z
" transform="scale(0.015625)"/>
       <path id="DejaVuSans-42" d="M 1259 2228 
L 1259 519 
L 2272 519 
Q 2781 519 3026 730 
Q 3272 941 3272 1375 
Q 3272 1813 3026 2020 
Q 2781 2228 2272 2228 
L 1259 2228 
z
M 1259 4147 
L 1259 2741 
L 2194 2741 
Q 2656 2741 2882 2914 
Q 3109 3088 3109 3444 
Q 3109 3797 2882 3972 
Q 2656 4147 2194 4147 
L 1259 4147 
z
M 628 4666 
L 2241 4666 
Q 2963 4666 3353 4366 
Q 3744 4066 3744 3513 
Q 3744 3084 3544 2831 
Q 3344 2578 2956 2516 
Q 3422 2416 3680 2098 
Q 3938 1781 3938 1306 
Q 3938 681 3513 340 
Q 3088 0 2303 0 
L 628 0 
L 628 4666 
z
" transform="scale(0.015625)"/>
      </defs>
      <use xlink:href="#DejaVuSans-58"/>
      <use xlink:href="#DejaVuSans-47" x="68.505859"/>
      <use xlink:href="#DejaVuSans-42" x="145.996094"/>
      <use xlink:href="#DejaVuSans-20" x="214.599609"/>
      <use xlink:href="#DejaVuSans-28" x="246.386719"/>
      <use xlink:href="#DejaVuSans-30" x="285.400391"/>
      <use xlink:href="#DejaVuSans-2e" x="349.023438"/>
      <use xlink:href="#DejaVuSans-36" x="380.810547"/>
      <use xlink:href="#DejaVuSans-29" x="444.433594"/>
     </g>
    </g>
    <g id="line2d_57">
     <path d="M 94.22 547.837112 
L 94.22 547.837112 
L 104.22 547.837112 
L 104.22 547.837112 
L 114.22 547.837112 
" style="fill: none; stroke: #0000ff; stroke-width: 1.5; stroke-linecap: square"/>
    </g>
    <g id="text_27">
     <!-- L2G (0.73) -->
     <g transform="translate(122.22 551.337112)scale(0.1 -0.1)">
      <use xlink:href="#DejaVuSans-4c"/>
      <use xlink:href="#DejaVuSans-32" x="55.712891"/>
      <use xlink:href="#DejaVuSans-47" x="119.335938"/>
      <use xlink:href="#DejaVuSans-20" x="196.826172"/>
      <use xlink:href="#DejaVuSans-28" x="228.613281"/>
      <use xlink:href="#DejaVuSans-30" x="267.626953"/>
      <use xlink:href="#DejaVuSans-2e" x="331.25"/>
      <use xlink:href="#DejaVuSans-37" x="363.037109"/>
      <use xlink:href="#DejaVuSans-33" x="426.660156"/>
      <use xlink:href="#DejaVuSans-29" x="490.283203"/>
     </g>
    </g>
    <g id="line2d_58">
     <path d="M 215.15125 518.480862 
L 215.15125 518.480862 
L 225.15125 518.480862 
L 225.15125 518.480862 
L 235.15125 518.480862 
" style="fill: none; stroke: #bfbf00; stroke-width: 1.5; stroke-linecap: square"/>
    </g>
    <g id="text_28">
     <!-- cS2G (0.58) -->
     <g transform="translate(243.15125 521.980862)scale(0.1 -0.1)">
      <use xlink:href="#DejaVuSans-63"/>
      <use xlink:href="#DejaVuSans-53" x="54.980469"/>
      <use xlink:href="#DejaVuSans-32" x="118.457031"/>
      <use xlink:href="#DejaVuSans-47" x="182.080078"/>
      <use xlink:href="#DejaVuSans-20" x="259.570312"/>
      <use xlink:href="#DejaVuSans-28" x="291.357422"/>
      <use xlink:href="#DejaVuSans-30" x="330.371094"/>
      <use xlink:href="#DejaVuSans-2e" x="393.994141"/>
      <use xlink:href="#DejaVuSans-35" x="425.78125"/>
      <use xlink:href="#DejaVuSans-38" x="489.404297"/>
      <use xlink:href="#DejaVuSans-29" x="553.027344"/>
     </g>
    </g>
    <g id="line2d_59">
     <g>
      <use xlink:href="#mcb13dff81d" x="225.15125" y="533.158987" style="fill: #ffa500; stroke: #000000; stroke-linejoin: miter"/>
     </g>
    </g>
    <g id="text_29">
     <!-- FLAMES recommended -->
     <g transform="translate(243.15125 536.658987)scale(0.1 -0.1)">
      <defs>
       <path id="DejaVuSans-6d" d="M 3328 2828 
Q 3544 3216 3844 3400 
Q 4144 3584 4550 3584 
Q 5097 3584 5394 3201 
Q 5691 2819 5691 2113 
L 5691 0 
L 5113 0 
L 5113 2094 
Q 5113 2597 4934 2840 
Q 4756 3084 4391 3084 
Q 3944 3084 3684 2787 
Q 3425 2491 3425 1978 
L 3425 0 
L 2847 0 
L 2847 2094 
Q 2847 2600 2669 2842 
Q 2491 3084 2119 3084 
Q 1678 3084 1418 2786 
Q 1159 2488 1159 1978 
L 1159 0 
L 581 0 
L 581 3500 
L 1159 3500 
L 1159 2956 
Q 1356 3278 1631 3431 
Q 1906 3584 2284 3584 
Q 2666 3584 2933 3390 
Q 3200 3197 3328 2828 
z
" transform="scale(0.015625)"/>
      </defs>
      <use xlink:href="#DejaVuSans-46"/>
      <use xlink:href="#DejaVuSans-4c" x="57.519531"/>
      <use xlink:href="#DejaVuSans-41" x="115.482422"/>
      <use xlink:href="#DejaVuSans-4d" x="183.890625"/>
      <use xlink:href="#DejaVuSans-45" x="270.169922"/>
      <use xlink:href="#DejaVuSans-53" x="333.353516"/>
      <use xlink:href="#DejaVuSans-20" x="396.830078"/>
      <use xlink:href="#DejaVuSans-72" x="428.617188"/>
      <use xlink:href="#DejaVuSans-65" x="467.480469"/>
      <use xlink:href="#DejaVuSans-63" x="529.003906"/>
      <use xlink:href="#DejaVuSans-6f" x="583.984375"/>
      <use xlink:href="#DejaVuSans-6d" x="645.166016"/>
      <use xlink:href="#DejaVuSans-6d" x="742.578125"/>
      <use xlink:href="#DejaVuSans-65" x="839.990234"/>
      <use xlink:href="#DejaVuSans-6e" x="901.513672"/>
      <use xlink:href="#DejaVuSans-64" x="964.892578"/>
      <use xlink:href="#DejaVuSans-65" x="1028.369141"/>
      <use xlink:href="#DejaVuSans-64" x="1089.892578"/>
     </g>
    </g>
    <g id="line2d_60">
     <g>
      <use xlink:href="#mfbc2ed8e8d" x="225.15125" y="547.837112" style="fill: #008000; stroke: #000000; stroke-linejoin: miter"/>
     </g>
    </g>
    <g id="text_30">
     <!-- Highest FLAMES -->
     <g transform="translate(243.15125 551.337112)scale(0.1 -0.1)">
      <defs>
       <path id="DejaVuSans-48" d="M 628 4666 
L 1259 4666 
L 1259 2753 
L 3553 2753 
L 3553 4666 
L 4184 4666 
L 4184 0 
L 3553 0 
L 3553 2222 
L 1259 2222 
L 1259 0 
L 628 0 
L 628 4666 
z
" transform="scale(0.015625)"/>
       <path id="DejaVuSans-67" d="M 2906 1791 
Q 2906 2416 2648 2759 
Q 2391 3103 1925 3103 
Q 1463 3103 1205 2759 
Q 947 2416 947 1791 
Q 947 1169 1205 825 
Q 1463 481 1925 481 
Q 2391 481 2648 825 
Q 2906 1169 2906 1791 
z
M 3481 434 
Q 3481 -459 3084 -895 
Q 2688 -1331 1869 -1331 
Q 1566 -1331 1297 -1286 
Q 1028 -1241 775 -1147 
L 775 -588 
Q 1028 -725 1275 -790 
Q 1522 -856 1778 -856 
Q 2344 -856 2625 -561 
Q 2906 -266 2906 331 
L 2906 616 
Q 2728 306 2450 153 
Q 2172 0 1784 0 
Q 1141 0 747 490 
Q 353 981 353 1791 
Q 353 2603 747 3093 
Q 1141 3584 1784 3584 
Q 2172 3584 2450 3431 
Q 2728 3278 2906 2969 
L 2906 3500 
L 3481 3500 
L 3481 434 
z
" transform="scale(0.015625)"/>
       <path id="DejaVuSans-68" d="M 3513 2113 
L 3513 0 
L 2938 0 
L 2938 2094 
Q 2938 2591 2744 2837 
Q 2550 3084 2163 3084 
Q 1697 3084 1428 2787 
Q 1159 2491 1159 1978 
L 1159 0 
L 581 0 
L 581 4863 
L 1159 4863 
L 1159 2956 
Q 1366 3272 1645 3428 
Q 1925 3584 2291 3584 
Q 2894 3584 3203 3211 
Q 3513 2838 3513 2113 
z
" transform="scale(0.015625)"/>
      </defs>
      <use xlink:href="#DejaVuSans-48"/>
      <use xlink:href="#DejaVuSans-69" x="75.195312"/>
      <use xlink:href="#DejaVuSans-67" x="102.978516"/>
      <use xlink:href="#DejaVuSans-68" x="166.455078"/>
      <use xlink:href="#DejaVuSans-65" x="229.833984"/>
      <use xlink:href="#DejaVuSans-73" x="291.357422"/>
      <use xlink:href="#DejaVuSans-74" x="343.457031"/>
      <use xlink:href="#DejaVuSans-20" x="382.666016"/>
      <use xlink:href="#DejaVuSans-46" x="414.453125"/>
      <use xlink:href="#DejaVuSans-4c" x="471.972656"/>
      <use xlink:href="#DejaVuSans-41" x="529.935547"/>
      <use xlink:href="#DejaVuSans-4d" x="598.34375"/>
      <use xlink:href="#DejaVuSans-45" x="684.623047"/>
      <use xlink:href="#DejaVuSans-53" x="747.806641"/>
     </g>
    </g>
    <g id="line2d_61">
     <g>
      <use xlink:href="#m47701c3fb2" x="388.491875" y="518.480862" style="fill: #0000ff; stroke: #000000"/>
     </g>
    </g>
    <g id="text_31">
     <!-- Highest L2G -->
     <g transform="translate(406.491875 521.980862)scale(0.1 -0.1)">
      <use xlink:href="#DejaVuSans-48"/>
      <use xlink:href="#DejaVuSans-69" x="75.195312"/>
      <use xlink:href="#DejaVuSans-67" x="102.978516"/>
      <use xlink:href="#DejaVuSans-68" x="166.455078"/>
      <use xlink:href="#DejaVuSans-65" x="229.833984"/>
      <use xlink:href="#DejaVuSans-73" x="291.357422"/>
      <use xlink:href="#DejaVuSans-74" x="343.457031"/>
      <use xlink:href="#DejaVuSans-20" x="382.666016"/>
      <use xlink:href="#DejaVuSans-4c" x="414.453125"/>
      <use xlink:href="#DejaVuSans-32" x="470.166016"/>
      <use xlink:href="#DejaVuSans-47" x="533.789062"/>
     </g>
    </g>
    <g id="line2d_62">
     <g>
      <use xlink:href="#m9fd0027227" x="388.491875" y="533.158987" style="fill: #ffffff; stroke: #000000; stroke-linejoin: miter"/>
     </g>
    </g>
    <g id="text_32">
     <!-- Highest PoPS -->
     <g transform="translate(406.491875 536.658987)scale(0.1 -0.1)">
      <use xlink:href="#DejaVuSans-48"/>
      <use xlink:href="#DejaVuSans-69" x="75.195312"/>
      <use xlink:href="#DejaVuSans-67" x="102.978516"/>
      <use xlink:href="#DejaVuSans-68" x="166.455078"/>
      <use xlink:href="#DejaVuSans-65" x="229.833984"/>
      <use xlink:href="#DejaVuSans-73" x="291.357422"/>
      <use xlink:href="#DejaVuSans-74" x="343.457031"/>
      <use xlink:href="#DejaVuSans-20" x="382.666016"/>
      <use xlink:href="#DejaVuSans-50" x="414.453125"/>
      <use xlink:href="#DejaVuSans-6f" x="471.130859"/>
      <use xlink:href="#DejaVuSans-50" x="532.3125"/>
      <use xlink:href="#DejaVuSans-53" x="592.615234"/>
     </g>
    </g>
    <g id="line2d_63">
     <g>
      <use xlink:href="#mc31f0be9c2" x="388.491875" y="547.837112" style="fill: #808080; stroke: #000000; stroke-linejoin: miter"/>
     </g>
    </g>
    <g id="text_33">
     <!-- Closest+PoPS -->
     <g transform="translate(406.491875 551.337112)scale(0.1 -0.1)">
      <defs>
       <path id="DejaVuSans-2b" d="M 2944 4013 
L 2944 2272 
L 4684 2272 
L 4684 1741 
L 2944 1741 
L 2944 0 
L 2419 0 
L 2419 1741 
L 678 1741 
L 678 2272 
L 2419 2272 
L 2419 4013 
L 2944 4013 
z
" transform="scale(0.015625)"/>
      </defs>
      <use xlink:href="#DejaVuSans-43"/>
      <use xlink:href="#DejaVuSans-6c" x="69.824219"/>
      <use xlink:href="#DejaVuSans-6f" x="97.607422"/>
      <use xlink:href="#DejaVuSans-73" x="158.789062"/>
      <use xlink:href="#DejaVuSans-65" x="210.888672"/>
      <use xlink:href="#DejaVuSans-73" x="272.412109"/>
      <use xlink:href="#DejaVuSans-74" x="324.511719"/>
      <use xlink:href="#DejaVuSans-2b" x="363.720703"/>
      <use xlink:href="#DejaVuSans-50" x="447.509766"/>
      <use xlink:href="#DejaVuSans-6f" x="504.1875"/>
      <use xlink:href="#DejaVuSans-50" x="565.369141"/>
      <use xlink:href="#DejaVuSans-53" x="625.671875"/>
     </g>
    </g>
    <g id="line2d_64">
     <g>
      <use xlink:href="#m66536ab385" x="505.4075" y="518.480862" style="stroke: #000000; stroke-linejoin: miter"/>
     </g>
    </g>
    <g id="text_34">
     <!-- Closest gene -->
     <g transform="translate(523.4075 521.980862)scale(0.1 -0.1)">
      <use xlink:href="#DejaVuSans-43"/>
      <use xlink:href="#DejaVuSans-6c" x="69.824219"/>
      <use xlink:href="#DejaVuSans-6f" x="97.607422"/>
      <use xlink:href="#DejaVuSans-73" x="158.789062"/>
      <use xlink:href="#DejaVuSans-65" x="210.888672"/>
      <use xlink:href="#DejaVuSans-73" x="272.412109"/>
      <use xlink:href="#DejaVuSans-74" x="324.511719"/>
      <use xlink:href="#DejaVuSans-20" x="363.720703"/>
      <use xlink:href="#DejaVuSans-67" x="395.507812"/>
      <use xlink:href="#DejaVuSans-65" x="458.984375"/>
      <use xlink:href="#DejaVuSans-6e" x="520.507812"/>
      <use xlink:href="#DejaVuSans-65" x="583.886719"/>
     </g>
    </g>
    <g id="line2d_65">
     <g>
      <use xlink:href="#m5c72c2e07c" x="505.4075" y="533.158987" style="fill: #00bfbf; stroke: #000000; stroke-linejoin: miter"/>
     </g>
    </g>
    <g id="text_35">
     <!-- Highest MAGMA-Z -->
     <g transform="translate(523.4075 536.658987)scale(0.1 -0.1)">
      <defs>
       <path id="DejaVuSans-5a" d="M 359 4666 
L 4025 4666 
L 4025 4184 
L 1075 531 
L 4097 531 
L 4097 0 
L 288 0 
L 288 481 
L 3238 4134 
L 359 4134 
L 359 4666 
z
" transform="scale(0.015625)"/>
      </defs>
      <use xlink:href="#DejaVuSans-48"/>
      <use xlink:href="#DejaVuSans-69" x="75.195312"/>
      <use xlink:href="#DejaVuSans-67" x="102.978516"/>
      <use xlink:href="#DejaVuSans-68" x="166.455078"/>
      <use xlink:href="#DejaVuSans-65" x="229.833984"/>
      <use xlink:href="#DejaVuSans-73" x="291.357422"/>
      <use xlink:href="#DejaVuSans-74" x="343.457031"/>
      <use xlink:href="#DejaVuSans-20" x="382.666016"/>
      <use xlink:href="#DejaVuSans-4d" x="414.453125"/>
      <use xlink:href="#DejaVuSans-41" x="500.732422"/>
      <use xlink:href="#DejaVuSans-47" x="567.390625"/>
      <use xlink:href="#DejaVuSans-4d" x="644.880859"/>
      <use xlink:href="#DejaVuSans-41" x="731.160156"/>
      <use xlink:href="#DejaVuSans-2d" x="797.318359"/>
      <use xlink:href="#DejaVuSans-5a" x="833.402344"/>
     </g>
    </g>
    <g id="line2d_66">
     <g>
      <use xlink:href="#ma208fea365" x="505.4075" y="547.837112" style="stroke: #000000"/>
     </g>
    </g>
    <g id="text_36">
     <!-- Random predictor -->
     <g transform="translate(523.4075 551.337112)scale(0.1 -0.1)">
      <use xlink:href="#DejaVuSans-52"/>
      <use xlink:href="#DejaVuSans-61" x="67.232422"/>
      <use xlink:href="#DejaVuSans-6e" x="128.511719"/>
      <use xlink:href="#DejaVuSans-64" x="191.890625"/>
      <use xlink:href="#DejaVuSans-6f" x="255.367188"/>
      <use xlink:href="#DejaVuSans-6d" x="316.548828"/>
      <use xlink:href="#DejaVuSans-20" x="413.960938"/>
      <use xlink:href="#DejaVuSans-70" x="445.748047"/>
      <use xlink:href="#DejaVuSans-72" x="509.224609"/>
      <use xlink:href="#DejaVuSans-65" x="548.087891"/>
      <use xlink:href="#DejaVuSans-64" x="609.611328"/>
      <use xlink:href="#DejaVuSans-69" x="673.087891"/>
      <use xlink:href="#DejaVuSans-63" x="700.871094"/>
      <use xlink:href="#DejaVuSans-74" x="755.851562"/>
      <use xlink:href="#DejaVuSans-6f" x="795.060547"/>
      <use xlink:href="#DejaVuSans-72" x="856.242188"/>
     </g>
    </g>
   </g>
  </g>
 </g>
 <defs>
  <clipPath id="pf46dac9c0c">
   <rect x="52.8" y="30.8" width="648.4" height="408.936"/>
  </clipPath>
 </defs>
</svg>
