<?xml version="1.0" encoding="utf-8" standalone="no"?>
<!DOCTYPE svg PUBLIC "-//W3C//DTD SVG 1.1//EN"
  "http://www.w3.org/Graphics/SVG/1.1/DTD/svg11.dtd">
<svg xmlns:xlink="http://www.w3.org/1999/xlink" width="720pt" height="576pt" viewBox="0 0 720 576" xmlns="http://www.w3.org/2000/svg" version="1.1">
 <metadata>
  <rdf:RDF xmlns:dc="http://purl.org/dc/elements/1.1/" xmlns:cc="http://creativecommons.org/ns#" xmlns:rdf="http://www.w3.org/1999/02/22-rdf-syntax-ns#">
   <cc:Work>
    <dc:type rdf:resource="http://purl.org/dc/dcmitype/StillImage"/>
    <dc:date>2024-07-03T17:57:44.533887</dc:date>
    <dc:format>image/svg+xml</dc:format>
    <dc:creator>
     <cc:Agent>
      <dc:title>Matplotlib v3.5.2, https://matplotlib.org/</dc:title>
     </cc:Agent>
    </dc:creator>
   </cc:Work>
  </rdf:RDF>
 </metadata>
 <defs>
  <style type="text/css">*{stroke-linejoin: round; stroke-linecap: butt}</style>
 </defs>
 <g id="figure_1">
  <g id="patch_1">
   <path d="M 0 576 
L 720 576 
L 720 0 
L 0 0 
L 0 576 
z
" style="fill: none"/>
  </g>
  <g id="axes_1">
   <g id="patch_2">
    <path d="M 52.8 439.736 
L 701.2 439.736 
L 701.2 30.8 
L 52.8 30.8 
z
" style="fill: #ffffff"/>
   </g>
   <g id="matplotlib.axis_1">
    <g id="xtick_1">
     <g id="line2d_1">
      <path d="M 117.64 439.736 
L 117.64 30.8 
" clip-path="url(#p9424ceadb8)" style="fill: none; stroke-dasharray: 2.96,1.28; stroke-dashoffset: 0; stroke: #b0b0b0; stroke-opacity: 0.5; stroke-width: 0.8"/>
     </g>
     <g id="line2d_2">
      <defs>
       <path id="m78f1c0711a" d="M 0 0 
L 0 3.5 
" style="stroke: #000000; stroke-width: 0.8"/>
      </defs>
      <g>
       <use xlink:href="#m78f1c0711a" x="117.64" y="439.736" style="stroke: #000000; stroke-width: 0.8"/>
      </g>
     </g>
     <g id="text_1">
      <!-- 0.1 -->
      <g transform="translate(109.688438 454.334437)scale(0.1 -0.1)">
       <defs>
        <path id="DejaVuSans-30" d="M 2034 4250 
Q 1547 4250 1301 3770 
Q 1056 3291 1056 2328 
Q 1056 1369 1301 889 
Q 1547 409 2034 409 
Q 2525 409 2770 889 
Q 3016 1369 3016 2328 
Q 3016 3291 2770 3770 
Q 2525 4250 2034 4250 
z
M 2034 4750 
Q 2819 4750 3233 4129 
Q 3647 3509 3647 2328 
Q 3647 1150 3233 529 
Q 2819 -91 2034 -91 
Q 1250 -91 836 529 
Q 422 1150 422 2328 
Q 422 3509 836 4129 
Q 1250 4750 2034 4750 
z
" transform="scale(0.015625)"/>
        <path id="DejaVuSans-2e" d="M 684 794 
L 1344 794 
L 1344 0 
L 684 0 
L 684 794 
z
" transform="scale(0.015625)"/>
        <path id="DejaVuSans-31" d="M 794 531 
L 1825 531 
L 1825 4091 
L 703 3866 
L 703 4441 
L 1819 4666 
L 2450 4666 
L 2450 531 
L 3481 531 
L 3481 0 
L 794 0 
L 794 531 
z
" transform="scale(0.015625)"/>
       </defs>
       <use xlink:href="#DejaVuSans-30"/>
       <use xlink:href="#DejaVuSans-2e" x="63.623047"/>
       <use xlink:href="#DejaVuSans-31" x="95.410156"/>
      </g>
     </g>
    </g>
    <g id="xtick_2">
     <g id="line2d_3">
      <path d="M 182.48 439.736 
L 182.48 30.8 
" clip-path="url(#p9424ceadb8)" style="fill: none; stroke-dasharray: 2.96,1.28; stroke-dashoffset: 0; stroke: #b0b0b0; stroke-opacity: 0.5; stroke-width: 0.8"/>
     </g>
     <g id="line2d_4">
      <g>
       <use xlink:href="#m78f1c0711a" x="182.48" y="439.736" style="stroke: #000000; stroke-width: 0.8"/>
      </g>
     </g>
     <g id="text_2">
      <!-- 0.2 -->
      <g transform="translate(174.528438 454.334437)scale(0.1 -0.1)">
       <defs>
        <path id="DejaVuSans-32" d="M 1228 531 
L 3431 531 
L 3431 0 
L 469 0 
L 469 531 
Q 828 903 1448 1529 
Q 2069 2156 2228 2338 
Q 2531 2678 2651 2914 
Q 2772 3150 2772 3378 
Q 2772 3750 2511 3984 
Q 2250 4219 1831 4219 
Q 1534 4219 1204 4116 
Q 875 4013 500 3803 
L 500 4441 
Q 881 4594 1212 4672 
Q 1544 4750 1819 4750 
Q 2544 4750 2975 4387 
Q 3406 4025 3406 3419 
Q 3406 3131 3298 2873 
Q 3191 2616 2906 2266 
Q 2828 2175 2409 1742 
Q 1991 1309 1228 531 
z
" transform="scale(0.015625)"/>
       </defs>
       <use xlink:href="#DejaVuSans-30"/>
       <use xlink:href="#DejaVuSans-2e" x="63.623047"/>
       <use xlink:href="#DejaVuSans-32" x="95.410156"/>
      </g>
     </g>
    </g>
    <g id="xtick_3">
     <g id="line2d_5">
      <path d="M 247.32 439.736 
L 247.32 30.8 
" clip-path="url(#p9424ceadb8)" style="fill: none; stroke-dasharray: 2.96,1.28; stroke-dashoffset: 0; stroke: #b0b0b0; stroke-opacity: 0.5; stroke-width: 0.8"/>
     </g>
     <g id="line2d_6">
      <g>
       <use xlink:href="#m78f1c0711a" x="247.32" y="439.736" style="stroke: #000000; stroke-width: 0.8"/>
      </g>
     </g>
     <g id="text_3">
      <!-- 0.3 -->
      <g transform="translate(239.368438 454.334437)scale(0.1 -0.1)">
       <defs>
        <path id="DejaVuSans-33" d="M 2597 2516 
Q 3050 2419 3304 2112 
Q 3559 1806 3559 1356 
Q 3559 666 3084 287 
Q 2609 -91 1734 -91 
Q 1441 -91 1130 -33 
Q 819 25 488 141 
L 488 750 
Q 750 597 1062 519 
Q 1375 441 1716 441 
Q 2309 441 2620 675 
Q 2931 909 2931 1356 
Q 2931 1769 2642 2001 
Q 2353 2234 1838 2234 
L 1294 2234 
L 1294 2753 
L 1863 2753 
Q 2328 2753 2575 2939 
Q 2822 3125 2822 3475 
Q 2822 3834 2567 4026 
Q 2313 4219 1838 4219 
Q 1578 4219 1281 4162 
Q 984 4106 628 3988 
L 628 4550 
Q 988 4650 1302 4700 
Q 1616 4750 1894 4750 
Q 2613 4750 3031 4423 
Q 3450 4097 3450 3541 
Q 3450 3153 3228 2886 
Q 3006 2619 2597 2516 
z
" transform="scale(0.015625)"/>
       </defs>
       <use xlink:href="#DejaVuSans-30"/>
       <use xlink:href="#DejaVuSans-2e" x="63.623047"/>
       <use xlink:href="#DejaVuSans-33" x="95.410156"/>
      </g>
     </g>
    </g>
    <g id="xtick_4">
     <g id="line2d_7">
      <path d="M 312.16 439.736 
L 312.16 30.8 
" clip-path="url(#p9424ceadb8)" style="fill: none; stroke-dasharray: 2.96,1.28; stroke-dashoffset: 0; stroke: #b0b0b0; stroke-opacity: 0.5; stroke-width: 0.8"/>
     </g>
     <g id="line2d_8">
      <g>
       <use xlink:href="#m78f1c0711a" x="312.16" y="439.736" style="stroke: #000000; stroke-width: 0.8"/>
      </g>
     </g>
     <g id="text_4">
      <!-- 0.4 -->
      <g transform="translate(304.208438 454.334437)scale(0.1 -0.1)">
       <defs>
        <path id="DejaVuSans-34" d="M 2419 4116 
L 825 1625 
L 2419 1625 
L 2419 4116 
z
M 2253 4666 
L 3047 4666 
L 3047 1625 
L 3713 1625 
L 3713 1100 
L 3047 1100 
L 3047 0 
L 2419 0 
L 2419 1100 
L 313 1100 
L 313 1709 
L 2253 4666 
z
" transform="scale(0.015625)"/>
       </defs>
       <use xlink:href="#DejaVuSans-30"/>
       <use xlink:href="#DejaVuSans-2e" x="63.623047"/>
       <use xlink:href="#DejaVuSans-34" x="95.410156"/>
      </g>
     </g>
    </g>
    <g id="xtick_5">
     <g id="line2d_9">
      <path d="M 377 439.736 
L 377 30.8 
" clip-path="url(#p9424ceadb8)" style="fill: none; stroke-dasharray: 2.96,1.28; stroke-dashoffset: 0; stroke: #b0b0b0; stroke-opacity: 0.5; stroke-width: 0.8"/>
     </g>
     <g id="line2d_10">
      <g>
       <use xlink:href="#m78f1c0711a" x="377" y="439.736" style="stroke: #000000; stroke-width: 0.8"/>
      </g>
     </g>
     <g id="text_5">
      <!-- 0.5 -->
      <g transform="translate(369.048438 454.334437)scale(0.1 -0.1)">
       <defs>
        <path id="DejaVuSans-35" d="M 691 4666 
L 3169 4666 
L 3169 4134 
L 1269 4134 
L 1269 2991 
Q 1406 3038 1543 3061 
Q 1681 3084 1819 3084 
Q 2600 3084 3056 2656 
Q 3513 2228 3513 1497 
Q 3513 744 3044 326 
Q 2575 -91 1722 -91 
Q 1428 -91 1123 -41 
Q 819 9 494 109 
L 494 744 
Q 775 591 1075 516 
Q 1375 441 1709 441 
Q 2250 441 2565 725 
Q 2881 1009 2881 1497 
Q 2881 1984 2565 2268 
Q 2250 2553 1709 2553 
Q 1456 2553 1204 2497 
Q 953 2441 691 2322 
L 691 4666 
z
" transform="scale(0.015625)"/>
       </defs>
       <use xlink:href="#DejaVuSans-30"/>
       <use xlink:href="#DejaVuSans-2e" x="63.623047"/>
       <use xlink:href="#DejaVuSans-35" x="95.410156"/>
      </g>
     </g>
    </g>
    <g id="xtick_6">
     <g id="line2d_11">
      <path d="M 441.84 439.736 
L 441.84 30.8 
" clip-path="url(#p9424ceadb8)" style="fill: none; stroke-dasharray: 2.96,1.28; stroke-dashoffset: 0; stroke: #b0b0b0; stroke-opacity: 0.5; stroke-width: 0.8"/>
     </g>
     <g id="line2d_12">
      <g>
       <use xlink:href="#m78f1c0711a" x="441.84" y="439.736" style="stroke: #000000; stroke-width: 0.8"/>
      </g>
     </g>
     <g id="text_6">
      <!-- 0.6 -->
      <g transform="translate(433.888438 454.334437)scale(0.1 -0.1)">
       <defs>
        <path id="DejaVuSans-36" d="M 2113 2584 
Q 1688 2584 1439 2293 
Q 1191 2003 1191 1497 
Q 1191 994 1439 701 
Q 1688 409 2113 409 
Q 2538 409 2786 701 
Q 3034 994 3034 1497 
Q 3034 2003 2786 2293 
Q 2538 2584 2113 2584 
z
M 3366 4563 
L 3366 3988 
Q 3128 4100 2886 4159 
Q 2644 4219 2406 4219 
Q 1781 4219 1451 3797 
Q 1122 3375 1075 2522 
Q 1259 2794 1537 2939 
Q 1816 3084 2150 3084 
Q 2853 3084 3261 2657 
Q 3669 2231 3669 1497 
Q 3669 778 3244 343 
Q 2819 -91 2113 -91 
Q 1303 -91 875 529 
Q 447 1150 447 2328 
Q 447 3434 972 4092 
Q 1497 4750 2381 4750 
Q 2619 4750 2861 4703 
Q 3103 4656 3366 4563 
z
" transform="scale(0.015625)"/>
       </defs>
       <use xlink:href="#DejaVuSans-30"/>
       <use xlink:href="#DejaVuSans-2e" x="63.623047"/>
       <use xlink:href="#DejaVuSans-36" x="95.410156"/>
      </g>
     </g>
    </g>
    <g id="xtick_7">
     <g id="line2d_13">
      <path d="M 506.68 439.736 
L 506.68 30.8 
" clip-path="url(#p9424ceadb8)" style="fill: none; stroke-dasharray: 2.96,1.28; stroke-dashoffset: 0; stroke: #b0b0b0; stroke-opacity: 0.5; stroke-width: 0.8"/>
     </g>
     <g id="line2d_14">
      <g>
       <use xlink:href="#m78f1c0711a" x="506.68" y="439.736" style="stroke: #000000; stroke-width: 0.8"/>
      </g>
     </g>
     <g id="text_7">
      <!-- 0.7 -->
      <g transform="translate(498.728438 454.334437)scale(0.1 -0.1)">
       <defs>
        <path id="DejaVuSans-37" d="M 525 4666 
L 3525 4666 
L 3525 4397 
L 1831 0 
L 1172 0 
L 2766 4134 
L 525 4134 
L 525 4666 
z
" transform="scale(0.015625)"/>
       </defs>
       <use xlink:href="#DejaVuSans-30"/>
       <use xlink:href="#DejaVuSans-2e" x="63.623047"/>
       <use xlink:href="#DejaVuSans-37" x="95.410156"/>
      </g>
     </g>
    </g>
    <g id="xtick_8">
     <g id="line2d_15">
      <path d="M 571.52 439.736 
L 571.52 30.8 
" clip-path="url(#p9424ceadb8)" style="fill: none; stroke-dasharray: 2.96,1.28; stroke-dashoffset: 0; stroke: #b0b0b0; stroke-opacity: 0.5; stroke-width: 0.8"/>
     </g>
     <g id="line2d_16">
      <g>
       <use xlink:href="#m78f1c0711a" x="571.52" y="439.736" style="stroke: #000000; stroke-width: 0.8"/>
      </g>
     </g>
     <g id="text_8">
      <!-- 0.8 -->
      <g transform="translate(563.568438 454.334437)scale(0.1 -0.1)">
       <defs>
        <path id="DejaVuSans-38" d="M 2034 2216 
Q 1584 2216 1326 1975 
Q 1069 1734 1069 1313 
Q 1069 891 1326 650 
Q 1584 409 2034 409 
Q 2484 409 2743 651 
Q 3003 894 3003 1313 
Q 3003 1734 2745 1975 
Q 2488 2216 2034 2216 
z
M 1403 2484 
Q 997 2584 770 2862 
Q 544 3141 544 3541 
Q 544 4100 942 4425 
Q 1341 4750 2034 4750 
Q 2731 4750 3128 4425 
Q 3525 4100 3525 3541 
Q 3525 3141 3298 2862 
Q 3072 2584 2669 2484 
Q 3125 2378 3379 2068 
Q 3634 1759 3634 1313 
Q 3634 634 3220 271 
Q 2806 -91 2034 -91 
Q 1263 -91 848 271 
Q 434 634 434 1313 
Q 434 1759 690 2068 
Q 947 2378 1403 2484 
z
M 1172 3481 
Q 1172 3119 1398 2916 
Q 1625 2713 2034 2713 
Q 2441 2713 2670 2916 
Q 2900 3119 2900 3481 
Q 2900 3844 2670 4047 
Q 2441 4250 2034 4250 
Q 1625 4250 1398 4047 
Q 1172 3844 1172 3481 
z
" transform="scale(0.015625)"/>
       </defs>
       <use xlink:href="#DejaVuSans-30"/>
       <use xlink:href="#DejaVuSans-2e" x="63.623047"/>
       <use xlink:href="#DejaVuSans-38" x="95.410156"/>
      </g>
     </g>
    </g>
    <g id="xtick_9">
     <g id="line2d_17">
      <path d="M 636.36 439.736 
L 636.36 30.8 
" clip-path="url(#p9424ceadb8)" style="fill: none; stroke-dasharray: 2.96,1.28; stroke-dashoffset: 0; stroke: #b0b0b0; stroke-opacity: 0.5; stroke-width: 0.8"/>
     </g>
     <g id="line2d_18">
      <g>
       <use xlink:href="#m78f1c0711a" x="636.36" y="439.736" style="stroke: #000000; stroke-width: 0.8"/>
      </g>
     </g>
     <g id="text_9">
      <!-- 0.9 -->
      <g transform="translate(628.408437 454.334437)scale(0.1 -0.1)">
       <defs>
        <path id="DejaVuSans-39" d="M 703 97 
L 703 672 
Q 941 559 1184 500 
Q 1428 441 1663 441 
Q 2288 441 2617 861 
Q 2947 1281 2994 2138 
Q 2813 1869 2534 1725 
Q 2256 1581 1919 1581 
Q 1219 1581 811 2004 
Q 403 2428 403 3163 
Q 403 3881 828 4315 
Q 1253 4750 1959 4750 
Q 2769 4750 3195 4129 
Q 3622 3509 3622 2328 
Q 3622 1225 3098 567 
Q 2575 -91 1691 -91 
Q 1453 -91 1209 -44 
Q 966 3 703 97 
z
M 1959 2075 
Q 2384 2075 2632 2365 
Q 2881 2656 2881 3163 
Q 2881 3666 2632 3958 
Q 2384 4250 1959 4250 
Q 1534 4250 1286 3958 
Q 1038 3666 1038 3163 
Q 1038 2656 1286 2365 
Q 1534 2075 1959 2075 
z
" transform="scale(0.015625)"/>
       </defs>
       <use xlink:href="#DejaVuSans-30"/>
       <use xlink:href="#DejaVuSans-2e" x="63.623047"/>
       <use xlink:href="#DejaVuSans-39" x="95.410156"/>
      </g>
     </g>
    </g>
    <g id="xtick_10">
     <g id="line2d_19">
      <path d="M 701.2 439.736 
L 701.2 30.8 
" clip-path="url(#p9424ceadb8)" style="fill: none; stroke-dasharray: 2.96,1.28; stroke-dashoffset: 0; stroke: #b0b0b0; stroke-opacity: 0.5; stroke-width: 0.8"/>
     </g>
     <g id="line2d_20">
      <g>
       <use xlink:href="#m78f1c0711a" x="701.2" y="439.736" style="stroke: #000000; stroke-width: 0.8"/>
      </g>
     </g>
     <g id="text_10">
      <!-- 1.0 -->
      <g transform="translate(693.248438 454.334437)scale(0.1 -0.1)">
       <use xlink:href="#DejaVuSans-31"/>
       <use xlink:href="#DejaVuSans-2e" x="63.623047"/>
       <use xlink:href="#DejaVuSans-30" x="95.410156"/>
      </g>
     </g>
    </g>
    <g id="text_11">
     <!-- Recall -->
     <g transform="translate(353.1325 472.571625)scale(0.16 -0.16)">
      <defs>
       <path id="DejaVuSans-52" d="M 2841 2188 
Q 3044 2119 3236 1894 
Q 3428 1669 3622 1275 
L 4263 0 
L 3584 0 
L 2988 1197 
Q 2756 1666 2539 1819 
Q 2322 1972 1947 1972 
L 1259 1972 
L 1259 0 
L 628 0 
L 628 4666 
L 2053 4666 
Q 2853 4666 3247 4331 
Q 3641 3997 3641 3322 
Q 3641 2881 3436 2590 
Q 3231 2300 2841 2188 
z
M 1259 4147 
L 1259 2491 
L 2053 2491 
Q 2509 2491 2742 2702 
Q 2975 2913 2975 3322 
Q 2975 3731 2742 3939 
Q 2509 4147 2053 4147 
L 1259 4147 
z
" transform="scale(0.015625)"/>
       <path id="DejaVuSans-65" d="M 3597 1894 
L 3597 1613 
L 953 1613 
Q 991 1019 1311 708 
Q 1631 397 2203 397 
Q 2534 397 2845 478 
Q 3156 559 3463 722 
L 3463 178 
Q 3153 47 2828 -22 
Q 2503 -91 2169 -91 
Q 1331 -91 842 396 
Q 353 884 353 1716 
Q 353 2575 817 3079 
Q 1281 3584 2069 3584 
Q 2775 3584 3186 3129 
Q 3597 2675 3597 1894 
z
M 3022 2063 
Q 3016 2534 2758 2815 
Q 2500 3097 2075 3097 
Q 1594 3097 1305 2825 
Q 1016 2553 972 2059 
L 3022 2063 
z
" transform="scale(0.015625)"/>
       <path id="DejaVuSans-63" d="M 3122 3366 
L 3122 2828 
Q 2878 2963 2633 3030 
Q 2388 3097 2138 3097 
Q 1578 3097 1268 2742 
Q 959 2388 959 1747 
Q 959 1106 1268 751 
Q 1578 397 2138 397 
Q 2388 397 2633 464 
Q 2878 531 3122 666 
L 3122 134 
Q 2881 22 2623 -34 
Q 2366 -91 2075 -91 
Q 1284 -91 818 406 
Q 353 903 353 1747 
Q 353 2603 823 3093 
Q 1294 3584 2113 3584 
Q 2378 3584 2631 3529 
Q 2884 3475 3122 3366 
z
" transform="scale(0.015625)"/>
       <path id="DejaVuSans-61" d="M 2194 1759 
Q 1497 1759 1228 1600 
Q 959 1441 959 1056 
Q 959 750 1161 570 
Q 1363 391 1709 391 
Q 2188 391 2477 730 
Q 2766 1069 2766 1631 
L 2766 1759 
L 2194 1759 
z
M 3341 1997 
L 3341 0 
L 2766 0 
L 2766 531 
Q 2569 213 2275 61 
Q 1981 -91 1556 -91 
Q 1019 -91 701 211 
Q 384 513 384 1019 
Q 384 1609 779 1909 
Q 1175 2209 1959 2209 
L 2766 2209 
L 2766 2266 
Q 2766 2663 2505 2880 
Q 2244 3097 1772 3097 
Q 1472 3097 1187 3025 
Q 903 2953 641 2809 
L 641 3341 
Q 956 3463 1253 3523 
Q 1550 3584 1831 3584 
Q 2591 3584 2966 3190 
Q 3341 2797 3341 1997 
z
" transform="scale(0.015625)"/>
       <path id="DejaVuSans-6c" d="M 603 4863 
L 1178 4863 
L 1178 0 
L 603 0 
L 603 4863 
z
" transform="scale(0.015625)"/>
      </defs>
      <use xlink:href="#DejaVuSans-52"/>
      <use xlink:href="#DejaVuSans-65" x="64.982422"/>
      <use xlink:href="#DejaVuSans-63" x="126.505859"/>
      <use xlink:href="#DejaVuSans-61" x="181.486328"/>
      <use xlink:href="#DejaVuSans-6c" x="242.765625"/>
      <use xlink:href="#DejaVuSans-6c" x="270.548828"/>
     </g>
    </g>
   </g>
   <g id="matplotlib.axis_2">
    <g id="ytick_1">
     <g id="line2d_21">
      <path d="M 52.8 439.736 
L 701.2 439.736 
" clip-path="url(#p9424ceadb8)" style="fill: none; stroke-dasharray: 2.96,1.28; stroke-dashoffset: 0; stroke: #b0b0b0; stroke-opacity: 0.5; stroke-width: 0.8"/>
     </g>
     <g id="line2d_22">
      <defs>
       <path id="m06a0d95d03" d="M 0 0 
L -3.5 0 
" style="stroke: #000000; stroke-width: 0.8"/>
      </defs>
      <g>
       <use xlink:href="#m06a0d95d03" x="52.8" y="439.736" style="stroke: #000000; stroke-width: 0.8"/>
      </g>
     </g>
     <g id="text_12">
      <!-- 0.0 -->
      <g transform="translate(29.896875 443.535219)scale(0.1 -0.1)">
       <use xlink:href="#DejaVuSans-30"/>
       <use xlink:href="#DejaVuSans-2e" x="63.623047"/>
       <use xlink:href="#DejaVuSans-30" x="95.410156"/>
      </g>
     </g>
    </g>
    <g id="ytick_2">
     <g id="line2d_23">
      <path d="M 52.8 400.789714 
L 701.2 400.789714 
" clip-path="url(#p9424ceadb8)" style="fill: none; stroke-dasharray: 2.96,1.28; stroke-dashoffset: 0; stroke: #b0b0b0; stroke-opacity: 0.5; stroke-width: 0.8"/>
     </g>
     <g id="line2d_24">
      <g>
       <use xlink:href="#m06a0d95d03" x="52.8" y="400.789714" style="stroke: #000000; stroke-width: 0.8"/>
      </g>
     </g>
     <g id="text_13">
      <!-- 0.1 -->
      <g transform="translate(29.896875 404.588933)scale(0.1 -0.1)">
       <use xlink:href="#DejaVuSans-30"/>
       <use xlink:href="#DejaVuSans-2e" x="63.623047"/>
       <use xlink:href="#DejaVuSans-31" x="95.410156"/>
      </g>
     </g>
    </g>
    <g id="ytick_3">
     <g id="line2d_25">
      <path d="M 52.8 361.843429 
L 701.2 361.843429 
" clip-path="url(#p9424ceadb8)" style="fill: none; stroke-dasharray: 2.96,1.28; stroke-dashoffset: 0; stroke: #b0b0b0; stroke-opacity: 0.5; stroke-width: 0.8"/>
     </g>
     <g id="line2d_26">
      <g>
       <use xlink:href="#m06a0d95d03" x="52.8" y="361.843429" style="stroke: #000000; stroke-width: 0.8"/>
      </g>
     </g>
     <g id="text_14">
      <!-- 0.2 -->
      <g transform="translate(29.896875 365.642647)scale(0.1 -0.1)">
       <use xlink:href="#DejaVuSans-30"/>
       <use xlink:href="#DejaVuSans-2e" x="63.623047"/>
       <use xlink:href="#DejaVuSans-32" x="95.410156"/>
      </g>
     </g>
    </g>
    <g id="ytick_4">
     <g id="line2d_27">
      <path d="M 52.8 322.897143 
L 701.2 322.897143 
" clip-path="url(#p9424ceadb8)" style="fill: none; stroke-dasharray: 2.96,1.28; stroke-dashoffset: 0; stroke: #b0b0b0; stroke-opacity: 0.5; stroke-width: 0.8"/>
     </g>
     <g id="line2d_28">
      <g>
       <use xlink:href="#m06a0d95d03" x="52.8" y="322.897143" style="stroke: #000000; stroke-width: 0.8"/>
      </g>
     </g>
     <g id="text_15">
      <!-- 0.3 -->
      <g transform="translate(29.896875 326.696362)scale(0.1 -0.1)">
       <use xlink:href="#DejaVuSans-30"/>
       <use xlink:href="#DejaVuSans-2e" x="63.623047"/>
       <use xlink:href="#DejaVuSans-33" x="95.410156"/>
      </g>
     </g>
    </g>
    <g id="ytick_5">
     <g id="line2d_29">
      <path d="M 52.8 283.950857 
L 701.2 283.950857 
" clip-path="url(#p9424ceadb8)" style="fill: none; stroke-dasharray: 2.96,1.28; stroke-dashoffset: 0; stroke: #b0b0b0; stroke-opacity: 0.5; stroke-width: 0.8"/>
     </g>
     <g id="line2d_30">
      <g>
       <use xlink:href="#m06a0d95d03" x="52.8" y="283.950857" style="stroke: #000000; stroke-width: 0.8"/>
      </g>
     </g>
     <g id="text_16">
      <!-- 0.4 -->
      <g transform="translate(29.896875 287.750076)scale(0.1 -0.1)">
       <use xlink:href="#DejaVuSans-30"/>
       <use xlink:href="#DejaVuSans-2e" x="63.623047"/>
       <use xlink:href="#DejaVuSans-34" x="95.410156"/>
      </g>
     </g>
    </g>
    <g id="ytick_6">
     <g id="line2d_31">
      <path d="M 52.8 245.004571 
L 701.2 245.004571 
" clip-path="url(#p9424ceadb8)" style="fill: none; stroke-dasharray: 2.96,1.28; stroke-dashoffset: 0; stroke: #b0b0b0; stroke-opacity: 0.5; stroke-width: 0.8"/>
     </g>
     <g id="line2d_32">
      <g>
       <use xlink:href="#m06a0d95d03" x="52.8" y="245.004571" style="stroke: #000000; stroke-width: 0.8"/>
      </g>
     </g>
     <g id="text_17">
      <!-- 0.5 -->
      <g transform="translate(29.896875 248.80379)scale(0.1 -0.1)">
       <use xlink:href="#DejaVuSans-30"/>
       <use xlink:href="#DejaVuSans-2e" x="63.623047"/>
       <use xlink:href="#DejaVuSans-35" x="95.410156"/>
      </g>
     </g>
    </g>
    <g id="ytick_7">
     <g id="line2d_33">
      <path d="M 52.8 206.058286 
L 701.2 206.058286 
" clip-path="url(#p9424ceadb8)" style="fill: none; stroke-dasharray: 2.96,1.28; stroke-dashoffset: 0; stroke: #b0b0b0; stroke-opacity: 0.5; stroke-width: 0.8"/>
     </g>
     <g id="line2d_34">
      <g>
       <use xlink:href="#m06a0d95d03" x="52.8" y="206.058286" style="stroke: #000000; stroke-width: 0.8"/>
      </g>
     </g>
     <g id="text_18">
      <!-- 0.6 -->
      <g transform="translate(29.896875 209.857504)scale(0.1 -0.1)">
       <use xlink:href="#DejaVuSans-30"/>
       <use xlink:href="#DejaVuSans-2e" x="63.623047"/>
       <use xlink:href="#DejaVuSans-36" x="95.410156"/>
      </g>
     </g>
    </g>
    <g id="ytick_8">
     <g id="line2d_35">
      <path d="M 52.8 167.112 
L 701.2 167.112 
" clip-path="url(#p9424ceadb8)" style="fill: none; stroke-dasharray: 2.96,1.28; stroke-dashoffset: 0; stroke: #b0b0b0; stroke-opacity: 0.5; stroke-width: 0.8"/>
     </g>
     <g id="line2d_36">
      <g>
       <use xlink:href="#m06a0d95d03" x="52.8" y="167.112" style="stroke: #000000; stroke-width: 0.8"/>
      </g>
     </g>
     <g id="text_19">
      <!-- 0.7 -->
      <g transform="translate(29.896875 170.911219)scale(0.1 -0.1)">
       <use xlink:href="#DejaVuSans-30"/>
       <use xlink:href="#DejaVuSans-2e" x="63.623047"/>
       <use xlink:href="#DejaVuSans-37" x="95.410156"/>
      </g>
     </g>
    </g>
    <g id="ytick_9">
     <g id="line2d_37">
      <path d="M 52.8 128.165714 
L 701.2 128.165714 
" clip-path="url(#p9424ceadb8)" style="fill: none; stroke-dasharray: 2.96,1.28; stroke-dashoffset: 0; stroke: #b0b0b0; stroke-opacity: 0.5; stroke-width: 0.8"/>
     </g>
     <g id="line2d_38">
      <g>
       <use xlink:href="#m06a0d95d03" x="52.8" y="128.165714" style="stroke: #000000; stroke-width: 0.8"/>
      </g>
     </g>
     <g id="text_20">
      <!-- 0.8 -->
      <g transform="translate(29.896875 131.964933)scale(0.1 -0.1)">
       <use xlink:href="#DejaVuSans-30"/>
       <use xlink:href="#DejaVuSans-2e" x="63.623047"/>
       <use xlink:href="#DejaVuSans-38" x="95.410156"/>
      </g>
     </g>
    </g>
    <g id="ytick_10">
     <g id="line2d_39">
      <path d="M 52.8 89.219429 
L 701.2 89.219429 
" clip-path="url(#p9424ceadb8)" style="fill: none; stroke-dasharray: 2.96,1.28; stroke-dashoffset: 0; stroke: #b0b0b0; stroke-opacity: 0.5; stroke-width: 0.8"/>
     </g>
     <g id="line2d_40">
      <g>
       <use xlink:href="#m06a0d95d03" x="52.8" y="89.219429" style="stroke: #000000; stroke-width: 0.8"/>
      </g>
     </g>
     <g id="text_21">
      <!-- 0.9 -->
      <g transform="translate(29.896875 93.018647)scale(0.1 -0.1)">
       <use xlink:href="#DejaVuSans-30"/>
       <use xlink:href="#DejaVuSans-2e" x="63.623047"/>
       <use xlink:href="#DejaVuSans-39" x="95.410156"/>
      </g>
     </g>
    </g>
    <g id="ytick_11">
     <g id="line2d_41">
      <path d="M 52.8 50.273143 
L 701.2 50.273143 
" clip-path="url(#p9424ceadb8)" style="fill: none; stroke-dasharray: 2.96,1.28; stroke-dashoffset: 0; stroke: #b0b0b0; stroke-opacity: 0.5; stroke-width: 0.8"/>
     </g>
     <g id="line2d_42">
      <g>
       <use xlink:href="#m06a0d95d03" x="52.8" y="50.273143" style="stroke: #000000; stroke-width: 0.8"/>
      </g>
     </g>
     <g id="text_22">
      <!-- 1.0 -->
      <g transform="translate(29.896875 54.072362)scale(0.1 -0.1)">
       <use xlink:href="#DejaVuSans-31"/>
       <use xlink:href="#DejaVuSans-2e" x="63.623047"/>
       <use xlink:href="#DejaVuSans-30" x="95.410156"/>
      </g>
     </g>
    </g>
    <g id="text_23">
     <!-- Precision -->
     <g transform="translate(22.569375 270.95925)rotate(-90)scale(0.16 -0.16)">
      <defs>
       <path id="DejaVuSans-50" d="M 1259 4147 
L 1259 2394 
L 2053 2394 
Q 2494 2394 2734 2622 
Q 2975 2850 2975 3272 
Q 2975 3691 2734 3919 
Q 2494 4147 2053 4147 
L 1259 4147 
z
M 628 4666 
L 2053 4666 
Q 2838 4666 3239 4311 
Q 3641 3956 3641 3272 
Q 3641 2581 3239 2228 
Q 2838 1875 2053 1875 
L 1259 1875 
L 1259 0 
L 628 0 
L 628 4666 
z
" transform="scale(0.015625)"/>
       <path id="DejaVuSans-72" d="M 2631 2963 
Q 2534 3019 2420 3045 
Q 2306 3072 2169 3072 
Q 1681 3072 1420 2755 
Q 1159 2438 1159 1844 
L 1159 0 
L 581 0 
L 581 3500 
L 1159 3500 
L 1159 2956 
Q 1341 3275 1631 3429 
Q 1922 3584 2338 3584 
Q 2397 3584 2469 3576 
Q 2541 3569 2628 3553 
L 2631 2963 
z
" transform="scale(0.015625)"/>
       <path id="DejaVuSans-69" d="M 603 3500 
L 1178 3500 
L 1178 0 
L 603 0 
L 603 3500 
z
M 603 4863 
L 1178 4863 
L 1178 4134 
L 603 4134 
L 603 4863 
z
" transform="scale(0.015625)"/>
       <path id="DejaVuSans-73" d="M 2834 3397 
L 2834 2853 
Q 2591 2978 2328 3040 
Q 2066 3103 1784 3103 
Q 1356 3103 1142 2972 
Q 928 2841 928 2578 
Q 928 2378 1081 2264 
Q 1234 2150 1697 2047 
L 1894 2003 
Q 2506 1872 2764 1633 
Q 3022 1394 3022 966 
Q 3022 478 2636 193 
Q 2250 -91 1575 -91 
Q 1294 -91 989 -36 
Q 684 19 347 128 
L 347 722 
Q 666 556 975 473 
Q 1284 391 1588 391 
Q 1994 391 2212 530 
Q 2431 669 2431 922 
Q 2431 1156 2273 1281 
Q 2116 1406 1581 1522 
L 1381 1569 
Q 847 1681 609 1914 
Q 372 2147 372 2553 
Q 372 3047 722 3315 
Q 1072 3584 1716 3584 
Q 2034 3584 2315 3537 
Q 2597 3491 2834 3397 
z
" transform="scale(0.015625)"/>
       <path id="DejaVuSans-6f" d="M 1959 3097 
Q 1497 3097 1228 2736 
Q 959 2375 959 1747 
Q 959 1119 1226 758 
Q 1494 397 1959 397 
Q 2419 397 2687 759 
Q 2956 1122 2956 1747 
Q 2956 2369 2687 2733 
Q 2419 3097 1959 3097 
z
M 1959 3584 
Q 2709 3584 3137 3096 
Q 3566 2609 3566 1747 
Q 3566 888 3137 398 
Q 2709 -91 1959 -91 
Q 1206 -91 779 398 
Q 353 888 353 1747 
Q 353 2609 779 3096 
Q 1206 3584 1959 3584 
z
" transform="scale(0.015625)"/>
       <path id="DejaVuSans-6e" d="M 3513 2113 
L 3513 0 
L 2938 0 
L 2938 2094 
Q 2938 2591 2744 2837 
Q 2550 3084 2163 3084 
Q 1697 3084 1428 2787 
Q 1159 2491 1159 1978 
L 1159 0 
L 581 0 
L 581 3500 
L 1159 3500 
L 1159 2956 
Q 1366 3272 1645 3428 
Q 1925 3584 2291 3584 
Q 2894 3584 3203 3211 
Q 3513 2838 3513 2113 
z
" transform="scale(0.015625)"/>
      </defs>
      <use xlink:href="#DejaVuSans-50"/>
      <use xlink:href="#DejaVuSans-72" x="58.552734"/>
      <use xlink:href="#DejaVuSans-65" x="97.416016"/>
      <use xlink:href="#DejaVuSans-63" x="158.939453"/>
      <use xlink:href="#DejaVuSans-69" x="213.919922"/>
      <use xlink:href="#DejaVuSans-73" x="241.703125"/>
      <use xlink:href="#DejaVuSans-69" x="293.802734"/>
      <use xlink:href="#DejaVuSans-6f" x="321.585938"/>
      <use xlink:href="#DejaVuSans-6e" x="382.767578"/>
     </g>
    </g>
   </g>
   <g id="line2d_43">
    <path d="M 52.8 50.273143 
L 80.817284 50.273143 
L 80.817284 98.956 
L 80.817284 93.546794 
L 84.819753 93.546794 
L 84.819753 89.219429 
L 88.822222 89.219429 
L 88.822222 85.678857 
L 92.824691 85.678857 
L 92.824691 82.728381 
L 96.82716 82.728381 
L 96.82716 80.231824 
L 100.82963 80.231824 
L 100.82963 78.091918 
L 104.832099 78.091918 
L 104.832099 76.237333 
L 108.834568 76.237333 
L 108.834568 74.614571 
L 112.837037 74.614571 
L 112.837037 73.182723 
L 116.839506 73.182723 
L 116.839506 71.909968 
L 120.841975 71.909968 
L 120.841975 70.771188 
L 124.844444 70.771188 
L 124.844444 69.746286 
L 128.846914 69.746286 
L 128.846914 68.818993 
L 132.849383 68.818993 
L 132.849383 101.072646 
L 132.849383 98.956 
L 136.851852 98.956 
L 136.851852 97.008686 
L 140.854321 97.008686 
L 140.854321 95.211165 
L 144.85679 95.211165 
L 144.85679 107.971344 
L 144.85679 105.910694 
L 148.859259 105.910694 
L 148.859259 103.992158 
L 152.861728 103.992158 
L 152.861728 115.183619 
L 152.861728 113.089733 
L 156.864198 113.089733 
L 156.864198 111.126714 
L 160.866667 111.126714 
L 160.866667 109.282667 
L 164.869136 109.282667 
L 164.869136 107.547092 
L 168.871605 107.547092 
L 168.871605 105.910694 
L 172.874074 105.910694 
L 172.874074 104.365206 
L 176.876543 104.365206 
L 176.876543 102.903259 
L 180.879012 102.903259 
L 180.879012 111.767278 
L 180.879012 110.190505 
L 184.881481 110.190505 
L 184.881481 118.429143 
L 184.881481 116.766801 
L 188.883951 116.766801 
L 188.883951 124.456544 
L 188.883951 122.731349 
L 192.88642 122.731349 
L 192.88642 121.084571 
L 196.888889 121.084571 
L 196.888889 119.510984 
L 200.891358 119.510984 
L 200.891358 118.005814 
L 204.893827 118.005814 
L 204.893827 124.851137 
L 204.893827 123.297429 
L 208.896296 123.297429 
L 208.896296 121.807137 
L 212.898765 121.807137 
L 212.898765 120.376457 
L 216.901235 120.376457 
L 216.901235 119.001882 
L 220.903704 119.001882 
L 220.903704 117.680176 
L 224.906173 117.680176 
L 224.906173 116.408345 
L 228.908642 116.408345 
L 228.908642 122.395894 
L 228.908642 121.084571 
L 232.911111 121.084571 
L 232.911111 119.820082 
L 236.91358 119.820082 
L 236.91358 118.59996 
L 240.916049 118.59996 
L 240.916049 117.421911 
L 244.918519 117.421911 
L 244.918519 122.884862 
L 244.918519 121.674667 
L 248.920988 121.674667 
L 248.920988 120.50415 
L 252.923457 120.50415 
L 252.923457 119.371392 
L 256.925926 119.371392 
L 256.925926 118.274594 
L 260.928395 118.274594 
L 260.928395 123.297429 
L 260.928395 122.173978 
L 264.930864 122.173978 
L 264.930864 131.653441 
L 264.930864 130.456672 
L 268.933333 130.456672 
L 268.933333 129.294592 
L 272.935802 129.294592 
L 272.935802 128.165714 
L 276.938272 128.165714 
L 276.938272 145.007351 
L 276.938272 143.744229 
L 280.940741 143.744229 
L 280.940741 142.514346 
L 284.94321 142.514346 
L 284.94321 146.374367 
L 284.94321 145.1423 
L 288.945679 145.1423 
L 288.945679 152.507143 
L 288.945679 151.244995 
L 292.948148 151.244995 
L 292.948148 158.196585 
L 292.948148 156.911782 
L 296.950617 156.911782 
L 296.950617 155.65721 
L 300.953086 155.65721 
L 300.953086 158.960452 
L 300.953086 157.711172 
L 304.955556 157.711172 
L 304.955556 167.112 
L 304.955556 165.828057 
L 308.958025 165.828057 
L 308.958025 174.569799 
L 308.958025 173.261414 
L 312.960494 173.261414 
L 312.960494 171.980286 
L 316.962963 171.980286 
L 316.962963 170.725573 
L 320.965432 170.725573 
L 320.965432 186.396083 
L 320.965432 185.087209 
L 324.967901 185.087209 
L 324.967901 183.803265 
L 328.97037 183.803265 
L 328.97037 182.543547 
L 332.97284 182.543547 
L 332.97284 189.622239 
L 332.97284 188.355429 
L 336.975309 188.355429 
L 336.975309 187.111444 
L 340.977778 187.111444 
L 340.977778 200.066549 
L 340.977778 198.797114 
L 344.980247 198.797114 
L 344.980247 206.696749 
L 344.980247 205.425013 
L 348.982716 205.425013 
L 348.982716 204.173788 
L 352.985185 204.173788 
L 352.985185 206.058286 
L 352.985185 204.821896 
L 356.987654 204.821896 
L 356.987654 210.285014 
L 356.987654 209.054154 
L 360.990123 209.054154 
L 360.990123 222.427014 
L 360.990123 221.188497 
L 364.992593 221.188497 
L 364.992593 222.749551 
L 364.992593 221.526314 
L 368.995062 221.526314 
L 368.995062 220.320306 
L 372.997531 220.320306 
L 372.997531 223.367746 
L 372.997531 222.17399 
L 377 222.17399 
L 377 220.996587 
L 381.002469 220.996587 
L 381.002469 228.239614 
L 381.002469 227.068782 
L 385.004938 227.068782 
L 385.004938 229.830694 
L 385.004938 228.672258 
L 389.007407 228.672258 
L 389.007407 227.528674 
L 393.009877 227.528674 
L 393.009877 226.399658 
L 397.012346 226.399658 
L 397.012346 229.083134 
L 397.012346 227.965571 
L 401.014815 227.965571 
L 401.014815 231.863187 
L 401.014815 230.75593 
L 405.017284 230.75593 
L 405.017284 238.131697 
L 405.017284 237.033109 
L 409.019753 237.033109 
L 409.019753 242.791714 
L 409.019753 241.704039 
L 413.022222 241.704039 
L 413.022222 245.004571 
L 413.022222 243.928707 
L 417.024691 243.928707 
L 417.024691 246.068678 
L 417.024691 245.004571 
L 421.02716 245.004571 
L 421.02716 253.118381 
L 421.02716 252.067369 
L 425.02963 252.067369 
L 425.02963 256.806476 
L 425.02963 255.76862 
L 429.032099 255.76862 
L 429.032099 261.153031 
L 429.032099 260.129343 
L 433.034568 260.129343 
L 433.034568 262.707429 
L 433.034568 261.695837 
L 437.037037 261.695837 
L 437.037037 269.012556 
L 437.037037 268.018286 
L 441.039506 268.018286 
L 441.039506 273.313546 
L 441.039506 272.335298 
L 445.041975 272.335298 
L 445.041975 274.509333 
L 445.041975 273.542798 
L 449.044444 273.542798 
L 449.044444 283.635503 
L 449.044444 282.694525 
L 453.046914 282.694525 
L 453.046914 281.761106 
L 457.049383 281.761106 
L 457.049383 282.393006 
L 457.049383 281.468225 
L 461.051852 281.468225 
L 461.051852 282.719354 
L 461.051852 281.804211 
L 465.054321 281.804211 
L 465.054321 284.252766 
L 465.054321 283.34937 
L 469.05679 283.34937 
L 469.05679 283.950857 
L 469.05679 283.05554 
L 473.059259 283.05554 
L 473.059259 286.576449 
L 473.059259 285.694721 
L 477.061728 285.694721 
L 477.061728 288.51599 
L 477.061728 287.64649 
L 481.064198 287.64649 
L 481.064198 288.199543 
L 481.064198 287.337491 
L 485.066667 287.337491 
L 485.066667 287.887666 
L 485.066667 287.032937 
L 489.069136 287.032937 
L 489.069136 299.16828 
L 489.069136 298.346844 
L 493.071605 298.346844 
L 493.071605 306.689682 
L 493.071605 305.895823 
L 497.074074 305.895823 
L 497.074074 306.719455 
L 497.074074 305.93281 
L 501.076543 305.93281 
L 501.076543 309.527522 
L 501.076543 308.755932 
L 505.079012 308.755932 
L 505.079012 307.988921 
L 509.081481 307.988921 
L 509.081481 308.76619 
L 509.081481 308.005916 
L 513.083951 308.005916 
L 513.083951 314.629216 
L 513.083951 313.892848 
L 517.08642 313.892848 
L 517.08642 317.303232 
L 517.08642 316.581529 
L 521.088889 316.581529 
L 521.088889 322.897143 
L 521.088889 322.199895 
L 525.091358 322.199895 
L 525.091358 324.556508 
L 525.091358 323.8708 
L 529.093827 323.8708 
L 529.093827 324.159741 
L 529.093827 323.478431 
L 533.096296 323.478431 
L 533.096296 324.906656 
L 533.096296 324.233535 
L 537.098765 324.233535 
L 537.098765 328.329367 
L 537.098765 327.673574 
L 541.101235 327.673574 
L 541.101235 327.020867 
L 545.103704 327.020867 
L 545.103704 326.371225 
L 549.106173 326.371225 
L 549.106173 334.291908 
L 549.106173 333.67313 
L 553.108642 333.67313 
L 553.108642 342.758197 
L 553.108642 342.176716 
L 557.111111 342.176716 
L 557.111111 342.370286 
L 557.111111 341.791876 
L 561.11358 341.791876 
L 561.11358 345.702192 
L 561.11358 345.141606 
L 565.116049 345.141606 
L 565.116049 347.418878 
L 565.116049 346.869626 
L 569.118519 346.869626 
L 569.118519 347.211675 
L 569.118519 346.665832 
L 573.120988 346.665832 
L 573.120988 347.513466 
L 573.120988 346.973029 
L 577.123457 346.973029 
L 577.123457 349.754282 
L 577.123457 349.227026 
L 581.125926 349.227026 
L 581.125926 348.701624 
L 585.128395 348.701624 
L 585.128395 349.494606 
L 585.128395 348.974221 
L 589.130864 348.974221 
L 589.130864 355.56177 
L 589.130864 355.070161 
L 593.133333 355.070161 
L 593.133333 358.722925 
L 593.133333 358.248387 
L 597.135802 358.248387 
L 597.135802 358.622756 
L 597.135802 358.151273 
L 601.138272 358.151273 
L 601.138272 361.039228 
L 601.138272 360.581546 
L 605.140741 360.581546 
L 605.140741 360.814011 
L 605.140741 360.358673 
L 609.14321 360.358673 
L 609.14321 361.27899 
L 609.14321 360.828909 
L 613.145679 360.828909 
L 613.145679 361.508166 
L 613.145679 361.062271 
L 617.148148 361.062271 
L 617.148148 365.32643 
L 617.148148 364.900106 
L 621.150617 364.900106 
L 621.150617 365.001236 
L 621.150617 365.89925 
L 621.150617 365.478415 
L 625.153086 365.478415 
L 625.153086 365.577294 
L 625.153086 372.635773 
L 625.153086 372.247851 
L 629.155556 372.247851 
L 629.155556 372.328967 
L 629.155556 379.171582 
L 629.155556 378.816783 
L 633.158025 378.816783 
L 633.158025 378.882429 
L 633.158025 383.933516 
L 633.158025 383.604137 
L 637.160494 383.604137 
L 637.160494 383.275408 
L 641.162963 383.275408 
L 641.162963 383.331034 
L 641.162963 383.497257 
L 641.162963 383.170246 
L 645.165432 383.170246 
L 645.165432 383.281051 
L 645.165432 385.255373 
L 645.165432 384.939054 
L 649.167901 384.939054 
L 649.167901 385.042347 
L 649.167901 385.145251 
L 649.167901 384.830522 
L 653.17037 384.830522 
L 653.17037 384.933534 
L 653.17037 386.675665 
L 653.17037 386.3704 
L 657.17284 386.3704 
L 657.17284 386.467077 
L 657.17284 386.755017 
L 657.17284 386.452153 
L 661.175309 386.452153 
L 661.175309 386.547901 
L 661.175309 388.482014 
L 661.175309 388.189445 
L 665.177778 388.189445 
L 665.177778 388.278472 
L 665.177778 392.217805 
L 665.177778 391.945339 
L 669.180247 391.945339 
L 669.180247 392.021378 
L 669.180247 392.658072 
L 669.180247 392.389535 
L 673.182716 392.389535 
L 673.182716 392.463688 
L 673.182716 396.709098 
L 673.182716 396.462349 
L 677.185185 396.462349 
L 677.185185 396.554617 
L 677.185185 401.452317 
L 677.185185 401.231171 
L 681.187654 401.231171 
L 681.187654 401.327917 
L 681.187654 404.268675 
L 681.187654 404.06346 
L 685.190123 404.06346 
L 685.190123 404.16656 
L 685.190123 405.625617 
L 685.190123 405.428746 
L 689.192593 405.428746 
L 689.192593 405.523517 
L 689.192593 405.636554 
L 689.192593 405.440977 
L 693.195062 405.440977 
L 693.195062 405.53509 
L 693.195062 410.133122 
L 693.195062 409.962249 
L 697.197531 409.962249 
L 697.197531 410.060884 
L 697.197531 410.639239 
L 697.197531 410.472093 
L 701.2 410.472093 
L 701.2 410.580278 
L 701.2 411.096425 
L 701.2 411.096425 
" clip-path="url(#p9424ceadb8)" style="fill: none; stroke: #008000; stroke-width: 1.5; stroke-linecap: square"/>
   </g>
   <g id="line2d_44">
    <path d="M 52.8 50.273143 
L 64.807407 50.273143 
L 64.807407 147.638857 
L 64.807407 128.165714 
L 68.809877 128.165714 
L 68.809877 115.183619 
L 72.812346 115.183619 
L 72.812346 105.910694 
L 76.814815 105.910694 
L 76.814815 98.956 
L 80.817284 98.956 
L 80.817284 136.820444 
L 80.817284 128.165714 
L 84.819753 128.165714 
L 84.819753 121.084571 
L 88.822222 121.084571 
L 88.822222 147.638857 
L 88.822222 140.149187 
L 92.824691 140.149187 
L 92.824691 133.729469 
L 96.82716 133.729469 
L 96.82716 128.165714 
L 100.82963 128.165714 
L 100.82963 123.297429 
L 104.832099 123.297429 
L 104.832099 119.001882 
L 108.834568 119.001882 
L 108.834568 115.183619 
L 112.837037 115.183619 
L 112.837037 111.767278 
L 116.839506 111.767278 
L 116.839506 108.692571 
L 120.841975 108.692571 
L 120.841975 105.910694 
L 124.844444 105.910694 
L 124.844444 134.938981 
L 124.844444 131.411238 
L 128.846914 131.411238 
L 128.846914 128.165714 
L 132.849383 128.165714 
L 132.849383 125.169846 
L 136.851852 125.169846 
L 136.851852 122.395894 
L 140.854321 122.395894 
L 140.854321 119.820082 
L 144.85679 119.820082 
L 144.85679 117.421911 
L 148.859259 117.421911 
L 148.859259 115.183619 
L 152.861728 115.183619 
L 152.861728 144.688381 
L 152.861728 141.911462 
L 156.864198 141.911462 
L 156.864198 139.293224 
L 160.866667 139.293224 
L 160.866667 136.820444 
L 164.869136 136.820444 
L 164.869136 134.481328 
L 168.871605 134.481328 
L 168.871605 132.265323 
L 172.874074 132.265323 
L 172.874074 130.16296 
L 176.876543 130.16296 
L 176.876543 137.902286 
L 176.876543 135.76499 
L 180.879012 135.76499 
L 180.879012 156.490286 
L 180.879012 154.129905 
L 184.881481 154.129905 
L 184.881481 160.338733 
L 184.881481 157.996912 
L 188.883951 157.996912 
L 188.883951 155.752667 
L 192.88642 155.752667 
L 192.88642 153.600023 
L 196.888889 153.600023 
L 196.888889 151.533486 
L 200.891358 151.533486 
L 200.891358 149.547989 
L 204.893827 149.547989 
L 204.893827 147.638857 
L 208.896296 147.638857 
L 208.896296 158.45727 
L 208.896296 156.490286 
L 212.898765 156.490286 
L 212.898765 161.548245 
L 212.898765 159.59605 
L 216.901235 159.59605 
L 216.901235 182.187982 
L 216.901235 180.094095 
L 220.903704 180.094095 
L 220.903704 188.083077 
L 220.903704 185.995048 
L 224.906173 185.995048 
L 224.906173 189.782226 
L 224.906173 187.730622 
L 228.908642 187.730622 
L 228.908642 191.382874 
L 228.908642 189.36702 
L 232.911111 189.36702 
L 232.911111 187.407952 
L 236.91358 187.407952 
L 236.91358 190.912508 
L 236.91358 188.985941 
L 240.916049 188.985941 
L 240.916049 187.111444 
L 244.918519 187.111444 
L 244.918519 203.10034 
L 244.918519 201.19 
L 248.920988 201.19 
L 248.920988 204.135012 
L 248.920988 202.258648 
L 252.923457 202.258648 
L 252.923457 207.912871 
L 252.923457 206.058286 
L 256.925926 206.058286 
L 256.925926 219.040381 
L 256.925926 217.185796 
L 260.928395 217.185796 
L 260.928395 219.60482 
L 260.928395 217.784049 
L 264.930864 217.784049 
L 264.930864 220.14524 
L 264.930864 218.357113 
L 268.933333 218.357113 
L 268.933333 222.921626 
L 268.933333 221.159907 
L 272.935802 221.159907 
L 272.935802 231.770397 
L 272.935802 230.025231 
L 276.938272 230.025231 
L 276.938272 228.313306 
L 280.940741 228.313306 
L 280.940741 226.633682 
L 284.94321 226.633682 
L 284.94321 224.985453 
L 288.945679 224.985453 
L 288.945679 223.367746 
L 292.948148 223.367746 
L 292.948148 225.352776 
L 292.948148 223.761143 
L 296.950617 223.761143 
L 296.950617 231.339208 
L 296.950617 229.76472 
L 300.953086 229.76472 
L 300.953086 246.562423 
L 300.953086 245.004571 
L 304.955556 245.004571 
L 304.955556 252.437069 
L 304.955556 250.905524 
L 308.958025 250.905524 
L 308.958025 249.39701 
L 312.960494 249.39701 
L 312.960494 254.954352 
L 312.960494 253.471155 
L 316.962963 253.471155 
L 316.962963 252.009299 
L 320.965432 252.009299 
L 320.965432 253.350204 
L 320.965432 251.909941 
L 324.967901 251.909941 
L 324.967901 265.502617 
L 324.967901 264.095888 
L 328.97037 264.095888 
L 328.97037 262.707429 
L 332.97284 262.707429 
L 332.97284 266.09014 
L 332.97284 264.72421 
L 336.975309 264.72421 
L 336.975309 265.824913 
L 336.975309 264.477714 
L 340.977778 264.477714 
L 340.977778 267.703327 
L 340.977778 266.377533 
L 344.980247 266.377533 
L 344.980247 267.42819 
L 344.980247 266.120028 
L 348.982716 266.120028 
L 348.982716 269.201968 
L 348.982716 267.914151 
L 352.985185 267.914151 
L 352.985185 280.120075 
L 352.985185 278.870907 
L 356.987654 278.870907 
L 356.987654 287.162922 
L 356.987654 285.948103 
L 360.990123 285.948103 
L 360.990123 293.449951 
L 360.990123 292.269481 
L 364.992593 292.269481 
L 364.992593 297.115799 
L 364.992593 295.962328 
L 368.995062 295.962328 
L 368.995062 297.949983 
L 368.995062 296.813851 
L 372.997531 296.813851 
L 372.997531 306.586305 
L 372.997531 305.495611 
L 377 305.495611 
L 377 308.292286 
L 377 307.221667 
L 381.002469 307.221667 
L 381.002469 306.159896 
L 385.004938 306.159896 
L 385.004938 307.795522 
L 385.004938 306.748683 
L 389.007407 306.748683 
L 389.007407 309.397833 
L 389.007407 308.36956 
L 393.009877 308.36956 
L 393.009877 312.411604 
L 393.009877 311.407242 
L 397.012346 311.407242 
L 397.012346 313.34428 
L 397.012346 312.355291 
L 401.014815 312.355291 
L 401.014815 312.832372 
L 401.014815 311.852674 
L 405.017284 311.852674 
L 405.017284 312.328076 
L 405.017284 311.357503 
L 409.019753 311.357503 
L 409.019753 315.051848 
L 409.019753 314.10282 
L 413.022222 314.10282 
L 413.022222 316.747729 
L 413.022222 315.816 
L 417.024691 315.816 
L 417.024691 316.247777 
L 417.024691 315.324254 
L 421.02716 315.324254 
L 421.02716 318.686734 
L 421.02716 317.782984 
L 425.02963 317.782984 
L 425.02963 316.8853 
L 429.032099 316.8853 
L 429.032099 317.704305 
L 429.032099 316.815829 
L 433.034568 316.815829 
L 433.034568 315.933237 
L 437.037037 315.933237 
L 437.037037 315.056471 
L 441.039506 315.056471 
L 441.039506 316.68096 
L 441.039506 315.816 
L 445.041975 315.816 
L 445.041975 319.712855 
L 445.041975 318.868217 
L 449.044444 318.868217 
L 449.044444 333.810662 
L 449.044444 333.033847 
L 453.046914 333.033847 
L 453.046914 335.041684 
L 453.046914 334.278229 
L 457.049383 334.278229 
L 457.049383 334.560202 
L 457.049383 333.802103 
L 461.051852 333.802103 
L 461.051852 334.642848 
L 461.051852 333.892532 
L 465.054321 333.892532 
L 465.054321 334.997947 
L 465.054321 334.256476 
L 469.05679 334.256476 
L 469.05679 341.663029 
L 469.05679 340.959188 
L 473.059259 340.959188 
L 473.059259 346.796 
L 473.059259 346.123613 
L 477.061728 346.123613 
L 477.061728 347.586306 
L 477.061728 346.924139 
L 481.064198 346.924139 
L 481.064198 347.130387 
L 481.064198 346.472167 
L 485.066667 346.472167 
L 485.066667 346.678503 
L 485.066667 346.024187 
L 489.069136 346.024187 
L 489.069136 345.372753 
L 493.071605 345.372753 
L 493.071605 344.724182 
L 497.074074 344.724182 
L 497.074074 344.078456 
L 501.076543 344.078456 
L 501.076543 347.124875 
L 501.076543 346.495952 
L 505.079012 346.495952 
L 505.079012 351.541004 
L 505.079012 350.938469 
L 509.081481 350.938469 
L 509.081481 352.508562 
L 509.081481 351.915944 
L 513.083951 351.915944 
L 513.083951 353.272238 
L 513.083951 352.688425 
L 517.08642 352.688425 
L 517.08642 355.918391 
L 517.08642 355.352381 
L 521.088889 355.352381 
L 521.088889 355.66376 
L 521.088889 355.101346 
L 525.091358 355.101346 
L 525.091358 357.228608 
L 525.091358 356.678509 
L 529.093827 356.678509 
L 529.093827 361.316237 
L 529.093827 360.790826 
L 533.096296 360.790826 
L 533.096296 360.267188 
L 537.098765 360.267188 
L 537.098765 360.931643 
L 537.098765 360.413014 
L 541.101235 360.413014 
L 541.101235 360.545219 
L 541.101235 360.028959 
L 545.103704 360.028959 
L 545.103704 360.555948 
L 545.103704 360.04393 
L 549.106173 360.04393 
L 549.106173 362.590003 
L 549.106173 362.09189 
L 553.108642 362.09189 
L 553.108642 364.141501 
L 553.108642 363.654884 
L 557.111111 363.654884 
L 557.111111 365.271175 
L 557.111111 364.793905 
L 561.11358 364.793905 
L 561.11358 365.245363 
L 561.11358 364.771721 
L 565.116049 364.771721 
L 565.116049 368.315877 
L 565.116049 367.86088 
L 569.118519 367.86088 
L 569.118519 367.407184 
L 573.120988 367.407184 
L 573.120988 367.510363 
L 573.120988 369.318515 
L 573.120988 368.875397 
L 577.123457 368.875397 
L 577.123457 368.973678 
L 577.123457 369.557686 
L 577.123457 369.119108 
L 581.125926 369.119108 
L 581.125926 369.215976 
L 581.125926 369.600806 
L 581.125926 369.165755 
L 585.128395 369.165755 
L 585.128395 369.261769 
L 585.128395 369.357522 
L 585.128395 368.924571 
L 589.130864 368.924571 
L 589.130864 369.020522 
L 589.130864 369.306819 
L 589.130864 368.876855 
L 593.133333 368.876855 
L 593.133333 368.972224 
L 593.133333 372.242437 
L 593.133333 371.829656 
L 597.135802 371.829656 
L 597.135802 371.916604 
L 597.135802 374.263876 
L 597.135802 373.863887 
L 601.138272 373.863887 
L 601.138272 373.94511 
L 601.138272 375.528525 
L 601.138272 375.137593 
L 605.140741 375.137593 
L 605.140741 375.215143 
L 605.140741 375.676555 
L 605.140741 375.28917 
L 609.14321 375.28917 
L 609.14321 375.365801 
L 609.14321 375.594605 
L 609.14321 375.209609 
L 613.145679 375.209609 
L 613.145679 375.285882 
L 613.145679 378.882429 
L 613.145679 378.516086 
L 617.148148 378.516086 
L 617.148148 378.150559 
L 621.150617 378.150559 
L 621.150617 378.219064 
L 621.150617 384.487523 
L 621.150617 384.153975 
L 625.153086 384.153975 
L 625.153086 384.264697 
L 625.153086 385.027563 
L 625.153086 384.699051 
L 629.155556 384.699051 
L 629.155556 384.806861 
L 629.155556 387.517516 
L 629.155556 387.203801 
L 633.158025 387.203801 
L 633.158025 387.301353 
L 633.158025 387.495376 
L 633.158025 387.183711 
L 637.160494 387.183711 
L 637.160494 387.280671 
L 637.160494 394.607764 
L 637.160494 394.334699 
L 641.162963 394.334699 
L 641.162963 394.442456 
L 641.162963 394.170385 
L 645.165432 394.170385 
L 645.165432 394.27819 
L 645.165432 397.290858 
L 645.165432 397.03551 
L 649.167901 397.03551 
L 649.167901 397.129564 
L 649.167901 400.867972 
L 649.167901 400.633303 
L 653.17037 400.633303 
L 653.17037 400.659459 
L 653.17037 400.425244 
L 657.17284 400.425244 
L 657.17284 400.530072 
L 657.17284 402.515183 
L 657.17284 402.292386 
L 661.175309 402.292386 
L 661.175309 402.316054 
L 661.175309 402.093664 
L 665.177778 402.093664 
L 665.177778 402.188541 
L 665.177778 402.259385 
L 665.177778 402.03815 
L 669.180247 402.03815 
L 669.180247 401.817192 
L 673.182716 401.817192 
L 673.182716 401.912226 
L 673.182716 405.04247 
L 673.182716 404.838696 
L 677.185185 404.838696 
L 677.185185 404.938631 
L 677.185185 405.097342 
L 677.185185 404.895163 
L 681.187654 404.895163 
L 681.187654 404.994143 
L 681.187654 405.268318 
L 681.187654 405.06832 
L 685.190123 405.06832 
L 685.190123 405.165701 
L 685.190123 407.021948 
L 685.190123 406.83239 
L 689.192593 406.83239 
L 689.192593 406.936956 
L 689.192593 409.306224 
L 689.192593 409.129882 
L 693.195062 409.129882 
L 693.195062 409.234748 
L 693.195062 409.559701 
L 693.195062 409.385797 
L 697.197531 409.385797 
L 697.197531 409.488282 
L 697.197531 410.880261 
L 697.197531 410.714389 
L 701.2 410.714389 
L 701.2 410.820792 
L 701.2 411.096425 
L 701.2 411.096425 
" clip-path="url(#p9424ceadb8)" style="fill: none; stroke: #bf00bf; stroke-width: 1.5; stroke-linecap: square"/>
   </g>
   <g id="line2d_45">
    <path d="M 52.8 50.273143 
L 56.802469 50.273143 
L 56.802469 309.915048 
L 56.802469 245.004571 
L 60.804938 245.004571 
L 60.804938 206.058286 
L 64.807407 206.058286 
L 64.807407 180.094095 
L 68.809877 180.094095 
L 68.809877 161.548245 
L 72.812346 161.548245 
L 72.812346 147.638857 
L 76.814815 147.638857 
L 76.814815 136.820444 
L 80.817284 136.820444 
L 80.817284 128.165714 
L 84.819753 128.165714 
L 84.819753 121.084571 
L 88.822222 121.084571 
L 88.822222 115.183619 
L 92.824691 115.183619 
L 92.824691 110.190505 
L 96.82716 110.190505 
L 96.82716 105.910694 
L 100.82963 105.910694 
L 100.82963 128.165714 
L 100.82963 123.297429 
L 104.832099 123.297429 
L 104.832099 119.001882 
L 108.834568 119.001882 
L 108.834568 115.183619 
L 112.837037 115.183619 
L 112.837037 111.767278 
L 116.839506 111.767278 
L 116.839506 128.165714 
L 116.839506 124.456544 
L 120.841975 124.456544 
L 120.841975 121.084571 
L 124.844444 121.084571 
L 124.844444 134.938981 
L 124.844444 131.411238 
L 128.846914 131.411238 
L 128.846914 128.165714 
L 132.849383 128.165714 
L 132.849383 125.169846 
L 136.851852 125.169846 
L 136.851852 136.820444 
L 136.851852 133.729469 
L 140.854321 133.729469 
L 140.854321 130.851665 
L 144.85679 130.851665 
L 144.85679 141.14781 
L 144.85679 138.216369 
L 148.859259 138.216369 
L 148.859259 135.468143 
L 152.861728 135.468143 
L 152.861728 132.886476 
L 156.864198 132.886476 
L 156.864198 130.456672 
L 160.866667 130.456672 
L 160.866667 128.165714 
L 164.869136 128.165714 
L 164.869136 126.002032 
L 168.871605 126.002032 
L 168.871605 123.955305 
L 172.874074 123.955305 
L 172.874074 132.265323 
L 172.874074 130.16296 
L 176.876543 130.16296 
L 176.876543 128.165714 
L 180.879012 128.165714 
L 180.879012 143.002395 
L 180.879012 140.8459 
L 184.881481 140.8459 
L 184.881481 138.787429 
L 188.883951 138.787429 
L 188.883951 136.820444 
L 192.88642 136.820444 
L 192.88642 134.938981 
L 196.888889 134.938981 
L 196.888889 133.137581 
L 200.891358 133.137581 
L 200.891358 131.411238 
L 204.893827 131.411238 
L 204.893827 137.70358 
L 204.893827 135.954971 
L 208.896296 135.954971 
L 208.896296 134.274936 
L 212.898765 134.274936 
L 212.898765 140.149187 
L 212.898765 138.453412 
L 216.901235 138.453412 
L 216.901235 136.820444 
L 220.903704 136.820444 
L 220.903704 135.246857 
L 224.906173 135.246857 
L 224.906173 165.196609 
L 224.906173 163.343005 
L 228.908642 163.343005 
L 228.908642 161.548245 
L 232.911111 161.548245 
L 232.911111 159.809571 
L 236.91358 159.809571 
L 236.91358 164.116132 
L 236.91358 162.391238 
L 240.916049 162.391238 
L 240.916049 166.530712 
L 240.916049 164.821042 
L 244.918519 164.821042 
L 244.918519 172.675755 
L 244.918519 170.951775 
L 248.920988 170.951775 
L 248.920988 169.275683 
L 252.923457 169.275683 
L 252.923457 180.094095 
L 252.923457 178.385925 
L 256.925926 178.385925 
L 256.925926 176.722122 
L 260.928395 176.722122 
L 260.928395 175.100982 
L 264.930864 175.100982 
L 264.930864 184.902279 
L 264.930864 183.26046 
L 268.933333 183.26046 
L 268.933333 189.36702 
L 268.933333 187.730622 
L 272.935802 187.730622 
L 272.935802 190.660917 
L 272.935802 189.047264 
L 276.938272 189.047264 
L 276.938272 187.470286 
L 280.940741 187.470286 
L 280.940741 190.304732 
L 280.940741 188.748825 
L 284.94321 188.748825 
L 284.94321 211.565841 
L 284.94321 209.952914 
L 288.945679 209.952914 
L 288.945679 208.371926 
L 292.948148 208.371926 
L 292.948148 206.821938 
L 296.950617 206.821938 
L 296.950617 213.476626 
L 296.950617 211.93697 
L 300.953086 211.93697 
L 300.953086 210.426093 
L 304.955556 210.426093 
L 304.955556 208.943196 
L 308.958025 208.943196 
L 308.958025 207.487507 
L 312.960494 207.487507 
L 312.960494 209.598857 
L 312.960494 208.16349 
L 316.962963 208.16349 
L 316.962963 210.231102 
L 316.962963 208.815545 
L 320.965432 208.815545 
L 320.965432 214.787626 
L 320.965432 213.381519 
L 324.967901 213.381519 
L 324.967901 211.999245 
L 328.97037 211.999245 
L 328.97037 210.640202 
L 332.97284 210.640202 
L 332.97284 212.549333 
L 332.97284 211.208208 
L 336.975309 211.208208 
L 336.975309 213.081386 
L 336.975309 211.757742 
L 340.977778 211.757742 
L 340.977778 218.93816 
L 340.977778 217.620464 
L 344.980247 217.620464 
L 344.980247 216.323198 
L 348.982716 216.323198 
L 348.982716 218.041758 
L 348.982716 216.761082 
L 352.985185 216.761082 
L 352.985185 226.526407 
L 352.985185 225.249209 
L 356.987654 225.249209 
L 356.987654 232.748747 
L 356.987654 231.481556 
L 360.990123 231.481556 
L 360.990123 232.917793 
L 360.990123 231.666802 
L 364.992593 231.666802 
L 364.992593 233.082239 
L 364.992593 231.847042 
L 368.995062 231.847042 
L 368.995062 238.640799 
L 368.995062 237.417633 
L 372.997531 237.417633 
L 372.997531 256.459361 
L 372.997531 255.253594 
L 377 255.253594 
L 377 259.470335 
L 377 258.281714 
L 381.002469 258.281714 
L 381.002469 257.106525 
L 385.004938 257.106525 
L 385.004938 259.147077 
L 385.004938 257.986667 
L 389.007407 257.986667 
L 389.007407 264.790118 
L 389.007407 263.64907 
L 393.009877 263.64907 
L 393.009877 265.502617 
L 393.009877 264.375761 
L 397.012346 264.375761 
L 397.012346 263.260643 
L 401.014815 263.260643 
L 401.014815 276.83567 
L 401.014815 275.751639 
L 405.017284 275.751639 
L 405.017284 274.677932 
L 409.019753 274.677932 
L 409.019753 284.300151 
L 409.019753 283.255388 
L 413.022222 283.255388 
L 413.022222 286.671995 
L 413.022222 285.644174 
L 417.024691 285.644174 
L 417.024691 286.972552 
L 417.024691 285.956674 
L 421.02716 285.956674 
L 421.02716 291.061382 
L 421.02716 290.06639 
L 425.02963 290.06639 
L 425.02963 291.29319 
L 425.02963 290.309434 
L 429.032099 290.309434 
L 429.032099 295.034385 
L 429.032099 294.070758 
L 433.034568 294.070758 
L 433.034568 295.208768 
L 433.034568 294.255711 
L 437.037037 294.255711 
L 437.037037 299.177976 
L 437.037037 298.245749 
L 441.039506 298.245749 
L 441.039506 298.773697 
L 441.039506 297.849903 
L 445.041975 297.849903 
L 445.041975 301.448464 
L 445.041975 300.541694 
L 449.044444 300.541694 
L 449.044444 301.042393 
L 449.044444 300.143578 
L 453.046914 300.143578 
L 453.046914 307.714692 
L 453.046914 306.844958 
L 457.049383 306.844958 
L 457.049383 307.292402 
L 457.049383 306.429921 
L 461.051852 306.429921 
L 461.051852 308.629692 
L 461.051852 307.779835 
L 465.054321 307.779835 
L 465.054321 308.642293 
L 465.054321 307.8007 
L 469.05679 307.8007 
L 469.05679 309.915048 
L 469.05679 309.085521 
L 473.059259 309.085521 
L 473.059259 328.004852 
L 473.059259 327.24809 
L 477.061728 327.24809 
L 477.061728 329.94062 
L 477.061728 329.198797 
L 481.064198 329.198797 
L 481.064198 332.055055 
L 481.064198 331.328813 
L 485.066667 331.328813 
L 485.066667 338.381811 
L 485.066667 337.689242 
L 489.069136 337.689242 
L 489.069136 344.76631 
L 489.069136 344.108959 
L 493.071605 344.108959 
L 493.071605 344.745059 
L 493.071605 344.093573 
L 497.074074 344.093573 
L 497.074074 343.444962 
L 501.076543 343.444962 
L 501.076543 344.910261 
L 501.076543 344.271135 
L 505.079012 344.271135 
L 505.079012 343.634776 
L 509.081481 343.634776 
L 509.081481 343.842338 
L 509.081481 343.209645 
L 513.083951 343.209645 
L 513.083951 347.956843 
L 513.083951 347.348083 
L 517.08642 347.348083 
L 517.08642 347.911424 
L 517.08642 347.307695 
L 521.088889 347.307695 
L 521.088889 348.964776 
L 521.088889 348.370956 
L 525.091358 348.370956 
L 525.091358 348.912646 
L 525.091358 348.323613 
L 529.093827 348.323613 
L 529.093827 349.392764 
L 529.093827 348.810819 
L 533.096296 348.810819 
L 533.096296 349.338432 
L 533.096296 348.761085 
L 537.098765 348.761085 
L 537.098765 352.467471 
L 537.098765 351.908886 
L 541.101235 351.908886 
L 541.101235 358.236054 
L 541.101235 357.70872 
L 545.103704 357.70872 
L 545.103704 362.843654 
L 545.103704 362.34274 
L 549.106173 362.34274 
L 549.106173 362.835691 
L 549.106173 362.338771 
L 553.108642 362.338771 
L 553.108642 363.787705 
L 553.108642 363.299364 
L 557.111111 363.299364 
L 557.111111 363.772656 
L 557.111111 363.288113 
L 561.11358 363.288113 
L 561.11358 363.640949 
L 561.11358 363.159586 
L 565.116049 363.159586 
L 565.116049 366.425345 
L 565.116049 365.961098 
L 569.118519 365.961098 
L 569.118519 366.069272 
L 569.118519 371.381294 
L 569.118519 370.945006 
L 573.120988 370.945006 
L 573.120988 371.038345 
L 573.120988 371.409183 
L 573.120988 370.976385 
L 577.123457 370.976385 
L 577.123457 371.068928 
L 577.123457 371.709821 
L 577.123457 371.281809 
L 581.125926 371.281809 
L 581.125926 371.372839 
L 581.125926 373.826901 
L 581.125926 373.41262 
L 585.128395 373.41262 
L 585.128395 373.497432 
L 585.128395 374.001787 
L 585.128395 373.591484 
L 589.130864 373.591484 
L 589.130864 373.675212 
L 589.130864 384.743352 
L 589.130864 384.391278 
L 593.133333 384.391278 
L 593.133333 384.449475 
L 593.133333 385.364246 
L 593.133333 385.018078 
L 597.135802 385.018078 
L 597.135802 385.074546 
L 597.135802 386.874774 
L 597.135802 386.539179 
L 601.138272 386.539179 
L 601.138272 386.645043 
L 601.138272 389.256897 
L 601.138272 388.936497 
L 605.140741 388.936497 
L 605.140741 389.032345 
L 605.140741 389.412148 
L 605.140741 389.094899 
L 609.14321 389.094899 
L 609.14321 389.189467 
L 609.14321 393.267899 
L 609.14321 392.973736 
L 613.145679 392.973736 
L 613.145679 393.053808 
L 613.145679 393.528542 
L 613.145679 393.237894 
L 617.148148 393.237894 
L 617.148148 393.316505 
L 617.148148 394.050257 
L 617.148148 393.764491 
L 621.150617 393.764491 
L 621.150617 393.840792 
L 621.150617 394.330642 
L 621.150617 394.048397 
L 625.153086 394.048397 
L 625.153086 394.123233 
L 625.153086 394.640301 
L 625.153086 394.361687 
L 629.155556 394.361687 
L 629.155556 394.471552 
L 629.155556 394.193972 
L 633.158025 394.193972 
L 633.158025 394.303889 
L 633.158025 394.738299 
L 633.158025 394.464044 
L 637.160494 394.464044 
L 637.160494 394.57192 
L 637.160494 395.861326 
L 637.160494 395.594874 
L 641.162963 395.594874 
L 641.162963 395.696738 
L 641.162963 396.560253 
L 641.162963 396.299299 
L 645.165432 396.299299 
L 645.165432 396.397276 
L 645.165432 396.494813 
L 645.165432 396.235276 
L 649.167901 396.235276 
L 649.167901 396.332884 
L 649.167901 397.867338 
L 649.167901 397.616729 
L 653.17037 397.616729 
L 653.17037 397.366482 
L 657.17284 397.366482 
L 657.17284 397.116594 
L 661.175309 397.116594 
L 661.175309 396.867067 
L 665.177778 396.867067 
L 665.177778 396.95939 
L 665.177778 398.269182 
L 665.177778 398.027182 
L 669.180247 398.027182 
L 669.180247 398.114015 
L 669.180247 399.455758 
L 669.180247 399.221407 
L 673.182716 399.221407 
L 673.182716 399.32988 
L 673.182716 399.096398 
L 677.185185 399.096398 
L 677.185185 399.204842 
L 677.185185 402.980885 
L 677.185185 402.767639 
L 681.187654 402.767639 
L 681.187654 402.856827 
L 681.187654 403.143739 
L 681.187654 402.932692 
L 685.190123 402.932692 
L 685.190123 403.042421 
L 685.190123 405.30112 
L 685.190123 405.102558 
L 689.192593 405.102558 
L 689.192593 405.199138 
L 689.192593 407.36559 
L 689.192593 407.179021 
L 693.195062 407.179021 
L 693.195062 407.280762 
L 693.195062 410.766192 
L 693.195062 410.598677 
L 697.197531 410.598677 
L 697.197531 410.706593 
L 697.197531 411.13038 
L 697.197531 410.96583 
L 701.2 410.96583 
L 701.2 411.070401 
L 701.2 411.096425 
L 701.2 411.096425 
" clip-path="url(#p9424ceadb8)" style="fill: none; stroke: #0000ff; stroke-width: 1.5; stroke-linecap: square"/>
   </g>
   <g id="line2d_46">
    <path d="M 52.8 223.366015 
L 52.8 223.366015 
L 92.825732 223.366015 
L 92.825732 219.603804 
L 104.8341 219.603804 
L 104.8341 212.550632 
L 108.834728 212.550632 
L 108.834728 215.047088 
L 112.835356 215.047088 
L 112.835356 198.000299 
L 124.843724 198.000299 
L 124.843724 193.077489 
L 128.844352 193.077489 
L 128.844352 188.470143 
L 132.851464 188.470143 
L 132.851464 190.912075 
L 144.859832 190.912075 
L 144.859832 193.759049 
L 148.86046 193.759049 
L 148.86046 192.758129 
L 156.861716 192.758129 
L 156.861716 195.188377 
L 160.868828 195.188377 
L 160.868828 191.897416 
L 164.869456 191.897416 
L 164.869456 188.750556 
L 168.870084 188.750556 
L 168.870084 191.141858 
L 172.877196 191.141858 
L 172.877196 193.342323 
L 176.877824 193.342323 
L 176.877824 195.36753 
L 180.878452 195.36753 
L 180.878452 235.731461 
L 184.87908 235.731461 
L 184.87908 232.833857 
L 188.886192 232.833857 
L 188.886192 242.180966 
L 192.88682 242.180966 
L 192.88682 239.439147 
L 196.887448 239.439147 
L 196.887448 247.532185 
L 204.895188 247.532185 
L 204.895188 247.469871 
L 208.895816 247.469871 
L 208.895816 245.004571 
L 212.896444 245.004571 
L 212.896444 242.660005 
L 220.904184 242.660005 
L 220.904184 240.369963 
L 224.904812 240.369963 
L 224.904812 242.76516 
L 228.90544 242.76516 
L 228.90544 253.292341 
L 232.912552 253.292341 
L 232.912552 251.15419 
L 236.91318 251.15419 
L 236.91318 249.062774 
L 240.913808 249.062774 
L 240.913808 247.010305 
L 244.92092 247.010305 
L 244.92092 245.004571 
L 248.921548 245.004571 
L 248.921548 243.037784 
L 252.922176 243.037784 
L 252.922176 248.677206 
L 260.929916 248.677206 
L 260.929916 250.36358 
L 264.930544 250.36358 
L 264.930544 248.544789 
L 268.931172 248.544789 
L 268.931172 248.482475 
L 272.938284 248.482475 
L 272.938284 259.488695 
L 276.938912 259.488695 
L 276.938912 263.550793 
L 280.93954 263.550793 
L 280.93954 261.611268 
L 288.94728 261.611268 
L 288.94728 266.643128 
L 292.947908 266.643128 
L 292.947908 266.323768 
L 296.948536 266.323768 
L 296.948536 274.346703 
L 300.955648 274.346703 
L 300.955648 276.1616 
L 304.956276 276.1616 
L 304.956276 285.874804 
L 308.956904 285.874804 
L 308.956904 287.234029 
L 312.957532 287.234029 
L 312.957532 292.008844 
L 316.964644 292.008844 
L 316.964644 293.960053 
L 320.965272 293.960053 
L 320.965272 295.019392 
L 324.9659 295.019392 
L 324.9659 299.770838 
L 328.973012 299.770838 
L 328.973012 300.078514 
L 336.974268 300.078514 
L 336.974268 307.466624 
L 340.974896 307.466624 
L 340.974896 313.935603 
L 344.982008 313.935603 
L 344.982008 315.509032 
L 348.982636 315.509032 
L 348.982636 411.094901 
L 701.2 411.094901 
" clip-path="url(#p9424ceadb8)" style="fill: none; stroke: #bfbf00; stroke-width: 1.5; stroke-linecap: square"/>
   </g>
   <g id="line2d_47">
    <defs>
     <path id="madd88b0251" d="M 0 6.363961 
L 6.363961 0 
L 0 -6.363961 
L -6.363961 0 
z
" style="stroke: #000000; stroke-linejoin: miter"/>
    </defs>
    <g clip-path="url(#p9424ceadb8)">
     <use xlink:href="#madd88b0251" x="280.940741" y="139.74434" style="fill: #ffa500; stroke: #000000; stroke-linejoin: miter"/>
    </g>
   </g>
   <g id="line2d_48">
    <defs>
     <path id="m4b3f4e14e4" d="M 0 6.363961 
L 6.363961 0 
L 0 -6.363961 
L -6.363961 0 
z
" style="stroke: #000000; stroke-linejoin: miter"/>
    </defs>
    <g clip-path="url(#p9424ceadb8)">
     <use xlink:href="#m4b3f4e14e4" x="381.002469" y="211.622041" style="fill: #008000; stroke: #000000; stroke-linejoin: miter"/>
    </g>
   </g>
   <g id="line2d_49">
    <defs>
     <path id="mfa5b2ee959" d="M 0 3 
C 0.795609 3 1.55874 2.683901 2.12132 2.12132 
C 2.683901 1.55874 3 0.795609 3 0 
C 3 -0.795609 2.683901 -1.55874 2.12132 -2.12132 
C 1.55874 -2.683901 0.795609 -3 0 -3 
C -0.795609 -3 -1.55874 -2.683901 -2.12132 -2.12132 
C -2.683901 -1.55874 -3 -0.795609 -3 0 
C -3 0.795609 -2.683901 1.55874 -2.12132 2.12132 
C -1.55874 2.683901 -0.795609 3 0 3 
z
" style="stroke: #000000"/>
    </defs>
    <g clip-path="url(#p9424ceadb8)">
     <use xlink:href="#mfa5b2ee959" x="348.982716" y="233.877061" style="fill: #0000ff; stroke: #000000"/>
    </g>
   </g>
   <g id="line2d_50">
    <defs>
     <path id="mec79509a24" d="M 0 -4.5 
L -4.5 4.5 
L 4.5 4.5 
z
" style="stroke: #000000; stroke-linejoin: miter"/>
    </defs>
    <g clip-path="url(#p9424ceadb8)">
     <use xlink:href="#mec79509a24" x="348.982716" y="233.877061" style="fill: #ffffff; stroke: #000000; stroke-linejoin: miter"/>
    </g>
   </g>
   <g id="line2d_51">
    <defs>
     <path id="m67237a5ebb" d="M 0 -4.5 
L -4.5 4.5 
L 4.5 4.5 
z
" style="stroke: #000000; stroke-linejoin: miter"/>
    </defs>
    <g clip-path="url(#p9424ceadb8)">
     <use xlink:href="#m67237a5ebb" x="228.908642" y="110.190505" style="fill: #808080; stroke: #000000; stroke-linejoin: miter"/>
    </g>
   </g>
   <g id="line2d_52">
    <defs>
     <path id="me5e234aec7" d="M -2.25 4.5 
L 0 2.25 
L 2.25 4.5 
L 4.5 2.25 
L 2.25 0 
L 4.5 -2.25 
L 2.25 -4.5 
L 0 -2.25 
L -2.25 -4.5 
L -4.5 -2.25 
L -2.25 0 
L -4.5 2.25 
z
" style="stroke: #000000; stroke-linejoin: miter"/>
    </defs>
    <g clip-path="url(#p9424ceadb8)">
     <use xlink:href="#me5e234aec7" x="364.992593" y="234.478548" style="stroke: #000000; stroke-linejoin: miter"/>
    </g>
   </g>
   <g id="line2d_53">
    <defs>
     <path id="me6ef195427" d="M 0 -4.5 
L -4.279754 -1.390576 
L -2.645034 3.640576 
L 2.645034 3.640576 
L 4.279754 -1.390576 
z
" style="stroke: #000000; stroke-linejoin: miter"/>
    </defs>
    <g clip-path="url(#p9424ceadb8)">
     <use xlink:href="#me6ef195427" x="252.923457" y="300.642122" style="fill: #00bfbf; stroke: #000000; stroke-linejoin: miter"/>
    </g>
   </g>
   <g id="line2d_54">
    <defs>
     <path id="m243c802f76" d="M -3 3 
L 3 -3 
M -3 -3 
L 3 3 
" style="stroke: #000000"/>
    </defs>
    <g clip-path="url(#p9424ceadb8)">
     <use xlink:href="#m243c802f76" x="121.522733" y="398.457543" style="stroke: #000000"/>
    </g>
   </g>
   <g id="patch_3">
    <path d="M 52.8 439.736 
L 52.8 30.8 
" style="fill: none; stroke: #000000; stroke-width: 0.8; stroke-linejoin: miter; stroke-linecap: square"/>
   </g>
   <g id="patch_4">
    <path d="M 701.2 439.736 
L 701.2 30.8 
" style="fill: none; stroke: #000000; stroke-width: 0.8; stroke-linejoin: miter; stroke-linecap: square"/>
   </g>
   <g id="patch_5">
    <path d="M 52.8 439.736 
L 701.2 439.736 
" style="fill: none; stroke: #000000; stroke-width: 0.8; stroke-linejoin: miter; stroke-linecap: square"/>
   </g>
   <g id="patch_6">
    <path d="M 52.8 30.8 
L 701.2 30.8 
" style="fill: none; stroke: #000000; stroke-width: 0.8; stroke-linejoin: miter; stroke-linecap: square"/>
   </g>
   <g id="text_24">
    <!-- Precision-Recall Curve ExWAS implicated set -->
    <g transform="translate(176.488438 24.8)scale(0.18 -0.18)">
     <defs>
      <path id="DejaVuSans-2d" d="M 313 2009 
L 1997 2009 
L 1997 1497 
L 313 1497 
L 313 2009 
z
" transform="scale(0.015625)"/>
      <path id="DejaVuSans-20" transform="scale(0.015625)"/>
      <path id="DejaVuSans-43" d="M 4122 4306 
L 4122 3641 
Q 3803 3938 3442 4084 
Q 3081 4231 2675 4231 
Q 1875 4231 1450 3742 
Q 1025 3253 1025 2328 
Q 1025 1406 1450 917 
Q 1875 428 2675 428 
Q 3081 428 3442 575 
Q 3803 722 4122 1019 
L 4122 359 
Q 3791 134 3420 21 
Q 3050 -91 2638 -91 
Q 1578 -91 968 557 
Q 359 1206 359 2328 
Q 359 3453 968 4101 
Q 1578 4750 2638 4750 
Q 3056 4750 3426 4639 
Q 3797 4528 4122 4306 
z
" transform="scale(0.015625)"/>
      <path id="DejaVuSans-75" d="M 544 1381 
L 544 3500 
L 1119 3500 
L 1119 1403 
Q 1119 906 1312 657 
Q 1506 409 1894 409 
Q 2359 409 2629 706 
Q 2900 1003 2900 1516 
L 2900 3500 
L 3475 3500 
L 3475 0 
L 2900 0 
L 2900 538 
Q 2691 219 2414 64 
Q 2138 -91 1772 -91 
Q 1169 -91 856 284 
Q 544 659 544 1381 
z
M 1991 3584 
L 1991 3584 
z
" transform="scale(0.015625)"/>
      <path id="DejaVuSans-76" d="M 191 3500 
L 800 3500 
L 1894 563 
L 2988 3500 
L 3597 3500 
L 2284 0 
L 1503 0 
L 191 3500 
z
" transform="scale(0.015625)"/>
      <path id="DejaVuSans-45" d="M 628 4666 
L 3578 4666 
L 3578 4134 
L 1259 4134 
L 1259 2753 
L 3481 2753 
L 3481 2222 
L 1259 2222 
L 1259 531 
L 3634 531 
L 3634 0 
L 628 0 
L 628 4666 
z
" transform="scale(0.015625)"/>
      <path id="DejaVuSans-78" d="M 3513 3500 
L 2247 1797 
L 3578 0 
L 2900 0 
L 1881 1375 
L 863 0 
L 184 0 
L 1544 1831 
L 300 3500 
L 978 3500 
L 1906 2253 
L 2834 3500 
L 3513 3500 
z
" transform="scale(0.015625)"/>
      <path id="DejaVuSans-57" d="M 213 4666 
L 850 4666 
L 1831 722 
L 2809 4666 
L 3519 4666 
L 4500 722 
L 5478 4666 
L 6119 4666 
L 4947 0 
L 4153 0 
L 3169 4050 
L 2175 0 
L 1381 0 
L 213 4666 
z
" transform="scale(0.015625)"/>
      <path id="DejaVuSans-41" d="M 2188 4044 
L 1331 1722 
L 3047 1722 
L 2188 4044 
z
M 1831 4666 
L 2547 4666 
L 4325 0 
L 3669 0 
L 3244 1197 
L 1141 1197 
L 716 0 
L 50 0 
L 1831 4666 
z
" transform="scale(0.015625)"/>
      <path id="DejaVuSans-53" d="M 3425 4513 
L 3425 3897 
Q 3066 4069 2747 4153 
Q 2428 4238 2131 4238 
Q 1616 4238 1336 4038 
Q 1056 3838 1056 3469 
Q 1056 3159 1242 3001 
Q 1428 2844 1947 2747 
L 2328 2669 
Q 3034 2534 3370 2195 
Q 3706 1856 3706 1288 
Q 3706 609 3251 259 
Q 2797 -91 1919 -91 
Q 1588 -91 1214 -16 
Q 841 59 441 206 
L 441 856 
Q 825 641 1194 531 
Q 1563 422 1919 422 
Q 2459 422 2753 634 
Q 3047 847 3047 1241 
Q 3047 1584 2836 1778 
Q 2625 1972 2144 2069 
L 1759 2144 
Q 1053 2284 737 2584 
Q 422 2884 422 3419 
Q 422 4038 858 4394 
Q 1294 4750 2059 4750 
Q 2388 4750 2728 4690 
Q 3069 4631 3425 4513 
z
" transform="scale(0.015625)"/>
      <path id="DejaVuSans-6d" d="M 3328 2828 
Q 3544 3216 3844 3400 
Q 4144 3584 4550 3584 
Q 5097 3584 5394 3201 
Q 5691 2819 5691 2113 
L 5691 0 
L 5113 0 
L 5113 2094 
Q 5113 2597 4934 2840 
Q 4756 3084 4391 3084 
Q 3944 3084 3684 2787 
Q 3425 2491 3425 1978 
L 3425 0 
L 2847 0 
L 2847 2094 
Q 2847 2600 2669 2842 
Q 2491 3084 2119 3084 
Q 1678 3084 1418 2786 
Q 1159 2488 1159 1978 
L 1159 0 
L 581 0 
L 581 3500 
L 1159 3500 
L 1159 2956 
Q 1356 3278 1631 3431 
Q 1906 3584 2284 3584 
Q 2666 3584 2933 3390 
Q 3200 3197 3328 2828 
z
" transform="scale(0.015625)"/>
      <path id="DejaVuSans-70" d="M 1159 525 
L 1159 -1331 
L 581 -1331 
L 581 3500 
L 1159 3500 
L 1159 2969 
Q 1341 3281 1617 3432 
Q 1894 3584 2278 3584 
Q 2916 3584 3314 3078 
Q 3713 2572 3713 1747 
Q 3713 922 3314 415 
Q 2916 -91 2278 -91 
Q 1894 -91 1617 61 
Q 1341 213 1159 525 
z
M 3116 1747 
Q 3116 2381 2855 2742 
Q 2594 3103 2138 3103 
Q 1681 3103 1420 2742 
Q 1159 2381 1159 1747 
Q 1159 1113 1420 752 
Q 1681 391 2138 391 
Q 2594 391 2855 752 
Q 3116 1113 3116 1747 
z
" transform="scale(0.015625)"/>
      <path id="DejaVuSans-74" d="M 1172 4494 
L 1172 3500 
L 2356 3500 
L 2356 3053 
L 1172 3053 
L 1172 1153 
Q 1172 725 1289 603 
Q 1406 481 1766 481 
L 2356 481 
L 2356 0 
L 1766 0 
Q 1100 0 847 248 
Q 594 497 594 1153 
L 594 3053 
L 172 3053 
L 172 3500 
L 594 3500 
L 594 4494 
L 1172 4494 
z
" transform="scale(0.015625)"/>
      <path id="DejaVuSans-64" d="M 2906 2969 
L 2906 4863 
L 3481 4863 
L 3481 0 
L 2906 0 
L 2906 525 
Q 2725 213 2448 61 
Q 2172 -91 1784 -91 
Q 1150 -91 751 415 
Q 353 922 353 1747 
Q 353 2572 751 3078 
Q 1150 3584 1784 3584 
Q 2172 3584 2448 3432 
Q 2725 3281 2906 2969 
z
M 947 1747 
Q 947 1113 1208 752 
Q 1469 391 1925 391 
Q 2381 391 2643 752 
Q 2906 1113 2906 1747 
Q 2906 2381 2643 2742 
Q 2381 3103 1925 3103 
Q 1469 3103 1208 2742 
Q 947 2381 947 1747 
z
" transform="scale(0.015625)"/>
     </defs>
     <use xlink:href="#DejaVuSans-50"/>
     <use xlink:href="#DejaVuSans-72" x="58.552734"/>
     <use xlink:href="#DejaVuSans-65" x="97.416016"/>
     <use xlink:href="#DejaVuSans-63" x="158.939453"/>
     <use xlink:href="#DejaVuSans-69" x="213.919922"/>
     <use xlink:href="#DejaVuSans-73" x="241.703125"/>
     <use xlink:href="#DejaVuSans-69" x="293.802734"/>
     <use xlink:href="#DejaVuSans-6f" x="321.585938"/>
     <use xlink:href="#DejaVuSans-6e" x="382.767578"/>
     <use xlink:href="#DejaVuSans-2d" x="446.146484"/>
     <use xlink:href="#DejaVuSans-52" x="482.230469"/>
     <use xlink:href="#DejaVuSans-65" x="547.212891"/>
     <use xlink:href="#DejaVuSans-63" x="608.736328"/>
     <use xlink:href="#DejaVuSans-61" x="663.716797"/>
     <use xlink:href="#DejaVuSans-6c" x="724.996094"/>
     <use xlink:href="#DejaVuSans-6c" x="752.779297"/>
     <use xlink:href="#DejaVuSans-20" x="780.5625"/>
     <use xlink:href="#DejaVuSans-43" x="812.349609"/>
     <use xlink:href="#DejaVuSans-75" x="882.173828"/>
     <use xlink:href="#DejaVuSans-72" x="945.552734"/>
     <use xlink:href="#DejaVuSans-76" x="986.666016"/>
     <use xlink:href="#DejaVuSans-65" x="1045.845703"/>
     <use xlink:href="#DejaVuSans-20" x="1107.369141"/>
     <use xlink:href="#DejaVuSans-45" x="1139.15625"/>
     <use xlink:href="#DejaVuSans-78" x="1202.339844"/>
     <use xlink:href="#DejaVuSans-57" x="1261.519531"/>
     <use xlink:href="#DejaVuSans-41" x="1354.896484"/>
     <use xlink:href="#DejaVuSans-53" x="1423.304688"/>
     <use xlink:href="#DejaVuSans-20" x="1486.78125"/>
     <use xlink:href="#DejaVuSans-69" x="1518.568359"/>
     <use xlink:href="#DejaVuSans-6d" x="1546.351562"/>
     <use xlink:href="#DejaVuSans-70" x="1643.763672"/>
     <use xlink:href="#DejaVuSans-6c" x="1707.240234"/>
     <use xlink:href="#DejaVuSans-69" x="1735.023438"/>
     <use xlink:href="#DejaVuSans-63" x="1762.806641"/>
     <use xlink:href="#DejaVuSans-61" x="1817.787109"/>
     <use xlink:href="#DejaVuSans-74" x="1879.066406"/>
     <use xlink:href="#DejaVuSans-65" x="1918.275391"/>
     <use xlink:href="#DejaVuSans-64" x="1979.798828"/>
     <use xlink:href="#DejaVuSans-20" x="2043.275391"/>
     <use xlink:href="#DejaVuSans-73" x="2075.0625"/>
     <use xlink:href="#DejaVuSans-65" x="2127.162109"/>
     <use xlink:href="#DejaVuSans-74" x="2188.685547"/>
    </g>
   </g>
   <g id="legend_1">
    <g id="patch_7">
     <path d="M 92.22 557.4168 
L 615.596563 557.4168 
Q 617.596563 557.4168 617.596563 555.4168 
L 617.596563 512.382425 
Q 617.596563 510.382425 615.596563 510.382425 
L 92.22 510.382425 
Q 90.22 510.382425 90.22 512.382425 
L 90.22 555.4168 
Q 90.22 557.4168 92.22 557.4168 
z
" style="fill: #ffffff; opacity: 0.8; stroke: #cccccc; stroke-linejoin: miter"/>
    </g>
    <g id="line2d_55">
     <path d="M 94.22 518.480862 
L 94.22 518.480862 
L 104.22 518.480862 
L 104.22 518.480862 
L 114.22 518.480862 
" style="fill: none; stroke: #008000; stroke-width: 1.5; stroke-linecap: square"/>
    </g>
    <g id="text_25">
     <!-- FLAMES (0.55) -->
     <g transform="translate(122.22 521.980862)scale(0.1 -0.1)">
      <defs>
       <path id="DejaVuSans-46" d="M 628 4666 
L 3309 4666 
L 3309 4134 
L 1259 4134 
L 1259 2759 
L 3109 2759 
L 3109 2228 
L 1259 2228 
L 1259 0 
L 628 0 
L 628 4666 
z
" transform="scale(0.015625)"/>
       <path id="DejaVuSans-4c" d="M 628 4666 
L 1259 4666 
L 1259 531 
L 3531 531 
L 3531 0 
L 628 0 
L 628 4666 
z
" transform="scale(0.015625)"/>
       <path id="DejaVuSans-4d" d="M 628 4666 
L 1569 4666 
L 2759 1491 
L 3956 4666 
L 4897 4666 
L 4897 0 
L 4281 0 
L 4281 4097 
L 3078 897 
L 2444 897 
L 1241 4097 
L 1241 0 
L 628 0 
L 628 4666 
z
" transform="scale(0.015625)"/>
       <path id="DejaVuSans-28" d="M 1984 4856 
Q 1566 4138 1362 3434 
Q 1159 2731 1159 2009 
Q 1159 1288 1364 580 
Q 1569 -128 1984 -844 
L 1484 -844 
Q 1016 -109 783 600 
Q 550 1309 550 2009 
Q 550 2706 781 3412 
Q 1013 4119 1484 4856 
L 1984 4856 
z
" transform="scale(0.015625)"/>
       <path id="DejaVuSans-29" d="M 513 4856 
L 1013 4856 
Q 1481 4119 1714 3412 
Q 1947 2706 1947 2009 
Q 1947 1309 1714 600 
Q 1481 -109 1013 -844 
L 513 -844 
Q 928 -128 1133 580 
Q 1338 1288 1338 2009 
Q 1338 2731 1133 3434 
Q 928 4138 513 4856 
z
" transform="scale(0.015625)"/>
      </defs>
      <use xlink:href="#DejaVuSans-46"/>
      <use xlink:href="#DejaVuSans-4c" x="57.519531"/>
      <use xlink:href="#DejaVuSans-41" x="115.482422"/>
      <use xlink:href="#DejaVuSans-4d" x="183.890625"/>
      <use xlink:href="#DejaVuSans-45" x="270.169922"/>
      <use xlink:href="#DejaVuSans-53" x="333.353516"/>
      <use xlink:href="#DejaVuSans-20" x="396.830078"/>
      <use xlink:href="#DejaVuSans-28" x="428.617188"/>
      <use xlink:href="#DejaVuSans-30" x="467.630859"/>
      <use xlink:href="#DejaVuSans-2e" x="531.253906"/>
      <use xlink:href="#DejaVuSans-35" x="563.041016"/>
      <use xlink:href="#DejaVuSans-35" x="626.664062"/>
      <use xlink:href="#DejaVuSans-29" x="690.287109"/>
     </g>
    </g>
    <g id="line2d_56">
     <path d="M 94.22 533.158987 
L 94.22 533.158987 
L 104.22 533.158987 
L 104.22 533.158987 
L 114.22 533.158987 
" style="fill: none; stroke: #bf00bf; stroke-width: 1.5; stroke-linecap: square"/>
    </g>
    <g id="text_26">
     <!-- XGB (0.44) -->
     <g transform="translate(122.22 536.658987)scale(0.1 -0.1)">
      <defs>
       <path id="DejaVuSans-58" d="M 403 4666 
L 1081 4666 
L 2241 2931 
L 3406 4666 
L 4084 4666 
L 2584 2425 
L 4184 0 
L 3506 0 
L 2194 1984 
L 872 0 
L 191 0 
L 1856 2491 
L 403 4666 
z
" transform="scale(0.015625)"/>
       <path id="DejaVuSans-47" d="M 3809 666 
L 3809 1919 
L 2778 1919 
L 2778 2438 
L 4434 2438 
L 4434 434 
Q 4069 175 3628 42 
Q 3188 -91 2688 -91 
Q 1594 -91 976 548 
Q 359 1188 359 2328 
Q 359 3472 976 4111 
Q 1594 4750 2688 4750 
Q 3144 4750 3555 4637 
Q 3966 4525 4313 4306 
L 4313 3634 
Q 3963 3931 3569 4081 
Q 3175 4231 2741 4231 
Q 1884 4231 1454 3753 
Q 1025 3275 1025 2328 
Q 1025 1384 1454 906 
Q 1884 428 2741 428 
Q 3075 428 3337 486 
Q 3600 544 3809 666 
z
" transform="scale(0.015625)"/>
       <path id="DejaVuSans-42" d="M 1259 2228 
L 1259 519 
L 2272 519 
Q 2781 519 3026 730 
Q 3272 941 3272 1375 
Q 3272 1813 3026 2020 
Q 2781 2228 2272 2228 
L 1259 2228 
z
M 1259 4147 
L 1259 2741 
L 2194 2741 
Q 2656 2741 2882 2914 
Q 3109 3088 3109 3444 
Q 3109 3797 2882 3972 
Q 2656 4147 2194 4147 
L 1259 4147 
z
M 628 4666 
L 2241 4666 
Q 2963 4666 3353 4366 
Q 3744 4066 3744 3513 
Q 3744 3084 3544 2831 
Q 3344 2578 2956 2516 
Q 3422 2416 3680 2098 
Q 3938 1781 3938 1306 
Q 3938 681 3513 340 
Q 3088 0 2303 0 
L 628 0 
L 628 4666 
z
" transform="scale(0.015625)"/>
      </defs>
      <use xlink:href="#DejaVuSans-58"/>
      <use xlink:href="#DejaVuSans-47" x="68.505859"/>
      <use xlink:href="#DejaVuSans-42" x="145.996094"/>
      <use xlink:href="#DejaVuSans-20" x="214.599609"/>
      <use xlink:href="#DejaVuSans-28" x="246.386719"/>
      <use xlink:href="#DejaVuSans-30" x="285.400391"/>
      <use xlink:href="#DejaVuSans-2e" x="349.023438"/>
      <use xlink:href="#DejaVuSans-34" x="380.810547"/>
      <use xlink:href="#DejaVuSans-34" x="444.433594"/>
      <use xlink:href="#DejaVuSans-29" x="508.056641"/>
     </g>
    </g>
    <g id="line2d_57">
     <path d="M 94.22 547.837112 
L 94.22 547.837112 
L 104.22 547.837112 
L 104.22 547.837112 
L 114.22 547.837112 
" style="fill: none; stroke: #0000ff; stroke-width: 1.5; stroke-linecap: square"/>
    </g>
    <g id="text_27">
     <!-- L2G (0.47) -->
     <g transform="translate(122.22 551.337112)scale(0.1 -0.1)">
      <use xlink:href="#DejaVuSans-4c"/>
      <use xlink:href="#DejaVuSans-32" x="55.712891"/>
      <use xlink:href="#DejaVuSans-47" x="119.335938"/>
      <use xlink:href="#DejaVuSans-20" x="196.826172"/>
      <use xlink:href="#DejaVuSans-28" x="228.613281"/>
      <use xlink:href="#DejaVuSans-30" x="267.626953"/>
      <use xlink:href="#DejaVuSans-2e" x="331.25"/>
      <use xlink:href="#DejaVuSans-34" x="363.037109"/>
      <use xlink:href="#DejaVuSans-37" x="426.660156"/>
      <use xlink:href="#DejaVuSans-29" x="490.283203"/>
     </g>
    </g>
    <g id="line2d_58">
     <path d="M 215.15125 518.480862 
L 215.15125 518.480862 
L 225.15125 518.480862 
L 225.15125 518.480862 
L 235.15125 518.480862 
" style="fill: none; stroke: #bfbf00; stroke-width: 1.5; stroke-linecap: square"/>
    </g>
    <g id="text_28">
     <!-- cS2G (0.34) -->
     <g transform="translate(243.15125 521.980862)scale(0.1 -0.1)">
      <use xlink:href="#DejaVuSans-63"/>
      <use xlink:href="#DejaVuSans-53" x="54.980469"/>
      <use xlink:href="#DejaVuSans-32" x="118.457031"/>
      <use xlink:href="#DejaVuSans-47" x="182.080078"/>
      <use xlink:href="#DejaVuSans-20" x="259.570312"/>
      <use xlink:href="#DejaVuSans-28" x="291.357422"/>
      <use xlink:href="#DejaVuSans-30" x="330.371094"/>
      <use xlink:href="#DejaVuSans-2e" x="393.994141"/>
      <use xlink:href="#DejaVuSans-33" x="425.78125"/>
      <use xlink:href="#DejaVuSans-34" x="489.404297"/>
      <use xlink:href="#DejaVuSans-29" x="553.027344"/>
     </g>
    </g>
    <g id="line2d_59">
     <g>
      <use xlink:href="#madd88b0251" x="225.15125" y="533.158987" style="fill: #ffa500; stroke: #000000; stroke-linejoin: miter"/>
     </g>
    </g>
    <g id="text_29">
     <!-- FLAMES recommended -->
     <g transform="translate(243.15125 536.658987)scale(0.1 -0.1)">
      <use xlink:href="#DejaVuSans-46"/>
      <use xlink:href="#DejaVuSans-4c" x="57.519531"/>
      <use xlink:href="#DejaVuSans-41" x="115.482422"/>
      <use xlink:href="#DejaVuSans-4d" x="183.890625"/>
      <use xlink:href="#DejaVuSans-45" x="270.169922"/>
      <use xlink:href="#DejaVuSans-53" x="333.353516"/>
      <use xlink:href="#DejaVuSans-20" x="396.830078"/>
      <use xlink:href="#DejaVuSans-72" x="428.617188"/>
      <use xlink:href="#DejaVuSans-65" x="467.480469"/>
      <use xlink:href="#DejaVuSans-63" x="529.003906"/>
      <use xlink:href="#DejaVuSans-6f" x="583.984375"/>
      <use xlink:href="#DejaVuSans-6d" x="645.166016"/>
      <use xlink:href="#DejaVuSans-6d" x="742.578125"/>
      <use xlink:href="#DejaVuSans-65" x="839.990234"/>
      <use xlink:href="#DejaVuSans-6e" x="901.513672"/>
      <use xlink:href="#DejaVuSans-64" x="964.892578"/>
      <use xlink:href="#DejaVuSans-65" x="1028.369141"/>
      <use xlink:href="#DejaVuSans-64" x="1089.892578"/>
     </g>
    </g>
    <g id="line2d_60">
     <g>
      <use xlink:href="#m4b3f4e14e4" x="225.15125" y="547.837112" style="fill: #008000; stroke: #000000; stroke-linejoin: miter"/>
     </g>
    </g>
    <g id="text_30">
     <!-- Highest FLAMES -->
     <g transform="translate(243.15125 551.337112)scale(0.1 -0.1)">
      <defs>
       <path id="DejaVuSans-48" d="M 628 4666 
L 1259 4666 
L 1259 2753 
L 3553 2753 
L 3553 4666 
L 4184 4666 
L 4184 0 
L 3553 0 
L 3553 2222 
L 1259 2222 
L 1259 0 
L 628 0 
L 628 4666 
z
" transform="scale(0.015625)"/>
       <path id="DejaVuSans-67" d="M 2906 1791 
Q 2906 2416 2648 2759 
Q 2391 3103 1925 3103 
Q 1463 3103 1205 2759 
Q 947 2416 947 1791 
Q 947 1169 1205 825 
Q 1463 481 1925 481 
Q 2391 481 2648 825 
Q 2906 1169 2906 1791 
z
M 3481 434 
Q 3481 -459 3084 -895 
Q 2688 -1331 1869 -1331 
Q 1566 -1331 1297 -1286 
Q 1028 -1241 775 -1147 
L 775 -588 
Q 1028 -725 1275 -790 
Q 1522 -856 1778 -856 
Q 2344 -856 2625 -561 
Q 2906 -266 2906 331 
L 2906 616 
Q 2728 306 2450 153 
Q 2172 0 1784 0 
Q 1141 0 747 490 
Q 353 981 353 1791 
Q 353 2603 747 3093 
Q 1141 3584 1784 3584 
Q 2172 3584 2450 3431 
Q 2728 3278 2906 2969 
L 2906 3500 
L 3481 3500 
L 3481 434 
z
" transform="scale(0.015625)"/>
       <path id="DejaVuSans-68" d="M 3513 2113 
L 3513 0 
L 2938 0 
L 2938 2094 
Q 2938 2591 2744 2837 
Q 2550 3084 2163 3084 
Q 1697 3084 1428 2787 
Q 1159 2491 1159 1978 
L 1159 0 
L 581 0 
L 581 4863 
L 1159 4863 
L 1159 2956 
Q 1366 3272 1645 3428 
Q 1925 3584 2291 3584 
Q 2894 3584 3203 3211 
Q 3513 2838 3513 2113 
z
" transform="scale(0.015625)"/>
      </defs>
      <use xlink:href="#DejaVuSans-48"/>
      <use xlink:href="#DejaVuSans-69" x="75.195312"/>
      <use xlink:href="#DejaVuSans-67" x="102.978516"/>
      <use xlink:href="#DejaVuSans-68" x="166.455078"/>
      <use xlink:href="#DejaVuSans-65" x="229.833984"/>
      <use xlink:href="#DejaVuSans-73" x="291.357422"/>
      <use xlink:href="#DejaVuSans-74" x="343.457031"/>
      <use xlink:href="#DejaVuSans-20" x="382.666016"/>
      <use xlink:href="#DejaVuSans-46" x="414.453125"/>
      <use xlink:href="#DejaVuSans-4c" x="471.972656"/>
      <use xlink:href="#DejaVuSans-41" x="529.935547"/>
      <use xlink:href="#DejaVuSans-4d" x="598.34375"/>
      <use xlink:href="#DejaVuSans-45" x="684.623047"/>
      <use xlink:href="#DejaVuSans-53" x="747.806641"/>
     </g>
    </g>
    <g id="line2d_61">
     <g>
      <use xlink:href="#mfa5b2ee959" x="388.491875" y="518.480862" style="fill: #0000ff; stroke: #000000"/>
     </g>
    </g>
    <g id="text_31">
     <!-- Highest L2G -->
     <g transform="translate(406.491875 521.980862)scale(0.1 -0.1)">
      <use xlink:href="#DejaVuSans-48"/>
      <use xlink:href="#DejaVuSans-69" x="75.195312"/>
      <use xlink:href="#DejaVuSans-67" x="102.978516"/>
      <use xlink:href="#DejaVuSans-68" x="166.455078"/>
      <use xlink:href="#DejaVuSans-65" x="229.833984"/>
      <use xlink:href="#DejaVuSans-73" x="291.357422"/>
      <use xlink:href="#DejaVuSans-74" x="343.457031"/>
      <use xlink:href="#DejaVuSans-20" x="382.666016"/>
      <use xlink:href="#DejaVuSans-4c" x="414.453125"/>
      <use xlink:href="#DejaVuSans-32" x="470.166016"/>
      <use xlink:href="#DejaVuSans-47" x="533.789062"/>
     </g>
    </g>
    <g id="line2d_62">
     <g>
      <use xlink:href="#mec79509a24" x="388.491875" y="533.158987" style="fill: #ffffff; stroke: #000000; stroke-linejoin: miter"/>
     </g>
    </g>
    <g id="text_32">
     <!-- Highest PoPS -->
     <g transform="translate(406.491875 536.658987)scale(0.1 -0.1)">
      <use xlink:href="#DejaVuSans-48"/>
      <use xlink:href="#DejaVuSans-69" x="75.195312"/>
      <use xlink:href="#DejaVuSans-67" x="102.978516"/>
      <use xlink:href="#DejaVuSans-68" x="166.455078"/>
      <use xlink:href="#DejaVuSans-65" x="229.833984"/>
      <use xlink:href="#DejaVuSans-73" x="291.357422"/>
      <use xlink:href="#DejaVuSans-74" x="343.457031"/>
      <use xlink:href="#DejaVuSans-20" x="382.666016"/>
      <use xlink:href="#DejaVuSans-50" x="414.453125"/>
      <use xlink:href="#DejaVuSans-6f" x="471.130859"/>
      <use xlink:href="#DejaVuSans-50" x="532.3125"/>
      <use xlink:href="#DejaVuSans-53" x="592.615234"/>
     </g>
    </g>
    <g id="line2d_63">
     <g>
      <use xlink:href="#m67237a5ebb" x="388.491875" y="547.837112" style="fill: #808080; stroke: #000000; stroke-linejoin: miter"/>
     </g>
    </g>
    <g id="text_33">
     <!-- Closest+PoPS -->
     <g transform="translate(406.491875 551.337112)scale(0.1 -0.1)">
      <defs>
       <path id="DejaVuSans-2b" d="M 2944 4013 
L 2944 2272 
L 4684 2272 
L 4684 1741 
L 2944 1741 
L 2944 0 
L 2419 0 
L 2419 1741 
L 678 1741 
L 678 2272 
L 2419 2272 
L 2419 4013 
L 2944 4013 
z
" transform="scale(0.015625)"/>
      </defs>
      <use xlink:href="#DejaVuSans-43"/>
      <use xlink:href="#DejaVuSans-6c" x="69.824219"/>
      <use xlink:href="#DejaVuSans-6f" x="97.607422"/>
      <use xlink:href="#DejaVuSans-73" x="158.789062"/>
      <use xlink:href="#DejaVuSans-65" x="210.888672"/>
      <use xlink:href="#DejaVuSans-73" x="272.412109"/>
      <use xlink:href="#DejaVuSans-74" x="324.511719"/>
      <use xlink:href="#DejaVuSans-2b" x="363.720703"/>
      <use xlink:href="#DejaVuSans-50" x="447.509766"/>
      <use xlink:href="#DejaVuSans-6f" x="504.1875"/>
      <use xlink:href="#DejaVuSans-50" x="565.369141"/>
      <use xlink:href="#DejaVuSans-53" x="625.671875"/>
     </g>
    </g>
    <g id="line2d_64">
     <g>
      <use xlink:href="#me5e234aec7" x="505.4075" y="518.480862" style="stroke: #000000; stroke-linejoin: miter"/>
     </g>
    </g>
    <g id="text_34">
     <!-- Closest gene -->
     <g transform="translate(523.4075 521.980862)scale(0.1 -0.1)">
      <use xlink:href="#DejaVuSans-43"/>
      <use xlink:href="#DejaVuSans-6c" x="69.824219"/>
      <use xlink:href="#DejaVuSans-6f" x="97.607422"/>
      <use xlink:href="#DejaVuSans-73" x="158.789062"/>
      <use xlink:href="#DejaVuSans-65" x="210.888672"/>
      <use xlink:href="#DejaVuSans-73" x="272.412109"/>
      <use xlink:href="#DejaVuSans-74" x="324.511719"/>
      <use xlink:href="#DejaVuSans-20" x="363.720703"/>
      <use xlink:href="#DejaVuSans-67" x="395.507812"/>
      <use xlink:href="#DejaVuSans-65" x="458.984375"/>
      <use xlink:href="#DejaVuSans-6e" x="520.507812"/>
      <use xlink:href="#DejaVuSans-65" x="583.886719"/>
     </g>
    </g>
    <g id="line2d_65">
     <g>
      <use xlink:href="#me6ef195427" x="505.4075" y="533.158987" style="fill: #00bfbf; stroke: #000000; stroke-linejoin: miter"/>
     </g>
    </g>
    <g id="text_35">
     <!-- Highest MAGMA-Z -->
     <g transform="translate(523.4075 536.658987)scale(0.1 -0.1)">
      <defs>
       <path id="DejaVuSans-5a" d="M 359 4666 
L 4025 4666 
L 4025 4184 
L 1075 531 
L 4097 531 
L 4097 0 
L 288 0 
L 288 481 
L 3238 4134 
L 359 4134 
L 359 4666 
z
" transform="scale(0.015625)"/>
      </defs>
      <use xlink:href="#DejaVuSans-48"/>
      <use xlink:href="#DejaVuSans-69" x="75.195312"/>
      <use xlink:href="#DejaVuSans-67" x="102.978516"/>
      <use xlink:href="#DejaVuSans-68" x="166.455078"/>
      <use xlink:href="#DejaVuSans-65" x="229.833984"/>
      <use xlink:href="#DejaVuSans-73" x="291.357422"/>
      <use xlink:href="#DejaVuSans-74" x="343.457031"/>
      <use xlink:href="#DejaVuSans-20" x="382.666016"/>
      <use xlink:href="#DejaVuSans-4d" x="414.453125"/>
      <use xlink:href="#DejaVuSans-41" x="500.732422"/>
      <use xlink:href="#DejaVuSans-47" x="567.390625"/>
      <use xlink:href="#DejaVuSans-4d" x="644.880859"/>
      <use xlink:href="#DejaVuSans-41" x="731.160156"/>
      <use xlink:href="#DejaVuSans-2d" x="797.318359"/>
      <use xlink:href="#DejaVuSans-5a" x="833.402344"/>
     </g>
    </g>
    <g id="line2d_66">
     <g>
      <use xlink:href="#m243c802f76" x="505.4075" y="547.837112" style="stroke: #000000"/>
     </g>
    </g>
    <g id="text_36">
     <!-- Random predictor -->
     <g transform="translate(523.4075 551.337112)scale(0.1 -0.1)">
      <use xlink:href="#DejaVuSans-52"/>
      <use xlink:href="#DejaVuSans-61" x="67.232422"/>
      <use xlink:href="#DejaVuSans-6e" x="128.511719"/>
      <use xlink:href="#DejaVuSans-64" x="191.890625"/>
      <use xlink:href="#DejaVuSans-6f" x="255.367188"/>
      <use xlink:href="#DejaVuSans-6d" x="316.548828"/>
      <use xlink:href="#DejaVuSans-20" x="413.960938"/>
      <use xlink:href="#DejaVuSans-70" x="445.748047"/>
      <use xlink:href="#DejaVuSans-72" x="509.224609"/>
      <use xlink:href="#DejaVuSans-65" x="548.087891"/>
      <use xlink:href="#DejaVuSans-64" x="609.611328"/>
      <use xlink:href="#DejaVuSans-69" x="673.087891"/>
      <use xlink:href="#DejaVuSans-63" x="700.871094"/>
      <use xlink:href="#DejaVuSans-74" x="755.851562"/>
      <use xlink:href="#DejaVuSans-6f" x="795.060547"/>
      <use xlink:href="#DejaVuSans-72" x="856.242188"/>
     </g>
    </g>
   </g>
  </g>
 </g>
 <defs>
  <clipPath id="p9424ceadb8">
   <rect x="52.8" y="30.8" width="648.4" height="408.936"/>
  </clipPath>
 </defs>
</svg>
