<?xml version="1.0" encoding="utf-8" standalone="no"?>
<!DOCTYPE svg PUBLIC "-//W3C//DTD SVG 1.1//EN"
  "http://www.w3.org/Graphics/SVG/1.1/DTD/svg11.dtd">
<svg xmlns:xlink="http://www.w3.org/1999/xlink" width="720pt" height="504pt" viewBox="0 0 720 504" xmlns="http://www.w3.org/2000/svg" version="1.1">
 <metadata>
  <rdf:RDF xmlns:dc="http://purl.org/dc/elements/1.1/" xmlns:cc="http://creativecommons.org/ns#" xmlns:rdf="http://www.w3.org/1999/02/22-rdf-syntax-ns#">
   <cc:Work>
    <dc:type rdf:resource="http://purl.org/dc/dcmitype/StillImage"/>
    <dc:date>2023-12-20T08:38:40.145511</dc:date>
    <dc:format>image/svg+xml</dc:format>
    <dc:creator>
     <cc:Agent>
      <dc:title>Matplotlib v3.5.2, https://matplotlib.org/</dc:title>
     </cc:Agent>
    </dc:creator>
   </cc:Work>
  </rdf:RDF>
 </metadata>
 <defs>
  <style type="text/css">*{stroke-linejoin: round; stroke-linecap: butt}</style>
 </defs>
 <g id="figure_1">
  <g id="patch_1">
   <path d="M 0 504 
L 720 504 
L 720 0 
L 0 0 
L 0 504 
z
" style="fill: none"/>
  </g>
  <g id="axes_1">
   <g id="patch_2">
    <path d="M 90 441 
L 648 441 
L 648 60.48 
L 90 60.48 
z
" style="fill: #ffffff"/>
   </g>
   <g id="matplotlib.axis_1">
    <g id="xtick_1">
     <g id="line2d_1">
      <defs>
       <path id="m389a268e17" d="M 0 0 
L 0 3.5 
" style="stroke: #000000; stroke-width: 0.8"/>
      </defs>
      <g>
       <use xlink:href="#m389a268e17" x="90" y="441" style="stroke: #000000; stroke-width: 0.8"/>
      </g>
     </g>
     <g id="text_1">
      <!-- 0.0 -->
      <g transform="translate(82.048438 455.598437)scale(0.1 -0.1)">
       <defs>
        <path id="DejaVuSans-30" d="M 2034 4250 
Q 1547 4250 1301 3770 
Q 1056 3291 1056 2328 
Q 1056 1369 1301 889 
Q 1547 409 2034 409 
Q 2525 409 2770 889 
Q 3016 1369 3016 2328 
Q 3016 3291 2770 3770 
Q 2525 4250 2034 4250 
z
M 2034 4750 
Q 2819 4750 3233 4129 
Q 3647 3509 3647 2328 
Q 3647 1150 3233 529 
Q 2819 -91 2034 -91 
Q 1250 -91 836 529 
Q 422 1150 422 2328 
Q 422 3509 836 4129 
Q 1250 4750 2034 4750 
z
" transform="scale(0.015625)"/>
        <path id="DejaVuSans-2e" d="M 684 794 
L 1344 794 
L 1344 0 
L 684 0 
L 684 794 
z
" transform="scale(0.015625)"/>
       </defs>
       <use xlink:href="#DejaVuSans-30"/>
       <use xlink:href="#DejaVuSans-2e" x="63.623047"/>
       <use xlink:href="#DejaVuSans-30" x="95.410156"/>
      </g>
     </g>
    </g>
    <g id="xtick_2">
     <g id="line2d_2">
      <g>
       <use xlink:href="#m389a268e17" x="201.6" y="441" style="stroke: #000000; stroke-width: 0.8"/>
      </g>
     </g>
     <g id="text_2">
      <!-- 0.2 -->
      <g transform="translate(193.648438 455.598437)scale(0.1 -0.1)">
       <defs>
        <path id="DejaVuSans-32" d="M 1228 531 
L 3431 531 
L 3431 0 
L 469 0 
L 469 531 
Q 828 903 1448 1529 
Q 2069 2156 2228 2338 
Q 2531 2678 2651 2914 
Q 2772 3150 2772 3378 
Q 2772 3750 2511 3984 
Q 2250 4219 1831 4219 
Q 1534 4219 1204 4116 
Q 875 4013 500 3803 
L 500 4441 
Q 881 4594 1212 4672 
Q 1544 4750 1819 4750 
Q 2544 4750 2975 4387 
Q 3406 4025 3406 3419 
Q 3406 3131 3298 2873 
Q 3191 2616 2906 2266 
Q 2828 2175 2409 1742 
Q 1991 1309 1228 531 
z
" transform="scale(0.015625)"/>
       </defs>
       <use xlink:href="#DejaVuSans-30"/>
       <use xlink:href="#DejaVuSans-2e" x="63.623047"/>
       <use xlink:href="#DejaVuSans-32" x="95.410156"/>
      </g>
     </g>
    </g>
    <g id="xtick_3">
     <g id="line2d_3">
      <g>
       <use xlink:href="#m389a268e17" x="313.2" y="441" style="stroke: #000000; stroke-width: 0.8"/>
      </g>
     </g>
     <g id="text_3">
      <!-- 0.4 -->
      <g transform="translate(305.248438 455.598437)scale(0.1 -0.1)">
       <defs>
        <path id="DejaVuSans-34" d="M 2419 4116 
L 825 1625 
L 2419 1625 
L 2419 4116 
z
M 2253 4666 
L 3047 4666 
L 3047 1625 
L 3713 1625 
L 3713 1100 
L 3047 1100 
L 3047 0 
L 2419 0 
L 2419 1100 
L 313 1100 
L 313 1709 
L 2253 4666 
z
" transform="scale(0.015625)"/>
       </defs>
       <use xlink:href="#DejaVuSans-30"/>
       <use xlink:href="#DejaVuSans-2e" x="63.623047"/>
       <use xlink:href="#DejaVuSans-34" x="95.410156"/>
      </g>
     </g>
    </g>
    <g id="xtick_4">
     <g id="line2d_4">
      <g>
       <use xlink:href="#m389a268e17" x="424.8" y="441" style="stroke: #000000; stroke-width: 0.8"/>
      </g>
     </g>
     <g id="text_4">
      <!-- 0.6 -->
      <g transform="translate(416.848438 455.598437)scale(0.1 -0.1)">
       <defs>
        <path id="DejaVuSans-36" d="M 2113 2584 
Q 1688 2584 1439 2293 
Q 1191 2003 1191 1497 
Q 1191 994 1439 701 
Q 1688 409 2113 409 
Q 2538 409 2786 701 
Q 3034 994 3034 1497 
Q 3034 2003 2786 2293 
Q 2538 2584 2113 2584 
z
M 3366 4563 
L 3366 3988 
Q 3128 4100 2886 4159 
Q 2644 4219 2406 4219 
Q 1781 4219 1451 3797 
Q 1122 3375 1075 2522 
Q 1259 2794 1537 2939 
Q 1816 3084 2150 3084 
Q 2853 3084 3261 2657 
Q 3669 2231 3669 1497 
Q 3669 778 3244 343 
Q 2819 -91 2113 -91 
Q 1303 -91 875 529 
Q 447 1150 447 2328 
Q 447 3434 972 4092 
Q 1497 4750 2381 4750 
Q 2619 4750 2861 4703 
Q 3103 4656 3366 4563 
z
" transform="scale(0.015625)"/>
       </defs>
       <use xlink:href="#DejaVuSans-30"/>
       <use xlink:href="#DejaVuSans-2e" x="63.623047"/>
       <use xlink:href="#DejaVuSans-36" x="95.410156"/>
      </g>
     </g>
    </g>
    <g id="xtick_5">
     <g id="line2d_5">
      <g>
       <use xlink:href="#m389a268e17" x="536.4" y="441" style="stroke: #000000; stroke-width: 0.8"/>
      </g>
     </g>
     <g id="text_5">
      <!-- 0.8 -->
      <g transform="translate(528.448438 455.598437)scale(0.1 -0.1)">
       <defs>
        <path id="DejaVuSans-38" d="M 2034 2216 
Q 1584 2216 1326 1975 
Q 1069 1734 1069 1313 
Q 1069 891 1326 650 
Q 1584 409 2034 409 
Q 2484 409 2743 651 
Q 3003 894 3003 1313 
Q 3003 1734 2745 1975 
Q 2488 2216 2034 2216 
z
M 1403 2484 
Q 997 2584 770 2862 
Q 544 3141 544 3541 
Q 544 4100 942 4425 
Q 1341 4750 2034 4750 
Q 2731 4750 3128 4425 
Q 3525 4100 3525 3541 
Q 3525 3141 3298 2862 
Q 3072 2584 2669 2484 
Q 3125 2378 3379 2068 
Q 3634 1759 3634 1313 
Q 3634 634 3220 271 
Q 2806 -91 2034 -91 
Q 1263 -91 848 271 
Q 434 634 434 1313 
Q 434 1759 690 2068 
Q 947 2378 1403 2484 
z
M 1172 3481 
Q 1172 3119 1398 2916 
Q 1625 2713 2034 2713 
Q 2441 2713 2670 2916 
Q 2900 3119 2900 3481 
Q 2900 3844 2670 4047 
Q 2441 4250 2034 4250 
Q 1625 4250 1398 4047 
Q 1172 3844 1172 3481 
z
" transform="scale(0.015625)"/>
       </defs>
       <use xlink:href="#DejaVuSans-30"/>
       <use xlink:href="#DejaVuSans-2e" x="63.623047"/>
       <use xlink:href="#DejaVuSans-38" x="95.410156"/>
      </g>
     </g>
    </g>
    <g id="xtick_6">
     <g id="line2d_6">
      <g>
       <use xlink:href="#m389a268e17" x="648" y="441" style="stroke: #000000; stroke-width: 0.8"/>
      </g>
     </g>
     <g id="text_6">
      <!-- 1.0 -->
      <g transform="translate(640.048437 455.598437)scale(0.1 -0.1)">
       <defs>
        <path id="DejaVuSans-31" d="M 794 531 
L 1825 531 
L 1825 4091 
L 703 3866 
L 703 4441 
L 1819 4666 
L 2450 4666 
L 2450 531 
L 3481 531 
L 3481 0 
L 794 0 
L 794 531 
z
" transform="scale(0.015625)"/>
       </defs>
       <use xlink:href="#DejaVuSans-31"/>
       <use xlink:href="#DejaVuSans-2e" x="63.623047"/>
       <use xlink:href="#DejaVuSans-30" x="95.410156"/>
      </g>
     </g>
    </g>
    <g id="text_7">
     <!-- Recall -->
     <g transform="translate(354.082812 469.276563)scale(0.1 -0.1)">
      <defs>
       <path id="DejaVuSans-52" d="M 2841 2188 
Q 3044 2119 3236 1894 
Q 3428 1669 3622 1275 
L 4263 0 
L 3584 0 
L 2988 1197 
Q 2756 1666 2539 1819 
Q 2322 1972 1947 1972 
L 1259 1972 
L 1259 0 
L 628 0 
L 628 4666 
L 2053 4666 
Q 2853 4666 3247 4331 
Q 3641 3997 3641 3322 
Q 3641 2881 3436 2590 
Q 3231 2300 2841 2188 
z
M 1259 4147 
L 1259 2491 
L 2053 2491 
Q 2509 2491 2742 2702 
Q 2975 2913 2975 3322 
Q 2975 3731 2742 3939 
Q 2509 4147 2053 4147 
L 1259 4147 
z
" transform="scale(0.015625)"/>
       <path id="DejaVuSans-65" d="M 3597 1894 
L 3597 1613 
L 953 1613 
Q 991 1019 1311 708 
Q 1631 397 2203 397 
Q 2534 397 2845 478 
Q 3156 559 3463 722 
L 3463 178 
Q 3153 47 2828 -22 
Q 2503 -91 2169 -91 
Q 1331 -91 842 396 
Q 353 884 353 1716 
Q 353 2575 817 3079 
Q 1281 3584 2069 3584 
Q 2775 3584 3186 3129 
Q 3597 2675 3597 1894 
z
M 3022 2063 
Q 3016 2534 2758 2815 
Q 2500 3097 2075 3097 
Q 1594 3097 1305 2825 
Q 1016 2553 972 2059 
L 3022 2063 
z
" transform="scale(0.015625)"/>
       <path id="DejaVuSans-63" d="M 3122 3366 
L 3122 2828 
Q 2878 2963 2633 3030 
Q 2388 3097 2138 3097 
Q 1578 3097 1268 2742 
Q 959 2388 959 1747 
Q 959 1106 1268 751 
Q 1578 397 2138 397 
Q 2388 397 2633 464 
Q 2878 531 3122 666 
L 3122 134 
Q 2881 22 2623 -34 
Q 2366 -91 2075 -91 
Q 1284 -91 818 406 
Q 353 903 353 1747 
Q 353 2603 823 3093 
Q 1294 3584 2113 3584 
Q 2378 3584 2631 3529 
Q 2884 3475 3122 3366 
z
" transform="scale(0.015625)"/>
       <path id="DejaVuSans-61" d="M 2194 1759 
Q 1497 1759 1228 1600 
Q 959 1441 959 1056 
Q 959 750 1161 570 
Q 1363 391 1709 391 
Q 2188 391 2477 730 
Q 2766 1069 2766 1631 
L 2766 1759 
L 2194 1759 
z
M 3341 1997 
L 3341 0 
L 2766 0 
L 2766 531 
Q 2569 213 2275 61 
Q 1981 -91 1556 -91 
Q 1019 -91 701 211 
Q 384 513 384 1019 
Q 384 1609 779 1909 
Q 1175 2209 1959 2209 
L 2766 2209 
L 2766 2266 
Q 2766 2663 2505 2880 
Q 2244 3097 1772 3097 
Q 1472 3097 1187 3025 
Q 903 2953 641 2809 
L 641 3341 
Q 956 3463 1253 3523 
Q 1550 3584 1831 3584 
Q 2591 3584 2966 3190 
Q 3341 2797 3341 1997 
z
" transform="scale(0.015625)"/>
       <path id="DejaVuSans-6c" d="M 603 4863 
L 1178 4863 
L 1178 0 
L 603 0 
L 603 4863 
z
" transform="scale(0.015625)"/>
      </defs>
      <use xlink:href="#DejaVuSans-52"/>
      <use xlink:href="#DejaVuSans-65" x="64.982422"/>
      <use xlink:href="#DejaVuSans-63" x="126.505859"/>
      <use xlink:href="#DejaVuSans-61" x="181.486328"/>
      <use xlink:href="#DejaVuSans-6c" x="242.765625"/>
      <use xlink:href="#DejaVuSans-6c" x="270.548828"/>
     </g>
    </g>
   </g>
   <g id="matplotlib.axis_2">
    <g id="ytick_1">
     <g id="line2d_7">
      <defs>
       <path id="m250768981b" d="M 0 0 
L -3.5 0 
" style="stroke: #000000; stroke-width: 0.8"/>
      </defs>
      <g>
       <use xlink:href="#m250768981b" x="90" y="441" style="stroke: #000000; stroke-width: 0.8"/>
      </g>
     </g>
     <g id="text_8">
      <!-- 0.0 -->
      <g transform="translate(67.096875 444.799219)scale(0.1 -0.1)">
       <use xlink:href="#DejaVuSans-30"/>
       <use xlink:href="#DejaVuSans-2e" x="63.623047"/>
       <use xlink:href="#DejaVuSans-30" x="95.410156"/>
      </g>
     </g>
    </g>
    <g id="ytick_2">
     <g id="line2d_8">
      <g>
       <use xlink:href="#m250768981b" x="90" y="368.52" style="stroke: #000000; stroke-width: 0.8"/>
      </g>
     </g>
     <g id="text_9">
      <!-- 0.2 -->
      <g transform="translate(67.096875 372.319219)scale(0.1 -0.1)">
       <use xlink:href="#DejaVuSans-30"/>
       <use xlink:href="#DejaVuSans-2e" x="63.623047"/>
       <use xlink:href="#DejaVuSans-32" x="95.410156"/>
      </g>
     </g>
    </g>
    <g id="ytick_3">
     <g id="line2d_9">
      <g>
       <use xlink:href="#m250768981b" x="90" y="296.04" style="stroke: #000000; stroke-width: 0.8"/>
      </g>
     </g>
     <g id="text_10">
      <!-- 0.4 -->
      <g transform="translate(67.096875 299.839219)scale(0.1 -0.1)">
       <use xlink:href="#DejaVuSans-30"/>
       <use xlink:href="#DejaVuSans-2e" x="63.623047"/>
       <use xlink:href="#DejaVuSans-34" x="95.410156"/>
      </g>
     </g>
    </g>
    <g id="ytick_4">
     <g id="line2d_10">
      <g>
       <use xlink:href="#m250768981b" x="90" y="223.56" style="stroke: #000000; stroke-width: 0.8"/>
      </g>
     </g>
     <g id="text_11">
      <!-- 0.6 -->
      <g transform="translate(67.096875 227.359219)scale(0.1 -0.1)">
       <use xlink:href="#DejaVuSans-30"/>
       <use xlink:href="#DejaVuSans-2e" x="63.623047"/>
       <use xlink:href="#DejaVuSans-36" x="95.410156"/>
      </g>
     </g>
    </g>
    <g id="ytick_5">
     <g id="line2d_11">
      <g>
       <use xlink:href="#m250768981b" x="90" y="151.08" style="stroke: #000000; stroke-width: 0.8"/>
      </g>
     </g>
     <g id="text_12">
      <!-- 0.8 -->
      <g transform="translate(67.096875 154.879219)scale(0.1 -0.1)">
       <use xlink:href="#DejaVuSans-30"/>
       <use xlink:href="#DejaVuSans-2e" x="63.623047"/>
       <use xlink:href="#DejaVuSans-38" x="95.410156"/>
      </g>
     </g>
    </g>
    <g id="ytick_6">
     <g id="line2d_12">
      <g>
       <use xlink:href="#m250768981b" x="90" y="78.6" style="stroke: #000000; stroke-width: 0.8"/>
      </g>
     </g>
     <g id="text_13">
      <!-- 1.0 -->
      <g transform="translate(67.096875 82.399219)scale(0.1 -0.1)">
       <use xlink:href="#DejaVuSans-31"/>
       <use xlink:href="#DejaVuSans-2e" x="63.623047"/>
       <use xlink:href="#DejaVuSans-30" x="95.410156"/>
      </g>
     </g>
    </g>
    <g id="text_14">
     <!-- Precision -->
     <g transform="translate(61.017187 273.047031)rotate(-90)scale(0.1 -0.1)">
      <defs>
       <path id="DejaVuSans-50" d="M 1259 4147 
L 1259 2394 
L 2053 2394 
Q 2494 2394 2734 2622 
Q 2975 2850 2975 3272 
Q 2975 3691 2734 3919 
Q 2494 4147 2053 4147 
L 1259 4147 
z
M 628 4666 
L 2053 4666 
Q 2838 4666 3239 4311 
Q 3641 3956 3641 3272 
Q 3641 2581 3239 2228 
Q 2838 1875 2053 1875 
L 1259 1875 
L 1259 0 
L 628 0 
L 628 4666 
z
" transform="scale(0.015625)"/>
       <path id="DejaVuSans-72" d="M 2631 2963 
Q 2534 3019 2420 3045 
Q 2306 3072 2169 3072 
Q 1681 3072 1420 2755 
Q 1159 2438 1159 1844 
L 1159 0 
L 581 0 
L 581 3500 
L 1159 3500 
L 1159 2956 
Q 1341 3275 1631 3429 
Q 1922 3584 2338 3584 
Q 2397 3584 2469 3576 
Q 2541 3569 2628 3553 
L 2631 2963 
z
" transform="scale(0.015625)"/>
       <path id="DejaVuSans-69" d="M 603 3500 
L 1178 3500 
L 1178 0 
L 603 0 
L 603 3500 
z
M 603 4863 
L 1178 4863 
L 1178 4134 
L 603 4134 
L 603 4863 
z
" transform="scale(0.015625)"/>
       <path id="DejaVuSans-73" d="M 2834 3397 
L 2834 2853 
Q 2591 2978 2328 3040 
Q 2066 3103 1784 3103 
Q 1356 3103 1142 2972 
Q 928 2841 928 2578 
Q 928 2378 1081 2264 
Q 1234 2150 1697 2047 
L 1894 2003 
Q 2506 1872 2764 1633 
Q 3022 1394 3022 966 
Q 3022 478 2636 193 
Q 2250 -91 1575 -91 
Q 1294 -91 989 -36 
Q 684 19 347 128 
L 347 722 
Q 666 556 975 473 
Q 1284 391 1588 391 
Q 1994 391 2212 530 
Q 2431 669 2431 922 
Q 2431 1156 2273 1281 
Q 2116 1406 1581 1522 
L 1381 1569 
Q 847 1681 609 1914 
Q 372 2147 372 2553 
Q 372 3047 722 3315 
Q 1072 3584 1716 3584 
Q 2034 3584 2315 3537 
Q 2597 3491 2834 3397 
z
" transform="scale(0.015625)"/>
       <path id="DejaVuSans-6f" d="M 1959 3097 
Q 1497 3097 1228 2736 
Q 959 2375 959 1747 
Q 959 1119 1226 758 
Q 1494 397 1959 397 
Q 2419 397 2687 759 
Q 2956 1122 2956 1747 
Q 2956 2369 2687 2733 
Q 2419 3097 1959 3097 
z
M 1959 3584 
Q 2709 3584 3137 3096 
Q 3566 2609 3566 1747 
Q 3566 888 3137 398 
Q 2709 -91 1959 -91 
Q 1206 -91 779 398 
Q 353 888 353 1747 
Q 353 2609 779 3096 
Q 1206 3584 1959 3584 
z
" transform="scale(0.015625)"/>
       <path id="DejaVuSans-6e" d="M 3513 2113 
L 3513 0 
L 2938 0 
L 2938 2094 
Q 2938 2591 2744 2837 
Q 2550 3084 2163 3084 
Q 1697 3084 1428 2787 
Q 1159 2491 1159 1978 
L 1159 0 
L 581 0 
L 581 3500 
L 1159 3500 
L 1159 2956 
Q 1366 3272 1645 3428 
Q 1925 3584 2291 3584 
Q 2894 3584 3203 3211 
Q 3513 2838 3513 2113 
z
" transform="scale(0.015625)"/>
      </defs>
      <use xlink:href="#DejaVuSans-50"/>
      <use xlink:href="#DejaVuSans-72" x="58.552734"/>
      <use xlink:href="#DejaVuSans-65" x="97.416016"/>
      <use xlink:href="#DejaVuSans-63" x="158.939453"/>
      <use xlink:href="#DejaVuSans-69" x="213.919922"/>
      <use xlink:href="#DejaVuSans-73" x="241.703125"/>
      <use xlink:href="#DejaVuSans-69" x="293.802734"/>
      <use xlink:href="#DejaVuSans-6f" x="321.585938"/>
      <use xlink:href="#DejaVuSans-6e" x="382.767578"/>
     </g>
    </g>
   </g>
   <g id="line2d_13">
    <path d="M 90 78.6 
L 148.73508 78.6 
L 148.73508 106.475808 
L 148.73508 104.486232 
L 153.63432 104.486232 
L 153.63432 102.761208 
L 158.52798 102.761208 
L 158.52798 101.25 
L 163.42164 101.25 
L 163.42164 99.916368 
L 168.3153 99.916368 
L 168.3153 98.734944 
L 173.20896 98.734944 
L 173.20896 97.673112 
L 178.10262 97.673112 
L 178.10262 96.72 
L 183.00186 96.72 
L 183.00186 113.114976 
L 183.00186 111.545784 
L 187.89552 111.545784 
L 187.89552 110.114304 
L 192.78918 110.114304 
L 192.78918 108.798792 
L 197.68284 108.798792 
L 197.68284 107.592 
L 202.5765 107.592 
L 202.5765 106.475808 
L 207.47574 106.475808 
L 207.47574 105.442968 
L 212.3694 105.442968 
L 212.3694 128.585832 
L 212.3694 126.918792 
L 217.26306 126.918792 
L 217.26306 125.360472 
L 222.15672 125.360472 
L 222.15672 123.9 
L 227.05038 123.9 
L 227.05038 122.526504 
L 231.94962 122.526504 
L 231.94962 121.23636 
L 236.84328 121.23636 
L 236.84328 120.018696 
L 241.73694 120.018696 
L 241.73694 118.866264 
L 246.6306 118.866264 
L 246.6306 127.574736 
L 246.6306 126.284592 
L 251.52426 126.284592 
L 251.52426 134.35524 
L 251.52426 132.96 
L 256.4235 132.96 
L 256.4235 131.633616 
L 261.31716 131.633616 
L 261.31716 130.372464 
L 266.21082 130.372464 
L 266.21082 129.165672 
L 271.10448 129.165672 
L 271.10448 128.016864 
L 275.99814 128.016864 
L 275.99814 125.867832 
L 285.79104 125.867832 
L 285.79104 124.863984 
L 290.6847 124.863984 
L 290.6847 123.9 
L 295.57836 123.9 
L 295.57836 122.97588 
L 300.47202 122.97588 
L 300.47202 129.336 
L 300.47202 128.3394 
L 305.36568 128.3394 
L 305.36568 127.386288 
L 310.26492 127.386288 
L 310.26492 139.001208 
L 310.26492 137.903136 
L 315.15858 137.903136 
L 315.15858 157.121208 
L 320.05224 157.121208 
L 320.05224 155.831064 
L 324.9459 155.831064 
L 324.9459 154.588032 
L 329.83956 154.588032 
L 329.83956 153.38124 
L 334.7388 153.38124 
L 334.7388 152.210688 
L 339.63246 152.210688 
L 339.63246 151.08 
L 344.52612 151.08 
L 344.52612 149.981928 
L 349.41978 149.981928 
L 349.41978 148.916472 
L 354.31344 148.916472 
L 354.31344 147.883632 
L 359.21268 147.883632 
L 359.21268 156.258696 
L 359.21268 155.164248 
L 364.10634 155.164248 
L 364.10634 154.098792 
L 369 154.098792 
L 369 153.065952 
L 373.89366 153.065952 
L 373.89366 171.522984 
L 373.89366 170.345184 
L 378.78732 170.345184 
L 378.78732 169.2 
L 383.68656 169.2 
L 383.68656 172.555824 
L 383.68656 171.41064 
L 388.58022 171.41064 
L 388.58022 177.828744 
L 388.58022 176.661816 
L 393.47388 176.661816 
L 393.47388 179.734968 
L 393.47388 178.571664 
L 398.36754 178.571664 
L 398.36754 181.554216 
L 398.36754 180.39816 
L 403.2612 180.39816 
L 403.2612 179.267472 
L 408.16044 179.267472 
L 408.16044 207.773856 
L 408.16044 206.505456 
L 413.0541 206.505456 
L 413.0541 208.781328 
L 413.0541 207.531048 
L 417.94776 207.531048 
L 417.94776 212.822088 
L 422.84142 212.822088 
L 422.84142 211.589928 
L 427.73508 211.589928 
L 427.73508 217.736232 
L 427.73508 216.504072 
L 432.63432 216.504072 
L 432.63432 220.40712 
L 432.63432 219.185832 
L 437.52798 219.185832 
L 437.52798 236.791224 
L 437.52798 235.544568 
L 442.42164 235.544568 
L 442.42164 233.112864 
L 452.20896 233.112864 
L 452.20896 244.042848 
L 457.10262 244.042848 
L 457.10262 245.459832 
L 457.10262 244.267536 
L 462.00186 244.267536 
L 462.00186 254.903976 
L 462.00186 253.718928 
L 466.89552 253.718928 
L 466.89552 252.552 
L 471.78918 252.552 
L 471.78918 255.030816 
L 471.78918 253.878384 
L 476.68284 253.878384 
L 476.68284 264.27564 
L 476.68284 263.13408 
L 481.5765 263.13408 
L 481.5765 265.29036 
L 481.5765 264.16692 
L 486.47574 264.16692 
L 486.47574 272.295552 
L 486.47574 271.190232 
L 491.3694 271.190232 
L 491.3694 270.095784 
L 496.26306 270.095784 
L 496.26306 269.012208 
L 501.15672 269.012208 
L 501.15672 270.936552 
L 501.15672 269.867472 
L 506.05038 269.867472 
L 506.05038 278.873112 
L 506.05038 277.825776 
L 510.94962 277.825776 
L 510.94962 278.673792 
L 510.94962 278.48172 
L 515.84328 278.48172 
L 515.84328 280.137888 
L 515.84328 279.11592 
L 520.73694 279.11592 
L 520.73694 287.675808 
L 520.73694 286.675584 
L 525.6306 286.675584 
L 525.6306 297.011232 
L 525.6306 296.681448 
L 530.52426 296.681448 
L 530.52426 295.721088 
L 535.4235 295.721088 
L 535.4235 303.588792 
L 535.4235 302.657424 
L 540.31716 302.657424 
L 540.31716 304.915176 
L 540.31716 303.99468 
L 545.21082 303.99468 
L 545.21082 308.310864 
L 545.21082 307.408488 
L 550.10448 307.408488 
L 550.10448 309.977904 
L 550.10448 309.59376 
L 554.99814 309.59376 
L 554.99814 313.96068 
L 554.99814 313.094544 
L 559.89738 313.094544 
L 559.89738 318.066672 
L 559.89738 317.22228 
L 564.79104 317.22228 
L 564.79104 321.839256 
L 564.79104 321.016608 
L 569.6847 321.016608 
L 569.6847 321.418872 
L 569.6847 320.607096 
L 574.57836 320.607096 
L 574.57836 327.101304 
L 574.57836 327.036072 
L 579.47202 327.036072 
L 579.47202 328.80096 
L 579.47202 328.029048 
L 584.36568 328.029048 
L 584.36568 339.607728 
L 584.36568 339.169224 
L 589.26492 339.169224 
L 589.26492 344.485632 
L 589.26492 343.793448 
L 594.15858 343.793448 
L 594.15858 348.60612 
L 594.15858 347.939304 
L 599.05224 347.939304 
L 599.05224 361.485816 
L 599.05224 361.058184 
L 603.9459 361.058184 
L 603.9459 362.544024 
L 603.9459 362.442552 
L 608.83956 362.442552 
L 608.83956 364.1712 
L 608.83956 363.602232 
L 613.7388 363.602232 
L 613.7388 365.997696 
L 613.7388 365.443224 
L 618.63246 365.443224 
L 618.63246 365.588184 
L 618.63246 365.033712 
L 623.52612 365.033712 
L 623.52612 371.332224 
L 623.52612 370.817616 
L 628.41978 370.817616 
L 628.41978 387.56412 
L 628.41978 387.150984 
L 633.31344 387.150984 
L 633.31344 387.21984 
L 633.31344 390.017568 
L 633.31344 389.687784 
L 638.21268 389.687784 
L 638.21268 389.753016 
L 638.21268 402.708816 
L 638.21268 402.4044 
L 643.10634 402.4044 
L 643.10634 402.51312 
L 643.10634 405.14052 
L 643.10634 404.854224 
L 648 404.854224 
L 648 404.919456 
" clip-path="url(#pef7dd73796)" style="fill: none; stroke: #ff0000; stroke-opacity: 0.8; stroke-width: 1.5; stroke-linecap: square"/>
   </g>
   <g id="line2d_14">
    <path d="M 90 78.6 
L 134.0541 78.6 
L 134.0541 114.84 
L 134.0541 111.545784 
L 138.94776 111.545784 
L 138.94776 108.798792 
L 143.84142 108.798792 
L 143.84142 106.475808 
L 148.73508 106.475808 
L 148.73508 104.486232 
L 153.63432 104.486232 
L 153.63432 126.918792 
L 153.63432 123.9 
L 158.52798 123.9 
L 158.52798 121.23636 
L 163.42164 121.23636 
L 163.42164 118.866264 
L 168.3153 118.866264 
L 168.3153 116.746224 
L 173.20896 116.746224 
L 173.20896 114.84 
L 178.10262 114.84 
L 178.10262 113.114976 
L 183.00186 113.114976 
L 183.00186 111.545784 
L 187.89552 111.545784 
L 187.89552 151.08 
L 187.89552 148.293144 
L 192.78918 148.293144 
L 192.78918 145.712856 
L 197.68284 145.712856 
L 197.68284 143.313768 
L 202.5765 143.313768 
L 202.5765 141.081384 
L 207.47574 141.081384 
L 207.47574 139.001208 
L 212.3694 139.001208 
L 212.3694 137.051496 
L 217.26306 137.051496 
L 217.26306 146.55 
L 217.26306 144.491568 
L 222.15672 144.491568 
L 222.15672 169.2 
L 222.15672 166.750176 
L 227.05038 166.750176 
L 227.05038 164.430816 
L 231.94962 164.430816 
L 231.94962 162.231048 
L 236.84328 162.231048 
L 236.84328 160.14 
L 241.73694 160.14 
L 241.73694 158.150424 
L 246.6306 158.150424 
L 246.6306 156.258696 
L 251.52426 156.258696 
L 251.52426 154.45032 
L 256.4235 154.45032 
L 256.4235 152.72892 
L 261.31716 152.72892 
L 261.31716 159.132528 
L 261.31716 157.382136 
L 266.21082 157.382136 
L 266.21082 174.748344 
L 266.21082 172.824 
L 271.10448 172.824 
L 271.10448 170.97576 
L 275.99814 170.97576 
L 275.99814 169.2 
L 280.89738 169.2 
L 280.89738 174.32796 
L 280.89738 172.555824 
L 285.79104 172.555824 
L 285.79104 170.84892 
L 290.6847 170.84892 
L 290.6847 180.32568 
L 290.6847 178.571664 
L 295.57836 178.571664 
L 295.57836 187.32 
L 295.57836 185.536992 
L 300.47202 185.536992 
L 300.47202 189.65748 
L 300.47202 187.896216 
L 305.36568 187.896216 
L 305.36568 195.684192 
L 305.36568 193.908432 
L 310.26492 193.908432 
L 310.26492 192.187032 
L 315.15858 192.187032 
L 315.15858 195.847272 
L 315.15858 194.147616 
L 320.05224 194.147616 
L 320.05224 201.102072 
L 320.05224 199.398792 
L 324.9459 199.398792 
L 324.9459 202.711128 
L 324.9459 201.033216 
L 329.83956 201.033216 
L 329.83956 207.346224 
L 329.83956 205.67556 
L 334.7388 205.67556 
L 334.7388 204.04476 
L 339.63246 204.04476 
L 339.63246 209.97 
L 339.63246 206.766384 
L 349.41978 206.766384 
L 349.41978 205.22256 
L 354.31344 205.22256 
L 354.31344 213.445416 
L 354.31344 211.897968 
L 359.21268 211.897968 
L 359.21268 217.044048 
L 359.21268 215.507472 
L 364.10634 215.507472 
L 364.10634 214.003512 
L 369 214.003512 
L 369 216.467832 
L 369 214.985616 
L 373.89366 214.985616 
L 373.89366 217.391952 
L 373.89366 215.93148 
L 378.78732 215.93148 
L 378.78732 214.5 
L 383.68656 214.5 
L 383.68656 219.124224 
L 383.68656 217.703616 
L 388.58022 217.703616 
L 388.58022 222.124896 
L 388.58022 220.718784 
L 393.47388 220.718784 
L 393.47388 222.856944 
L 393.47388 221.468952 
L 398.36754 221.468952 
L 398.36754 223.56 
L 398.36754 222.193752 
L 403.2612 222.193752 
L 403.2612 224.237688 
L 403.2612 222.88956 
L 408.16044 222.88956 
L 408.16044 244.698792 
L 408.16044 243.32892 
L 413.0541 243.32892 
L 413.0541 248.108976 
L 413.0541 246.7536 
L 417.94776 246.7536 
L 417.94776 245.419968 
L 422.84142 245.419968 
L 422.84142 246.960168 
L 422.84142 244.347264 
L 432.63432 244.347264 
L 432.63432 277.336536 
L 432.63432 276.060888 
L 437.52798 276.060888 
L 437.52798 278.148312 
L 437.52798 276.894408 
L 442.42164 276.894408 
L 442.42164 275.655 
L 447.3153 275.655 
L 447.3153 278.69916 
L 447.3153 277.477872 
L 452.20896 277.477872 
L 452.20896 298.352112 
L 452.20896 296.04 
L 462.00186 296.04 
L 462.00186 294.902064 
L 466.89552 294.902064 
L 466.89552 309.372696 
L 466.89552 308.28912 
L 471.78918 308.28912 
L 471.78918 309.524904 
L 471.78918 308.455824 
L 476.68284 308.455824 
L 476.68284 309.669864 
L 476.68284 308.61528 
L 481.5765 308.61528 
L 481.5765 310.992624 
L 481.5765 310.536 
L 486.47574 310.536 
L 486.47574 315.55524 
L 486.47574 315.080496 
L 491.3694 315.080496 
L 491.3694 319.208232 
L 491.3694 318.72624 
L 496.26306 318.72624 
L 496.26306 321.161568 
L 496.26306 320.201208 
L 501.15672 320.201208 
L 501.15672 322.54956 
L 501.15672 321.603696 
L 506.05038 321.603696 
L 506.05038 323.426568 
L 506.05038 322.4952 
L 510.94962 322.4952 
L 510.94962 339.810672 
L 510.94962 339.622224 
L 515.84328 339.622224 
L 515.84328 358.4634 
L 515.84328 357.948792 
L 520.73694 357.948792 
L 520.73694 360.05796 
L 520.73694 359.5506 
L 525.6306 359.5506 
L 525.6306 360.366 
L 525.6306 359.865888 
L 530.52426 359.865888 
L 530.52426 360.065208 
L 530.52426 359.3694 
L 535.4235 359.3694 
L 535.4235 361.148784 
L 535.4235 360.659544 
L 540.31716 360.659544 
L 540.31716 361.61628 
L 540.31716 361.134288 
L 545.21082 361.134288 
L 545.21082 363.163728 
L 545.21082 362.507784 
L 550.10448 362.507784 
L 550.10448 363.576864 
L 550.10448 363.109368 
L 554.99814 363.109368 
L 554.99814 364.830768 
L 554.99814 364.703928 
L 559.89738 364.703928 
L 559.89738 365.0772 
L 564.79104 365.0772 
L 564.79104 368.965752 
L 564.79104 368.813544 
L 569.6847 368.813544 
L 569.6847 373.093488 
L 569.6847 372.662232 
L 574.57836 372.662232 
L 574.57836 373.814664 
L 574.57836 373.640712 
L 579.47202 373.640712 
L 579.47202 380.091432 
L 579.47202 379.392 
L 594.15858 379.3014 
L 594.15858 379.112952 
L 599.05224 379.112952 
L 599.05224 378.823032 
L 603.9459 378.823032 
L 603.9459 385.487568 
L 608.83956 385.487568 
L 608.83956 386.2776 
L 608.83956 386.074656 
L 618.63246 386.107272 
L 618.63246 389.365248 
L 623.52612 389.365248 
L 623.52612 392.652216 
L 623.52612 392.561616 
L 628.41978 392.561616 
L 628.41978 392.7102 
L 633.31344 392.7102 
L 633.31344 394.398984 
L 638.21268 394.398984 
L 638.21268 395.547792 
L 643.10634 395.547792 
L 643.10634 404.825232 
L 643.10634 404.665776 
L 648 404.665776 
L 648 404.76 
L 648 404.919456 
L 648 404.919456 
" clip-path="url(#pef7dd73796)" style="fill: none; stroke: #0000ff; stroke-opacity: 0.8; stroke-width: 1.5; stroke-linecap: square"/>
   </g>
   <g id="line2d_15">
    <path d="M 90 78.6 
L 124.2612 78.6 
L 124.2612 118.866264 
L 129.16044 118.866264 
L 129.16044 114.84 
L 134.0541 114.84 
L 134.0541 111.545784 
L 138.94776 111.545784 
L 138.94776 108.798792 
L 143.84142 108.798792 
L 143.84142 106.475808 
L 148.73508 106.475808 
L 148.73508 104.486232 
L 153.63432 104.486232 
L 153.63432 102.761208 
L 158.52798 102.761208 
L 158.52798 139.001208 
L 163.42164 139.001208 
L 163.42164 135.819336 
L 168.3153 135.819336 
L 168.3153 151.08 
L 168.3153 147.629952 
L 173.20896 147.629952 
L 173.20896 141.624984 
L 183.00186 141.624984 
L 183.00186 139.001208 
L 187.89552 139.001208 
L 187.89552 136.584 
L 192.78918 136.584 
L 192.78918 134.35524 
L 197.68284 134.35524 
L 197.68284 132.28956 
L 202.5765 132.28956 
L 202.5765 130.372464 
L 207.47574 130.372464 
L 207.47574 128.585832 
L 212.3694 128.585832 
L 212.3694 139.001208 
L 212.3694 137.051496 
L 217.26306 137.051496 
L 217.26306 135.225 
L 222.15672 135.225 
L 222.15672 133.510848 
L 227.05038 133.510848 
L 227.05038 142.552728 
L 227.05038 140.726232 
L 231.94962 140.726232 
L 231.94962 171.522984 
L 231.94962 169.2 
L 236.84328 169.2 
L 236.84328 188.164392 
L 236.84328 185.67108 
L 241.73694 185.67108 
L 241.73694 183.293736 
L 246.6306 183.293736 
L 246.6306 181.017864 
L 251.52426 181.017864 
L 251.52426 201.816 
L 251.52426 199.398792 
L 256.4235 199.398792 
L 256.4235 197.075808 
L 261.31716 197.075808 
L 261.31716 194.8398 
L 266.21082 194.8398 
L 266.21082 192.687144 
L 271.10448 192.687144 
L 271.10448 197.202648 
L 271.10448 195.086232 
L 275.99814 195.086232 
L 275.99814 193.042296 
L 280.89738 193.042296 
L 280.89738 201.446352 
L 280.89738 199.398792 
L 285.79104 199.398792 
L 285.79104 203.359824 
L 285.79104 201.348504 
L 290.6847 201.348504 
L 290.6847 199.398792 
L 295.57836 199.398792 
L 295.57836 206.83524 
L 295.57836 204.889152 
L 300.47202 204.889152 
L 300.47202 211.83636 
L 300.47202 209.904768 
L 305.36568 209.904768 
L 305.36568 208.027536 
L 310.26492 208.027536 
L 310.26492 214.5 
L 310.26492 212.637264 
L 315.15858 212.637264 
L 315.15858 210.825264 
L 320.05224 210.825264 
L 320.05224 213.894792 
L 320.05224 212.115408 
L 324.9459 212.115408 
L 324.9459 217.986288 
L 324.9459 216.2214 
L 329.83956 216.2214 
L 329.83956 224.444256 
L 329.83956 222.686616 
L 334.7388 222.686616 
L 334.7388 220.972464 
L 339.63246 220.972464 
L 339.63246 219.298176 
L 344.52612 219.298176 
L 344.52612 217.660128 
L 349.41978 217.660128 
L 349.41978 220.22592 
L 349.41978 218.616864 
L 354.31344 218.616864 
L 354.31344 217.044048 
L 359.21268 217.044048 
L 359.21268 219.533736 
L 359.21268 217.986288 
L 364.10634 217.986288 
L 364.10634 216.467832 
L 369 216.467832 
L 369 218.88504 
L 369 217.391952 
L 373.89366 217.391952 
L 373.89366 222.048792 
L 373.89366 220.5702 
L 378.78732 220.5702 
L 378.78732 227.184 
L 378.78732 225.712656 
L 383.68656 225.712656 
L 383.68656 233.913768 
L 383.68656 232.449672 
L 388.58022 232.449672 
L 388.58022 231.010944 
L 393.47388 231.010944 
L 393.47388 232.957032 
L 393.47388 231.540048 
L 398.36754 231.540048 
L 398.36754 233.442648 
L 398.36754 232.047408 
L 403.2612 232.047408 
L 403.2612 233.913768 
L 403.2612 232.540272 
L 408.16044 232.540272 
L 408.16044 231.18852 
L 413.0541 231.18852 
L 413.0541 229.862136 
L 417.94776 229.862136 
L 417.94776 233.47164 
L 417.94776 232.159752 
L 422.84142 232.159752 
L 422.84142 233.913768 
L 422.84142 232.62 
L 427.73508 232.62 
L 427.73508 236.037432 
L 427.73508 234.754536 
L 432.63432 234.754536 
L 432.63432 238.056 
L 432.63432 236.791224 
L 437.52798 236.791224 
L 437.52798 240.28476 
L 442.42164 240.28476 
L 442.42164 249.141816 
L 442.42164 247.89516 
L 447.3153 247.89516 
L 447.3153 259.8 
L 447.3153 258.56784 
L 452.20896 258.56784 
L 452.20896 287.755536 
L 452.20896 286.566864 
L 457.10262 286.566864 
L 457.10262 289.998792 
L 457.10262 288.831864 
L 462.00186 288.831864 
L 462.00186 293.713392 
L 462.00186 292.571832 
L 466.89552 292.571832 
L 466.89552 291.43752 
L 471.78918 291.43752 
L 471.78918 296.04 
L 471.78918 295.670352 
L 476.68284 295.670352 
L 476.68284 296.406024 
L 476.68284 295.311576 
L 481.5765 295.311576 
L 481.5765 299.577024 
L 481.5765 298.50432 
L 486.47574 298.50432 
L 486.47574 311.112216 
L 486.47574 310.090248 
L 491.3694 310.090248 
L 491.3694 311.231808 
L 491.3694 310.220712 
L 496.26306 310.220712 
L 496.26306 311.347776 
L 496.26306 310.347552 
L 501.15672 310.347552 
L 501.15672 314.68548 
L 501.15672 313.710624 
L 506.05038 313.710624 
L 506.05038 314.754336 
L 506.05038 313.790352 
L 510.94962 313.790352 
L 510.94962 314.308584 
L 510.94962 313.351848 
L 515.84328 313.351848 
L 515.84328 318.320352 
L 515.84328 317.388984 
L 520.73694 317.388984 
L 520.73694 316.468488 
L 525.6306 316.468488 
L 525.6306 316.946856 
L 525.6306 316.033608 
L 530.52426 316.033608 
L 530.52426 320.64696 
L 530.52426 320.201208 
L 535.4235 320.201208 
L 535.4235 324.47028 
L 535.4235 324.013656 
L 540.31716 324.013656 
L 540.31716 338.411808 
L 540.31716 337.614528 
L 545.21082 337.614528 
L 545.21082 347.638512 
L 545.21082 346.895592 
L 550.10448 346.895592 
L 550.10448 348.93228 
L 550.10448 348.203856 
L 554.99814 348.203856 
L 554.99814 350.160816 
L 554.99814 349.446888 
L 559.89738 349.446888 
L 559.89738 355.096704 
L 559.89738 354.415392 
L 564.79104 354.415392 
L 564.79104 355.676544 
L 564.79104 355.216296 
L 569.6847 355.216296 
L 569.6847 357.825576 
L 569.6847 357.368952 
L 574.57836 357.368952 
L 574.57836 365.628048 
L 574.57836 365.026464 
L 579.47202 365.026464 
L 579.47202 368.951256 
L 579.47202 368.66496 
L 584.36568 368.66496 
L 584.36568 375.17004 
L 584.36568 374.637312 
L 589.26492 374.637312 
L 589.26492 376.264488 
L 589.26492 375.742632 
L 594.15858 375.742632 
L 594.15858 376.195632 
L 594.15858 375.793368 
L 599.05224 375.793368 
L 599.05224 376.018056 
L 599.05224 375.507072 
L 603.9459 375.507072 
L 603.9459 385.451328 
L 603.9459 385.165032 
L 608.83956 385.165032 
L 608.83956 385.24476 
L 608.83956 388.30704 
L 608.83956 387.879408 
L 613.7388 387.879408 
L 613.7388 387.955512 
L 613.7388 389.227536 
L 613.7388 388.8144 
L 618.63246 388.8144 
L 618.63246 388.883256 
L 618.63246 389.227536 
L 618.63246 388.818024 
L 623.52612 388.818024 
L 623.52612 396.0624 
L 623.52612 395.7 
L 628.41978 395.7 
L 628.41978 395.801472 
L 628.41978 398.860128 
L 628.41978 398.523096 
L 633.31344 398.523096 
L 633.31344 398.610072 
L 633.31344 399.0522 
L 633.31344 398.76228 
L 638.21268 398.76228 
L 638.21268 398.85288 
L 638.21268 403.556832 
L 638.21268 403.25604 
L 643.10634 403.25604 
L 643.10634 403.361136 
L 643.10634 405.14052 
L 643.10634 404.88684 
L 648 404.88684 
L 648 404.919456 
" clip-path="url(#pef7dd73796)" style="fill: none; stroke: #337538; stroke-opacity: 0.8; stroke-width: 1.5; stroke-linecap: square"/>
   </g>
   <g id="line2d_16">
    <path d="M 90 441 
L 90 320.201208 
L 94.89366 320.201208 
L 94.89366 259.8 
L 99.78732 259.8 
L 99.78732 223.56 
L 104.68656 223.56 
L 104.68656 199.398792 
L 109.58022 199.398792 
L 109.58022 182.141304 
L 114.47388 182.141304 
L 114.47388 239.665056 
L 114.47388 223.56 
L 119.36754 223.56 
L 119.36754 210.383136 
L 124.2612 210.383136 
L 124.2612 199.398792 
L 129.16044 199.398792 
L 129.16044 190.106856 
L 134.0541 190.106856 
L 134.0541 223.56 
L 134.0541 214.5 
L 138.94776 214.5 
L 138.94776 206.505456 
L 143.84142 206.505456 
L 143.84142 199.398792 
L 148.73508 199.398792 
L 148.73508 223.56 
L 148.73508 216.65628 
L 153.63432 216.65628 
L 153.63432 226.854216 
L 153.63432 220.40712 
L 158.52798 220.40712 
L 158.52798 245.862096 
L 158.52798 239.665056 
L 163.42164 239.665056 
L 163.42164 246.858696 
L 163.42164 241.056672 
L 168.3153 241.056672 
L 168.3153 273.737904 
L 178.10262 273.737904 
L 178.10262 284.508432 
L 183.00186 284.508432 
L 183.00186 294.496176 
L 183.00186 289.998792 
L 187.89552 289.998792 
L 187.89552 288.792 
L 192.78918 288.792 
L 192.78918 300.066264 
L 192.78918 296.04 
L 197.68284 296.04 
L 197.68284 301.128096 
L 197.68284 297.29028 
L 202.5765 297.29028 
L 202.5765 293.582928 
L 207.47574 293.582928 
L 207.47574 296.04 
L 207.47574 292.473984 
L 212.3694 292.473984 
L 212.3694 289.02756 
L 217.26306 289.02756 
L 217.26306 285.686232 
L 222.15672 285.686232 
L 222.15672 297.105456 
L 222.15672 296.04 
L 227.05038 296.04 
L 227.05038 301.997856 
L 227.05038 298.979064 
L 231.94962 298.979064 
L 231.94962 302.715408 
L 231.94962 299.805336 
L 236.84328 299.805336 
L 236.84328 301.613712 
L 236.84328 296.04 
L 246.6306 296.04 
L 246.6306 307.702032 
L 246.6306 305.1 
L 251.52426 305.1 
L 251.52426 309.579264 
L 251.52426 307.067832 
L 256.4235 307.067832 
L 256.4235 324.7602 
L 256.4235 322.45896 
L 261.31716 322.45896 
L 261.31716 320.201208 
L 266.21082 320.201208 
L 266.21082 317.98332 
L 271.10448 317.98332 
L 271.10448 320.201208 
L 271.10448 318.041304 
L 275.99814 318.041304 
L 275.99814 315.924888 
L 280.89738 315.924888 
L 280.89738 324.194856 
L 280.89738 322.179912 
L 285.79104 322.179912 
L 285.79104 320.201208 
L 290.6847 320.201208 
L 290.6847 318.251496 
L 295.57836 318.251496 
L 295.57836 320.201208 
L 295.57836 318.298608 
L 300.47202 318.298608 
L 300.47202 319.255344 
L 300.47202 317.388984 
L 305.36568 317.388984 
L 305.36568 322.002336 
L 305.36568 320.201208 
L 310.26492 320.201208 
L 310.26492 322.824984 
L 310.26492 321.067344 
L 315.15858 321.067344 
L 315.15858 326.818632 
L 315.15858 325.129848 
L 320.05224 325.129848 
L 320.05224 323.466432 
L 324.9459 323.466432 
L 324.9459 326.557704 
L 324.9459 325.691568 
L 329.83956 325.691568 
L 329.83956 326.434488 
L 329.83956 324.847176 
L 334.7388 324.847176 
L 334.7388 331.84512 
L 334.7388 330.326664 
L 339.63246 330.326664 
L 339.63246 332.28 
L 339.63246 330.797784 
L 344.52612 330.797784 
L 344.52612 333.92892 
L 344.52612 332.482944 
L 349.41978 332.482944 
L 349.41978 338.288592 
L 349.41978 336.907848 
L 354.31344 336.907848 
L 354.31344 335.537976 
L 359.21268 335.537976 
L 359.21268 334.186224 
L 364.10634 334.186224 
L 364.10634 333.968784 
L 369 333.968784 
L 369 332.653272 
L 373.89366 332.653272 
L 373.89366 333.207744 
L 373.89366 332.464824 
L 378.78732 332.464824 
L 378.78732 336.186672 
L 378.78732 335.447376 
L 383.68656 335.447376 
L 383.68656 334.204344 
L 388.58022 334.204344 
L 388.58022 334.718952 
L 388.58022 333.49404 
L 393.47388 333.49404 
L 393.47388 336.976704 
L 393.47388 336.270024 
L 398.36754 336.270024 
L 398.36754 337.223136 
L 398.36754 336.052584 
L 403.2612 336.052584 
L 403.2612 336.523704 
L 403.2612 335.367648 
L 408.16044 335.367648 
L 408.16044 334.222464 
L 413.0541 334.222464 
L 413.0541 338.78508 
L 413.0541 337.676136 
L 417.94776 337.676136 
L 417.94776 338.54952 
L 417.94776 337.458696 
L 422.84142 337.458696 
L 422.84142 336.81 
L 427.73508 336.81 
L 427.73508 335.737296 
L 432.63432 335.737296 
L 432.63432 339.122112 
L 432.63432 338.487912 
L 437.52798 338.487912 
L 437.52798 337.458696 
L 442.42164 337.458696 
L 442.42164 338.274096 
L 442.42164 337.255752 
L 447.3153 337.255752 
L 447.3153 349.142472 
L 447.3153 348.526392 
L 452.20896 348.526392 
L 452.20896 349.472256 
L 452.20896 348.55176 
L 457.10262 348.55176 
L 457.10262 347.950176 
L 462.00186 347.950176 
L 462.00186 347.044176 
L 466.89552 347.044176 
L 466.89552 347.982792 
L 466.89552 347.087664 
L 471.78918 347.087664 
L 471.78918 350.976216 
L 471.78918 350.113704 
L 476.68284 350.113704 
L 476.68284 404.919456 
L 648 404.919456 
L 648 404.919456 
" clip-path="url(#pef7dd73796)" style="fill: none; stroke: #bfbf00; stroke-opacity: 0.8; stroke-width: 1.5; stroke-linecap: square"/>
   </g>
   <g id="line2d_17">
    <defs>
     <path id="m5d3d4c5a2b" d="M 0 3 
C 0.795609 3 1.55874 2.683901 2.12132 2.12132 
C 2.683901 1.55874 3 0.795609 3 0 
C 3 -0.795609 2.683901 -1.55874 2.12132 -2.12132 
C 1.55874 -2.683901 0.795609 -3 0 -3 
C -0.795609 -3 -1.55874 -2.683901 -2.12132 -2.12132 
C -2.683901 -1.55874 -3 -0.795609 -3 0 
C -3 0.795609 -2.683901 1.55874 -2.12132 2.12132 
C -1.55874 2.683901 -0.795609 3 0 3 
z
" style="stroke: #000000"/>
    </defs>
    <g clip-path="url(#pef7dd73796)">
     <use xlink:href="#m5d3d4c5a2b" x="329.142857" y="277.335484" style="stroke: #000000"/>
    </g>
   </g>
   <g id="line2d_18">
    <defs>
     <path id="m8ce78798c6" d="M 0 3 
C 0.795609 3 1.55874 2.683901 2.12132 2.12132 
C 2.683901 1.55874 3 0.795609 3 0 
C 3 -0.795609 2.683901 -1.55874 2.12132 -2.12132 
C 1.55874 -2.683901 0.795609 -3 0 -3 
C -0.795609 -3 -1.55874 -2.683901 -2.12132 -2.12132 
C -2.683901 -1.55874 -3 -0.795609 -3 0 
C -3 0.795609 -2.683901 1.55874 -2.12132 2.12132 
C -1.55874 2.683901 -0.795609 3 0 3 
z
" style="stroke: #008000"/>
    </defs>
    <g clip-path="url(#pef7dd73796)">
     <use xlink:href="#m8ce78798c6" x="398.368421" y="214.948515" style="fill: #008000; stroke: #008000"/>
    </g>
   </g>
   <g id="line2d_19">
    <defs>
     <path id="m5234965b13" d="M 0 3 
C 0.795609 3 1.55874 2.683901 2.12132 2.12132 
C 2.683901 1.55874 3 0.795609 3 0 
C 3 -0.795609 2.683901 -1.55874 2.12132 -2.12132 
C 1.55874 -2.683901 0.795609 -3 0 -3 
C -0.795609 -3 -1.55874 -2.683901 -2.12132 -2.12132 
C -2.683901 -1.55874 -3 -0.795609 -3 0 
C -3 0.795609 -2.683901 1.55874 -2.12132 2.12132 
C -1.55874 2.683901 -0.795609 3 0 3 
z
" style="stroke: #00bfbf"/>
    </defs>
    <g clip-path="url(#pef7dd73796)">
     <use xlink:href="#m5234965b13" x="310.263158" y="288.588785" style="fill: #00bfbf; stroke: #00bfbf"/>
    </g>
   </g>
   <g id="line2d_20">
    <defs>
     <path id="m0de75f2e5d" d="M 0 3 
C 0.795609 3 1.55874 2.683901 2.12132 2.12132 
C 2.683901 1.55874 3 0.795609 3 0 
C 3 -0.795609 2.683901 -1.55874 2.12132 -2.12132 
C 1.55874 -2.683901 0.795609 -3 0 -3 
C -0.795609 -3 -1.55874 -2.683901 -2.12132 -2.12132 
C -2.683901 -1.55874 -3 -0.795609 -3 0 
C -3 0.795609 -2.683901 1.55874 -2.12132 2.12132 
C -1.55874 2.683901 -0.795609 3 0 3 
z
" style="stroke: #0000ff"/>
    </defs>
    <g clip-path="url(#pef7dd73796)">
     <use xlink:href="#m0de75f2e5d" x="141.657642" y="407.450306" style="fill: #0000ff; stroke: #0000ff"/>
    </g>
   </g>
   <g id="line2d_21">
    <path d="M 310.26492 441 
L 310.26492 60.48 
" clip-path="url(#pef7dd73796)" style="fill: none; stroke: #0000ff; stroke-opacity: 0.1; stroke-width: 2; stroke-linecap: square"/>
   </g>
   <g id="patch_3">
    <path d="M 90 441 
L 90 60.48 
" style="fill: none; stroke: #000000; stroke-width: 0.8; stroke-linejoin: miter; stroke-linecap: square"/>
   </g>
   <g id="patch_4">
    <path d="M 648 441 
L 648 60.48 
" style="fill: none; stroke: #000000; stroke-width: 0.8; stroke-linejoin: miter; stroke-linecap: square"/>
   </g>
   <g id="patch_5">
    <path d="M 90 441 
L 648 441 
" style="fill: none; stroke: #000000; stroke-width: 0.8; stroke-linejoin: miter; stroke-linecap: square"/>
   </g>
   <g id="patch_6">
    <path d="M 90 60.48 
L 648 60.48 
" style="fill: none; stroke: #000000; stroke-width: 0.8; stroke-linejoin: miter; stroke-linecap: square"/>
   </g>
   <g id="text_15">
    <!-- Precision-Recall Curve -->
    <g transform="translate(302.5575 54.48)scale(0.12 -0.12)">
     <defs>
      <path id="DejaVuSans-2d" d="M 313 2009 
L 1997 2009 
L 1997 1497 
L 313 1497 
L 313 2009 
z
" transform="scale(0.015625)"/>
      <path id="DejaVuSans-20" transform="scale(0.015625)"/>
      <path id="DejaVuSans-43" d="M 4122 4306 
L 4122 3641 
Q 3803 3938 3442 4084 
Q 3081 4231 2675 4231 
Q 1875 4231 1450 3742 
Q 1025 3253 1025 2328 
Q 1025 1406 1450 917 
Q 1875 428 2675 428 
Q 3081 428 3442 575 
Q 3803 722 4122 1019 
L 4122 359 
Q 3791 134 3420 21 
Q 3050 -91 2638 -91 
Q 1578 -91 968 557 
Q 359 1206 359 2328 
Q 359 3453 968 4101 
Q 1578 4750 2638 4750 
Q 3056 4750 3426 4639 
Q 3797 4528 4122 4306 
z
" transform="scale(0.015625)"/>
      <path id="DejaVuSans-75" d="M 544 1381 
L 544 3500 
L 1119 3500 
L 1119 1403 
Q 1119 906 1312 657 
Q 1506 409 1894 409 
Q 2359 409 2629 706 
Q 2900 1003 2900 1516 
L 2900 3500 
L 3475 3500 
L 3475 0 
L 2900 0 
L 2900 538 
Q 2691 219 2414 64 
Q 2138 -91 1772 -91 
Q 1169 -91 856 284 
Q 544 659 544 1381 
z
M 1991 3584 
L 1991 3584 
z
" transform="scale(0.015625)"/>
      <path id="DejaVuSans-76" d="M 191 3500 
L 800 3500 
L 1894 563 
L 2988 3500 
L 3597 3500 
L 2284 0 
L 1503 0 
L 191 3500 
z
" transform="scale(0.015625)"/>
     </defs>
     <use xlink:href="#DejaVuSans-50"/>
     <use xlink:href="#DejaVuSans-72" x="58.552734"/>
     <use xlink:href="#DejaVuSans-65" x="97.416016"/>
     <use xlink:href="#DejaVuSans-63" x="158.939453"/>
     <use xlink:href="#DejaVuSans-69" x="213.919922"/>
     <use xlink:href="#DejaVuSans-73" x="241.703125"/>
     <use xlink:href="#DejaVuSans-69" x="293.802734"/>
     <use xlink:href="#DejaVuSans-6f" x="321.585938"/>
     <use xlink:href="#DejaVuSans-6e" x="382.767578"/>
     <use xlink:href="#DejaVuSans-2d" x="446.146484"/>
     <use xlink:href="#DejaVuSans-52" x="482.230469"/>
     <use xlink:href="#DejaVuSans-65" x="547.212891"/>
     <use xlink:href="#DejaVuSans-63" x="608.736328"/>
     <use xlink:href="#DejaVuSans-61" x="663.716797"/>
     <use xlink:href="#DejaVuSans-6c" x="724.996094"/>
     <use xlink:href="#DejaVuSans-6c" x="752.779297"/>
     <use xlink:href="#DejaVuSans-20" x="780.5625"/>
     <use xlink:href="#DejaVuSans-43" x="812.349609"/>
     <use xlink:href="#DejaVuSans-75" x="882.173828"/>
     <use xlink:href="#DejaVuSans-72" x="945.552734"/>
     <use xlink:href="#DejaVuSans-76" x="986.666016"/>
     <use xlink:href="#DejaVuSans-65" x="1045.845703"/>
    </g>
   </g>
   <g id="legend_1">
    <g id="line2d_22">
     <path d="M 519.440625 73.578438 
L 519.440625 73.578438 
L 529.440625 73.578438 
L 529.440625 73.578438 
L 539.440625 73.578438 
" style="fill: none; stroke: #ff0000; stroke-opacity: 0.8; stroke-width: 1.5; stroke-linecap: square"/>
    </g>
    <g id="text_16">
     <!-- FLAMES (0.67) -->
     <g transform="translate(547.440625 77.078438)scale(0.1 -0.1)">
      <defs>
       <path id="DejaVuSans-46" d="M 628 4666 
L 3309 4666 
L 3309 4134 
L 1259 4134 
L 1259 2759 
L 3109 2759 
L 3109 2228 
L 1259 2228 
L 1259 0 
L 628 0 
L 628 4666 
z
" transform="scale(0.015625)"/>
       <path id="DejaVuSans-4c" d="M 628 4666 
L 1259 4666 
L 1259 531 
L 3531 531 
L 3531 0 
L 628 0 
L 628 4666 
z
" transform="scale(0.015625)"/>
       <path id="DejaVuSans-41" d="M 2188 4044 
L 1331 1722 
L 3047 1722 
L 2188 4044 
z
M 1831 4666 
L 2547 4666 
L 4325 0 
L 3669 0 
L 3244 1197 
L 1141 1197 
L 716 0 
L 50 0 
L 1831 4666 
z
" transform="scale(0.015625)"/>
       <path id="DejaVuSans-4d" d="M 628 4666 
L 1569 4666 
L 2759 1491 
L 3956 4666 
L 4897 4666 
L 4897 0 
L 4281 0 
L 4281 4097 
L 3078 897 
L 2444 897 
L 1241 4097 
L 1241 0 
L 628 0 
L 628 4666 
z
" transform="scale(0.015625)"/>
       <path id="DejaVuSans-45" d="M 628 4666 
L 3578 4666 
L 3578 4134 
L 1259 4134 
L 1259 2753 
L 3481 2753 
L 3481 2222 
L 1259 2222 
L 1259 531 
L 3634 531 
L 3634 0 
L 628 0 
L 628 4666 
z
" transform="scale(0.015625)"/>
       <path id="DejaVuSans-53" d="M 3425 4513 
L 3425 3897 
Q 3066 4069 2747 4153 
Q 2428 4238 2131 4238 
Q 1616 4238 1336 4038 
Q 1056 3838 1056 3469 
Q 1056 3159 1242 3001 
Q 1428 2844 1947 2747 
L 2328 2669 
Q 3034 2534 3370 2195 
Q 3706 1856 3706 1288 
Q 3706 609 3251 259 
Q 2797 -91 1919 -91 
Q 1588 -91 1214 -16 
Q 841 59 441 206 
L 441 856 
Q 825 641 1194 531 
Q 1563 422 1919 422 
Q 2459 422 2753 634 
Q 3047 847 3047 1241 
Q 3047 1584 2836 1778 
Q 2625 1972 2144 2069 
L 1759 2144 
Q 1053 2284 737 2584 
Q 422 2884 422 3419 
Q 422 4038 858 4394 
Q 1294 4750 2059 4750 
Q 2388 4750 2728 4690 
Q 3069 4631 3425 4513 
z
" transform="scale(0.015625)"/>
       <path id="DejaVuSans-28" d="M 1984 4856 
Q 1566 4138 1362 3434 
Q 1159 2731 1159 2009 
Q 1159 1288 1364 580 
Q 1569 -128 1984 -844 
L 1484 -844 
Q 1016 -109 783 600 
Q 550 1309 550 2009 
Q 550 2706 781 3412 
Q 1013 4119 1484 4856 
L 1984 4856 
z
" transform="scale(0.015625)"/>
       <path id="DejaVuSans-37" d="M 525 4666 
L 3525 4666 
L 3525 4397 
L 1831 0 
L 1172 0 
L 2766 4134 
L 525 4134 
L 525 4666 
z
" transform="scale(0.015625)"/>
       <path id="DejaVuSans-29" d="M 513 4856 
L 1013 4856 
Q 1481 4119 1714 3412 
Q 1947 2706 1947 2009 
Q 1947 1309 1714 600 
Q 1481 -109 1013 -844 
L 513 -844 
Q 928 -128 1133 580 
Q 1338 1288 1338 2009 
Q 1338 2731 1133 3434 
Q 928 4138 513 4856 
z
" transform="scale(0.015625)"/>
      </defs>
      <use xlink:href="#DejaVuSans-46"/>
      <use xlink:href="#DejaVuSans-4c" x="57.519531"/>
      <use xlink:href="#DejaVuSans-41" x="115.482422"/>
      <use xlink:href="#DejaVuSans-4d" x="183.890625"/>
      <use xlink:href="#DejaVuSans-45" x="270.169922"/>
      <use xlink:href="#DejaVuSans-53" x="333.353516"/>
      <use xlink:href="#DejaVuSans-20" x="396.830078"/>
      <use xlink:href="#DejaVuSans-28" x="428.617188"/>
      <use xlink:href="#DejaVuSans-30" x="467.630859"/>
      <use xlink:href="#DejaVuSans-2e" x="531.253906"/>
      <use xlink:href="#DejaVuSans-36" x="563.041016"/>
      <use xlink:href="#DejaVuSans-37" x="626.664062"/>
      <use xlink:href="#DejaVuSans-29" x="690.287109"/>
     </g>
    </g>
    <g id="line2d_23">
     <path d="M 519.440625 88.256563 
L 519.440625 88.256563 
L 529.440625 88.256563 
L 529.440625 88.256563 
L 539.440625 88.256563 
" style="fill: none; stroke: #0000ff; stroke-opacity: 0.8; stroke-width: 1.5; stroke-linecap: square"/>
    </g>
    <g id="text_17">
     <!-- L2G (0.57) -->
     <g transform="translate(547.440625 91.756563)scale(0.1 -0.1)">
      <defs>
       <path id="DejaVuSans-47" d="M 3809 666 
L 3809 1919 
L 2778 1919 
L 2778 2438 
L 4434 2438 
L 4434 434 
Q 4069 175 3628 42 
Q 3188 -91 2688 -91 
Q 1594 -91 976 548 
Q 359 1188 359 2328 
Q 359 3472 976 4111 
Q 1594 4750 2688 4750 
Q 3144 4750 3555 4637 
Q 3966 4525 4313 4306 
L 4313 3634 
Q 3963 3931 3569 4081 
Q 3175 4231 2741 4231 
Q 1884 4231 1454 3753 
Q 1025 3275 1025 2328 
Q 1025 1384 1454 906 
Q 1884 428 2741 428 
Q 3075 428 3337 486 
Q 3600 544 3809 666 
z
" transform="scale(0.015625)"/>
       <path id="DejaVuSans-35" d="M 691 4666 
L 3169 4666 
L 3169 4134 
L 1269 4134 
L 1269 2991 
Q 1406 3038 1543 3061 
Q 1681 3084 1819 3084 
Q 2600 3084 3056 2656 
Q 3513 2228 3513 1497 
Q 3513 744 3044 326 
Q 2575 -91 1722 -91 
Q 1428 -91 1123 -41 
Q 819 9 494 109 
L 494 744 
Q 775 591 1075 516 
Q 1375 441 1709 441 
Q 2250 441 2565 725 
Q 2881 1009 2881 1497 
Q 2881 1984 2565 2268 
Q 2250 2553 1709 2553 
Q 1456 2553 1204 2497 
Q 953 2441 691 2322 
L 691 4666 
z
" transform="scale(0.015625)"/>
      </defs>
      <use xlink:href="#DejaVuSans-4c"/>
      <use xlink:href="#DejaVuSans-32" x="55.712891"/>
      <use xlink:href="#DejaVuSans-47" x="119.335938"/>
      <use xlink:href="#DejaVuSans-20" x="196.826172"/>
      <use xlink:href="#DejaVuSans-28" x="228.613281"/>
      <use xlink:href="#DejaVuSans-30" x="267.626953"/>
      <use xlink:href="#DejaVuSans-2e" x="331.25"/>
      <use xlink:href="#DejaVuSans-35" x="363.037109"/>
      <use xlink:href="#DejaVuSans-37" x="426.660156"/>
      <use xlink:href="#DejaVuSans-29" x="490.283203"/>
     </g>
    </g>
    <g id="line2d_24">
     <path d="M 519.440625 102.934688 
L 519.440625 102.934688 
L 529.440625 102.934688 
L 529.440625 102.934688 
L 539.440625 102.934688 
" style="fill: none; stroke: #337538; stroke-opacity: 0.8; stroke-width: 1.5; stroke-linecap: square"/>
    </g>
    <g id="text_18">
     <!-- Ei (0.57) -->
     <g transform="translate(547.440625 106.434688)scale(0.1 -0.1)">
      <use xlink:href="#DejaVuSans-45"/>
      <use xlink:href="#DejaVuSans-69" x="63.183594"/>
      <use xlink:href="#DejaVuSans-20" x="90.966797"/>
      <use xlink:href="#DejaVuSans-28" x="122.753906"/>
      <use xlink:href="#DejaVuSans-30" x="161.767578"/>
      <use xlink:href="#DejaVuSans-2e" x="225.390625"/>
      <use xlink:href="#DejaVuSans-35" x="257.177734"/>
      <use xlink:href="#DejaVuSans-37" x="320.800781"/>
      <use xlink:href="#DejaVuSans-29" x="384.423828"/>
     </g>
    </g>
    <g id="line2d_25">
     <path d="M 519.440625 117.612813 
L 519.440625 117.612813 
L 529.440625 117.612813 
L 529.440625 117.612813 
L 539.440625 117.612813 
" style="fill: none; stroke: #bfbf00; stroke-opacity: 0.8; stroke-width: 1.5; stroke-linecap: square"/>
    </g>
    <g id="text_19">
     <!-- cS2G(0.32) -->
     <g transform="translate(547.440625 121.112813)scale(0.1 -0.1)">
      <defs>
       <path id="DejaVuSans-33" d="M 2597 2516 
Q 3050 2419 3304 2112 
Q 3559 1806 3559 1356 
Q 3559 666 3084 287 
Q 2609 -91 1734 -91 
Q 1441 -91 1130 -33 
Q 819 25 488 141 
L 488 750 
Q 750 597 1062 519 
Q 1375 441 1716 441 
Q 2309 441 2620 675 
Q 2931 909 2931 1356 
Q 2931 1769 2642 2001 
Q 2353 2234 1838 2234 
L 1294 2234 
L 1294 2753 
L 1863 2753 
Q 2328 2753 2575 2939 
Q 2822 3125 2822 3475 
Q 2822 3834 2567 4026 
Q 2313 4219 1838 4219 
Q 1578 4219 1281 4162 
Q 984 4106 628 3988 
L 628 4550 
Q 988 4650 1302 4700 
Q 1616 4750 1894 4750 
Q 2613 4750 3031 4423 
Q 3450 4097 3450 3541 
Q 3450 3153 3228 2886 
Q 3006 2619 2597 2516 
z
" transform="scale(0.015625)"/>
      </defs>
      <use xlink:href="#DejaVuSans-63"/>
      <use xlink:href="#DejaVuSans-53" x="54.980469"/>
      <use xlink:href="#DejaVuSans-32" x="118.457031"/>
      <use xlink:href="#DejaVuSans-47" x="182.080078"/>
      <use xlink:href="#DejaVuSans-28" x="259.570312"/>
      <use xlink:href="#DejaVuSans-30" x="298.583984"/>
      <use xlink:href="#DejaVuSans-2e" x="362.207031"/>
      <use xlink:href="#DejaVuSans-33" x="393.994141"/>
      <use xlink:href="#DejaVuSans-32" x="457.617188"/>
      <use xlink:href="#DejaVuSans-29" x="521.240234"/>
     </g>
    </g>
    <g id="line2d_26">
     <g>
      <use xlink:href="#m5d3d4c5a2b" x="529.440625" y="132.290938" style="stroke: #000000"/>
     </g>
    </g>
    <g id="text_20">
     <!-- Closest gene -->
     <g transform="translate(547.440625 135.790938)scale(0.1 -0.1)">
      <defs>
       <path id="DejaVuSans-74" d="M 1172 4494 
L 1172 3500 
L 2356 3500 
L 2356 3053 
L 1172 3053 
L 1172 1153 
Q 1172 725 1289 603 
Q 1406 481 1766 481 
L 2356 481 
L 2356 0 
L 1766 0 
Q 1100 0 847 248 
Q 594 497 594 1153 
L 594 3053 
L 172 3053 
L 172 3500 
L 594 3500 
L 594 4494 
L 1172 4494 
z
" transform="scale(0.015625)"/>
       <path id="DejaVuSans-67" d="M 2906 1791 
Q 2906 2416 2648 2759 
Q 2391 3103 1925 3103 
Q 1463 3103 1205 2759 
Q 947 2416 947 1791 
Q 947 1169 1205 825 
Q 1463 481 1925 481 
Q 2391 481 2648 825 
Q 2906 1169 2906 1791 
z
M 3481 434 
Q 3481 -459 3084 -895 
Q 2688 -1331 1869 -1331 
Q 1566 -1331 1297 -1286 
Q 1028 -1241 775 -1147 
L 775 -588 
Q 1028 -725 1275 -790 
Q 1522 -856 1778 -856 
Q 2344 -856 2625 -561 
Q 2906 -266 2906 331 
L 2906 616 
Q 2728 306 2450 153 
Q 2172 0 1784 0 
Q 1141 0 747 490 
Q 353 981 353 1791 
Q 353 2603 747 3093 
Q 1141 3584 1784 3584 
Q 2172 3584 2450 3431 
Q 2728 3278 2906 2969 
L 2906 3500 
L 3481 3500 
L 3481 434 
z
" transform="scale(0.015625)"/>
      </defs>
      <use xlink:href="#DejaVuSans-43"/>
      <use xlink:href="#DejaVuSans-6c" x="69.824219"/>
      <use xlink:href="#DejaVuSans-6f" x="97.607422"/>
      <use xlink:href="#DejaVuSans-73" x="158.789062"/>
      <use xlink:href="#DejaVuSans-65" x="210.888672"/>
      <use xlink:href="#DejaVuSans-73" x="272.412109"/>
      <use xlink:href="#DejaVuSans-74" x="324.511719"/>
      <use xlink:href="#DejaVuSans-20" x="363.720703"/>
      <use xlink:href="#DejaVuSans-67" x="395.507812"/>
      <use xlink:href="#DejaVuSans-65" x="458.984375"/>
      <use xlink:href="#DejaVuSans-6e" x="520.507812"/>
      <use xlink:href="#DejaVuSans-65" x="583.886719"/>
     </g>
    </g>
    <g id="line2d_27">
     <g>
      <use xlink:href="#m8ce78798c6" x="529.440625" y="146.969063" style="fill: #008000; stroke: #008000"/>
     </g>
    </g>
    <g id="text_21">
     <!-- Highest PoPS -->
     <g transform="translate(547.440625 150.469063)scale(0.1 -0.1)">
      <defs>
       <path id="DejaVuSans-48" d="M 628 4666 
L 1259 4666 
L 1259 2753 
L 3553 2753 
L 3553 4666 
L 4184 4666 
L 4184 0 
L 3553 0 
L 3553 2222 
L 1259 2222 
L 1259 0 
L 628 0 
L 628 4666 
z
" transform="scale(0.015625)"/>
       <path id="DejaVuSans-68" d="M 3513 2113 
L 3513 0 
L 2938 0 
L 2938 2094 
Q 2938 2591 2744 2837 
Q 2550 3084 2163 3084 
Q 1697 3084 1428 2787 
Q 1159 2491 1159 1978 
L 1159 0 
L 581 0 
L 581 4863 
L 1159 4863 
L 1159 2956 
Q 1366 3272 1645 3428 
Q 1925 3584 2291 3584 
Q 2894 3584 3203 3211 
Q 3513 2838 3513 2113 
z
" transform="scale(0.015625)"/>
      </defs>
      <use xlink:href="#DejaVuSans-48"/>
      <use xlink:href="#DejaVuSans-69" x="75.195312"/>
      <use xlink:href="#DejaVuSans-67" x="102.978516"/>
      <use xlink:href="#DejaVuSans-68" x="166.455078"/>
      <use xlink:href="#DejaVuSans-65" x="229.833984"/>
      <use xlink:href="#DejaVuSans-73" x="291.357422"/>
      <use xlink:href="#DejaVuSans-74" x="343.457031"/>
      <use xlink:href="#DejaVuSans-20" x="382.666016"/>
      <use xlink:href="#DejaVuSans-50" x="414.453125"/>
      <use xlink:href="#DejaVuSans-6f" x="471.130859"/>
      <use xlink:href="#DejaVuSans-50" x="532.3125"/>
      <use xlink:href="#DejaVuSans-53" x="592.615234"/>
     </g>
    </g>
    <g id="line2d_28">
     <g>
      <use xlink:href="#m5234965b13" x="529.440625" y="161.647188" style="fill: #00bfbf; stroke: #00bfbf"/>
     </g>
    </g>
    <g id="text_22">
     <!-- Highest MAGMA-Z -->
     <g transform="translate(547.440625 165.147188)scale(0.1 -0.1)">
      <defs>
       <path id="DejaVuSans-5a" d="M 359 4666 
L 4025 4666 
L 4025 4184 
L 1075 531 
L 4097 531 
L 4097 0 
L 288 0 
L 288 481 
L 3238 4134 
L 359 4134 
L 359 4666 
z
" transform="scale(0.015625)"/>
      </defs>
      <use xlink:href="#DejaVuSans-48"/>
      <use xlink:href="#DejaVuSans-69" x="75.195312"/>
      <use xlink:href="#DejaVuSans-67" x="102.978516"/>
      <use xlink:href="#DejaVuSans-68" x="166.455078"/>
      <use xlink:href="#DejaVuSans-65" x="229.833984"/>
      <use xlink:href="#DejaVuSans-73" x="291.357422"/>
      <use xlink:href="#DejaVuSans-74" x="343.457031"/>
      <use xlink:href="#DejaVuSans-20" x="382.666016"/>
      <use xlink:href="#DejaVuSans-4d" x="414.453125"/>
      <use xlink:href="#DejaVuSans-41" x="500.732422"/>
      <use xlink:href="#DejaVuSans-47" x="567.390625"/>
      <use xlink:href="#DejaVuSans-4d" x="644.880859"/>
      <use xlink:href="#DejaVuSans-41" x="731.160156"/>
      <use xlink:href="#DejaVuSans-2d" x="797.318359"/>
      <use xlink:href="#DejaVuSans-5a" x="833.402344"/>
     </g>
    </g>
    <g id="line2d_29">
     <g>
      <use xlink:href="#m0de75f2e5d" x="529.440625" y="176.325313" style="fill: #0000ff; stroke: #0000ff"/>
     </g>
    </g>
    <g id="text_23">
     <!-- Random_predictor -->
     <g transform="translate(547.440625 179.825313)scale(0.1 -0.1)">
      <defs>
       <path id="DejaVuSans-64" d="M 2906 2969 
L 2906 4863 
L 3481 4863 
L 3481 0 
L 2906 0 
L 2906 525 
Q 2725 213 2448 61 
Q 2172 -91 1784 -91 
Q 1150 -91 751 415 
Q 353 922 353 1747 
Q 353 2572 751 3078 
Q 1150 3584 1784 3584 
Q 2172 3584 2448 3432 
Q 2725 3281 2906 2969 
z
M 947 1747 
Q 947 1113 1208 752 
Q 1469 391 1925 391 
Q 2381 391 2643 752 
Q 2906 1113 2906 1747 
Q 2906 2381 2643 2742 
Q 2381 3103 1925 3103 
Q 1469 3103 1208 2742 
Q 947 2381 947 1747 
z
" transform="scale(0.015625)"/>
       <path id="DejaVuSans-6d" d="M 3328 2828 
Q 3544 3216 3844 3400 
Q 4144 3584 4550 3584 
Q 5097 3584 5394 3201 
Q 5691 2819 5691 2113 
L 5691 0 
L 5113 0 
L 5113 2094 
Q 5113 2597 4934 2840 
Q 4756 3084 4391 3084 
Q 3944 3084 3684 2787 
Q 3425 2491 3425 1978 
L 3425 0 
L 2847 0 
L 2847 2094 
Q 2847 2600 2669 2842 
Q 2491 3084 2119 3084 
Q 1678 3084 1418 2786 
Q 1159 2488 1159 1978 
L 1159 0 
L 581 0 
L 581 3500 
L 1159 3500 
L 1159 2956 
Q 1356 3278 1631 3431 
Q 1906 3584 2284 3584 
Q 2666 3584 2933 3390 
Q 3200 3197 3328 2828 
z
" transform="scale(0.015625)"/>
       <path id="DejaVuSans-5f" d="M 3263 -1063 
L 3263 -1509 
L -63 -1509 
L -63 -1063 
L 3263 -1063 
z
" transform="scale(0.015625)"/>
       <path id="DejaVuSans-70" d="M 1159 525 
L 1159 -1331 
L 581 -1331 
L 581 3500 
L 1159 3500 
L 1159 2969 
Q 1341 3281 1617 3432 
Q 1894 3584 2278 3584 
Q 2916 3584 3314 3078 
Q 3713 2572 3713 1747 
Q 3713 922 3314 415 
Q 2916 -91 2278 -91 
Q 1894 -91 1617 61 
Q 1341 213 1159 525 
z
M 3116 1747 
Q 3116 2381 2855 2742 
Q 2594 3103 2138 3103 
Q 1681 3103 1420 2742 
Q 1159 2381 1159 1747 
Q 1159 1113 1420 752 
Q 1681 391 2138 391 
Q 2594 391 2855 752 
Q 3116 1113 3116 1747 
z
" transform="scale(0.015625)"/>
      </defs>
      <use xlink:href="#DejaVuSans-52"/>
      <use xlink:href="#DejaVuSans-61" x="67.232422"/>
      <use xlink:href="#DejaVuSans-6e" x="128.511719"/>
      <use xlink:href="#DejaVuSans-64" x="191.890625"/>
      <use xlink:href="#DejaVuSans-6f" x="255.367188"/>
      <use xlink:href="#DejaVuSans-6d" x="316.548828"/>
      <use xlink:href="#DejaVuSans-5f" x="413.960938"/>
      <use xlink:href="#DejaVuSans-70" x="463.960938"/>
      <use xlink:href="#DejaVuSans-72" x="527.4375"/>
      <use xlink:href="#DejaVuSans-65" x="566.300781"/>
      <use xlink:href="#DejaVuSans-64" x="627.824219"/>
      <use xlink:href="#DejaVuSans-69" x="691.300781"/>
      <use xlink:href="#DejaVuSans-63" x="719.083984"/>
      <use xlink:href="#DejaVuSans-74" x="774.064453"/>
      <use xlink:href="#DejaVuSans-6f" x="813.273438"/>
      <use xlink:href="#DejaVuSans-72" x="874.455078"/>
     </g>
    </g>
   </g>
  </g>
 </g>
 <defs>
  <clipPath id="pef7dd73796">
   <rect x="90" y="60.48" width="558" height="380.52"/>
  </clipPath>
 </defs>
</svg>
