<?xml version="1.0" encoding="utf-8" standalone="no"?>
<!DOCTYPE svg PUBLIC "-//W3C//DTD SVG 1.1//EN"
  "http://www.w3.org/Graphics/SVG/1.1/DTD/svg11.dtd">
<svg xmlns:xlink="http://www.w3.org/1999/xlink" width="720pt" height="504pt" viewBox="0 0 720 504" xmlns="http://www.w3.org/2000/svg" version="1.1">
 <metadata>
  <rdf:RDF xmlns:dc="http://purl.org/dc/elements/1.1/" xmlns:cc="http://creativecommons.org/ns#" xmlns:rdf="http://www.w3.org/1999/02/22-rdf-syntax-ns#">
   <cc:Work>
    <dc:type rdf:resource="http://purl.org/dc/dcmitype/StillImage"/>
    <dc:date>2023-12-20T08:38:42.799528</dc:date>
    <dc:format>image/svg+xml</dc:format>
    <dc:creator>
     <cc:Agent>
      <dc:title>Matplotlib v3.5.2, https://matplotlib.org/</dc:title>
     </cc:Agent>
    </dc:creator>
   </cc:Work>
  </rdf:RDF>
 </metadata>
 <defs>
  <style type="text/css">*{stroke-linejoin: round; stroke-linecap: butt}</style>
 </defs>
 <g id="figure_1">
  <g id="patch_1">
   <path d="M 0 504 
L 720 504 
L 720 0 
L 0 0 
L 0 504 
z
" style="fill: none"/>
  </g>
  <g id="axes_1">
   <g id="patch_2">
    <path d="M 90 441 
L 648 441 
L 648 60.48 
L 90 60.48 
z
" style="fill: #ffffff"/>
   </g>
   <g id="matplotlib.axis_1">
    <g id="xtick_1">
     <g id="line2d_1">
      <defs>
       <path id="m21eb3ac54c" d="M 0 0 
L 0 3.5 
" style="stroke: #000000; stroke-width: 0.8"/>
      </defs>
      <g>
       <use xlink:href="#m21eb3ac54c" x="90" y="441" style="stroke: #000000; stroke-width: 0.8"/>
      </g>
     </g>
     <g id="text_1">
      <!-- 0.0 -->
      <g transform="translate(82.048438 455.598437)scale(0.1 -0.1)">
       <defs>
        <path id="DejaVuSans-30" d="M 2034 4250 
Q 1547 4250 1301 3770 
Q 1056 3291 1056 2328 
Q 1056 1369 1301 889 
Q 1547 409 2034 409 
Q 2525 409 2770 889 
Q 3016 1369 3016 2328 
Q 3016 3291 2770 3770 
Q 2525 4250 2034 4250 
z
M 2034 4750 
Q 2819 4750 3233 4129 
Q 3647 3509 3647 2328 
Q 3647 1150 3233 529 
Q 2819 -91 2034 -91 
Q 1250 -91 836 529 
Q 422 1150 422 2328 
Q 422 3509 836 4129 
Q 1250 4750 2034 4750 
z
" transform="scale(0.015625)"/>
        <path id="DejaVuSans-2e" d="M 684 794 
L 1344 794 
L 1344 0 
L 684 0 
L 684 794 
z
" transform="scale(0.015625)"/>
       </defs>
       <use xlink:href="#DejaVuSans-30"/>
       <use xlink:href="#DejaVuSans-2e" x="63.623047"/>
       <use xlink:href="#DejaVuSans-30" x="95.410156"/>
      </g>
     </g>
    </g>
    <g id="xtick_2">
     <g id="line2d_2">
      <g>
       <use xlink:href="#m21eb3ac54c" x="201.6" y="441" style="stroke: #000000; stroke-width: 0.8"/>
      </g>
     </g>
     <g id="text_2">
      <!-- 0.2 -->
      <g transform="translate(193.648438 455.598437)scale(0.1 -0.1)">
       <defs>
        <path id="DejaVuSans-32" d="M 1228 531 
L 3431 531 
L 3431 0 
L 469 0 
L 469 531 
Q 828 903 1448 1529 
Q 2069 2156 2228 2338 
Q 2531 2678 2651 2914 
Q 2772 3150 2772 3378 
Q 2772 3750 2511 3984 
Q 2250 4219 1831 4219 
Q 1534 4219 1204 4116 
Q 875 4013 500 3803 
L 500 4441 
Q 881 4594 1212 4672 
Q 1544 4750 1819 4750 
Q 2544 4750 2975 4387 
Q 3406 4025 3406 3419 
Q 3406 3131 3298 2873 
Q 3191 2616 2906 2266 
Q 2828 2175 2409 1742 
Q 1991 1309 1228 531 
z
" transform="scale(0.015625)"/>
       </defs>
       <use xlink:href="#DejaVuSans-30"/>
       <use xlink:href="#DejaVuSans-2e" x="63.623047"/>
       <use xlink:href="#DejaVuSans-32" x="95.410156"/>
      </g>
     </g>
    </g>
    <g id="xtick_3">
     <g id="line2d_3">
      <g>
       <use xlink:href="#m21eb3ac54c" x="313.2" y="441" style="stroke: #000000; stroke-width: 0.8"/>
      </g>
     </g>
     <g id="text_3">
      <!-- 0.4 -->
      <g transform="translate(305.248438 455.598437)scale(0.1 -0.1)">
       <defs>
        <path id="DejaVuSans-34" d="M 2419 4116 
L 825 1625 
L 2419 1625 
L 2419 4116 
z
M 2253 4666 
L 3047 4666 
L 3047 1625 
L 3713 1625 
L 3713 1100 
L 3047 1100 
L 3047 0 
L 2419 0 
L 2419 1100 
L 313 1100 
L 313 1709 
L 2253 4666 
z
" transform="scale(0.015625)"/>
       </defs>
       <use xlink:href="#DejaVuSans-30"/>
       <use xlink:href="#DejaVuSans-2e" x="63.623047"/>
       <use xlink:href="#DejaVuSans-34" x="95.410156"/>
      </g>
     </g>
    </g>
    <g id="xtick_4">
     <g id="line2d_4">
      <g>
       <use xlink:href="#m21eb3ac54c" x="424.8" y="441" style="stroke: #000000; stroke-width: 0.8"/>
      </g>
     </g>
     <g id="text_4">
      <!-- 0.6 -->
      <g transform="translate(416.848438 455.598437)scale(0.1 -0.1)">
       <defs>
        <path id="DejaVuSans-36" d="M 2113 2584 
Q 1688 2584 1439 2293 
Q 1191 2003 1191 1497 
Q 1191 994 1439 701 
Q 1688 409 2113 409 
Q 2538 409 2786 701 
Q 3034 994 3034 1497 
Q 3034 2003 2786 2293 
Q 2538 2584 2113 2584 
z
M 3366 4563 
L 3366 3988 
Q 3128 4100 2886 4159 
Q 2644 4219 2406 4219 
Q 1781 4219 1451 3797 
Q 1122 3375 1075 2522 
Q 1259 2794 1537 2939 
Q 1816 3084 2150 3084 
Q 2853 3084 3261 2657 
Q 3669 2231 3669 1497 
Q 3669 778 3244 343 
Q 2819 -91 2113 -91 
Q 1303 -91 875 529 
Q 447 1150 447 2328 
Q 447 3434 972 4092 
Q 1497 4750 2381 4750 
Q 2619 4750 2861 4703 
Q 3103 4656 3366 4563 
z
" transform="scale(0.015625)"/>
       </defs>
       <use xlink:href="#DejaVuSans-30"/>
       <use xlink:href="#DejaVuSans-2e" x="63.623047"/>
       <use xlink:href="#DejaVuSans-36" x="95.410156"/>
      </g>
     </g>
    </g>
    <g id="xtick_5">
     <g id="line2d_5">
      <g>
       <use xlink:href="#m21eb3ac54c" x="536.4" y="441" style="stroke: #000000; stroke-width: 0.8"/>
      </g>
     </g>
     <g id="text_5">
      <!-- 0.8 -->
      <g transform="translate(528.448438 455.598437)scale(0.1 -0.1)">
       <defs>
        <path id="DejaVuSans-38" d="M 2034 2216 
Q 1584 2216 1326 1975 
Q 1069 1734 1069 1313 
Q 1069 891 1326 650 
Q 1584 409 2034 409 
Q 2484 409 2743 651 
Q 3003 894 3003 1313 
Q 3003 1734 2745 1975 
Q 2488 2216 2034 2216 
z
M 1403 2484 
Q 997 2584 770 2862 
Q 544 3141 544 3541 
Q 544 4100 942 4425 
Q 1341 4750 2034 4750 
Q 2731 4750 3128 4425 
Q 3525 4100 3525 3541 
Q 3525 3141 3298 2862 
Q 3072 2584 2669 2484 
Q 3125 2378 3379 2068 
Q 3634 1759 3634 1313 
Q 3634 634 3220 271 
Q 2806 -91 2034 -91 
Q 1263 -91 848 271 
Q 434 634 434 1313 
Q 434 1759 690 2068 
Q 947 2378 1403 2484 
z
M 1172 3481 
Q 1172 3119 1398 2916 
Q 1625 2713 2034 2713 
Q 2441 2713 2670 2916 
Q 2900 3119 2900 3481 
Q 2900 3844 2670 4047 
Q 2441 4250 2034 4250 
Q 1625 4250 1398 4047 
Q 1172 3844 1172 3481 
z
" transform="scale(0.015625)"/>
       </defs>
       <use xlink:href="#DejaVuSans-30"/>
       <use xlink:href="#DejaVuSans-2e" x="63.623047"/>
       <use xlink:href="#DejaVuSans-38" x="95.410156"/>
      </g>
     </g>
    </g>
    <g id="xtick_6">
     <g id="line2d_6">
      <g>
       <use xlink:href="#m21eb3ac54c" x="648" y="441" style="stroke: #000000; stroke-width: 0.8"/>
      </g>
     </g>
     <g id="text_6">
      <!-- 1.0 -->
      <g transform="translate(640.048437 455.598437)scale(0.1 -0.1)">
       <defs>
        <path id="DejaVuSans-31" d="M 794 531 
L 1825 531 
L 1825 4091 
L 703 3866 
L 703 4441 
L 1819 4666 
L 2450 4666 
L 2450 531 
L 3481 531 
L 3481 0 
L 794 0 
L 794 531 
z
" transform="scale(0.015625)"/>
       </defs>
       <use xlink:href="#DejaVuSans-31"/>
       <use xlink:href="#DejaVuSans-2e" x="63.623047"/>
       <use xlink:href="#DejaVuSans-30" x="95.410156"/>
      </g>
     </g>
    </g>
    <g id="text_7">
     <!-- Recall -->
     <g transform="translate(354.082812 469.276563)scale(0.1 -0.1)">
      <defs>
       <path id="DejaVuSans-52" d="M 2841 2188 
Q 3044 2119 3236 1894 
Q 3428 1669 3622 1275 
L 4263 0 
L 3584 0 
L 2988 1197 
Q 2756 1666 2539 1819 
Q 2322 1972 1947 1972 
L 1259 1972 
L 1259 0 
L 628 0 
L 628 4666 
L 2053 4666 
Q 2853 4666 3247 4331 
Q 3641 3997 3641 3322 
Q 3641 2881 3436 2590 
Q 3231 2300 2841 2188 
z
M 1259 4147 
L 1259 2491 
L 2053 2491 
Q 2509 2491 2742 2702 
Q 2975 2913 2975 3322 
Q 2975 3731 2742 3939 
Q 2509 4147 2053 4147 
L 1259 4147 
z
" transform="scale(0.015625)"/>
       <path id="DejaVuSans-65" d="M 3597 1894 
L 3597 1613 
L 953 1613 
Q 991 1019 1311 708 
Q 1631 397 2203 397 
Q 2534 397 2845 478 
Q 3156 559 3463 722 
L 3463 178 
Q 3153 47 2828 -22 
Q 2503 -91 2169 -91 
Q 1331 -91 842 396 
Q 353 884 353 1716 
Q 353 2575 817 3079 
Q 1281 3584 2069 3584 
Q 2775 3584 3186 3129 
Q 3597 2675 3597 1894 
z
M 3022 2063 
Q 3016 2534 2758 2815 
Q 2500 3097 2075 3097 
Q 1594 3097 1305 2825 
Q 1016 2553 972 2059 
L 3022 2063 
z
" transform="scale(0.015625)"/>
       <path id="DejaVuSans-63" d="M 3122 3366 
L 3122 2828 
Q 2878 2963 2633 3030 
Q 2388 3097 2138 3097 
Q 1578 3097 1268 2742 
Q 959 2388 959 1747 
Q 959 1106 1268 751 
Q 1578 397 2138 397 
Q 2388 397 2633 464 
Q 2878 531 3122 666 
L 3122 134 
Q 2881 22 2623 -34 
Q 2366 -91 2075 -91 
Q 1284 -91 818 406 
Q 353 903 353 1747 
Q 353 2603 823 3093 
Q 1294 3584 2113 3584 
Q 2378 3584 2631 3529 
Q 2884 3475 3122 3366 
z
" transform="scale(0.015625)"/>
       <path id="DejaVuSans-61" d="M 2194 1759 
Q 1497 1759 1228 1600 
Q 959 1441 959 1056 
Q 959 750 1161 570 
Q 1363 391 1709 391 
Q 2188 391 2477 730 
Q 2766 1069 2766 1631 
L 2766 1759 
L 2194 1759 
z
M 3341 1997 
L 3341 0 
L 2766 0 
L 2766 531 
Q 2569 213 2275 61 
Q 1981 -91 1556 -91 
Q 1019 -91 701 211 
Q 384 513 384 1019 
Q 384 1609 779 1909 
Q 1175 2209 1959 2209 
L 2766 2209 
L 2766 2266 
Q 2766 2663 2505 2880 
Q 2244 3097 1772 3097 
Q 1472 3097 1187 3025 
Q 903 2953 641 2809 
L 641 3341 
Q 956 3463 1253 3523 
Q 1550 3584 1831 3584 
Q 2591 3584 2966 3190 
Q 3341 2797 3341 1997 
z
" transform="scale(0.015625)"/>
       <path id="DejaVuSans-6c" d="M 603 4863 
L 1178 4863 
L 1178 0 
L 603 0 
L 603 4863 
z
" transform="scale(0.015625)"/>
      </defs>
      <use xlink:href="#DejaVuSans-52"/>
      <use xlink:href="#DejaVuSans-65" x="64.982422"/>
      <use xlink:href="#DejaVuSans-63" x="126.505859"/>
      <use xlink:href="#DejaVuSans-61" x="181.486328"/>
      <use xlink:href="#DejaVuSans-6c" x="242.765625"/>
      <use xlink:href="#DejaVuSans-6c" x="270.548828"/>
     </g>
    </g>
   </g>
   <g id="matplotlib.axis_2">
    <g id="ytick_1">
     <g id="line2d_7">
      <defs>
       <path id="m6269969cc7" d="M 0 0 
L -3.5 0 
" style="stroke: #000000; stroke-width: 0.8"/>
      </defs>
      <g>
       <use xlink:href="#m6269969cc7" x="90" y="441" style="stroke: #000000; stroke-width: 0.8"/>
      </g>
     </g>
     <g id="text_8">
      <!-- 0.0 -->
      <g transform="translate(67.096875 444.799219)scale(0.1 -0.1)">
       <use xlink:href="#DejaVuSans-30"/>
       <use xlink:href="#DejaVuSans-2e" x="63.623047"/>
       <use xlink:href="#DejaVuSans-30" x="95.410156"/>
      </g>
     </g>
    </g>
    <g id="ytick_2">
     <g id="line2d_8">
      <g>
       <use xlink:href="#m6269969cc7" x="90" y="368.52" style="stroke: #000000; stroke-width: 0.8"/>
      </g>
     </g>
     <g id="text_9">
      <!-- 0.2 -->
      <g transform="translate(67.096875 372.319219)scale(0.1 -0.1)">
       <use xlink:href="#DejaVuSans-30"/>
       <use xlink:href="#DejaVuSans-2e" x="63.623047"/>
       <use xlink:href="#DejaVuSans-32" x="95.410156"/>
      </g>
     </g>
    </g>
    <g id="ytick_3">
     <g id="line2d_9">
      <g>
       <use xlink:href="#m6269969cc7" x="90" y="296.04" style="stroke: #000000; stroke-width: 0.8"/>
      </g>
     </g>
     <g id="text_10">
      <!-- 0.4 -->
      <g transform="translate(67.096875 299.839219)scale(0.1 -0.1)">
       <use xlink:href="#DejaVuSans-30"/>
       <use xlink:href="#DejaVuSans-2e" x="63.623047"/>
       <use xlink:href="#DejaVuSans-34" x="95.410156"/>
      </g>
     </g>
    </g>
    <g id="ytick_4">
     <g id="line2d_10">
      <g>
       <use xlink:href="#m6269969cc7" x="90" y="223.56" style="stroke: #000000; stroke-width: 0.8"/>
      </g>
     </g>
     <g id="text_11">
      <!-- 0.6 -->
      <g transform="translate(67.096875 227.359219)scale(0.1 -0.1)">
       <use xlink:href="#DejaVuSans-30"/>
       <use xlink:href="#DejaVuSans-2e" x="63.623047"/>
       <use xlink:href="#DejaVuSans-36" x="95.410156"/>
      </g>
     </g>
    </g>
    <g id="ytick_5">
     <g id="line2d_11">
      <g>
       <use xlink:href="#m6269969cc7" x="90" y="151.08" style="stroke: #000000; stroke-width: 0.8"/>
      </g>
     </g>
     <g id="text_12">
      <!-- 0.8 -->
      <g transform="translate(67.096875 154.879219)scale(0.1 -0.1)">
       <use xlink:href="#DejaVuSans-30"/>
       <use xlink:href="#DejaVuSans-2e" x="63.623047"/>
       <use xlink:href="#DejaVuSans-38" x="95.410156"/>
      </g>
     </g>
    </g>
    <g id="ytick_6">
     <g id="line2d_12">
      <g>
       <use xlink:href="#m6269969cc7" x="90" y="78.6" style="stroke: #000000; stroke-width: 0.8"/>
      </g>
     </g>
     <g id="text_13">
      <!-- 1.0 -->
      <g transform="translate(67.096875 82.399219)scale(0.1 -0.1)">
       <use xlink:href="#DejaVuSans-31"/>
       <use xlink:href="#DejaVuSans-2e" x="63.623047"/>
       <use xlink:href="#DejaVuSans-30" x="95.410156"/>
      </g>
     </g>
    </g>
    <g id="text_14">
     <!-- Precision -->
     <g transform="translate(61.017187 273.047031)rotate(-90)scale(0.1 -0.1)">
      <defs>
       <path id="DejaVuSans-50" d="M 1259 4147 
L 1259 2394 
L 2053 2394 
Q 2494 2394 2734 2622 
Q 2975 2850 2975 3272 
Q 2975 3691 2734 3919 
Q 2494 4147 2053 4147 
L 1259 4147 
z
M 628 4666 
L 2053 4666 
Q 2838 4666 3239 4311 
Q 3641 3956 3641 3272 
Q 3641 2581 3239 2228 
Q 2838 1875 2053 1875 
L 1259 1875 
L 1259 0 
L 628 0 
L 628 4666 
z
" transform="scale(0.015625)"/>
       <path id="DejaVuSans-72" d="M 2631 2963 
Q 2534 3019 2420 3045 
Q 2306 3072 2169 3072 
Q 1681 3072 1420 2755 
Q 1159 2438 1159 1844 
L 1159 0 
L 581 0 
L 581 3500 
L 1159 3500 
L 1159 2956 
Q 1341 3275 1631 3429 
Q 1922 3584 2338 3584 
Q 2397 3584 2469 3576 
Q 2541 3569 2628 3553 
L 2631 2963 
z
" transform="scale(0.015625)"/>
       <path id="DejaVuSans-69" d="M 603 3500 
L 1178 3500 
L 1178 0 
L 603 0 
L 603 3500 
z
M 603 4863 
L 1178 4863 
L 1178 4134 
L 603 4134 
L 603 4863 
z
" transform="scale(0.015625)"/>
       <path id="DejaVuSans-73" d="M 2834 3397 
L 2834 2853 
Q 2591 2978 2328 3040 
Q 2066 3103 1784 3103 
Q 1356 3103 1142 2972 
Q 928 2841 928 2578 
Q 928 2378 1081 2264 
Q 1234 2150 1697 2047 
L 1894 2003 
Q 2506 1872 2764 1633 
Q 3022 1394 3022 966 
Q 3022 478 2636 193 
Q 2250 -91 1575 -91 
Q 1294 -91 989 -36 
Q 684 19 347 128 
L 347 722 
Q 666 556 975 473 
Q 1284 391 1588 391 
Q 1994 391 2212 530 
Q 2431 669 2431 922 
Q 2431 1156 2273 1281 
Q 2116 1406 1581 1522 
L 1381 1569 
Q 847 1681 609 1914 
Q 372 2147 372 2553 
Q 372 3047 722 3315 
Q 1072 3584 1716 3584 
Q 2034 3584 2315 3537 
Q 2597 3491 2834 3397 
z
" transform="scale(0.015625)"/>
       <path id="DejaVuSans-6f" d="M 1959 3097 
Q 1497 3097 1228 2736 
Q 959 2375 959 1747 
Q 959 1119 1226 758 
Q 1494 397 1959 397 
Q 2419 397 2687 759 
Q 2956 1122 2956 1747 
Q 2956 2369 2687 2733 
Q 2419 3097 1959 3097 
z
M 1959 3584 
Q 2709 3584 3137 3096 
Q 3566 2609 3566 1747 
Q 3566 888 3137 398 
Q 2709 -91 1959 -91 
Q 1206 -91 779 398 
Q 353 888 353 1747 
Q 353 2609 779 3096 
Q 1206 3584 1959 3584 
z
" transform="scale(0.015625)"/>
       <path id="DejaVuSans-6e" d="M 3513 2113 
L 3513 0 
L 2938 0 
L 2938 2094 
Q 2938 2591 2744 2837 
Q 2550 3084 2163 3084 
Q 1697 3084 1428 2787 
Q 1159 2491 1159 1978 
L 1159 0 
L 581 0 
L 581 3500 
L 1159 3500 
L 1159 2956 
Q 1366 3272 1645 3428 
Q 1925 3584 2291 3584 
Q 2894 3584 3203 3211 
Q 3513 2838 3513 2113 
z
" transform="scale(0.015625)"/>
      </defs>
      <use xlink:href="#DejaVuSans-50"/>
      <use xlink:href="#DejaVuSans-72" x="58.552734"/>
      <use xlink:href="#DejaVuSans-65" x="97.416016"/>
      <use xlink:href="#DejaVuSans-63" x="158.939453"/>
      <use xlink:href="#DejaVuSans-69" x="213.919922"/>
      <use xlink:href="#DejaVuSans-73" x="241.703125"/>
      <use xlink:href="#DejaVuSans-69" x="293.802734"/>
      <use xlink:href="#DejaVuSans-6f" x="321.585938"/>
      <use xlink:href="#DejaVuSans-6e" x="382.767578"/>
     </g>
    </g>
   </g>
   <g id="line2d_13">
    <path d="M 90 169.2 
L 648 169.2 
" clip-path="url(#pda339ce153)" style="fill: none; stroke-dasharray: 5.55,2.4; stroke-dashoffset: 0; stroke: #000000; stroke-width: 1.5"/>
   </g>
   <g id="line2d_14">
    <path d="M 90 78.6 
L 121.88412 78.6 
L 121.88412 102.761208 
L 121.88412 101.25 
L 124.16076 101.25 
L 124.16076 99.916368 
L 126.44298 99.916368 
L 126.44298 98.734944 
L 128.71962 98.734944 
L 128.71962 97.673112 
L 130.99626 97.673112 
L 130.99626 96.72 
L 133.2729 96.72 
L 133.2729 95.857488 
L 135.54954 95.857488 
L 135.54954 95.07108 
L 137.82618 95.07108 
L 137.82618 94.357152 
L 140.1084 94.357152 
L 140.1084 93.701208 
L 142.38504 93.701208 
L 142.38504 93.096 
L 144.66168 93.096 
L 144.66168 92.537904 
L 146.93832 92.537904 
L 146.93832 92.023296 
L 149.21496 92.023296 
L 149.21496 91.541304 
L 151.4916 91.541304 
L 151.4916 91.095552 
L 153.77382 91.095552 
L 153.77382 90.678792 
L 156.05046 90.678792 
L 156.05046 90.291024 
L 158.3271 90.291024 
L 158.3271 89.258184 
L 165.15702 89.258184 
L 165.15702 88.953768 
L 167.43924 88.953768 
L 167.43924 88.667472 
L 169.71588 88.667472 
L 169.71588 88.395672 
L 171.99252 88.395672 
L 171.99252 88.138368 
L 174.26916 88.138368 
L 174.26916 105.78 
L 174.26916 105.116808 
L 176.5458 105.116808 
L 176.5458 104.486232 
L 178.82244 104.486232 
L 178.82244 103.884648 
L 181.10466 103.884648 
L 181.10466 103.308432 
L 183.3813 103.308432 
L 183.3813 102.761208 
L 185.65794 102.761208 
L 185.65794 109.443864 
L 187.93458 109.443864 
L 187.93458 116.351208 
L 187.93458 115.579296 
L 190.21122 115.579296 
L 190.21122 120.413712 
L 194.77008 120.413712 
L 194.77008 119.627304 
L 197.04672 119.627304 
L 197.04672 118.866264 
L 199.32336 118.866264 
L 199.32336 118.134216 
L 201.6 118.134216 
L 201.6 117.427536 
L 203.87664 117.427536 
L 203.87664 116.746224 
L 206.15328 116.746224 
L 206.15328 122.338056 
L 206.15328 121.595136 
L 208.42992 121.595136 
L 208.42992 120.881208 
L 210.71214 120.881208 
L 210.71214 126.12876 
L 210.71214 125.360472 
L 212.98878 125.360472 
L 212.98878 124.617552 
L 215.26542 124.617552 
L 215.26542 123.9 
L 217.54206 123.9 
L 217.54206 128.777904 
L 217.54206 128.016864 
L 219.8187 128.016864 
L 219.8187 127.281192 
L 222.09534 127.281192 
L 222.09534 131.894544 
L 222.09534 131.122632 
L 224.37756 131.122632 
L 224.37756 135.547536 
L 224.37756 134.746632 
L 226.6542 134.746632 
L 226.6542 133.967472 
L 228.93084 133.967472 
L 228.93084 133.206432 
L 231.20748 133.206432 
L 231.20748 132.47076 
L 233.48412 132.47076 
L 233.48412 131.753208 
L 235.76076 131.753208 
L 235.76076 139.783992 
L 235.76076 139.001208 
L 238.04298 139.001208 
L 238.04298 138.236544 
L 240.31962 138.236544 
L 240.31962 137.49 
L 242.59626 137.49 
L 242.59626 136.761576 
L 244.8729 136.761576 
L 244.8729 140.472552 
L 244.8729 139.726008 
L 247.14954 139.726008 
L 247.14954 139.001208 
L 249.42618 139.001208 
L 249.42618 138.290904 
L 251.7084 138.290904 
L 251.7084 137.595096 
L 253.98504 137.595096 
L 253.98504 136.917408 
L 256.26168 136.917408 
L 256.26168 136.254216 
L 258.53832 136.254216 
L 258.53832 135.60552 
L 260.81496 135.60552 
L 260.81496 134.974944 
L 263.0916 134.974944 
L 263.0916 141.624984 
L 263.0916 140.947296 
L 265.37382 140.947296 
L 265.37382 147.263928 
L 265.37382 146.55 
L 267.65046 146.55 
L 267.65046 145.850568 
L 269.9271 145.850568 
L 269.9271 145.162008 
L 272.20374 145.162008 
L 272.20374 151.08 
L 272.20374 150.362448 
L 274.48038 150.362448 
L 274.48038 158.74476 
L 274.48038 157.98372 
L 276.75702 157.98372 
L 276.75702 157.233552 
L 279.03924 157.233552 
L 279.03924 159.88632 
L 279.03924 159.132528 
L 281.31588 159.132528 
L 281.31588 158.393232 
L 283.59252 158.393232 
L 283.59252 160.962648 
L 283.59252 159.491304 
L 288.1458 159.491304 
L 288.1458 158.777376 
L 290.42244 158.777376 
L 290.42244 161.252568 
L 290.42244 160.535016 
L 292.70466 160.535016 
L 292.70466 162.952224 
L 292.70466 162.231048 
L 294.9813 162.231048 
L 294.9813 161.520744 
L 297.25794 161.520744 
L 297.25794 160.824936 
L 299.53458 160.824936 
L 299.53458 160.14 
L 301.81122 160.14 
L 301.81122 162.45936 
L 301.81122 161.774424 
L 304.08786 161.774424 
L 304.08786 164.043048 
L 304.08786 163.354488 
L 306.37008 163.354488 
L 306.37008 162.6768 
L 308.64672 162.6768 
L 308.64672 162.009984 
L 310.92336 162.009984 
L 310.92336 161.35404 
L 313.2 161.35404 
L 313.2 169.892184 
L 313.2 169.2 
L 315.47664 169.2 
L 315.47664 168.518688 
L 317.75328 168.518688 
L 317.75328 180.282192 
L 317.75328 179.553768 
L 320.02992 179.553768 
L 320.02992 178.83984 
L 322.31214 178.83984 
L 322.31214 185.334048 
L 324.58878 185.334048 
L 324.58878 184.609248 
L 326.86542 184.609248 
L 326.86542 186.34152 
L 326.86542 185.61672 
L 329.14206 185.61672 
L 329.14206 184.902792 
L 331.4187 184.902792 
L 331.4187 186.598824 
L 331.4187 185.88852 
L 333.69534 185.88852 
L 333.69534 186.84888 
L 335.97756 186.84888 
L 335.97756 188.490552 
L 335.97756 187.783872 
L 338.2542 187.783872 
L 338.2542 189.396552 
L 338.2542 188.69712 
L 340.53084 188.69712 
L 340.53084 189.585 
L 342.80748 189.585 
L 342.80748 190.451136 
L 345.08412 190.451136 
L 345.08412 191.299152 
L 347.36076 191.299152 
L 347.36076 192.81036 
L 347.36076 192.1218 
L 349.64298 192.1218 
L 349.64298 191.444112 
L 351.91962 191.444112 
L 351.91962 192.252264 
L 354.19626 192.252264 
L 354.19626 195.162336 
L 354.19626 194.484648 
L 356.4729 194.484648 
L 356.4729 195.90888 
L 356.4729 195.234816 
L 358.74954 195.234816 
L 358.74954 198.02892 
L 358.74954 197.351232 
L 361.02618 197.351232 
L 361.02618 198.721104 
L 361.02618 198.050664 
L 363.3084 198.050664 
L 363.3084 203.359824 
L 363.3084 202.682136 
L 365.58504 202.682136 
L 365.58504 206.505456 
L 365.58504 205.824144 
L 367.86168 205.824144 
L 367.86168 205.153704 
L 370.13832 205.153704 
L 370.13832 206.393112 
L 370.13832 205.726296 
L 372.41496 205.726296 
L 372.41496 206.951208 
L 372.41496 206.284392 
L 374.6916 206.284392 
L 374.6916 205.628448 
L 376.97382 205.628448 
L 376.97382 208.553016 
L 379.25046 208.553016 
L 379.25046 209.719944 
L 379.25046 209.064 
L 381.5271 209.064 
L 381.5271 216.906336 
L 381.5271 216.243144 
L 383.80374 216.243144 
L 383.80374 217.319472 
L 383.80374 216.65628 
L 386.08038 216.65628 
L 386.08038 216.00396 
L 388.35702 216.00396 
L 388.35702 219.533736 
L 390.63924 219.533736 
L 390.63924 218.88504 
L 392.91588 218.88504 
L 392.91588 218.239968 
L 395.19252 218.239968 
L 395.19252 223.23384 
L 395.19252 222.588768 
L 397.46916 222.588768 
L 397.46916 221.950944 
L 399.7458 221.950944 
L 399.7458 224.1942 
L 402.02244 224.1942 
L 402.02244 223.56 
L 404.30466 223.56 
L 404.30466 226.361352 
L 404.30466 225.727152 
L 406.5813 225.727152 
L 406.5813 238.056 
L 408.85794 238.056 
L 408.85794 239.665056 
L 408.85794 239.030856 
L 411.13458 239.030856 
L 411.13458 243.07524 
L 413.41122 243.07524 
L 413.41122 248.34816 
L 415.68786 248.34816 
L 415.68786 249.768768 
L 415.68786 249.141816 
L 417.97008 249.141816 
L 417.97008 249.844872 
L 417.97008 248.598216 
L 422.52336 248.598216 
L 422.52336 255.998424 
L 422.52336 255.37872 
L 424.8 255.37872 
L 424.8 262.829664 
L 424.8 262.811544 
L 427.07664 262.811544 
L 427.07664 262.199088 
L 429.35328 262.199088 
L 429.35328 266.25072 
L 429.35328 266.207232 
L 431.62992 266.207232 
L 431.62992 275.770968 
L 431.62992 275.173008 
L 433.91214 275.173008 
L 433.91214 276.173232 
L 433.91214 274.991808 
L 440.74206 274.901208 
L 440.74206 278.764392 
L 440.74206 278.180928 
L 443.0187 278.180928 
L 443.0187 281.420784 
L 443.0187 281.297568 
L 445.29534 281.297568 
L 445.29534 283.0842 
L 445.29534 282.511608 
L 447.57756 282.511608 
L 447.57756 296.590848 
L 447.57756 296.04 
L 449.8542 296.04 
L 449.8542 295.489152 
L 452.13084 295.489152 
L 452.13084 294.945552 
L 454.40748 294.945552 
L 454.40748 297.475104 
L 454.40748 296.935128 
L 456.68412 296.935128 
L 456.68412 301.878264 
L 458.96076 301.878264 
L 458.96076 303.186528 
L 458.96076 302.661048 
L 461.24298 302.661048 
L 461.24298 304.889808 
L 461.24298 304.68324 
L 463.51962 304.68324 
L 463.51962 305.614608 
L 463.51962 305.40804 
L 465.79626 305.40804 
L 465.79626 308.999424 
L 465.79626 308.781984 
L 470.34954 308.858088 
L 470.34954 309.148008 
L 470.34954 308.644272 
L 472.62618 308.644272 
L 472.62618 309.785832 
L 472.62618 309.572016 
L 474.9084 309.572016 
L 474.9084 311.518104 
L 474.9084 311.02524 
L 477.18504 311.02524 
L 477.18504 312.11244 
L 477.18504 311.626824 
L 479.46168 311.626824 
L 479.46168 314.529648 
L 479.46168 314.308584 
L 481.73832 314.308584 
L 481.73832 314.852184 
L 484.01496 314.852184 
L 484.01496 316.109712 
L 484.01496 315.417528 
L 488.57382 315.417528 
L 488.57382 322.234272 
L 488.57382 321.328272 
L 493.1271 321.328272 
L 493.1271 320.875272 
L 495.40374 320.875272 
L 495.40374 320.64696 
L 497.68038 320.64696 
L 497.68038 327.191904 
L 497.68038 326.757024 
L 499.95702 326.757024 
L 499.95702 327.155664 
L 499.95702 327.119424 
L 502.23924 327.119424 
L 502.23924 332.580792 
L 502.23924 332.519184 
L 504.51588 332.519184 
L 504.51588 334.447152 
L 504.51588 334.034016 
L 509.06916 333.96516 
L 509.06916 335.32416 
L 509.06916 335.25168 
L 511.3458 335.25168 
L 511.3458 334.443528 
L 515.90466 334.443528 
L 515.90466 334.211592 
L 518.1813 334.211592 
L 518.1813 335.371272 
L 518.1813 334.972632 
L 522.73458 334.903776 
L 522.73458 335.875008 
L 522.73458 335.643072 
L 525.01122 335.643072 
L 525.01122 336.599808 
L 525.01122 336.208416 
L 527.28786 336.208416 
L 527.28786 337.763112 
L 527.28786 337.687008 
L 529.57008 337.687008 
L 529.57008 339.484512 
L 529.57008 339.40116 
L 531.84672 339.40116 
L 531.84672 342.670008 
L 531.84672 342.438072 
L 534.12336 342.438072 
L 534.12336 346.776 
L 534.12336 346.417224 
L 536.4 346.417224 
L 536.4 346.544064 
L 536.4 346.438968 
L 538.67664 346.438968 
L 538.67664 348.997512 
L 538.67664 348.888792 
L 540.95328 348.888792 
L 540.95328 350.171688 
L 540.95328 349.943376 
L 543.22992 349.943376 
L 543.22992 349.715064 
L 545.51214 349.715064 
L 545.51214 349.831032 
L 545.51214 349.718688 
L 547.78878 349.718688 
L 547.78878 349.947 
L 547.78878 349.609968 
L 550.06542 349.609968 
L 550.06542 353.850048 
L 550.06542 353.197728 
L 554.6187 353.197728 
L 554.6187 353.817432 
L 554.6187 353.701464 
L 556.89534 353.701464 
L 556.89534 354.00588 
L 556.89534 353.889912 
L 559.17756 353.889912 
L 559.17756 353.991384 
L 559.17756 355.752648 
L 561.4542 355.752648 
L 561.4542 356.140416 
L 561.4542 356.0172 
L 563.73084 356.0172 
L 563.73084 356.115048 
L 563.73084 356.303496 
L 563.73084 356.08968 
L 566.00748 356.08968 
L 566.00748 358.129992 
L 566.00748 358.006776 
L 568.28412 358.006776 
L 568.28412 359.826024 
L 570.56076 359.826024 
L 570.56076 365.4396 
L 570.56076 365.305512 
L 572.84298 365.305512 
L 572.84298 365.454096 
L 572.84298 365.247528 
L 575.11962 365.247528 
L 575.11962 365.76576 
L 575.11962 365.631672 
L 579.6729 365.573688 
L 579.6729 367.635744 
L 581.94954 367.635744 
L 581.94954 367.7046 
L 581.94954 369.509352 
L 584.22618 369.509352 
L 584.22618 370.534944 
L 584.22618 370.462464 
L 586.5084 370.462464 
L 586.5084 374.387256 
L 586.5084 374.249544 
L 588.78504 374.249544 
L 588.78504 381.595392 
L 588.78504 381.45768 
L 591.06168 381.45768 
L 591.06168 381.501168 
L 591.06168 383.099352 
L 591.06168 383.005128 
L 593.33832 383.005128 
L 593.33832 384.914976 
L 593.33832 384.777264 
L 595.61496 384.777264 
L 595.61496 384.856992 
L 595.61496 385.5528 
L 595.61496 385.53468 
L 597.8916 385.53468 
L 597.8916 385.799232 
L 597.8916 385.62528 
L 600.17382 385.62528 
L 600.17382 385.701384 
L 600.17382 386.955288 
L 600.17382 386.85744 
L 602.45046 386.85744 
L 602.45046 386.962536 
L 602.45046 389.03184 
L 602.45046 388.933992 
L 607.00374 388.86876 
L 607.00374 389.03184 
L 607.00374 392.608728 
L 607.00374 392.481888 
L 609.28038 392.481888 
L 609.28038 393.703176 
L 609.28038 393.659688 
L 611.55702 393.659688 
L 611.55702 393.764784 
L 611.55702 394.402608 
L 611.55702 394.330128 
L 613.83924 394.330128 
L 613.83924 394.435224 
L 613.83924 400.240872 
L 613.83924 400.182888 
L 616.11588 400.182888 
L 616.11588 400.28436 
L 616.11588 400.7736 
L 616.11588 400.657632 
L 618.39252 400.657632 
L 618.39252 400.733736 
L 618.39252 401.17224 
L 618.39252 401.132376 
L 620.66916 401.132376 
L 620.66916 401.19036 
L 620.66916 401.560008 
L 620.66916 401.483904 
L 622.9458 401.483904 
L 622.9458 401.592624 
L 622.9458 403.09296 
L 622.9458 402.980616 
L 625.22244 402.980616 
L 625.22244 403.031352 
L 625.22244 403.401 
L 625.22244 403.288656 
L 627.50466 403.288656 
L 627.50466 403.390128 
L 627.50466 407.235192 
L 627.50466 407.173584 
L 629.7813 407.173584 
L 629.7813 407.198952 
L 629.7813 410.261232 
L 629.7813 410.163384 
L 632.05794 410.163384 
L 632.05794 410.272104 
L 632.05794 410.543904 
L 632.05794 410.471424 
L 634.33458 410.471424 
L 634.33458 410.57652 
L 634.33458 413.704032 
L 634.33458 413.631552 
L 636.61122 413.631552 
L 636.61122 413.707656 
L 636.61122 422.144328 
L 636.61122 422.079096 
L 643.44672 422.108088 
L 643.44672 422.187816 
L 643.44672 423.20616 
L 643.44672 423.1518 
L 645.72336 423.1518 
L 645.72336 423.256896 
L 645.72336 425.474784 
L 645.72336 425.413176 
L 648 425.413176 
L 648 425.427672 
" clip-path="url(#pda339ce153)" style="fill: none; stroke: #ff0000; stroke-opacity: 0.8; stroke-width: 1.5; stroke-linecap: square"/>
   </g>
   <g id="line2d_15">
    <defs>
     <path id="m9413a919ae" d="M 0 3 
C 0.795609 3 1.55874 2.683901 2.12132 2.12132 
C 2.683901 1.55874 3 0.795609 3 0 
C 3 -0.795609 2.683901 -1.55874 2.12132 -2.12132 
C 1.55874 -2.683901 0.795609 -3 0 -3 
C -0.795609 -3 -1.55874 -2.683901 -2.12132 -2.12132 
C -2.683901 -1.55874 -3 -0.795609 -3 0 
C -3 0.795609 -2.683901 1.55874 -2.12132 2.12132 
C -1.55874 2.683901 -0.795609 3 0 3 
z
" style="stroke: #000000"/>
    </defs>
    <g clip-path="url(#pda339ce153)">
     <use xlink:href="#m9413a919ae" x="320.032653" y="277.596429" style="stroke: #000000"/>
    </g>
   </g>
   <g id="line2d_16">
    <defs>
     <path id="m56b67f523a" d="M 0 3 
C 0.795609 3 1.55874 2.683901 2.12132 2.12132 
C 2.683901 1.55874 3 0.795609 3 0 
C 3 -0.795609 2.683901 -1.55874 2.12132 -2.12132 
C 1.55874 -2.683901 0.795609 -3 0 -3 
C -0.795609 -3 -1.55874 -2.683901 -2.12132 -2.12132 
C -2.683901 -1.55874 -3 -0.795609 -3 0 
C -3 0.795609 -2.683901 1.55874 -2.12132 2.12132 
C -1.55874 2.683901 -0.795609 3 0 3 
z
" style="stroke: #008000"/>
    </defs>
    <g clip-path="url(#pda339ce153)">
     <use xlink:href="#m56b67f523a" x="379.24898" y="259.083794" style="fill: #008000; stroke: #008000"/>
    </g>
   </g>
   <g id="line2d_17">
    <defs>
     <path id="mdd1609ec0d" d="M 0 3 
C 0.795609 3 1.55874 2.683901 2.12132 2.12132 
C 2.683901 1.55874 3 0.795609 3 0 
C 3 -0.795609 2.683901 -1.55874 2.12132 -2.12132 
C 1.55874 -2.683901 0.795609 -3 0 -3 
C -0.795609 -3 -1.55874 -2.683901 -2.12132 -2.12132 
C -2.683901 -1.55874 -3 -0.795609 -3 0 
C -3 0.795609 -2.683901 1.55874 -2.12132 2.12132 
C -1.55874 2.683901 -0.795609 3 0 3 
z
" style="stroke: #00bfbf"/>
    </defs>
    <g clip-path="url(#pda339ce153)">
     <use xlink:href="#mdd1609ec0d" x="258.538776" y="333.298795" style="fill: #00bfbf; stroke: #00bfbf"/>
    </g>
   </g>
   <g id="line2d_18">
    <defs>
     <path id="m4b41333718" d="M 0 3 
C 0.795609 3 1.55874 2.683901 2.12132 2.12132 
C 2.683901 1.55874 3 0.795609 3 0 
C 3 -0.795609 2.683901 -1.55874 2.12132 -2.12132 
C 1.55874 -2.683901 0.795609 -3 0 -3 
C -0.795609 -3 -1.55874 -2.683901 -2.12132 -2.12132 
C -2.683901 -1.55874 -3 -0.795609 -3 0 
C -3 0.795609 -2.683901 1.55874 -2.12132 2.12132 
C -1.55874 2.683901 -0.795609 3 0 3 
z
" style="stroke: #0000ff"/>
    </defs>
    <g clip-path="url(#pda339ce153)">
     <use xlink:href="#m4b41333718" x="113.198914" y="425.933178" style="fill: #0000ff; stroke: #0000ff"/>
    </g>
   </g>
   <g id="line2d_19">
    <path d="M 313.2 441 
L 313.2 60.48 
" clip-path="url(#pda339ce153)" style="fill: none; stroke: #0000ff; stroke-opacity: 0.1; stroke-width: 2; stroke-linecap: square"/>
   </g>
   <g id="patch_3">
    <path d="M 90 441 
L 90 60.48 
" style="fill: none; stroke: #000000; stroke-width: 0.8; stroke-linejoin: miter; stroke-linecap: square"/>
   </g>
   <g id="patch_4">
    <path d="M 648 441 
L 648 60.48 
" style="fill: none; stroke: #000000; stroke-width: 0.8; stroke-linejoin: miter; stroke-linecap: square"/>
   </g>
   <g id="patch_5">
    <path d="M 90 441 
L 648 441 
" style="fill: none; stroke: #000000; stroke-width: 0.8; stroke-linejoin: miter; stroke-linecap: square"/>
   </g>
   <g id="patch_6">
    <path d="M 90 60.48 
L 648 60.48 
" style="fill: none; stroke: #000000; stroke-width: 0.8; stroke-linejoin: miter; stroke-linecap: square"/>
   </g>
   <g id="text_15">
    <!-- 75% precision -->
    <g transform="translate(326.6925 165.576)scale(0.12 -0.12)">
     <defs>
      <path id="DejaVuSans-37" d="M 525 4666 
L 3525 4666 
L 3525 4397 
L 1831 0 
L 1172 0 
L 2766 4134 
L 525 4134 
L 525 4666 
z
" transform="scale(0.015625)"/>
      <path id="DejaVuSans-35" d="M 691 4666 
L 3169 4666 
L 3169 4134 
L 1269 4134 
L 1269 2991 
Q 1406 3038 1543 3061 
Q 1681 3084 1819 3084 
Q 2600 3084 3056 2656 
Q 3513 2228 3513 1497 
Q 3513 744 3044 326 
Q 2575 -91 1722 -91 
Q 1428 -91 1123 -41 
Q 819 9 494 109 
L 494 744 
Q 775 591 1075 516 
Q 1375 441 1709 441 
Q 2250 441 2565 725 
Q 2881 1009 2881 1497 
Q 2881 1984 2565 2268 
Q 2250 2553 1709 2553 
Q 1456 2553 1204 2497 
Q 953 2441 691 2322 
L 691 4666 
z
" transform="scale(0.015625)"/>
      <path id="DejaVuSans-25" d="M 4653 2053 
Q 4381 2053 4226 1822 
Q 4072 1591 4072 1178 
Q 4072 772 4226 539 
Q 4381 306 4653 306 
Q 4919 306 5073 539 
Q 5228 772 5228 1178 
Q 5228 1588 5073 1820 
Q 4919 2053 4653 2053 
z
M 4653 2450 
Q 5147 2450 5437 2106 
Q 5728 1763 5728 1178 
Q 5728 594 5436 251 
Q 5144 -91 4653 -91 
Q 4153 -91 3862 251 
Q 3572 594 3572 1178 
Q 3572 1766 3864 2108 
Q 4156 2450 4653 2450 
z
M 1428 4353 
Q 1159 4353 1004 4120 
Q 850 3888 850 3481 
Q 850 3069 1003 2837 
Q 1156 2606 1428 2606 
Q 1700 2606 1854 2837 
Q 2009 3069 2009 3481 
Q 2009 3884 1853 4118 
Q 1697 4353 1428 4353 
z
M 4250 4750 
L 4750 4750 
L 1831 -91 
L 1331 -91 
L 4250 4750 
z
M 1428 4750 
Q 1922 4750 2215 4408 
Q 2509 4066 2509 3481 
Q 2509 2891 2217 2550 
Q 1925 2209 1428 2209 
Q 931 2209 642 2551 
Q 353 2894 353 3481 
Q 353 4063 643 4406 
Q 934 4750 1428 4750 
z
" transform="scale(0.015625)"/>
      <path id="DejaVuSans-20" transform="scale(0.015625)"/>
      <path id="DejaVuSans-70" d="M 1159 525 
L 1159 -1331 
L 581 -1331 
L 581 3500 
L 1159 3500 
L 1159 2969 
Q 1341 3281 1617 3432 
Q 1894 3584 2278 3584 
Q 2916 3584 3314 3078 
Q 3713 2572 3713 1747 
Q 3713 922 3314 415 
Q 2916 -91 2278 -91 
Q 1894 -91 1617 61 
Q 1341 213 1159 525 
z
M 3116 1747 
Q 3116 2381 2855 2742 
Q 2594 3103 2138 3103 
Q 1681 3103 1420 2742 
Q 1159 2381 1159 1747 
Q 1159 1113 1420 752 
Q 1681 391 2138 391 
Q 2594 391 2855 752 
Q 3116 1113 3116 1747 
z
" transform="scale(0.015625)"/>
     </defs>
     <use xlink:href="#DejaVuSans-37"/>
     <use xlink:href="#DejaVuSans-35" x="63.623047"/>
     <use xlink:href="#DejaVuSans-25" x="127.246094"/>
     <use xlink:href="#DejaVuSans-20" x="222.265625"/>
     <use xlink:href="#DejaVuSans-70" x="254.052734"/>
     <use xlink:href="#DejaVuSans-72" x="317.529297"/>
     <use xlink:href="#DejaVuSans-65" x="356.392578"/>
     <use xlink:href="#DejaVuSans-63" x="417.916016"/>
     <use xlink:href="#DejaVuSans-69" x="472.896484"/>
     <use xlink:href="#DejaVuSans-73" x="500.679688"/>
     <use xlink:href="#DejaVuSans-69" x="552.779297"/>
     <use xlink:href="#DejaVuSans-6f" x="580.5625"/>
     <use xlink:href="#DejaVuSans-6e" x="641.744141"/>
    </g>
   </g>
   <g id="text_16">
    <!-- Precision-Recall Curve -->
    <g transform="translate(302.5575 54.48)scale(0.12 -0.12)">
     <defs>
      <path id="DejaVuSans-2d" d="M 313 2009 
L 1997 2009 
L 1997 1497 
L 313 1497 
L 313 2009 
z
" transform="scale(0.015625)"/>
      <path id="DejaVuSans-43" d="M 4122 4306 
L 4122 3641 
Q 3803 3938 3442 4084 
Q 3081 4231 2675 4231 
Q 1875 4231 1450 3742 
Q 1025 3253 1025 2328 
Q 1025 1406 1450 917 
Q 1875 428 2675 428 
Q 3081 428 3442 575 
Q 3803 722 4122 1019 
L 4122 359 
Q 3791 134 3420 21 
Q 3050 -91 2638 -91 
Q 1578 -91 968 557 
Q 359 1206 359 2328 
Q 359 3453 968 4101 
Q 1578 4750 2638 4750 
Q 3056 4750 3426 4639 
Q 3797 4528 4122 4306 
z
" transform="scale(0.015625)"/>
      <path id="DejaVuSans-75" d="M 544 1381 
L 544 3500 
L 1119 3500 
L 1119 1403 
Q 1119 906 1312 657 
Q 1506 409 1894 409 
Q 2359 409 2629 706 
Q 2900 1003 2900 1516 
L 2900 3500 
L 3475 3500 
L 3475 0 
L 2900 0 
L 2900 538 
Q 2691 219 2414 64 
Q 2138 -91 1772 -91 
Q 1169 -91 856 284 
Q 544 659 544 1381 
z
M 1991 3584 
L 1991 3584 
z
" transform="scale(0.015625)"/>
      <path id="DejaVuSans-76" d="M 191 3500 
L 800 3500 
L 1894 563 
L 2988 3500 
L 3597 3500 
L 2284 0 
L 1503 0 
L 191 3500 
z
" transform="scale(0.015625)"/>
     </defs>
     <use xlink:href="#DejaVuSans-50"/>
     <use xlink:href="#DejaVuSans-72" x="58.552734"/>
     <use xlink:href="#DejaVuSans-65" x="97.416016"/>
     <use xlink:href="#DejaVuSans-63" x="158.939453"/>
     <use xlink:href="#DejaVuSans-69" x="213.919922"/>
     <use xlink:href="#DejaVuSans-73" x="241.703125"/>
     <use xlink:href="#DejaVuSans-69" x="293.802734"/>
     <use xlink:href="#DejaVuSans-6f" x="321.585938"/>
     <use xlink:href="#DejaVuSans-6e" x="382.767578"/>
     <use xlink:href="#DejaVuSans-2d" x="446.146484"/>
     <use xlink:href="#DejaVuSans-52" x="482.230469"/>
     <use xlink:href="#DejaVuSans-65" x="547.212891"/>
     <use xlink:href="#DejaVuSans-63" x="608.736328"/>
     <use xlink:href="#DejaVuSans-61" x="663.716797"/>
     <use xlink:href="#DejaVuSans-6c" x="724.996094"/>
     <use xlink:href="#DejaVuSans-6c" x="752.779297"/>
     <use xlink:href="#DejaVuSans-20" x="780.5625"/>
     <use xlink:href="#DejaVuSans-43" x="812.349609"/>
     <use xlink:href="#DejaVuSans-75" x="882.173828"/>
     <use xlink:href="#DejaVuSans-72" x="945.552734"/>
     <use xlink:href="#DejaVuSans-76" x="986.666016"/>
     <use xlink:href="#DejaVuSans-65" x="1045.845703"/>
    </g>
   </g>
   <g id="legend_1">
    <g id="line2d_20">
     <path d="M 519.440625 73.578438 
L 519.440625 73.578438 
L 529.440625 73.578438 
L 529.440625 73.578438 
L 539.440625 73.578438 
" style="fill: none; stroke: #ff0000; stroke-opacity: 0.8; stroke-width: 1.5; stroke-linecap: square"/>
    </g>
    <g id="text_17">
     <!-- FLAMES (0.59) -->
     <g transform="translate(547.440625 77.078438)scale(0.1 -0.1)">
      <defs>
       <path id="DejaVuSans-46" d="M 628 4666 
L 3309 4666 
L 3309 4134 
L 1259 4134 
L 1259 2759 
L 3109 2759 
L 3109 2228 
L 1259 2228 
L 1259 0 
L 628 0 
L 628 4666 
z
" transform="scale(0.015625)"/>
       <path id="DejaVuSans-4c" d="M 628 4666 
L 1259 4666 
L 1259 531 
L 3531 531 
L 3531 0 
L 628 0 
L 628 4666 
z
" transform="scale(0.015625)"/>
       <path id="DejaVuSans-41" d="M 2188 4044 
L 1331 1722 
L 3047 1722 
L 2188 4044 
z
M 1831 4666 
L 2547 4666 
L 4325 0 
L 3669 0 
L 3244 1197 
L 1141 1197 
L 716 0 
L 50 0 
L 1831 4666 
z
" transform="scale(0.015625)"/>
       <path id="DejaVuSans-4d" d="M 628 4666 
L 1569 4666 
L 2759 1491 
L 3956 4666 
L 4897 4666 
L 4897 0 
L 4281 0 
L 4281 4097 
L 3078 897 
L 2444 897 
L 1241 4097 
L 1241 0 
L 628 0 
L 628 4666 
z
" transform="scale(0.015625)"/>
       <path id="DejaVuSans-45" d="M 628 4666 
L 3578 4666 
L 3578 4134 
L 1259 4134 
L 1259 2753 
L 3481 2753 
L 3481 2222 
L 1259 2222 
L 1259 531 
L 3634 531 
L 3634 0 
L 628 0 
L 628 4666 
z
" transform="scale(0.015625)"/>
       <path id="DejaVuSans-53" d="M 3425 4513 
L 3425 3897 
Q 3066 4069 2747 4153 
Q 2428 4238 2131 4238 
Q 1616 4238 1336 4038 
Q 1056 3838 1056 3469 
Q 1056 3159 1242 3001 
Q 1428 2844 1947 2747 
L 2328 2669 
Q 3034 2534 3370 2195 
Q 3706 1856 3706 1288 
Q 3706 609 3251 259 
Q 2797 -91 1919 -91 
Q 1588 -91 1214 -16 
Q 841 59 441 206 
L 441 856 
Q 825 641 1194 531 
Q 1563 422 1919 422 
Q 2459 422 2753 634 
Q 3047 847 3047 1241 
Q 3047 1584 2836 1778 
Q 2625 1972 2144 2069 
L 1759 2144 
Q 1053 2284 737 2584 
Q 422 2884 422 3419 
Q 422 4038 858 4394 
Q 1294 4750 2059 4750 
Q 2388 4750 2728 4690 
Q 3069 4631 3425 4513 
z
" transform="scale(0.015625)"/>
       <path id="DejaVuSans-28" d="M 1984 4856 
Q 1566 4138 1362 3434 
Q 1159 2731 1159 2009 
Q 1159 1288 1364 580 
Q 1569 -128 1984 -844 
L 1484 -844 
Q 1016 -109 783 600 
Q 550 1309 550 2009 
Q 550 2706 781 3412 
Q 1013 4119 1484 4856 
L 1984 4856 
z
" transform="scale(0.015625)"/>
       <path id="DejaVuSans-39" d="M 703 97 
L 703 672 
Q 941 559 1184 500 
Q 1428 441 1663 441 
Q 2288 441 2617 861 
Q 2947 1281 2994 2138 
Q 2813 1869 2534 1725 
Q 2256 1581 1919 1581 
Q 1219 1581 811 2004 
Q 403 2428 403 3163 
Q 403 3881 828 4315 
Q 1253 4750 1959 4750 
Q 2769 4750 3195 4129 
Q 3622 3509 3622 2328 
Q 3622 1225 3098 567 
Q 2575 -91 1691 -91 
Q 1453 -91 1209 -44 
Q 966 3 703 97 
z
M 1959 2075 
Q 2384 2075 2632 2365 
Q 2881 2656 2881 3163 
Q 2881 3666 2632 3958 
Q 2384 4250 1959 4250 
Q 1534 4250 1286 3958 
Q 1038 3666 1038 3163 
Q 1038 2656 1286 2365 
Q 1534 2075 1959 2075 
z
" transform="scale(0.015625)"/>
       <path id="DejaVuSans-29" d="M 513 4856 
L 1013 4856 
Q 1481 4119 1714 3412 
Q 1947 2706 1947 2009 
Q 1947 1309 1714 600 
Q 1481 -109 1013 -844 
L 513 -844 
Q 928 -128 1133 580 
Q 1338 1288 1338 2009 
Q 1338 2731 1133 3434 
Q 928 4138 513 4856 
z
" transform="scale(0.015625)"/>
      </defs>
      <use xlink:href="#DejaVuSans-46"/>
      <use xlink:href="#DejaVuSans-4c" x="57.519531"/>
      <use xlink:href="#DejaVuSans-41" x="115.482422"/>
      <use xlink:href="#DejaVuSans-4d" x="183.890625"/>
      <use xlink:href="#DejaVuSans-45" x="270.169922"/>
      <use xlink:href="#DejaVuSans-53" x="333.353516"/>
      <use xlink:href="#DejaVuSans-20" x="396.830078"/>
      <use xlink:href="#DejaVuSans-28" x="428.617188"/>
      <use xlink:href="#DejaVuSans-30" x="467.630859"/>
      <use xlink:href="#DejaVuSans-2e" x="531.253906"/>
      <use xlink:href="#DejaVuSans-35" x="563.041016"/>
      <use xlink:href="#DejaVuSans-39" x="626.664062"/>
      <use xlink:href="#DejaVuSans-29" x="690.287109"/>
     </g>
    </g>
    <g id="line2d_21">
     <g>
      <use xlink:href="#m9413a919ae" x="529.440625" y="88.256563" style="stroke: #000000"/>
     </g>
    </g>
    <g id="text_18">
     <!-- Closest gene -->
     <g transform="translate(547.440625 91.756563)scale(0.1 -0.1)">
      <defs>
       <path id="DejaVuSans-74" d="M 1172 4494 
L 1172 3500 
L 2356 3500 
L 2356 3053 
L 1172 3053 
L 1172 1153 
Q 1172 725 1289 603 
Q 1406 481 1766 481 
L 2356 481 
L 2356 0 
L 1766 0 
Q 1100 0 847 248 
Q 594 497 594 1153 
L 594 3053 
L 172 3053 
L 172 3500 
L 594 3500 
L 594 4494 
L 1172 4494 
z
" transform="scale(0.015625)"/>
       <path id="DejaVuSans-67" d="M 2906 1791 
Q 2906 2416 2648 2759 
Q 2391 3103 1925 3103 
Q 1463 3103 1205 2759 
Q 947 2416 947 1791 
Q 947 1169 1205 825 
Q 1463 481 1925 481 
Q 2391 481 2648 825 
Q 2906 1169 2906 1791 
z
M 3481 434 
Q 3481 -459 3084 -895 
Q 2688 -1331 1869 -1331 
Q 1566 -1331 1297 -1286 
Q 1028 -1241 775 -1147 
L 775 -588 
Q 1028 -725 1275 -790 
Q 1522 -856 1778 -856 
Q 2344 -856 2625 -561 
Q 2906 -266 2906 331 
L 2906 616 
Q 2728 306 2450 153 
Q 2172 0 1784 0 
Q 1141 0 747 490 
Q 353 981 353 1791 
Q 353 2603 747 3093 
Q 1141 3584 1784 3584 
Q 2172 3584 2450 3431 
Q 2728 3278 2906 2969 
L 2906 3500 
L 3481 3500 
L 3481 434 
z
" transform="scale(0.015625)"/>
      </defs>
      <use xlink:href="#DejaVuSans-43"/>
      <use xlink:href="#DejaVuSans-6c" x="69.824219"/>
      <use xlink:href="#DejaVuSans-6f" x="97.607422"/>
      <use xlink:href="#DejaVuSans-73" x="158.789062"/>
      <use xlink:href="#DejaVuSans-65" x="210.888672"/>
      <use xlink:href="#DejaVuSans-73" x="272.412109"/>
      <use xlink:href="#DejaVuSans-74" x="324.511719"/>
      <use xlink:href="#DejaVuSans-20" x="363.720703"/>
      <use xlink:href="#DejaVuSans-67" x="395.507812"/>
      <use xlink:href="#DejaVuSans-65" x="458.984375"/>
      <use xlink:href="#DejaVuSans-6e" x="520.507812"/>
      <use xlink:href="#DejaVuSans-65" x="583.886719"/>
     </g>
    </g>
    <g id="line2d_22">
     <g>
      <use xlink:href="#m56b67f523a" x="529.440625" y="102.934687" style="fill: #008000; stroke: #008000"/>
     </g>
    </g>
    <g id="text_19">
     <!-- Highest PoPS -->
     <g transform="translate(547.440625 106.434687)scale(0.1 -0.1)">
      <defs>
       <path id="DejaVuSans-48" d="M 628 4666 
L 1259 4666 
L 1259 2753 
L 3553 2753 
L 3553 4666 
L 4184 4666 
L 4184 0 
L 3553 0 
L 3553 2222 
L 1259 2222 
L 1259 0 
L 628 0 
L 628 4666 
z
" transform="scale(0.015625)"/>
       <path id="DejaVuSans-68" d="M 3513 2113 
L 3513 0 
L 2938 0 
L 2938 2094 
Q 2938 2591 2744 2837 
Q 2550 3084 2163 3084 
Q 1697 3084 1428 2787 
Q 1159 2491 1159 1978 
L 1159 0 
L 581 0 
L 581 4863 
L 1159 4863 
L 1159 2956 
Q 1366 3272 1645 3428 
Q 1925 3584 2291 3584 
Q 2894 3584 3203 3211 
Q 3513 2838 3513 2113 
z
" transform="scale(0.015625)"/>
      </defs>
      <use xlink:href="#DejaVuSans-48"/>
      <use xlink:href="#DejaVuSans-69" x="75.195312"/>
      <use xlink:href="#DejaVuSans-67" x="102.978516"/>
      <use xlink:href="#DejaVuSans-68" x="166.455078"/>
      <use xlink:href="#DejaVuSans-65" x="229.833984"/>
      <use xlink:href="#DejaVuSans-73" x="291.357422"/>
      <use xlink:href="#DejaVuSans-74" x="343.457031"/>
      <use xlink:href="#DejaVuSans-20" x="382.666016"/>
      <use xlink:href="#DejaVuSans-50" x="414.453125"/>
      <use xlink:href="#DejaVuSans-6f" x="471.130859"/>
      <use xlink:href="#DejaVuSans-50" x="532.3125"/>
      <use xlink:href="#DejaVuSans-53" x="592.615234"/>
     </g>
    </g>
    <g id="line2d_23">
     <g>
      <use xlink:href="#mdd1609ec0d" x="529.440625" y="117.612813" style="fill: #00bfbf; stroke: #00bfbf"/>
     </g>
    </g>
    <g id="text_20">
     <!-- Highest MAGMA-Z -->
     <g transform="translate(547.440625 121.112813)scale(0.1 -0.1)">
      <defs>
       <path id="DejaVuSans-47" d="M 3809 666 
L 3809 1919 
L 2778 1919 
L 2778 2438 
L 4434 2438 
L 4434 434 
Q 4069 175 3628 42 
Q 3188 -91 2688 -91 
Q 1594 -91 976 548 
Q 359 1188 359 2328 
Q 359 3472 976 4111 
Q 1594 4750 2688 4750 
Q 3144 4750 3555 4637 
Q 3966 4525 4313 4306 
L 4313 3634 
Q 3963 3931 3569 4081 
Q 3175 4231 2741 4231 
Q 1884 4231 1454 3753 
Q 1025 3275 1025 2328 
Q 1025 1384 1454 906 
Q 1884 428 2741 428 
Q 3075 428 3337 486 
Q 3600 544 3809 666 
z
" transform="scale(0.015625)"/>
       <path id="DejaVuSans-5a" d="M 359 4666 
L 4025 4666 
L 4025 4184 
L 1075 531 
L 4097 531 
L 4097 0 
L 288 0 
L 288 481 
L 3238 4134 
L 359 4134 
L 359 4666 
z
" transform="scale(0.015625)"/>
      </defs>
      <use xlink:href="#DejaVuSans-48"/>
      <use xlink:href="#DejaVuSans-69" x="75.195312"/>
      <use xlink:href="#DejaVuSans-67" x="102.978516"/>
      <use xlink:href="#DejaVuSans-68" x="166.455078"/>
      <use xlink:href="#DejaVuSans-65" x="229.833984"/>
      <use xlink:href="#DejaVuSans-73" x="291.357422"/>
      <use xlink:href="#DejaVuSans-74" x="343.457031"/>
      <use xlink:href="#DejaVuSans-20" x="382.666016"/>
      <use xlink:href="#DejaVuSans-4d" x="414.453125"/>
      <use xlink:href="#DejaVuSans-41" x="500.732422"/>
      <use xlink:href="#DejaVuSans-47" x="567.390625"/>
      <use xlink:href="#DejaVuSans-4d" x="644.880859"/>
      <use xlink:href="#DejaVuSans-41" x="731.160156"/>
      <use xlink:href="#DejaVuSans-2d" x="797.318359"/>
      <use xlink:href="#DejaVuSans-5a" x="833.402344"/>
     </g>
    </g>
    <g id="line2d_24">
     <g>
      <use xlink:href="#m4b41333718" x="529.440625" y="132.290938" style="fill: #0000ff; stroke: #0000ff"/>
     </g>
    </g>
    <g id="text_21">
     <!-- Random_predictor -->
     <g transform="translate(547.440625 135.790938)scale(0.1 -0.1)">
      <defs>
       <path id="DejaVuSans-64" d="M 2906 2969 
L 2906 4863 
L 3481 4863 
L 3481 0 
L 2906 0 
L 2906 525 
Q 2725 213 2448 61 
Q 2172 -91 1784 -91 
Q 1150 -91 751 415 
Q 353 922 353 1747 
Q 353 2572 751 3078 
Q 1150 3584 1784 3584 
Q 2172 3584 2448 3432 
Q 2725 3281 2906 2969 
z
M 947 1747 
Q 947 1113 1208 752 
Q 1469 391 1925 391 
Q 2381 391 2643 752 
Q 2906 1113 2906 1747 
Q 2906 2381 2643 2742 
Q 2381 3103 1925 3103 
Q 1469 3103 1208 2742 
Q 947 2381 947 1747 
z
" transform="scale(0.015625)"/>
       <path id="DejaVuSans-6d" d="M 3328 2828 
Q 3544 3216 3844 3400 
Q 4144 3584 4550 3584 
Q 5097 3584 5394 3201 
Q 5691 2819 5691 2113 
L 5691 0 
L 5113 0 
L 5113 2094 
Q 5113 2597 4934 2840 
Q 4756 3084 4391 3084 
Q 3944 3084 3684 2787 
Q 3425 2491 3425 1978 
L 3425 0 
L 2847 0 
L 2847 2094 
Q 2847 2600 2669 2842 
Q 2491 3084 2119 3084 
Q 1678 3084 1418 2786 
Q 1159 2488 1159 1978 
L 1159 0 
L 581 0 
L 581 3500 
L 1159 3500 
L 1159 2956 
Q 1356 3278 1631 3431 
Q 1906 3584 2284 3584 
Q 2666 3584 2933 3390 
Q 3200 3197 3328 2828 
z
" transform="scale(0.015625)"/>
       <path id="DejaVuSans-5f" d="M 3263 -1063 
L 3263 -1509 
L -63 -1509 
L -63 -1063 
L 3263 -1063 
z
" transform="scale(0.015625)"/>
      </defs>
      <use xlink:href="#DejaVuSans-52"/>
      <use xlink:href="#DejaVuSans-61" x="67.232422"/>
      <use xlink:href="#DejaVuSans-6e" x="128.511719"/>
      <use xlink:href="#DejaVuSans-64" x="191.890625"/>
      <use xlink:href="#DejaVuSans-6f" x="255.367188"/>
      <use xlink:href="#DejaVuSans-6d" x="316.548828"/>
      <use xlink:href="#DejaVuSans-5f" x="413.960938"/>
      <use xlink:href="#DejaVuSans-70" x="463.960938"/>
      <use xlink:href="#DejaVuSans-72" x="527.4375"/>
      <use xlink:href="#DejaVuSans-65" x="566.300781"/>
      <use xlink:href="#DejaVuSans-64" x="627.824219"/>
      <use xlink:href="#DejaVuSans-69" x="691.300781"/>
      <use xlink:href="#DejaVuSans-63" x="719.083984"/>
      <use xlink:href="#DejaVuSans-74" x="774.064453"/>
      <use xlink:href="#DejaVuSans-6f" x="813.273438"/>
      <use xlink:href="#DejaVuSans-72" x="874.455078"/>
     </g>
    </g>
   </g>
  </g>
 </g>
 <defs>
  <clipPath id="pda339ce153">
   <rect x="90" y="60.48" width="558" height="380.52"/>
  </clipPath>
 </defs>
</svg>
