<?xml version="1.0" encoding="utf-8" standalone="no"?>
<!DOCTYPE svg PUBLIC "-//W3C//DTD SVG 1.1//EN"
  "http://www.w3.org/Graphics/SVG/1.1/DTD/svg11.dtd">
<svg xmlns:xlink="http://www.w3.org/1999/xlink" width="720pt" height="576pt" viewBox="0 0 720 576" xmlns="http://www.w3.org/2000/svg" version="1.1">
 <metadata>
  <rdf:RDF xmlns:dc="http://purl.org/dc/elements/1.1/" xmlns:cc="http://creativecommons.org/ns#" xmlns:rdf="http://www.w3.org/1999/02/22-rdf-syntax-ns#">
   <cc:Work>
    <dc:type rdf:resource="http://purl.org/dc/dcmitype/StillImage"/>
    <dc:date>2025-01-12T11:46:21.476498</dc:date>
    <dc:format>image/svg+xml</dc:format>
    <dc:creator>
     <cc:Agent>
      <dc:title>Matplotlib v3.5.2, https://matplotlib.org/</dc:title>
     </cc:Agent>
    </dc:creator>
   </cc:Work>
  </rdf:RDF>
 </metadata>
 <defs>
  <style type="text/css">*{stroke-linejoin: round; stroke-linecap: butt}</style>
 </defs>
 <g id="figure_1">
  <g id="patch_1">
   <path d="M 0 576 
L 720 576 
L 720 0 
L 0 0 
L 0 576 
z
" style="fill: none"/>
  </g>
  <g id="axes_1">
   <g id="patch_2">
    <path d="M 52.8 439.736 
L 701.2 439.736 
L 701.2 30.8 
L 52.8 30.8 
z
" style="fill: #ffffff"/>
   </g>
   <g id="matplotlib.axis_1">
    <g id="xtick_1">
     <g id="line2d_1">
      <defs>
       <path id="m6109003844" d="M 0 0 
L 0 3.5 
" style="stroke: #000000; stroke-width: 0.8"/>
      </defs>
      <g>
       <use xlink:href="#m6109003844" x="117.64" y="439.736" style="stroke: #000000; stroke-width: 0.8"/>
      </g>
     </g>
     <g id="text_1">
      <text style="font: 10px 'sans-serif'; text-anchor: middle" x="117.64" y="454.334437" transform="rotate(-0, 117.64, 454.334437)">0.1</text>
     </g>
    </g>
    <g id="xtick_2">
     <g id="line2d_2">
      <g>
       <use xlink:href="#m6109003844" x="182.48" y="439.736" style="stroke: #000000; stroke-width: 0.8"/>
      </g>
     </g>
     <g id="text_2">
      <text style="font: 10px 'sans-serif'; text-anchor: middle" x="182.48" y="454.334437" transform="rotate(-0, 182.48, 454.334437)">0.2</text>
     </g>
    </g>
    <g id="xtick_3">
     <g id="line2d_3">
      <g>
       <use xlink:href="#m6109003844" x="247.32" y="439.736" style="stroke: #000000; stroke-width: 0.8"/>
      </g>
     </g>
     <g id="text_3">
      <text style="font: 10px 'sans-serif'; text-anchor: middle" x="247.32" y="454.334437" transform="rotate(-0, 247.32, 454.334437)">0.3</text>
     </g>
    </g>
    <g id="xtick_4">
     <g id="line2d_4">
      <g>
       <use xlink:href="#m6109003844" x="312.16" y="439.736" style="stroke: #000000; stroke-width: 0.8"/>
      </g>
     </g>
     <g id="text_4">
      <text style="font: 10px 'sans-serif'; text-anchor: middle" x="312.16" y="454.334437" transform="rotate(-0, 312.16, 454.334437)">0.4</text>
     </g>
    </g>
    <g id="xtick_5">
     <g id="line2d_5">
      <g>
       <use xlink:href="#m6109003844" x="377" y="439.736" style="stroke: #000000; stroke-width: 0.8"/>
      </g>
     </g>
     <g id="text_5">
      <text style="font: 10px 'sans-serif'; text-anchor: middle" x="377" y="454.334437" transform="rotate(-0, 377, 454.334437)">0.5</text>
     </g>
    </g>
    <g id="xtick_6">
     <g id="line2d_6">
      <g>
       <use xlink:href="#m6109003844" x="441.84" y="439.736" style="stroke: #000000; stroke-width: 0.8"/>
      </g>
     </g>
     <g id="text_6">
      <text style="font: 10px 'sans-serif'; text-anchor: middle" x="441.84" y="454.334437" transform="rotate(-0, 441.84, 454.334437)">0.6</text>
     </g>
    </g>
    <g id="xtick_7">
     <g id="line2d_7">
      <g>
       <use xlink:href="#m6109003844" x="506.68" y="439.736" style="stroke: #000000; stroke-width: 0.8"/>
      </g>
     </g>
     <g id="text_7">
      <text style="font: 10px 'sans-serif'; text-anchor: middle" x="506.68" y="454.334437" transform="rotate(-0, 506.68, 454.334437)">0.7</text>
     </g>
    </g>
    <g id="xtick_8">
     <g id="line2d_8">
      <g>
       <use xlink:href="#m6109003844" x="571.52" y="439.736" style="stroke: #000000; stroke-width: 0.8"/>
      </g>
     </g>
     <g id="text_8">
      <text style="font: 10px 'sans-serif'; text-anchor: middle" x="571.52" y="454.334437" transform="rotate(-0, 571.52, 454.334437)">0.8</text>
     </g>
    </g>
    <g id="xtick_9">
     <g id="line2d_9">
      <g>
       <use xlink:href="#m6109003844" x="636.36" y="439.736" style="stroke: #000000; stroke-width: 0.8"/>
      </g>
     </g>
     <g id="text_9">
      <text style="font: 10px 'sans-serif'; text-anchor: middle" x="636.36" y="454.334437" transform="rotate(-0, 636.36, 454.334437)">0.9</text>
     </g>
    </g>
    <g id="xtick_10">
     <g id="line2d_10">
      <g>
       <use xlink:href="#m6109003844" x="701.2" y="439.736" style="stroke: #000000; stroke-width: 0.8"/>
      </g>
     </g>
     <g id="text_10">
      <text style="font: 10px 'sans-serif'; text-anchor: middle" x="701.2" y="454.334437" transform="rotate(-0, 701.2, 454.334437)">1.0</text>
     </g>
    </g>
    <g id="text_11">
     <text style="font: 16px 'sans-serif'; text-anchor: middle" x="377" y="472.571625" transform="rotate(-0, 377, 472.571625)">Recall</text>
    </g>
   </g>
   <g id="matplotlib.axis_2">
    <g id="ytick_1">
     <g id="line2d_11">
      <defs>
       <path id="mcce78efa1d" d="M 0 0 
L -3.5 0 
" style="stroke: #000000; stroke-width: 0.8"/>
      </defs>
      <g>
       <use xlink:href="#mcce78efa1d" x="52.8" y="439.736" style="stroke: #000000; stroke-width: 0.8"/>
      </g>
     </g>
     <g id="text_12">
      <text style="font: 10px 'sans-serif'; text-anchor: end" x="45.8" y="443.535219" transform="rotate(-0, 45.8, 443.535219)">0.0</text>
     </g>
    </g>
    <g id="ytick_2">
     <g id="line2d_12">
      <g>
       <use xlink:href="#mcce78efa1d" x="52.8" y="400.789714" style="stroke: #000000; stroke-width: 0.8"/>
      </g>
     </g>
     <g id="text_13">
      <text style="font: 10px 'sans-serif'; text-anchor: end" x="45.8" y="404.588933" transform="rotate(-0, 45.8, 404.588933)">0.1</text>
     </g>
    </g>
    <g id="ytick_3">
     <g id="line2d_13">
      <g>
       <use xlink:href="#mcce78efa1d" x="52.8" y="361.843429" style="stroke: #000000; stroke-width: 0.8"/>
      </g>
     </g>
     <g id="text_14">
      <text style="font: 10px 'sans-serif'; text-anchor: end" x="45.8" y="365.642647" transform="rotate(-0, 45.8, 365.642647)">0.2</text>
     </g>
    </g>
    <g id="ytick_4">
     <g id="line2d_14">
      <g>
       <use xlink:href="#mcce78efa1d" x="52.8" y="322.897143" style="stroke: #000000; stroke-width: 0.8"/>
      </g>
     </g>
     <g id="text_15">
      <text style="font: 10px 'sans-serif'; text-anchor: end" x="45.8" y="326.696362" transform="rotate(-0, 45.8, 326.696362)">0.3</text>
     </g>
    </g>
    <g id="ytick_5">
     <g id="line2d_15">
      <g>
       <use xlink:href="#mcce78efa1d" x="52.8" y="283.950857" style="stroke: #000000; stroke-width: 0.8"/>
      </g>
     </g>
     <g id="text_16">
      <text style="font: 10px 'sans-serif'; text-anchor: end" x="45.8" y="287.750076" transform="rotate(-0, 45.8, 287.750076)">0.4</text>
     </g>
    </g>
    <g id="ytick_6">
     <g id="line2d_16">
      <g>
       <use xlink:href="#mcce78efa1d" x="52.8" y="245.004571" style="stroke: #000000; stroke-width: 0.8"/>
      </g>
     </g>
     <g id="text_17">
      <text style="font: 10px 'sans-serif'; text-anchor: end" x="45.8" y="248.80379" transform="rotate(-0, 45.8, 248.80379)">0.5</text>
     </g>
    </g>
    <g id="ytick_7">
     <g id="line2d_17">
      <g>
       <use xlink:href="#mcce78efa1d" x="52.8" y="206.058286" style="stroke: #000000; stroke-width: 0.8"/>
      </g>
     </g>
     <g id="text_18">
      <text style="font: 10px 'sans-serif'; text-anchor: end" x="45.8" y="209.857504" transform="rotate(-0, 45.8, 209.857504)">0.6</text>
     </g>
    </g>
    <g id="ytick_8">
     <g id="line2d_18">
      <g>
       <use xlink:href="#mcce78efa1d" x="52.8" y="167.112" style="stroke: #000000; stroke-width: 0.8"/>
      </g>
     </g>
     <g id="text_19">
      <text style="font: 10px 'sans-serif'; text-anchor: end" x="45.8" y="170.911219" transform="rotate(-0, 45.8, 170.911219)">0.7</text>
     </g>
    </g>
    <g id="ytick_9">
     <g id="line2d_19">
      <g>
       <use xlink:href="#mcce78efa1d" x="52.8" y="128.165714" style="stroke: #000000; stroke-width: 0.8"/>
      </g>
     </g>
     <g id="text_20">
      <text style="font: 10px 'sans-serif'; text-anchor: end" x="45.8" y="131.964933" transform="rotate(-0, 45.8, 131.964933)">0.8</text>
     </g>
    </g>
    <g id="ytick_10">
     <g id="line2d_20">
      <g>
       <use xlink:href="#mcce78efa1d" x="52.8" y="89.219429" style="stroke: #000000; stroke-width: 0.8"/>
      </g>
     </g>
     <g id="text_21">
      <text style="font: 10px 'sans-serif'; text-anchor: end" x="45.8" y="93.018647" transform="rotate(-0, 45.8, 93.018647)">0.9</text>
     </g>
    </g>
    <g id="ytick_11">
     <g id="line2d_21">
      <g>
       <use xlink:href="#mcce78efa1d" x="52.8" y="50.273143" style="stroke: #000000; stroke-width: 0.8"/>
      </g>
     </g>
     <g id="text_22">
      <text style="font: 10px 'sans-serif'; text-anchor: end" x="45.8" y="54.072362" transform="rotate(-0, 45.8, 54.072362)">1.0</text>
     </g>
    </g>
    <g id="text_23">
     <text style="font: 16px 'sans-serif'; text-anchor: middle" x="22.569375" y="235.268" transform="rotate(-90, 22.569375, 235.268)">Precision</text>
    </g>
   </g>
   <g id="line2d_22">
    <path d="M 52.8 50.273143 
L 209.310345 50.273143 
L 209.310345 98.956 
L 209.310345 93.546794 
L 231.668966 93.546794 
L 231.668966 89.219429 
L 254.027586 89.219429 
L 254.027586 85.678857 
L 276.386207 85.678857 
L 276.386207 82.728381 
L 298.744828 82.728381 
L 298.744828 80.231824 
L 321.103448 80.231824 
L 321.103448 78.091918 
L 343.462069 78.091918 
L 343.462069 76.237333 
L 365.82069 76.237333 
L 365.82069 98.956 
L 365.82069 96.092303 
L 388.17931 96.092303 
L 388.17931 93.546794 
L 410.537931 93.546794 
L 410.537931 168.805317 
L 410.537931 163.866476 
L 432.896552 163.866476 
L 432.896552 203.276408 
L 432.896552 198.000433 
L 455.255172 198.000433 
L 455.255172 239.440816 
L 455.255172 234.186159 
L 477.613793 234.186159 
L 477.613793 229.215537 
L 499.972414 229.215537 
L 499.972414 258.590485 
L 499.972414 253.856 
L 522.331034 253.856 
L 522.331034 257.986667 
L 522.331034 253.471155 
L 544.689655 253.471155 
L 544.689655 249.147793 
L 567.048276 249.147793 
L 567.048276 253.118381 
L 567.048276 248.978682 
L 589.406897 248.978682 
L 589.406897 256.459361 
L 589.406897 252.494242 
L 611.765517 252.494242 
L 611.765517 268.918957 
L 611.765517 265.149202 
L 634.124138 265.149202 
L 634.124138 290.823731 
L 634.124138 287.337491 
L 656.482759 287.337491 
L 656.482759 289.514612 
L 656.482759 286.145014 
L 678.841379 286.145014 
L 678.841379 282.869016 
L 701.2 282.869016 
L 701.2 406.419118 
L 701.2 406.419118 
" clip-path="url(#p5c21078ed7)" style="fill: none; stroke: #008000; stroke-width: 1.5; stroke-linecap: square"/>
   </g>
   <g id="line2d_23">
    <path d="M 52.8 50.273143 
L 231.668966 50.273143 
L 231.668966 93.546794 
L 231.668966 89.219429 
L 254.027586 89.219429 
L 254.027586 85.678857 
L 276.386207 85.678857 
L 276.386207 82.728381 
L 298.744828 82.728381 
L 298.744828 80.231824 
L 321.103448 80.231824 
L 321.103448 128.165714 
L 321.103448 123.297429 
L 343.462069 123.297429 
L 343.462069 119.001882 
L 365.82069 119.001882 
L 365.82069 115.183619 
L 388.17931 115.183619 
L 388.17931 293.687429 
L 388.17931 287.750495 
L 410.537931 287.750495 
L 410.537931 301.260317 
L 410.537931 295.804075 
L 432.896552 295.804075 
L 432.896552 290.580012 
L 455.255172 290.580012 
L 455.255172 304.921934 
L 455.255172 300.11724 
L 477.613793 300.11724 
L 477.613793 318.427897 
L 477.613793 314.10282 
L 499.972414 314.10282 
L 499.972414 333.033847 
L 499.972414 329.212757 
L 522.331034 329.212757 
L 522.331034 330.6864 
L 522.331034 326.996752 
L 544.689655 326.996752 
L 544.689655 342.370286 
L 544.689655 339.088295 
L 567.048276 339.088295 
L 567.048276 340.206603 
L 567.048276 337.020521 
L 589.406897 337.020521 
L 589.406897 338.136994 
L 589.406897 335.041684 
L 611.765517 335.041684 
L 611.765517 339.358975 
L 611.765517 336.40912 
L 634.124138 336.40912 
L 634.124138 337.452825 
L 634.124138 334.581029 
L 656.482759 334.581029 
L 656.482759 331.766099 
L 678.841379 331.766099 
L 678.841379 353.870173 
L 678.841379 351.498321 
L 701.2 351.498321 
L 701.2 406.419118 
L 701.2 406.419118 
" clip-path="url(#p5c21078ed7)" style="fill: none; stroke: #bf00bf; stroke-width: 1.5; stroke-linecap: square"/>
   </g>
   <g id="line2d_24">
    <path d="M 52.8 50.273143 
L 231.668966 50.273143 
L 231.668966 93.546794 
L 231.668966 89.219429 
L 254.027586 89.219429 
L 254.027586 121.084571 
L 254.027586 115.183619 
L 276.386207 115.183619 
L 276.386207 110.190505 
L 298.744828 110.190505 
L 298.744828 105.910694 
L 321.103448 105.910694 
L 321.103448 128.165714 
L 321.103448 123.297429 
L 343.462069 123.297429 
L 343.462069 173.261414 
L 343.462069 167.112 
L 365.82069 167.112 
L 365.82069 161.548245 
L 388.17931 161.548245 
L 388.17931 174.193143 
L 388.17931 168.805317 
L 410.537931 168.805317 
L 410.537931 208.943196 
L 410.537931 203.276408 
L 432.896552 203.276408 
L 432.896552 219.040381 
L 432.896552 213.596276 
L 455.255172 213.596276 
L 455.255172 250.267583 
L 455.255172 245.004571 
L 477.613793 245.004571 
L 477.613793 254.741143 
L 477.613793 249.754118 
L 499.972414 249.754118 
L 499.972414 258.590485 
L 499.972414 253.856 
L 522.331034 253.856 
L 522.331034 279.368941 
L 522.331034 274.963253 
L 544.689655 274.963253 
L 544.689655 301.539502 
L 544.689655 297.551147 
L 567.048276 297.551147 
L 567.048276 321.872241 
L 567.048276 318.34498 
L 589.406897 318.34498 
L 589.406897 328.460898 
L 589.406897 325.188101 
L 611.765517 325.188101 
L 611.765517 329.093143 
L 611.765517 325.960334 
L 634.124138 325.960334 
L 634.124138 327.224508 
L 634.124138 324.181086 
L 656.482759 324.181086 
L 656.482759 358.84756 
L 656.482759 356.492031 
L 678.841379 356.492031 
L 678.841379 357.74382 
L 678.841379 355.449262 
L 701.2 355.449262 
L 701.2 406.419118 
L 701.2 406.419118 
" clip-path="url(#p5c21078ed7)" style="fill: none; stroke: #0000ff; stroke-width: 1.5; stroke-linecap: square"/>
   </g>
   <g id="line2d_25">
    <path d="M 52.8 147.638857 
L 52.8 147.638857 
L 119.87698 147.638857 
L 119.87698 128.165714 
L 142.233812 128.165714 
L 142.233812 406.417453 
L 701.2 406.417453 
" clip-path="url(#p5c21078ed7)" style="fill: none; stroke: #bfbf00; stroke-width: 1.5; stroke-linecap: square"/>
   </g>
   <g id="line2d_26">
    <defs>
     <path id="mb78649e613" d="M 0 6.363961 
L 6.363961 0 
L 0 -6.363961 
L -6.363961 0 
z
" style="stroke: #000000; stroke-linejoin: miter"/>
    </defs>
    <g clip-path="url(#p5c21078ed7)">
     <use xlink:href="#mb78649e613" x="343.462069" y="78.091918" style="fill: #ffa500; stroke: #000000; stroke-linejoin: miter"/>
    </g>
   </g>
   <g id="line2d_27">
    <defs>
     <path id="m8c66c85be7" d="M 0 6.363961 
L 6.363961 0 
L 0 -6.363961 
L -6.363961 0 
z
" style="stroke: #000000; stroke-linejoin: miter"/>
    </defs>
    <g clip-path="url(#p5c21078ed7)">
     <use xlink:href="#m8c66c85be7" x="432.896552" y="163.866476" style="fill: #008000; stroke: #000000; stroke-linejoin: miter"/>
    </g>
   </g>
   <g id="line2d_28">
    <defs>
     <path id="m4338607750" d="M 0 3 
C 0.795609 3 1.55874 2.683901 2.12132 2.12132 
C 2.683901 1.55874 3 0.795609 3 0 
C 3 -0.795609 2.683901 -1.55874 2.12132 -2.12132 
C 1.55874 -2.683901 0.795609 -3 0 -3 
C -0.795609 -3 -1.55874 -2.683901 -2.12132 -2.12132 
C -2.683901 -1.55874 -3 -0.795609 -3 0 
C -3 0.795609 -2.683901 1.55874 -2.12132 2.12132 
C -1.55874 2.683901 -0.795609 3 0 3 
z
" style="stroke: #000000"/>
    </defs>
    <g clip-path="url(#p5c21078ed7)">
     <use xlink:href="#m4338607750" x="410.537931" y="180.094095" style="fill: #0000ff; stroke: #000000"/>
    </g>
   </g>
   <g id="line2d_29">
    <defs>
     <path id="m8f9bf51fd0" d="M 0 -4.5 
L -4.5 4.5 
L 4.5 4.5 
z
" style="stroke: #000000; stroke-linejoin: miter"/>
    </defs>
    <g clip-path="url(#p5c21078ed7)">
     <use xlink:href="#m8f9bf51fd0" x="365.82069" y="212.549333" style="fill: #ffffff; stroke: #000000; stroke-linejoin: miter"/>
    </g>
   </g>
   <g id="line2d_30">
    <defs>
     <path id="m91db521c25" d="M 0 -4.5 
L -4.5 4.5 
L 4.5 4.5 
z
" style="stroke: #000000; stroke-linejoin: miter"/>
    </defs>
    <g clip-path="url(#p5c21078ed7)">
     <use xlink:href="#m91db521c25" x="254.027586" y="50.273143" style="fill: #808080; stroke: #000000; stroke-linejoin: miter"/>
    </g>
   </g>
   <g id="line2d_31">
    <defs>
     <path id="m05c157e1bf" d="M -2.25 4.5 
L 0 2.25 
L 2.25 4.5 
L 4.5 2.25 
L 2.25 0 
L 4.5 -2.25 
L 2.25 -4.5 
L 0 -2.25 
L -2.25 -4.5 
L -4.5 -2.25 
L -2.25 0 
L -4.5 2.25 
z
" style="stroke: #000000; stroke-linejoin: miter"/>
    </defs>
    <g clip-path="url(#p5c21078ed7)">
     <use xlink:href="#m05c157e1bf" x="410.537931" y="190.479771" style="stroke: #000000; stroke-linejoin: miter"/>
    </g>
   </g>
   <g id="line2d_32">
    <defs>
     <path id="m3ce7ff854b" d="M 0 -4.5 
L -4.279754 -1.390576 
L -2.645034 3.640576 
L 2.645034 3.640576 
L 4.279754 -1.390576 
z
" style="stroke: #000000; stroke-linejoin: miter"/>
    </defs>
    <g clip-path="url(#p5c21078ed7)">
     <use xlink:href="#m3ce7ff854b" x="164.593103" y="358.597905" style="fill: #00bfbf; stroke: #000000; stroke-linejoin: miter"/>
    </g>
   </g>
   <g id="line2d_33">
    <defs>
     <path id="m7e06c5d17c" d="M -3 3 
L 3 -3 
M -3 -3 
L 3 3 
" style="stroke: #000000"/>
    </defs>
    <g clip-path="url(#p5c21078ed7)">
     <use xlink:href="#m7e06c5d17c" x="152.054747" y="380.118422" style="stroke: #000000"/>
    </g>
   </g>
   <g id="patch_3">
    <path d="M 52.8 439.736 
L 52.8 30.8 
" style="fill: none; stroke: #000000; stroke-width: 0.8; stroke-linejoin: miter; stroke-linecap: square"/>
   </g>
   <g id="patch_4">
    <path d="M 701.2 439.736 
L 701.2 30.8 
" style="fill: none; stroke: #000000; stroke-width: 0.8; stroke-linejoin: miter; stroke-linecap: square"/>
   </g>
   <g id="patch_5">
    <path d="M 52.8 439.736 
L 701.2 439.736 
" style="fill: none; stroke: #000000; stroke-width: 0.8; stroke-linejoin: miter; stroke-linecap: square"/>
   </g>
   <g id="patch_6">
    <path d="M 52.8 30.8 
L 701.2 30.8 
" style="fill: none; stroke: #000000; stroke-width: 0.8; stroke-linejoin: miter; stroke-linecap: square"/>
   </g>
   <g id="text_24">
    <text style="font: 18px 'sans-serif'; text-anchor: middle" x="377" y="24.8" transform="rotate(-0, 377, 24.8)">Precision-Recall Curve Three Molecular Traits set</text>
   </g>
   <g id="legend_1">
    <g id="patch_7">
     <path d="M 92.22 557.4168 
L 615.596563 557.4168 
Q 617.596563 557.4168 617.596563 555.4168 
L 617.596563 512.382425 
Q 617.596563 510.382425 615.596563 510.382425 
L 92.22 510.382425 
Q 90.22 510.382425 90.22 512.382425 
L 90.22 555.4168 
Q 90.22 557.4168 92.22 557.4168 
z
" style="fill: #ffffff; opacity: 0.8; stroke: #cccccc; stroke-linejoin: miter"/>
    </g>
    <g id="line2d_34">
     <path d="M 94.22 518.480862 
L 94.22 518.480862 
L 104.22 518.480862 
L 104.22 518.480862 
L 114.22 518.480862 
" style="fill: none; stroke: #008000; stroke-width: 1.5; stroke-linecap: square"/>
    </g>
    <g id="text_25">
     <text style="font: 10px 'sans-serif'; text-anchor: start" x="122.22" y="521.980862" transform="rotate(-0, 122.22, 521.980862)">FLAMES (0.74)</text>
    </g>
    <g id="line2d_35">
     <path d="M 94.22 533.158987 
L 94.22 533.158987 
L 104.22 533.158987 
L 104.22 533.158987 
L 114.22 533.158987 
" style="fill: none; stroke: #bf00bf; stroke-width: 1.5; stroke-linecap: square"/>
    </g>
    <g id="text_26">
     <text style="font: 10px 'sans-serif'; text-anchor: start" x="122.22" y="536.658987" transform="rotate(-0, 122.22, 536.658987)">XGB (0.63)</text>
    </g>
    <g id="line2d_36">
     <path d="M 94.22 547.837112 
L 94.22 547.837112 
L 104.22 547.837112 
L 104.22 547.837112 
L 114.22 547.837112 
" style="fill: none; stroke: #0000ff; stroke-width: 1.5; stroke-linecap: square"/>
    </g>
    <g id="text_27">
     <text style="font: 10px 'sans-serif'; text-anchor: start" x="122.22" y="551.337112" transform="rotate(-0, 122.22, 551.337112)">L2G (0.67)</text>
    </g>
    <g id="line2d_37">
     <path d="M 215.15125 518.480862 
L 215.15125 518.480862 
L 225.15125 518.480862 
L 225.15125 518.480862 
L 235.15125 518.480862 
" style="fill: none; stroke: #bfbf00; stroke-width: 1.5; stroke-linecap: square"/>
    </g>
    <g id="text_28">
     <text style="font: 10px 'sans-serif'; text-anchor: start" x="243.15125" y="521.980862" transform="rotate(-0, 243.15125, 521.980862)">cS2G (0.49)</text>
    </g>
    <g id="line2d_38">
     <g>
      <use xlink:href="#mb78649e613" x="225.15125" y="533.158987" style="fill: #ffa500; stroke: #000000; stroke-linejoin: miter"/>
     </g>
    </g>
    <g id="text_29">
     <text style="font: 10px 'sans-serif'; text-anchor: start" x="243.15125" y="536.658987" transform="rotate(-0, 243.15125, 536.658987)">FLAMES recommended</text>
    </g>
    <g id="line2d_39">
     <g>
      <use xlink:href="#m8c66c85be7" x="225.15125" y="547.837112" style="fill: #008000; stroke: #000000; stroke-linejoin: miter"/>
     </g>
    </g>
    <g id="text_30">
     <text style="font: 10px 'sans-serif'; text-anchor: start" x="243.15125" y="551.337112" transform="rotate(-0, 243.15125, 551.337112)">Highest FLAMES</text>
    </g>
    <g id="line2d_40">
     <g>
      <use xlink:href="#m4338607750" x="388.491875" y="518.480862" style="fill: #0000ff; stroke: #000000"/>
     </g>
    </g>
    <g id="text_31">
     <text style="font: 10px 'sans-serif'; text-anchor: start" x="406.491875" y="521.980862" transform="rotate(-0, 406.491875, 521.980862)">Highest L2G</text>
    </g>
    <g id="line2d_41">
     <g>
      <use xlink:href="#m8f9bf51fd0" x="388.491875" y="533.158987" style="fill: #ffffff; stroke: #000000; stroke-linejoin: miter"/>
     </g>
    </g>
    <g id="text_32">
     <text style="font: 10px 'sans-serif'; text-anchor: start" x="406.491875" y="536.658987" transform="rotate(-0, 406.491875, 536.658987)">Highest PoPS</text>
    </g>
    <g id="line2d_42">
     <g>
      <use xlink:href="#m91db521c25" x="388.491875" y="547.837112" style="fill: #808080; stroke: #000000; stroke-linejoin: miter"/>
     </g>
    </g>
    <g id="text_33">
     <text style="font: 10px 'sans-serif'; text-anchor: start" x="406.491875" y="551.337112" transform="rotate(-0, 406.491875, 551.337112)">Closest+PoPS</text>
    </g>
    <g id="line2d_43">
     <g>
      <use xlink:href="#m05c157e1bf" x="505.4075" y="518.480862" style="stroke: #000000; stroke-linejoin: miter"/>
     </g>
    </g>
    <g id="text_34">
     <text style="font: 10px 'sans-serif'; text-anchor: start" x="523.4075" y="521.980862" transform="rotate(-0, 523.4075, 521.980862)">Closest gene</text>
    </g>
    <g id="line2d_44">
     <g>
      <use xlink:href="#m3ce7ff854b" x="505.4075" y="533.158987" style="fill: #00bfbf; stroke: #000000; stroke-linejoin: miter"/>
     </g>
    </g>
    <g id="text_35">
     <text style="font: 10px 'sans-serif'; text-anchor: start" x="523.4075" y="536.658987" transform="rotate(-0, 523.4075, 536.658987)">Highest MAGMA-Z</text>
    </g>
    <g id="line2d_45">
     <g>
      <use xlink:href="#m7e06c5d17c" x="505.4075" y="547.837112" style="stroke: #000000"/>
     </g>
    </g>
    <g id="text_36">
     <text style="font: 10px 'sans-serif'; text-anchor: start" x="523.4075" y="551.337112" transform="rotate(-0, 523.4075, 551.337112)">Random predictor</text>
    </g>
   </g>
  </g>
 </g>
 <defs>
  <clipPath id="p5c21078ed7">
   <rect x="52.8" y="30.8" width="648.4" height="408.936"/>
  </clipPath>
 </defs>
</svg>
