<?xml version="1.0" encoding="utf-8" standalone="no"?>
<!DOCTYPE svg PUBLIC "-//W3C//DTD SVG 1.1//EN"
  "http://www.w3.org/Graphics/SVG/1.1/DTD/svg11.dtd">
<svg xmlns:xlink="http://www.w3.org/1999/xlink" width="720pt" height="576pt" viewBox="0 0 720 576" xmlns="http://www.w3.org/2000/svg" version="1.1">
 <metadata>
  <rdf:RDF xmlns:dc="http://purl.org/dc/elements/1.1/" xmlns:cc="http://creativecommons.org/ns#" xmlns:rdf="http://www.w3.org/1999/02/22-rdf-syntax-ns#">
   <cc:Work>
    <dc:type rdf:resource="http://purl.org/dc/dcmitype/StillImage"/>
    <dc:date>2025-01-12T11:46:20.285949</dc:date>
    <dc:format>image/svg+xml</dc:format>
    <dc:creator>
     <cc:Agent>
      <dc:title>Matplotlib v3.5.2, https://matplotlib.org/</dc:title>
     </cc:Agent>
    </dc:creator>
   </cc:Work>
  </rdf:RDF>
 </metadata>
 <defs>
  <style type="text/css">*{stroke-linejoin: round; stroke-linecap: butt}</style>
 </defs>
 <g id="figure_1">
  <g id="patch_1">
   <path d="M 0 576 
L 720 576 
L 720 0 
L 0 0 
L 0 576 
z
" style="fill: none"/>
  </g>
  <g id="axes_1">
   <g id="patch_2">
    <path d="M 52.8 439.736 
L 691.05 439.736 
L 691.05 30.8 
L 52.8 30.8 
z
" style="fill: #ffffff"/>
   </g>
   <g id="matplotlib.axis_1">
    <g id="xtick_1">
     <g id="line2d_1">
      <defs>
       <path id="mafd9d363b2" d="M 0 0 
L 0 3.5 
" style="stroke: #000000; stroke-width: 0.8"/>
      </defs>
      <g>
       <use xlink:href="#mafd9d363b2" x="116.625" y="439.736" style="stroke: #000000; stroke-width: 0.8"/>
      </g>
     </g>
     <g id="text_1">
      <text style="font: 10px 'sans-serif'; text-anchor: middle" x="116.625" y="454.334437" transform="rotate(-0, 116.625, 454.334437)">0.1</text>
     </g>
    </g>
    <g id="xtick_2">
     <g id="line2d_2">
      <g>
       <use xlink:href="#mafd9d363b2" x="180.45" y="439.736" style="stroke: #000000; stroke-width: 0.8"/>
      </g>
     </g>
     <g id="text_2">
      <text style="font: 10px 'sans-serif'; text-anchor: middle" x="180.45" y="454.334437" transform="rotate(-0, 180.45, 454.334437)">0.2</text>
     </g>
    </g>
    <g id="xtick_3">
     <g id="line2d_3">
      <g>
       <use xlink:href="#mafd9d363b2" x="244.275" y="439.736" style="stroke: #000000; stroke-width: 0.8"/>
      </g>
     </g>
     <g id="text_3">
      <text style="font: 10px 'sans-serif'; text-anchor: middle" x="244.275" y="454.334437" transform="rotate(-0, 244.275, 454.334437)">0.3</text>
     </g>
    </g>
    <g id="xtick_4">
     <g id="line2d_4">
      <g>
       <use xlink:href="#mafd9d363b2" x="308.1" y="439.736" style="stroke: #000000; stroke-width: 0.8"/>
      </g>
     </g>
     <g id="text_4">
      <text style="font: 10px 'sans-serif'; text-anchor: middle" x="308.1" y="454.334437" transform="rotate(-0, 308.1, 454.334437)">0.4</text>
     </g>
    </g>
    <g id="xtick_5">
     <g id="line2d_5">
      <g>
       <use xlink:href="#mafd9d363b2" x="371.925" y="439.736" style="stroke: #000000; stroke-width: 0.8"/>
      </g>
     </g>
     <g id="text_5">
      <text style="font: 10px 'sans-serif'; text-anchor: middle" x="371.925" y="454.334437" transform="rotate(-0, 371.925, 454.334437)">0.5</text>
     </g>
    </g>
    <g id="xtick_6">
     <g id="line2d_6">
      <g>
       <use xlink:href="#mafd9d363b2" x="435.75" y="439.736" style="stroke: #000000; stroke-width: 0.8"/>
      </g>
     </g>
     <g id="text_6">
      <text style="font: 10px 'sans-serif'; text-anchor: middle" x="435.75" y="454.334437" transform="rotate(-0, 435.75, 454.334437)">0.6</text>
     </g>
    </g>
    <g id="xtick_7">
     <g id="line2d_7">
      <g>
       <use xlink:href="#mafd9d363b2" x="499.575" y="439.736" style="stroke: #000000; stroke-width: 0.8"/>
      </g>
     </g>
     <g id="text_7">
      <text style="font: 10px 'sans-serif'; text-anchor: middle" x="499.575" y="454.334437" transform="rotate(-0, 499.575, 454.334437)">0.7</text>
     </g>
    </g>
    <g id="xtick_8">
     <g id="line2d_8">
      <g>
       <use xlink:href="#mafd9d363b2" x="563.4" y="439.736" style="stroke: #000000; stroke-width: 0.8"/>
      </g>
     </g>
     <g id="text_8">
      <text style="font: 10px 'sans-serif'; text-anchor: middle" x="563.4" y="454.334437" transform="rotate(-0, 563.4, 454.334437)">0.8</text>
     </g>
    </g>
    <g id="xtick_9">
     <g id="line2d_9">
      <g>
       <use xlink:href="#mafd9d363b2" x="627.225" y="439.736" style="stroke: #000000; stroke-width: 0.8"/>
      </g>
     </g>
     <g id="text_9">
      <text style="font: 10px 'sans-serif'; text-anchor: middle" x="627.225" y="454.334437" transform="rotate(-0, 627.225, 454.334437)">0.9</text>
     </g>
    </g>
    <g id="xtick_10">
     <g id="line2d_10">
      <g>
       <use xlink:href="#mafd9d363b2" x="691.05" y="439.736" style="stroke: #000000; stroke-width: 0.8"/>
      </g>
     </g>
     <g id="text_10">
      <text style="font: 10px 'sans-serif'; text-anchor: middle" x="691.05" y="454.334437" transform="rotate(-0, 691.05, 454.334437)">1.0</text>
     </g>
    </g>
    <g id="text_11">
     <text style="font: 16px 'sans-serif'; text-anchor: middle" x="371.925" y="472.571625" transform="rotate(-0, 371.925, 472.571625)">Recall</text>
    </g>
   </g>
   <g id="matplotlib.axis_2">
    <g id="ytick_1">
     <g id="line2d_11">
      <defs>
       <path id="m899f66f779" d="M 0 0 
L -3.5 0 
" style="stroke: #000000; stroke-width: 0.8"/>
      </defs>
      <g>
       <use xlink:href="#m899f66f779" x="52.8" y="439.736" style="stroke: #000000; stroke-width: 0.8"/>
      </g>
     </g>
     <g id="text_12">
      <text style="font: 10px 'sans-serif'; text-anchor: end" x="45.8" y="443.535219" transform="rotate(-0, 45.8, 443.535219)">0.0</text>
     </g>
    </g>
    <g id="ytick_2">
     <g id="line2d_12">
      <g>
       <use xlink:href="#m899f66f779" x="52.8" y="400.789714" style="stroke: #000000; stroke-width: 0.8"/>
      </g>
     </g>
     <g id="text_13">
      <text style="font: 10px 'sans-serif'; text-anchor: end" x="45.8" y="404.588933" transform="rotate(-0, 45.8, 404.588933)">0.1</text>
     </g>
    </g>
    <g id="ytick_3">
     <g id="line2d_13">
      <g>
       <use xlink:href="#m899f66f779" x="52.8" y="361.843429" style="stroke: #000000; stroke-width: 0.8"/>
      </g>
     </g>
     <g id="text_14">
      <text style="font: 10px 'sans-serif'; text-anchor: end" x="45.8" y="365.642647" transform="rotate(-0, 45.8, 365.642647)">0.2</text>
     </g>
    </g>
    <g id="ytick_4">
     <g id="line2d_14">
      <g>
       <use xlink:href="#m899f66f779" x="52.8" y="322.897143" style="stroke: #000000; stroke-width: 0.8"/>
      </g>
     </g>
     <g id="text_15">
      <text style="font: 10px 'sans-serif'; text-anchor: end" x="45.8" y="326.696362" transform="rotate(-0, 45.8, 326.696362)">0.3</text>
     </g>
    </g>
    <g id="ytick_5">
     <g id="line2d_15">
      <g>
       <use xlink:href="#m899f66f779" x="52.8" y="283.950857" style="stroke: #000000; stroke-width: 0.8"/>
      </g>
     </g>
     <g id="text_16">
      <text style="font: 10px 'sans-serif'; text-anchor: end" x="45.8" y="287.750076" transform="rotate(-0, 45.8, 287.750076)">0.4</text>
     </g>
    </g>
    <g id="ytick_6">
     <g id="line2d_16">
      <g>
       <use xlink:href="#m899f66f779" x="52.8" y="245.004571" style="stroke: #000000; stroke-width: 0.8"/>
      </g>
     </g>
     <g id="text_17">
      <text style="font: 10px 'sans-serif'; text-anchor: end" x="45.8" y="248.80379" transform="rotate(-0, 45.8, 248.80379)">0.5</text>
     </g>
    </g>
    <g id="ytick_7">
     <g id="line2d_17">
      <g>
       <use xlink:href="#m899f66f779" x="52.8" y="206.058286" style="stroke: #000000; stroke-width: 0.8"/>
      </g>
     </g>
     <g id="text_18">
      <text style="font: 10px 'sans-serif'; text-anchor: end" x="45.8" y="209.857504" transform="rotate(-0, 45.8, 209.857504)">0.6</text>
     </g>
    </g>
    <g id="ytick_8">
     <g id="line2d_18">
      <g>
       <use xlink:href="#m899f66f779" x="52.8" y="167.112" style="stroke: #000000; stroke-width: 0.8"/>
      </g>
     </g>
     <g id="text_19">
      <text style="font: 10px 'sans-serif'; text-anchor: end" x="45.8" y="170.911219" transform="rotate(-0, 45.8, 170.911219)">0.7</text>
     </g>
    </g>
    <g id="ytick_9">
     <g id="line2d_19">
      <g>
       <use xlink:href="#m899f66f779" x="52.8" y="128.165714" style="stroke: #000000; stroke-width: 0.8"/>
      </g>
     </g>
     <g id="text_20">
      <text style="font: 10px 'sans-serif'; text-anchor: end" x="45.8" y="131.964933" transform="rotate(-0, 45.8, 131.964933)">0.8</text>
     </g>
    </g>
    <g id="ytick_10">
     <g id="line2d_20">
      <g>
       <use xlink:href="#m899f66f779" x="52.8" y="89.219429" style="stroke: #000000; stroke-width: 0.8"/>
      </g>
     </g>
     <g id="text_21">
      <text style="font: 10px 'sans-serif'; text-anchor: end" x="45.8" y="93.018647" transform="rotate(-0, 45.8, 93.018647)">0.9</text>
     </g>
    </g>
    <g id="ytick_11">
     <g id="line2d_21">
      <g>
       <use xlink:href="#m899f66f779" x="52.8" y="50.273143" style="stroke: #000000; stroke-width: 0.8"/>
      </g>
     </g>
     <g id="text_22">
      <text style="font: 10px 'sans-serif'; text-anchor: end" x="45.8" y="54.072362" transform="rotate(-0, 45.8, 54.072362)">1.0</text>
     </g>
    </g>
    <g id="text_23">
     <text style="font: 16px 'sans-serif'; text-anchor: middle" x="22.569375" y="235.268" transform="rotate(-90, 22.569375, 235.268)">Precision</text>
    </g>
   </g>
   <g id="line2d_22">
    <path d="M 52.8 50.273143 
L 206.860345 50.273143 
L 206.860345 98.956 
L 206.860345 93.546794 
L 228.868966 93.546794 
L 228.868966 89.219429 
L 250.877586 89.219429 
L 250.877586 85.678857 
L 272.886207 85.678857 
L 272.886207 82.728381 
L 294.894828 82.728381 
L 294.894828 80.231824 
L 316.903448 80.231824 
L 316.903448 78.091918 
L 338.912069 78.091918 
L 338.912069 76.237333 
L 360.92069 76.237333 
L 360.92069 98.956 
L 360.92069 96.092303 
L 382.92931 96.092303 
L 382.92931 93.546794 
L 404.937931 93.546794 
L 404.937931 168.805317 
L 404.937931 163.866476 
L 426.946552 163.866476 
L 426.946552 203.276408 
L 426.946552 198.000433 
L 448.955172 198.000433 
L 448.955172 239.440816 
L 448.955172 234.186159 
L 470.963793 234.186159 
L 470.963793 229.215537 
L 492.972414 229.215537 
L 492.972414 258.590485 
L 492.972414 253.856 
L 514.981034 253.856 
L 514.981034 257.986667 
L 514.981034 253.471155 
L 536.989655 253.471155 
L 536.989655 249.147793 
L 558.998276 249.147793 
L 558.998276 253.118381 
L 558.998276 248.978682 
L 581.006897 248.978682 
L 581.006897 256.459361 
L 581.006897 252.494242 
L 603.015517 252.494242 
L 603.015517 268.918957 
L 603.015517 265.149202 
L 625.024138 265.149202 
L 625.024138 290.823731 
L 625.024138 287.337491 
L 647.032759 287.337491 
L 647.032759 289.514612 
L 647.032759 286.145014 
L 669.041379 286.145014 
L 669.041379 282.869016 
L 691.05 282.869016 
L 691.05 406.419118 
L 691.05 406.419118 
" clip-path="url(#p32bd969403)" style="fill: none; stroke: #008000; stroke-width: 1.5; stroke-linecap: square"/>
   </g>
   <g id="line2d_23">
    <path d="M 52.8 50.273143 
L 184.851724 50.273143 
L 184.851724 105.910694 
L 184.851724 98.956 
L 206.860345 98.956 
L 206.860345 93.546794 
L 228.868966 93.546794 
L 228.868966 89.219429 
L 250.877586 89.219429 
L 250.877586 85.678857 
L 272.886207 85.678857 
L 272.886207 82.728381 
L 294.894828 82.728381 
L 294.894828 80.231824 
L 316.903448 80.231824 
L 316.903448 105.910694 
L 316.903448 102.201524 
L 338.912069 102.201524 
L 338.912069 98.956 
L 360.92069 98.956 
L 360.92069 180.094095 
L 360.92069 174.193143 
L 382.92931 174.193143 
L 382.92931 231.095184 
L 382.92931 224.859941 
L 404.937931 224.859941 
L 404.937931 232.022476 
L 404.937931 226.159594 
L 426.946552 226.159594 
L 426.946552 239.103619 
L 426.946552 233.549782 
L 448.955172 233.549782 
L 448.955172 259.983912 
L 448.955172 254.741143 
L 470.963793 254.741143 
L 470.963793 259.253213 
L 470.963793 254.277497 
L 492.972414 254.277497 
L 492.972414 303.082366 
L 492.972414 298.723586 
L 514.981034 298.723586 
L 514.981034 305.658623 
L 514.981034 301.539502 
L 536.989655 301.539502 
L 536.989655 297.551147 
L 558.998276 297.551147 
L 558.998276 304.014095 
L 558.998276 300.226917 
L 581.006897 300.226917 
L 581.006897 296.551126 
L 603.015517 296.551126 
L 603.015517 292.98188 
L 625.024138 292.98188 
L 625.024138 297.115799 
L 625.024138 293.687429 
L 647.032759 293.687429 
L 647.032759 313.043263 
L 647.032759 309.915048 
L 669.041379 309.915048 
L 669.041379 319.901275 
L 669.041379 316.970534 
L 691.05 316.970534 
L 691.05 406.419118 
L 691.05 406.419118 
" clip-path="url(#p32bd969403)" style="fill: none; stroke: #ff0000; stroke-width: 1.5; stroke-linecap: square"/>
   </g>
   <g id="line2d_24">
    <path d="M 52.8 50.273143 
L 228.868966 50.273143 
L 228.868966 93.546794 
L 228.868966 89.219429 
L 250.877586 89.219429 
L 250.877586 85.678857 
L 272.886207 85.678857 
L 272.886207 82.728381 
L 294.894828 82.728381 
L 294.894828 80.231824 
L 316.903448 80.231824 
L 316.903448 128.165714 
L 316.903448 123.297429 
L 338.912069 123.297429 
L 338.912069 119.001882 
L 360.92069 119.001882 
L 360.92069 115.183619 
L 382.92931 115.183619 
L 382.92931 293.687429 
L 382.92931 287.750495 
L 404.937931 287.750495 
L 404.937931 301.260317 
L 404.937931 295.804075 
L 426.946552 295.804075 
L 426.946552 290.580012 
L 448.955172 290.580012 
L 448.955172 304.921934 
L 448.955172 300.11724 
L 470.963793 300.11724 
L 470.963793 318.427897 
L 470.963793 314.10282 
L 492.972414 314.10282 
L 492.972414 333.033847 
L 492.972414 329.212757 
L 514.981034 329.212757 
L 514.981034 330.6864 
L 514.981034 326.996752 
L 536.989655 326.996752 
L 536.989655 342.370286 
L 536.989655 339.088295 
L 558.998276 339.088295 
L 558.998276 340.206603 
L 558.998276 337.020521 
L 581.006897 337.020521 
L 581.006897 338.136994 
L 581.006897 335.041684 
L 603.015517 335.041684 
L 603.015517 339.358975 
L 603.015517 336.40912 
L 625.024138 336.40912 
L 625.024138 337.452825 
L 625.024138 334.581029 
L 647.032759 334.581029 
L 647.032759 331.766099 
L 669.041379 331.766099 
L 669.041379 353.870173 
L 669.041379 351.498321 
L 691.05 351.498321 
L 691.05 406.419118 
L 691.05 406.419118 
" clip-path="url(#p32bd969403)" style="fill: none; stroke: #bf00bf; stroke-width: 1.5; stroke-linecap: square"/>
   </g>
   <g id="line2d_25">
    <path d="M 52.8 50.273143 
L 228.868966 50.273143 
L 228.868966 93.546794 
L 228.868966 89.219429 
L 250.877586 89.219429 
L 250.877586 121.084571 
L 250.877586 115.183619 
L 272.886207 115.183619 
L 272.886207 110.190505 
L 294.894828 110.190505 
L 294.894828 105.910694 
L 316.903448 105.910694 
L 316.903448 128.165714 
L 316.903448 123.297429 
L 338.912069 123.297429 
L 338.912069 173.261414 
L 338.912069 167.112 
L 360.92069 167.112 
L 360.92069 161.548245 
L 382.92931 161.548245 
L 382.92931 174.193143 
L 382.92931 168.805317 
L 404.937931 168.805317 
L 404.937931 208.943196 
L 404.937931 203.276408 
L 426.946552 203.276408 
L 426.946552 219.040381 
L 426.946552 213.596276 
L 448.955172 213.596276 
L 448.955172 250.267583 
L 448.955172 245.004571 
L 470.963793 245.004571 
L 470.963793 254.741143 
L 470.963793 249.754118 
L 492.972414 249.754118 
L 492.972414 258.590485 
L 492.972414 253.856 
L 514.981034 253.856 
L 514.981034 279.368941 
L 514.981034 274.963253 
L 536.989655 274.963253 
L 536.989655 301.539502 
L 536.989655 297.551147 
L 558.998276 297.551147 
L 558.998276 321.872241 
L 558.998276 318.34498 
L 581.006897 318.34498 
L 581.006897 328.460898 
L 581.006897 325.188101 
L 603.015517 325.188101 
L 603.015517 329.093143 
L 603.015517 325.960334 
L 625.024138 325.960334 
L 625.024138 327.224508 
L 625.024138 324.181086 
L 647.032759 324.181086 
L 647.032759 358.84756 
L 647.032759 356.492031 
L 669.041379 356.492031 
L 669.041379 357.74382 
L 669.041379 355.449262 
L 691.05 355.449262 
L 691.05 406.419118 
L 691.05 406.419118 
" clip-path="url(#p32bd969403)" style="fill: none; stroke: #0000ff; stroke-width: 1.5; stroke-linecap: square"/>
   </g>
   <g id="line2d_26">
    <path d="M 52.8 147.638857 
L 52.8 147.638857 
L 118.826963 147.638857 
L 118.826963 128.165714 
L 140.833822 128.165714 
L 140.833822 406.417453 
L 691.05 406.417453 
" clip-path="url(#p32bd969403)" style="fill: none; stroke: #bfbf00; stroke-width: 1.5; stroke-linecap: square"/>
   </g>
   <g id="line2d_27">
    <defs>
     <path id="me050f11a8f" d="M 0 6.363961 
L 6.363961 0 
L 0 -6.363961 
L -6.363961 0 
z
" style="stroke: #000000; stroke-linejoin: miter"/>
    </defs>
    <g clip-path="url(#p32bd969403)">
     <use xlink:href="#me050f11a8f" x="338.912069" y="78.091918" style="fill: #ffa500; stroke: #000000; stroke-linejoin: miter"/>
    </g>
   </g>
   <g id="line2d_28">
    <defs>
     <path id="mc6a4c6f7f6" d="M 0 6.363961 
L 6.363961 0 
L 0 -6.363961 
L -6.363961 0 
z
" style="stroke: #000000; stroke-linejoin: miter"/>
    </defs>
    <g clip-path="url(#p32bd969403)">
     <use xlink:href="#mc6a4c6f7f6" x="426.946552" y="163.866476" style="fill: #008000; stroke: #000000; stroke-linejoin: miter"/>
    </g>
   </g>
   <g id="line2d_29">
    <defs>
     <path id="m043c7fd6be" d="M 0 6.363961 
L 6.363961 0 
L 0 -6.363961 
L -6.363961 0 
z
" style="stroke: #000000; stroke-linejoin: miter"/>
    </defs>
    <g clip-path="url(#p32bd969403)">
     <use xlink:href="#m043c7fd6be" x="404.937931" y="180.094095" style="fill: #ff0000; stroke: #000000; stroke-linejoin: miter"/>
    </g>
   </g>
   <g id="line2d_30">
    <defs>
     <path id="m09cacac834" d="M 0 3 
C 0.795609 3 1.55874 2.683901 2.12132 2.12132 
C 2.683901 1.55874 3 0.795609 3 0 
C 3 -0.795609 2.683901 -1.55874 2.12132 -2.12132 
C 1.55874 -2.683901 0.795609 -3 0 -3 
C -0.795609 -3 -1.55874 -2.683901 -2.12132 -2.12132 
C -2.683901 -1.55874 -3 -0.795609 -3 0 
C -3 0.795609 -2.683901 1.55874 -2.12132 2.12132 
C -1.55874 2.683901 -0.795609 3 0 3 
z
" style="stroke: #000000"/>
    </defs>
    <g clip-path="url(#p32bd969403)">
     <use xlink:href="#m09cacac834" x="404.937931" y="180.094095" style="fill: #0000ff; stroke: #000000"/>
    </g>
   </g>
   <g id="line2d_31">
    <defs>
     <path id="mffdc4ef69b" d="M 0 -4.5 
L -4.5 4.5 
L 4.5 4.5 
z
" style="stroke: #000000; stroke-linejoin: miter"/>
    </defs>
    <g clip-path="url(#p32bd969403)">
     <use xlink:href="#mffdc4ef69b" x="360.92069" y="212.549333" style="fill: #ffffff; stroke: #000000; stroke-linejoin: miter"/>
    </g>
   </g>
   <g id="line2d_32">
    <defs>
     <path id="me086cfd1a9" d="M 0 -4.5 
L -4.5 4.5 
L 4.5 4.5 
z
" style="stroke: #000000; stroke-linejoin: miter"/>
    </defs>
    <g clip-path="url(#p32bd969403)">
     <use xlink:href="#me086cfd1a9" x="250.877586" y="50.273143" style="fill: #808080; stroke: #000000; stroke-linejoin: miter"/>
    </g>
   </g>
   <g id="line2d_33">
    <defs>
     <path id="me2208f8172" d="M -4 4 
L 4 4 
L 4 -4 
L -4 -4 
z
" style="stroke: #000000; stroke-linejoin: miter"/>
    </defs>
    <g clip-path="url(#p32bd969403)">
     <use xlink:href="#me2208f8172" x="272.886207" y="277.45981" style="fill: #ffffff; stroke: #000000; stroke-linejoin: miter"/>
    </g>
   </g>
   <g id="line2d_34">
    <defs>
     <path id="m9b154dcc2c" d="M -4 4 
L 4 4 
L 4 -4 
L -4 -4 
z
" style="stroke: #000000; stroke-linejoin: miter"/>
    </defs>
    <g clip-path="url(#p32bd969403)">
     <use xlink:href="#m9b154dcc2c" x="184.851724" y="50.273143" style="fill: #808080; stroke: #000000; stroke-linejoin: miter"/>
    </g>
   </g>
   <g id="line2d_35">
    <defs>
     <path id="m29d0169471" d="M -2.25 4.5 
L 0 2.25 
L 2.25 4.5 
L 4.5 2.25 
L 2.25 0 
L 4.5 -2.25 
L 2.25 -4.5 
L 0 -2.25 
L -2.25 -4.5 
L -4.5 -2.25 
L -2.25 0 
L -4.5 2.25 
z
" style="stroke: #000000; stroke-linejoin: miter"/>
    </defs>
    <g clip-path="url(#p32bd969403)">
     <use xlink:href="#m29d0169471" x="404.937931" y="190.479771" style="stroke: #000000; stroke-linejoin: miter"/>
    </g>
   </g>
   <g id="line2d_36">
    <defs>
     <path id="m52f3b09802" d="M 0 -4.5 
L -4.279754 -1.390576 
L -2.645034 3.640576 
L 2.645034 3.640576 
L 4.279754 -1.390576 
z
" style="stroke: #000000; stroke-linejoin: miter"/>
    </defs>
    <g clip-path="url(#p32bd969403)">
     <use xlink:href="#m52f3b09802" x="162.843103" y="358.597905" style="fill: #00bfbf; stroke: #000000; stroke-linejoin: miter"/>
    </g>
   </g>
   <g id="line2d_37">
    <defs>
     <path id="m6716741dd4" d="M -3 3 
L 3 -3 
M -3 -3 
L 3 3 
" style="stroke: #000000"/>
    </defs>
    <g clip-path="url(#p32bd969403)">
     <use xlink:href="#m6716741dd4" x="150.501022" y="380.118422" style="stroke: #000000"/>
    </g>
   </g>
   <g id="patch_3">
    <path d="M 52.8 439.736 
L 52.8 30.8 
" style="fill: none; stroke: #000000; stroke-width: 0.8; stroke-linejoin: miter; stroke-linecap: square"/>
   </g>
   <g id="patch_4">
    <path d="M 691.05 439.736 
L 691.05 30.8 
" style="fill: none; stroke: #000000; stroke-width: 0.8; stroke-linejoin: miter; stroke-linecap: square"/>
   </g>
   <g id="patch_5">
    <path d="M 52.8 439.736 
L 691.05 439.736 
" style="fill: none; stroke: #000000; stroke-width: 0.8; stroke-linejoin: miter; stroke-linecap: square"/>
   </g>
   <g id="patch_6">
    <path d="M 52.8 30.8 
L 691.05 30.8 
" style="fill: none; stroke: #000000; stroke-width: 0.8; stroke-linejoin: miter; stroke-linecap: square"/>
   </g>
   <g id="text_24">
    <text style="font: 18px 'sans-serif'; text-anchor: middle" x="371.925" y="24.8" transform="rotate(-0, 371.925, 24.8)">Precision-Recall Curve Three Molecular Traits set</text>
   </g>
   <g id="legend_1">
    <g id="patch_7">
     <path d="M 91.7125 557.4168 
L 631.810937 557.4168 
Q 633.810937 557.4168 633.810937 555.4168 
L 633.810937 479.867737 
Q 633.810937 477.867737 631.810937 477.867737 
L 91.7125 477.867737 
Q 89.7125 477.867737 89.7125 479.867737 
L 89.7125 555.4168 
Q 89.7125 557.4168 91.7125 557.4168 
z
" style="fill: #ffffff; opacity: 0.8; stroke: #cccccc; stroke-linejoin: miter"/>
    </g>
    <g id="line2d_38">
     <path d="M 93.7125 492.604925 
L 93.7125 492.604925 
L 103.7125 492.604925 
L 103.7125 492.604925 
L 113.7125 492.604925 
" style="fill: none; stroke: #008000; stroke-width: 1.5; stroke-linecap: square"/>
    </g>
    <g id="text_25">
     <text style="font: 10px 'sans-serif'; text-anchor: start" x="121.7125" y="496.104925" transform="rotate(-0, 121.7125, 496.104925)">FLAMES (0.74)</text>
    </g>
    <g id="line2d_39">
     <path d="M 93.7125 513.9218 
L 93.7125 513.9218 
L 103.7125 513.9218 
L 103.7125 513.9218 
L 113.7125 513.9218 
" style="fill: none; stroke: #ff0000; stroke-width: 1.5; stroke-linecap: square"/>
    </g>
    <g id="text_26">
     <text style="font: 10px 'sans-serif'" transform="translate(121.7125 510.78305)">FLAMES </text>
     <text style="font: 10px 'sans-serif'" transform="translate(121.7125 521.980862)">path. naive (0.67)</text>
    </g>
    <g id="line2d_40">
     <path d="M 93.7125 533.158987 
L 93.7125 533.158987 
L 103.7125 533.158987 
L 103.7125 533.158987 
L 113.7125 533.158987 
" style="fill: none; stroke: #bf00bf; stroke-width: 1.5; stroke-linecap: square"/>
    </g>
    <g id="text_27">
     <text style="font: 10px 'sans-serif'; text-anchor: start" x="121.7125" y="536.658987" transform="rotate(-0, 121.7125, 536.658987)">XGB (0.63)</text>
    </g>
    <g id="line2d_41">
     <path d="M 93.7125 547.837112 
L 93.7125 547.837112 
L 103.7125 547.837112 
L 103.7125 547.837112 
L 113.7125 547.837112 
" style="fill: none; stroke: #0000ff; stroke-width: 1.5; stroke-linecap: square"/>
    </g>
    <g id="text_28">
     <text style="font: 10px 'sans-serif'; text-anchor: start" x="121.7125" y="551.337112" transform="rotate(-0, 121.7125, 551.337112)">L2G (0.67)</text>
    </g>
    <g id="line2d_42">
     <path d="M 231.365625 492.604925 
L 231.365625 492.604925 
L 241.365625 492.604925 
L 241.365625 492.604925 
L 251.365625 492.604925 
" style="fill: none; stroke: #bfbf00; stroke-width: 1.5; stroke-linecap: square"/>
    </g>
    <g id="text_29">
     <text style="font: 10px 'sans-serif'; text-anchor: start" x="259.365625" y="496.104925" transform="rotate(-0, 259.365625, 496.104925)">cS2G (0.49)</text>
    </g>
    <g id="line2d_43">
     <g>
      <use xlink:href="#me050f11a8f" x="241.365625" y="507.28305" style="fill: #ffa500; stroke: #000000; stroke-linejoin: miter"/>
     </g>
    </g>
    <g id="text_30">
     <text style="font: 10px 'sans-serif'; text-anchor: start" x="259.365625" y="510.78305" transform="rotate(-0, 259.365625, 510.78305)">FLAMES recommended</text>
    </g>
    <g id="line2d_44">
     <g>
      <use xlink:href="#mc6a4c6f7f6" x="241.365625" y="521.961175" style="fill: #008000; stroke: #000000; stroke-linejoin: miter"/>
     </g>
    </g>
    <g id="text_31">
     <text style="font: 10px 'sans-serif'; text-anchor: start" x="259.365625" y="525.461175" transform="rotate(-0, 259.365625, 525.461175)">Highest FLAMES</text>
    </g>
    <g id="line2d_45">
     <g>
      <use xlink:href="#m043c7fd6be" x="241.365625" y="543.27805" style="fill: #ff0000; stroke: #000000; stroke-linejoin: miter"/>
     </g>
    </g>
    <g id="text_32">
     <text style="font: 10px 'sans-serif'" transform="translate(259.365625 540.1393)">Highest FLAMES </text>
     <text style="font: 10px 'sans-serif'" transform="translate(259.365625 551.337112)">path. naive</text>
    </g>
    <g id="line2d_46">
     <g>
      <use xlink:href="#m09cacac834" x="404.70625" y="492.604925" style="fill: #0000ff; stroke: #000000"/>
     </g>
    </g>
    <g id="text_33">
     <text style="font: 10px 'sans-serif'; text-anchor: start" x="422.70625" y="496.104925" transform="rotate(-0, 422.70625, 496.104925)">Highest L2G</text>
    </g>
    <g id="line2d_47">
     <g>
      <use xlink:href="#mffdc4ef69b" x="404.70625" y="507.28305" style="fill: #ffffff; stroke: #000000; stroke-linejoin: miter"/>
     </g>
    </g>
    <g id="text_34">
     <text style="font: 10px 'sans-serif'; text-anchor: start" x="422.70625" y="510.78305" transform="rotate(-0, 422.70625, 510.78305)">Highest PoPS</text>
    </g>
    <g id="line2d_48">
     <g>
      <use xlink:href="#me086cfd1a9" x="404.70625" y="521.961175" style="fill: #808080; stroke: #000000; stroke-linejoin: miter"/>
     </g>
    </g>
    <g id="text_35">
     <text style="font: 10px 'sans-serif'; text-anchor: start" x="422.70625" y="525.461175" transform="rotate(-0, 422.70625, 525.461175)">Closest+PoPS</text>
    </g>
    <g id="line2d_49">
     <g>
      <use xlink:href="#me2208f8172" x="404.70625" y="543.27805" style="fill: #ffffff; stroke: #000000; stroke-linejoin: miter"/>
     </g>
    </g>
    <g id="text_36">
     <text style="font: 10px 'sans-serif'" transform="translate(422.70625 540.1393)">Highest PoPS</text>
     <text style="font: 10px 'sans-serif'" transform="translate(422.70625 551.337112)">path naive</text>
    </g>
    <g id="line2d_50">
     <g>
      <use xlink:href="#m9b154dcc2c" x="521.621875" y="492.604925" style="fill: #808080; stroke: #000000; stroke-linejoin: miter"/>
     </g>
    </g>
    <g id="text_37">
     <text style="font: 10px 'sans-serif'" transform="translate(539.621875 489.466175)">Closest+PoPS </text>
     <text style="font: 10px 'sans-serif'" transform="translate(539.621875 500.663987)">path. naive</text>
    </g>
    <g id="line2d_51">
     <g>
      <use xlink:href="#m29d0169471" x="521.621875" y="511.842112" style="stroke: #000000; stroke-linejoin: miter"/>
     </g>
    </g>
    <g id="text_38">
     <text style="font: 10px 'sans-serif'; text-anchor: start" x="539.621875" y="515.342112" transform="rotate(-0, 539.621875, 515.342112)">Closest gene</text>
    </g>
    <g id="line2d_52">
     <g>
      <use xlink:href="#m52f3b09802" x="521.621875" y="526.520237" style="fill: #00bfbf; stroke: #000000; stroke-linejoin: miter"/>
     </g>
    </g>
    <g id="text_39">
     <text style="font: 10px 'sans-serif'; text-anchor: start" x="539.621875" y="530.020237" transform="rotate(-0, 539.621875, 530.020237)">Highest MAGMA-Z</text>
    </g>
    <g id="line2d_53">
     <g>
      <use xlink:href="#m6716741dd4" x="521.621875" y="541.198362" style="stroke: #000000"/>
     </g>
    </g>
    <g id="text_40">
     <text style="font: 10px 'sans-serif'; text-anchor: start" x="539.621875" y="544.698362" transform="rotate(-0, 539.621875, 544.698362)">Random predictor</text>
    </g>
   </g>
  </g>
 </g>
 <defs>
  <clipPath id="p32bd969403">
   <rect x="52.8" y="30.8" width="638.25" height="408.936"/>
  </clipPath>
 </defs>
</svg>
