<?xml version="1.0" encoding="utf-8" standalone="no"?>
<!DOCTYPE svg PUBLIC "-//W3C//DTD SVG 1.1//EN"
  "http://www.w3.org/Graphics/SVG/1.1/DTD/svg11.dtd">
<svg xmlns:xlink="http://www.w3.org/1999/xlink" width="504pt" height="288pt" viewBox="0 0 504 288" xmlns="http://www.w3.org/2000/svg" version="1.1">
 <metadata>
  <rdf:RDF xmlns:dc="http://purl.org/dc/elements/1.1/" xmlns:cc="http://creativecommons.org/ns#" xmlns:rdf="http://www.w3.org/1999/02/22-rdf-syntax-ns#">
   <cc:Work>
    <dc:type rdf:resource="http://purl.org/dc/dcmitype/StillImage"/>
    <dc:date>2023-12-20T13:16:10.952653</dc:date>
    <dc:format>image/svg+xml</dc:format>
    <dc:creator>
     <cc:Agent>
      <dc:title>Matplotlib v3.5.2, https://matplotlib.org/</dc:title>
     </cc:Agent>
    </dc:creator>
   </cc:Work>
  </rdf:RDF>
 </metadata>
 <defs>
  <style type="text/css">*{stroke-linejoin: round; stroke-linecap: butt}</style>
 </defs>
 <g id="figure_1">
  <g id="patch_1">
   <path d="M 0 288 
L 504 288 
L 504 0 
L 0 0 
L 0 288 
z
" style="fill: none"/>
  </g>
  <g id="axes_1">
   <g id="patch_2">
    <path d="M 63 252 
L 453.6 252 
L 453.6 34.56 
L 63 34.56 
z
" style="fill: #ffffff"/>
   </g>
   <g id="PolyCollection_1">
    <defs>
     <path id="m381889eb6d" d="M 63 -105.031364 
L 63 -45.883636 
L 66.945455 -49.358785 
L 70.890909 -52.555003 
L 74.836364 -55.425997 
L 78.781818 -57.942565 
L 82.727273 -60.103006 
L 86.672727 -61.940139 
L 90.618182 -63.512466 
L 94.563636 -64.881827 
L 98.509091 -66.116323 
L 102.454545 -67.28646 
L 106.4 -68.458949 
L 110.345455 -69.690832 
L 114.290909 -71.010406 
L 118.236364 -72.412549 
L 122.181818 -73.887013 
L 126.127273 -75.425681 
L 130.072727 -77.024844 
L 134.018182 -78.683798 
L 137.963636 -80.391725 
L 141.909091 -82.129561 
L 145.854545 -83.884562 
L 149.8 -85.65372 
L 153.745455 -87.443698 
L 157.690909 -89.26569 
L 161.636364 -91.11382 
L 165.581818 -92.973764 
L 169.527273 -94.837987 
L 173.472727 -96.708087 
L 177.418182 -98.593841 
L 181.363636 -100.507871 
L 185.309091 -102.455198 
L 189.254545 -104.44087 
L 193.2 -106.477198 
L 197.145455 -108.585466 
L 201.090909 -110.794513 
L 205.036364 -113.117692 
L 208.981818 -115.505603 
L 212.927273 -117.899574 
L 216.872727 -120.248912 
L 220.818182 -122.512012 
L 224.763636 -124.654329 
L 228.709091 -126.639733 
L 232.654545 -128.42441 
L 236.6 -129.96846 
L 240.545455 -131.240462 
L 244.490909 -132.218009 
L 248.436364 -132.886299 
L 252.381818 -133.274379 
L 256.327273 -133.465456 
L 260.272727 -133.551854 
L 264.218182 -133.634718 
L 268.163636 -133.82402 
L 272.109091 -134.230727 
L 276.054545 -134.892616 
L 280 -135.790211 
L 283.945455 -136.90885 
L 287.890909 -138.242886 
L 291.836364 -139.795153 
L 295.781818 -141.566972 
L 299.727273 -143.507021 
L 303.672727 -145.540161 
L 307.618182 -147.598154 
L 311.563636 -149.62185 
L 315.509091 -151.560079 
L 319.454545 -153.369221 
L 323.4 -155.023215 
L 327.345455 -156.504445 
L 331.290909 -157.802859 
L 335.236364 -158.917377 
L 339.181818 -159.854189 
L 343.127273 -160.626999 
L 347.072727 -161.263033 
L 351.018182 -161.796061 
L 354.963636 -162.268036 
L 358.909091 -162.730039 
L 362.854545 -163.239693 
L 366.8 -163.825774 
L 370.745455 -164.464864 
L 374.690909 -165.134603 
L 378.636364 -165.8223 
L 382.581818 -166.525003 
L 386.527273 -167.246049 
L 390.472727 -167.979831 
L 394.418182 -168.709863 
L 398.363636 -169.422629 
L 402.309091 -170.109019 
L 406.254545 -170.762058 
L 410.2 -171.370552 
L 414.145455 -171.901301 
L 418.090909 -172.300112 
L 422.036364 -172.503273 
L 425.981818 -172.443275 
L 429.927273 -172.055014 
L 433.872727 -171.280909 
L 437.818182 -170.075346 
L 441.763636 -168.422015 
L 445.709091 -166.339141 
L 449.654545 -163.872449 
L 453.6 -161.084755 
L 453.6 -220.232482 
L 453.6 -220.232482 
L 449.654545 -217.541201 
L 445.709091 -215.12451 
L 441.763636 -213.028887 
L 437.818182 -211.283713 
L 433.872727 -209.890874 
L 429.927273 -208.817731 
L 425.981818 -208.005984 
L 422.036364 -207.394042 
L 418.090909 -206.914059 
L 414.145455 -206.495786 
L 410.2 -206.072766 
L 406.254545 -205.588246 
L 402.309091 -205.015934 
L 398.363636 -204.365482 
L 394.418182 -203.651871 
L 390.472727 -202.887949 
L 386.527273 -202.082158 
L 382.581818 -201.240174 
L 378.636364 -200.382604 
L 374.690909 -199.542762 
L 370.745455 -198.74781 
L 366.8 -198.015174 
L 362.854545 -197.352609 
L 358.909091 -196.759651 
L 354.963636 -196.215592 
L 351.018182 -195.686508 
L 347.072727 -195.131415 
L 343.127273 -194.500201 
L 339.181818 -193.734573 
L 335.236364 -192.781475 
L 331.290909 -191.6416 
L 327.345455 -190.331963 
L 323.4 -188.862335 
L 319.454545 -187.233515 
L 315.509091 -185.438745 
L 311.563636 -183.485363 
L 307.618182 -181.438785 
L 303.672727 -179.37272 
L 299.727273 -177.352897 
L 295.781818 -175.43596 
L 291.836364 -173.671408 
L 287.890909 -172.09884 
L 283.945455 -170.742305 
L 280 -169.619136 
L 276.054545 -168.738184 
L 272.109091 -168.099291 
L 268.163636 -167.694955 
L 264.218182 -167.483353 
L 260.272727 -167.380515 
L 256.327273 -167.294117 
L 252.381818 -167.123014 
L 248.436364 -166.757233 
L 244.490909 -166.086574 
L 240.545455 -165.08603 
L 236.6 -163.797384 
L 232.654545 -162.257865 
L 228.709091 -160.495687 
L 224.763636 -158.530584 
L 220.818182 -156.381 
L 216.872727 -154.094788 
L 212.927273 -151.732133 
L 208.981818 -149.346235 
L 205.036364 -146.981206 
L 201.090909 -144.67318 
L 197.145455 -142.44976 
L 193.2 -140.316318 
L 189.254545 -138.268388 
L 185.309091 -136.293939 
L 181.363636 -134.371969 
L 177.418182 -132.474224 
L 173.472727 -130.581289 
L 169.527273 -128.706369 
L 165.581818 -126.86421 
L 161.636364 -125.061376 
L 157.690909 -123.295302 
L 153.745455 -121.556614 
L 149.8 -119.843119 
L 145.854545 -118.167507 
L 141.909091 -116.537719 
L 137.963636 -114.952029 
L 134.018182 -113.398969 
L 130.072727 -111.860953 
L 126.127273 -110.333799 
L 122.181818 -108.829021 
L 118.236364 -107.355402 
L 114.290909 -105.917321 
L 110.345455 -104.51702 
L 106.4 -103.161163 
L 102.454545 -101.880945 
L 98.509091 -100.73027 
L 94.563636 -99.772596 
L 90.618182 -99.075176 
L 86.672727 -98.702856 
L 82.727273 -98.712971 
L 78.781818 -99.150933 
L 74.836364 -100.032868 
L 70.890909 -101.340371 
L 66.945455 -103.027536 
L 63 -105.031364 
z
" style="stroke: #000000; stroke-opacity: 0.05"/>
    </defs>
    <g clip-path="url(#p6a8c9304a6)">
     <use xlink:href="#m381889eb6d" x="0" y="288" style="fill-opacity: 0.05; stroke: #000000; stroke-opacity: 0.05"/>
    </g>
   </g>
   <g id="PathCollection_1">
    <defs>
     <path id="ma7f855c26d" d="M 0 2.738613 
C 0.726289 2.738613 1.422928 2.450055 1.936492 1.936492 
C 2.450055 1.422928 2.738613 0.726289 2.738613 0 
C 2.738613 -0.726289 2.450055 -1.422928 1.936492 -1.936492 
C 1.422928 -2.450055 0.726289 -2.738613 0 -2.738613 
C -0.726289 -2.738613 -1.422928 -2.450055 -1.936492 -1.936492 
C -2.450055 -1.422928 -2.738613 -0.726289 -2.738613 0 
C -2.738613 0.726289 -2.450055 1.422928 -1.936492 1.936492 
C -1.422928 2.450055 -0.726289 2.738613 0 2.738613 
z
" style="stroke: #ffa500"/>
    </defs>
    <g clip-path="url(#p6a8c9304a6)">
     <use xlink:href="#ma7f855c26d" x="63" y="210.350416" style="fill: #ffa500; stroke: #ffa500"/>
     <use xlink:href="#ma7f855c26d" x="76.02" y="210.676091" style="fill: #ffa500; stroke: #ffa500"/>
     <use xlink:href="#ma7f855c26d" x="89.04" y="205.783157" style="fill: #ffa500; stroke: #ffa500"/>
     <use xlink:href="#ma7f855c26d" x="102.06" y="210.046416" style="fill: #ffa500; stroke: #ffa500"/>
     <use xlink:href="#ma7f855c26d" x="115.08" y="198.551543" style="fill: #ffa500; stroke: #ffa500"/>
     <use xlink:href="#ma7f855c26d" x="128.1" y="187.34736" style="fill: #ffa500; stroke: #ffa500"/>
     <use xlink:href="#ma7f855c26d" x="141.12" y="196.428629" style="fill: #ffa500; stroke: #ffa500"/>
     <use xlink:href="#ma7f855c26d" x="154.14" y="178.405859" style="fill: #ffa500; stroke: #ffa500"/>
     <use xlink:href="#ma7f855c26d" x="167.16" y="185.608847" style="fill: #ffa500; stroke: #ffa500"/>
     <use xlink:href="#ma7f855c26d" x="180.18" y="149.236623" style="fill: #ffa500; stroke: #ffa500"/>
     <use xlink:href="#ma7f855c26d" x="193.2" y="182.079898" style="fill: #ffa500; stroke: #ffa500"/>
     <use xlink:href="#ma7f855c26d" x="206.22" y="165.974615" style="fill: #ffa500; stroke: #ffa500"/>
     <use xlink:href="#ma7f855c26d" x="219.24" y="158.192598" style="fill: #ffa500; stroke: #ffa500"/>
     <use xlink:href="#ma7f855c26d" x="232.26" y="128.193288" style="fill: #ffa500; stroke: #ffa500"/>
     <use xlink:href="#ma7f855c26d" x="245.28" y="120.749912" style="fill: #ffa500; stroke: #ffa500"/>
     <use xlink:href="#ma7f855c26d" x="258.3" y="102.586488" style="fill: #ffa500; stroke: #ffa500"/>
     <use xlink:href="#ma7f855c26d" x="271.32" y="193.694737" style="fill: #ffa500; stroke: #ffa500"/>
     <use xlink:href="#ma7f855c26d" x="284.34" y="142.433917" style="fill: #ffa500; stroke: #ffa500"/>
     <use xlink:href="#ma7f855c26d" x="297.36" y="127.076557" style="fill: #ffa500; stroke: #ffa500"/>
     <use xlink:href="#ma7f855c26d" x="310.38" y="111.582064" style="fill: #ffa500; stroke: #ffa500"/>
     <use xlink:href="#ma7f855c26d" x="323.4" y="110.517305" style="fill: #ffa500; stroke: #ffa500"/>
     <use xlink:href="#ma7f855c26d" x="336.42" y="107.614095" style="fill: #ffa500; stroke: #ffa500"/>
     <use xlink:href="#ma7f855c26d" x="349.44" y="87.530615" style="fill: #ffa500; stroke: #ffa500"/>
     <use xlink:href="#ma7f855c26d" x="362.46" y="151.416327" style="fill: #ffa500; stroke: #ffa500"/>
     <use xlink:href="#ma7f855c26d" x="375.48" y="91.449718" style="fill: #ffa500; stroke: #ffa500"/>
     <use xlink:href="#ma7f855c26d" x="388.5" y="96.721108" style="fill: #ffa500; stroke: #ffa500"/>
     <use xlink:href="#ma7f855c26d" x="401.52" y="112.948077" style="fill: #ffa500; stroke: #ffa500"/>
     <use xlink:href="#ma7f855c26d" x="414.54" y="82.425459" style="fill: #ffa500; stroke: #ffa500"/>
     <use xlink:href="#ma7f855c26d" x="427.56" y="105.908879" style="fill: #ffa500; stroke: #ffa500"/>
     <use xlink:href="#ma7f855c26d" x="440.58" y="92.693397" style="fill: #ffa500; stroke: #ffa500"/>
     <use xlink:href="#ma7f855c26d" x="453.6" y="100.774319" style="fill: #ffa500; stroke: #ffa500"/>
    </g>
   </g>
   <g id="PolyCollection_2">
    <defs>
     <path id="ma74e0dfeb8" d="M 63 -243.556364 
L 63 -191.454611 
L 66.945455 -193.28994 
L 70.890909 -194.805898 
L 74.836364 -195.942878 
L 78.781818 -196.656331 
L 82.727273 -196.925929 
L 86.672727 -196.761773 
L 90.618182 -196.202113 
L 94.563636 -195.301307 
L 98.509091 -194.121145 
L 102.454545 -192.725541 
L 106.4 -191.175063 
L 110.345455 -189.521696 
L 114.290909 -187.788502 
L 118.236364 -185.963823 
L 122.181818 -184.031057 
L 126.127273 -181.975481 
L 130.072727 -179.786254 
L 134.018182 -177.455522 
L 137.963636 -174.973338 
L 141.909091 -172.328806 
L 145.854545 -169.516833 
L 149.8 -166.540904 
L 153.745455 -163.413024 
L 157.690909 -160.153186 
L 161.636364 -156.806812 
L 165.581818 -153.435377 
L 169.527273 -150.106626 
L 173.472727 -146.896346 
L 177.418182 -143.887531 
L 181.363636 -141.151301 
L 185.309091 -138.669977 
L 189.254545 -136.396815 
L 193.2 -134.291436 
L 197.145455 -132.32136 
L 201.090909 -130.460772 
L 205.036364 -128.679682 
L 208.981818 -126.924613 
L 212.927273 -125.14058 
L 216.872727 -123.279626 
L 220.818182 -121.301796 
L 224.763636 -119.173496 
L 228.709091 -116.878838 
L 232.654545 -114.43382 
L 236.6 -111.862542 
L 240.545455 -109.19658 
L 244.490909 -106.475445 
L 248.436364 -103.744366 
L 252.381818 -101.051504 
L 256.327273 -98.447773 
L 260.272727 -95.989246 
L 264.218182 -93.739774 
L 268.163636 -91.770978 
L 272.109091 -90.1559 
L 276.054545 -88.911607 
L 280 -88.01148 
L 283.945455 -87.433328 
L 287.890909 -87.1629 
L 291.836364 -87.193417 
L 295.781818 -87.518124 
L 299.727273 -88.095184 
L 303.672727 -88.86735 
L 307.618182 -89.7835 
L 311.563636 -90.800517 
L 315.509091 -91.882309 
L 319.454545 -92.995216 
L 323.4 -94.100876 
L 327.345455 -95.162359 
L 331.290909 -96.149398 
L 335.236364 -97.039624 
L 339.181818 -97.817079 
L 343.127273 -98.473455 
L 347.072727 -99.015273 
L 351.018182 -99.455331 
L 354.963636 -99.813635 
L 358.909091 -100.118231 
L 362.854545 -100.403043 
L 366.8 -100.685984 
L 370.745455 -100.955177 
L 374.690909 -101.201276 
L 378.636364 -101.423453 
L 382.581818 -101.62946 
L 386.527273 -101.832551 
L 390.472727 -102.037145 
L 394.418182 -102.237045 
L 398.363636 -102.42862 
L 402.309091 -102.612117 
L 406.254545 -102.789666 
L 410.2 -102.958962 
L 414.145455 -103.089323 
L 418.090909 -103.125464 
L 422.036364 -103.003598 
L 425.981818 -102.656594 
L 429.927273 -102.019441 
L 433.872727 -101.034346 
L 437.818182 -99.658144 
L 441.763636 -97.875194 
L 445.709091 -95.700283 
L 449.654545 -93.172419 
L 453.6 -90.345668 
L 453.6 -142.44742 
L 453.6 -142.44742 
L 449.654545 -140.447878 
L 445.709091 -138.674093 
L 441.763636 -137.168271 
L 437.818182 -135.957563 
L 433.872727 -135.044898 
L 429.927273 -134.402798 
L 425.981818 -133.982895 
L 422.036364 -133.738003 
L 418.090909 -133.616024 
L 414.145455 -133.562739 
L 410.2 -133.527274 
L 406.254545 -133.467184 
L 402.309091 -133.360745 
L 398.363636 -133.208904 
L 394.418182 -133.016586 
L 390.472727 -132.786833 
L 386.527273 -132.518808 
L 382.581818 -132.209185 
L 378.636364 -131.86676 
L 374.690909 -131.510561 
L 370.745455 -131.154165 
L 366.8 -130.80257 
L 362.854545 -130.452256 
L 358.909091 -130.094064 
L 354.963636 -129.717187 
L 351.018182 -129.308577 
L 347.072727 -128.849082 
L 343.127273 -128.31151 
L 339.181818 -127.661461 
L 335.236364 -126.86966 
L 331.290909 -125.957098 
L 327.345455 -124.960173 
L 323.4 -123.908909 
L 319.454545 -122.825425 
L 315.509091 -121.725179 
L 311.563636 -120.630038 
L 307.618182 -119.592866 
L 303.672727 -118.669604 
L 299.727273 -117.909168 
L 295.781818 -117.352468 
L 291.836364 -117.034161 
L 287.890909 -116.985763 
L 283.945455 -117.236372 
L 280 -117.810533 
L 276.054545 -118.725321 
L 272.109091 -119.98987 
L 268.163636 -121.607037 
L 264.218182 -123.55619 
L 260.272727 -125.788067 
L 256.327273 -128.246593 
L 252.381818 -130.86792 
L 248.436364 -133.580424 
L 244.490909 -136.309416 
L 240.545455 -139.010293 
L 236.6 -141.661595 
L 232.654545 -144.236863 
L 228.709091 -146.701701 
L 224.763636 -149.014241 
L 220.818182 -151.13614 
L 216.872727 -153.09361 
L 212.927273 -154.942835 
L 208.981818 -156.733978 
L 205.036364 -158.509203 
L 201.090909 -160.303641 
L 197.145455 -162.151569 
L 193.2 -164.099469 
L 189.254545 -166.194629 
L 185.309091 -168.477677 
L 181.363636 -170.981337 
L 177.418182 -173.731913 
L 173.472727 -176.734401 
L 169.527273 -179.940436 
L 165.581818 -183.288623 
L 161.636364 -186.710365 
L 157.690909 -190.129019 
L 153.745455 -193.462237 
L 149.8 -196.65749 
L 145.854545 -199.715821 
L 141.909091 -202.638091 
L 137.963636 -205.416645 
L 134.018182 -208.035247 
L 130.072727 -210.47251 
L 126.127273 -212.725168 
L 122.181818 -214.810597 
L 118.236364 -216.744108 
L 114.290909 -218.53713 
L 110.345455 -220.199213 
L 106.4 -221.743376 
L 102.454545 -223.198957 
L 98.509091 -224.611704 
L 94.563636 -226.035711 
L 90.618182 -227.528414 
L 86.672727 -229.14513 
L 82.727273 -230.93648 
L 78.781818 -232.95575 
L 74.836364 -235.235955 
L 70.890909 -237.779708 
L 66.945455 -240.5654 
L 63 -243.556364 
z
" style="stroke: #000000; stroke-opacity: 0.05"/>
    </defs>
    <g clip-path="url(#p6a8c9304a6)">
     <use xlink:href="#ma74e0dfeb8" x="0" y="288" style="fill-opacity: 0.05; stroke: #000000; stroke-opacity: 0.05"/>
    </g>
   </g>
   <g id="PathCollection_2">
    <defs>
     <path id="mdc6aa4b79a" d="M 0 2.738613 
C 0.726289 2.738613 1.422928 2.450055 1.936492 1.936492 
C 2.450055 1.422928 2.738613 0.726289 2.738613 0 
C 2.738613 -0.726289 2.450055 -1.422928 1.936492 -1.936492 
C 1.422928 -2.450055 0.726289 -2.738613 0 -2.738613 
C -0.726289 -2.738613 -1.422928 -2.450055 -1.936492 -1.936492 
C -2.450055 -1.422928 -2.738613 -0.726289 -2.738613 0 
C -2.738613 0.726289 -2.450055 1.422928 -1.936492 1.936492 
C -1.422928 2.450055 -0.726289 2.738613 0 2.738613 
z
" style="stroke: #0000ff"/>
    </defs>
    <g clip-path="url(#p6a8c9304a6)">
     <use xlink:href="#mdc6aa4b79a" x="63" y="80.940603" style="fill: #0000ff; stroke: #0000ff"/>
     <use xlink:href="#mdc6aa4b79a" x="76.02" y="58.2389" style="fill: #0000ff; stroke: #0000ff"/>
     <use xlink:href="#mdc6aa4b79a" x="89.04" y="75.751669" style="fill: #0000ff; stroke: #0000ff"/>
     <use xlink:href="#mdc6aa4b79a" x="102.06" y="87.347891" style="fill: #0000ff; stroke: #0000ff"/>
     <use xlink:href="#mdc6aa4b79a" x="115.08" y="88.32386" style="fill: #0000ff; stroke: #0000ff"/>
     <use xlink:href="#mdc6aa4b79a" x="128.1" y="79.856353" style="fill: #0000ff; stroke: #0000ff"/>
     <use xlink:href="#mdc6aa4b79a" x="141.12" y="112.612319" style="fill: #0000ff; stroke: #0000ff"/>
     <use xlink:href="#mdc6aa4b79a" x="154.14" y="88.021068" style="fill: #0000ff; stroke: #0000ff"/>
     <use xlink:href="#mdc6aa4b79a" x="167.16" y="102.989217" style="fill: #0000ff; stroke: #0000ff"/>
     <use xlink:href="#mdc6aa4b79a" x="180.18" y="175.830022" style="fill: #0000ff; stroke: #0000ff"/>
     <use xlink:href="#mdc6aa4b79a" x="193.2" y="154.808979" style="fill: #0000ff; stroke: #0000ff"/>
     <use xlink:href="#mdc6aa4b79a" x="206.22" y="122.881533" style="fill: #0000ff; stroke: #0000ff"/>
     <use xlink:href="#mdc6aa4b79a" x="219.24" y="139.858833" style="fill: #0000ff; stroke: #0000ff"/>
     <use xlink:href="#mdc6aa4b79a" x="232.26" y="154.821537" style="fill: #0000ff; stroke: #0000ff"/>
     <use xlink:href="#mdc6aa4b79a" x="245.28" y="166.562491" style="fill: #0000ff; stroke: #0000ff"/>
     <use xlink:href="#mdc6aa4b79a" x="258.3" y="158.112144" style="fill: #0000ff; stroke: #0000ff"/>
     <use xlink:href="#mdc6aa4b79a" x="271.32" y="221.444047" style="fill: #0000ff; stroke: #0000ff"/>
     <use xlink:href="#mdc6aa4b79a" x="284.34" y="181.827169" style="fill: #0000ff; stroke: #0000ff"/>
     <use xlink:href="#mdc6aa4b79a" x="297.36" y="187.188976" style="fill: #0000ff; stroke: #0000ff"/>
     <use xlink:href="#mdc6aa4b79a" x="310.38" y="181.78447" style="fill: #0000ff; stroke: #0000ff"/>
     <use xlink:href="#mdc6aa4b79a" x="323.4" y="174.559315" style="fill: #0000ff; stroke: #0000ff"/>
     <use xlink:href="#mdc6aa4b79a" x="336.42" y="172.478923" style="fill: #0000ff; stroke: #0000ff"/>
     <use xlink:href="#mdc6aa4b79a" x="349.44" y="154.697558" style="fill: #0000ff; stroke: #0000ff"/>
     <use xlink:href="#mdc6aa4b79a" x="362.46" y="196.605438" style="fill: #0000ff; stroke: #0000ff"/>
     <use xlink:href="#mdc6aa4b79a" x="375.48" y="169.209238" style="fill: #0000ff; stroke: #0000ff"/>
     <use xlink:href="#mdc6aa4b79a" x="388.5" y="164.649574" style="fill: #0000ff; stroke: #0000ff"/>
     <use xlink:href="#mdc6aa4b79a" x="401.52" y="172.000872" style="fill: #0000ff; stroke: #0000ff"/>
     <use xlink:href="#mdc6aa4b79a" x="414.54" y="172.015199" style="fill: #0000ff; stroke: #0000ff"/>
     <use xlink:href="#mdc6aa4b79a" x="427.56" y="171.520785" style="fill: #0000ff; stroke: #0000ff"/>
     <use xlink:href="#mdc6aa4b79a" x="440.58" y="159.321614" style="fill: #0000ff; stroke: #0000ff"/>
     <use xlink:href="#mdc6aa4b79a" x="453.6" y="178.73772" style="fill: #0000ff; stroke: #0000ff"/>
    </g>
   </g>
   <g id="matplotlib.axis_1">
    <g id="xtick_1">
     <g id="line2d_1">
      <defs>
       <path id="m629879bcff" d="M 0 0 
L 0 3.5 
" style="stroke: #000000; stroke-width: 0.8"/>
      </defs>
      <g>
       <use xlink:href="#m629879bcff" x="63" y="252" style="stroke: #000000; stroke-width: 0.8"/>
      </g>
     </g>
     <g id="text_1">
      <!--                            8 weeks post-conception -->
      <g transform="translate(-42.163281 266.598437)scale(0.1 -0.1)">
       <defs>
        <path id="DejaVuSans-20" transform="scale(0.015625)"/>
        <path id="DejaVuSans-38" d="M 2034 2216 
Q 1584 2216 1326 1975 
Q 1069 1734 1069 1313 
Q 1069 891 1326 650 
Q 1584 409 2034 409 
Q 2484 409 2743 651 
Q 3003 894 3003 1313 
Q 3003 1734 2745 1975 
Q 2488 2216 2034 2216 
z
M 1403 2484 
Q 997 2584 770 2862 
Q 544 3141 544 3541 
Q 544 4100 942 4425 
Q 1341 4750 2034 4750 
Q 2731 4750 3128 4425 
Q 3525 4100 3525 3541 
Q 3525 3141 3298 2862 
Q 3072 2584 2669 2484 
Q 3125 2378 3379 2068 
Q 3634 1759 3634 1313 
Q 3634 634 3220 271 
Q 2806 -91 2034 -91 
Q 1263 -91 848 271 
Q 434 634 434 1313 
Q 434 1759 690 2068 
Q 947 2378 1403 2484 
z
M 1172 3481 
Q 1172 3119 1398 2916 
Q 1625 2713 2034 2713 
Q 2441 2713 2670 2916 
Q 2900 3119 2900 3481 
Q 2900 3844 2670 4047 
Q 2441 4250 2034 4250 
Q 1625 4250 1398 4047 
Q 1172 3844 1172 3481 
z
" transform="scale(0.015625)"/>
        <path id="DejaVuSans-77" d="M 269 3500 
L 844 3500 
L 1563 769 
L 2278 3500 
L 2956 3500 
L 3675 769 
L 4391 3500 
L 4966 3500 
L 4050 0 
L 3372 0 
L 2619 2869 
L 1863 0 
L 1184 0 
L 269 3500 
z
" transform="scale(0.015625)"/>
        <path id="DejaVuSans-65" d="M 3597 1894 
L 3597 1613 
L 953 1613 
Q 991 1019 1311 708 
Q 1631 397 2203 397 
Q 2534 397 2845 478 
Q 3156 559 3463 722 
L 3463 178 
Q 3153 47 2828 -22 
Q 2503 -91 2169 -91 
Q 1331 -91 842 396 
Q 353 884 353 1716 
Q 353 2575 817 3079 
Q 1281 3584 2069 3584 
Q 2775 3584 3186 3129 
Q 3597 2675 3597 1894 
z
M 3022 2063 
Q 3016 2534 2758 2815 
Q 2500 3097 2075 3097 
Q 1594 3097 1305 2825 
Q 1016 2553 972 2059 
L 3022 2063 
z
" transform="scale(0.015625)"/>
        <path id="DejaVuSans-6b" d="M 581 4863 
L 1159 4863 
L 1159 1991 
L 2875 3500 
L 3609 3500 
L 1753 1863 
L 3688 0 
L 2938 0 
L 1159 1709 
L 1159 0 
L 581 0 
L 581 4863 
z
" transform="scale(0.015625)"/>
        <path id="DejaVuSans-73" d="M 2834 3397 
L 2834 2853 
Q 2591 2978 2328 3040 
Q 2066 3103 1784 3103 
Q 1356 3103 1142 2972 
Q 928 2841 928 2578 
Q 928 2378 1081 2264 
Q 1234 2150 1697 2047 
L 1894 2003 
Q 2506 1872 2764 1633 
Q 3022 1394 3022 966 
Q 3022 478 2636 193 
Q 2250 -91 1575 -91 
Q 1294 -91 989 -36 
Q 684 19 347 128 
L 347 722 
Q 666 556 975 473 
Q 1284 391 1588 391 
Q 1994 391 2212 530 
Q 2431 669 2431 922 
Q 2431 1156 2273 1281 
Q 2116 1406 1581 1522 
L 1381 1569 
Q 847 1681 609 1914 
Q 372 2147 372 2553 
Q 372 3047 722 3315 
Q 1072 3584 1716 3584 
Q 2034 3584 2315 3537 
Q 2597 3491 2834 3397 
z
" transform="scale(0.015625)"/>
        <path id="DejaVuSans-70" d="M 1159 525 
L 1159 -1331 
L 581 -1331 
L 581 3500 
L 1159 3500 
L 1159 2969 
Q 1341 3281 1617 3432 
Q 1894 3584 2278 3584 
Q 2916 3584 3314 3078 
Q 3713 2572 3713 1747 
Q 3713 922 3314 415 
Q 2916 -91 2278 -91 
Q 1894 -91 1617 61 
Q 1341 213 1159 525 
z
M 3116 1747 
Q 3116 2381 2855 2742 
Q 2594 3103 2138 3103 
Q 1681 3103 1420 2742 
Q 1159 2381 1159 1747 
Q 1159 1113 1420 752 
Q 1681 391 2138 391 
Q 2594 391 2855 752 
Q 3116 1113 3116 1747 
z
" transform="scale(0.015625)"/>
        <path id="DejaVuSans-6f" d="M 1959 3097 
Q 1497 3097 1228 2736 
Q 959 2375 959 1747 
Q 959 1119 1226 758 
Q 1494 397 1959 397 
Q 2419 397 2687 759 
Q 2956 1122 2956 1747 
Q 2956 2369 2687 2733 
Q 2419 3097 1959 3097 
z
M 1959 3584 
Q 2709 3584 3137 3096 
Q 3566 2609 3566 1747 
Q 3566 888 3137 398 
Q 2709 -91 1959 -91 
Q 1206 -91 779 398 
Q 353 888 353 1747 
Q 353 2609 779 3096 
Q 1206 3584 1959 3584 
z
" transform="scale(0.015625)"/>
        <path id="DejaVuSans-74" d="M 1172 4494 
L 1172 3500 
L 2356 3500 
L 2356 3053 
L 1172 3053 
L 1172 1153 
Q 1172 725 1289 603 
Q 1406 481 1766 481 
L 2356 481 
L 2356 0 
L 1766 0 
Q 1100 0 847 248 
Q 594 497 594 1153 
L 594 3053 
L 172 3053 
L 172 3500 
L 594 3500 
L 594 4494 
L 1172 4494 
z
" transform="scale(0.015625)"/>
        <path id="DejaVuSans-2d" d="M 313 2009 
L 1997 2009 
L 1997 1497 
L 313 1497 
L 313 2009 
z
" transform="scale(0.015625)"/>
        <path id="DejaVuSans-63" d="M 3122 3366 
L 3122 2828 
Q 2878 2963 2633 3030 
Q 2388 3097 2138 3097 
Q 1578 3097 1268 2742 
Q 959 2388 959 1747 
Q 959 1106 1268 751 
Q 1578 397 2138 397 
Q 2388 397 2633 464 
Q 2878 531 3122 666 
L 3122 134 
Q 2881 22 2623 -34 
Q 2366 -91 2075 -91 
Q 1284 -91 818 406 
Q 353 903 353 1747 
Q 353 2603 823 3093 
Q 1294 3584 2113 3584 
Q 2378 3584 2631 3529 
Q 2884 3475 3122 3366 
z
" transform="scale(0.015625)"/>
        <path id="DejaVuSans-6e" d="M 3513 2113 
L 3513 0 
L 2938 0 
L 2938 2094 
Q 2938 2591 2744 2837 
Q 2550 3084 2163 3084 
Q 1697 3084 1428 2787 
Q 1159 2491 1159 1978 
L 1159 0 
L 581 0 
L 581 3500 
L 1159 3500 
L 1159 2956 
Q 1366 3272 1645 3428 
Q 1925 3584 2291 3584 
Q 2894 3584 3203 3211 
Q 3513 2838 3513 2113 
z
" transform="scale(0.015625)"/>
        <path id="DejaVuSans-69" d="M 603 3500 
L 1178 3500 
L 1178 0 
L 603 0 
L 603 3500 
z
M 603 4863 
L 1178 4863 
L 1178 4134 
L 603 4134 
L 603 4863 
z
" transform="scale(0.015625)"/>
       </defs>
       <use xlink:href="#DejaVuSans-20"/>
       <use xlink:href="#DejaVuSans-20" x="31.787109"/>
       <use xlink:href="#DejaVuSans-20" x="63.574219"/>
       <use xlink:href="#DejaVuSans-20" x="95.361328"/>
       <use xlink:href="#DejaVuSans-20" x="127.148438"/>
       <use xlink:href="#DejaVuSans-20" x="158.935547"/>
       <use xlink:href="#DejaVuSans-20" x="190.722656"/>
       <use xlink:href="#DejaVuSans-20" x="222.509766"/>
       <use xlink:href="#DejaVuSans-20" x="254.296875"/>
       <use xlink:href="#DejaVuSans-20" x="286.083984"/>
       <use xlink:href="#DejaVuSans-20" x="317.871094"/>
       <use xlink:href="#DejaVuSans-20" x="349.658203"/>
       <use xlink:href="#DejaVuSans-20" x="381.445312"/>
       <use xlink:href="#DejaVuSans-20" x="413.232422"/>
       <use xlink:href="#DejaVuSans-20" x="445.019531"/>
       <use xlink:href="#DejaVuSans-20" x="476.806641"/>
       <use xlink:href="#DejaVuSans-20" x="508.59375"/>
       <use xlink:href="#DejaVuSans-20" x="540.380859"/>
       <use xlink:href="#DejaVuSans-20" x="572.167969"/>
       <use xlink:href="#DejaVuSans-20" x="603.955078"/>
       <use xlink:href="#DejaVuSans-20" x="635.742188"/>
       <use xlink:href="#DejaVuSans-20" x="667.529297"/>
       <use xlink:href="#DejaVuSans-20" x="699.316406"/>
       <use xlink:href="#DejaVuSans-20" x="731.103516"/>
       <use xlink:href="#DejaVuSans-20" x="762.890625"/>
       <use xlink:href="#DejaVuSans-20" x="794.677734"/>
       <use xlink:href="#DejaVuSans-20" x="826.464844"/>
       <use xlink:href="#DejaVuSans-38" x="858.251953"/>
       <use xlink:href="#DejaVuSans-20" x="921.875"/>
       <use xlink:href="#DejaVuSans-77" x="953.662109"/>
       <use xlink:href="#DejaVuSans-65" x="1035.449219"/>
       <use xlink:href="#DejaVuSans-65" x="1096.972656"/>
       <use xlink:href="#DejaVuSans-6b" x="1158.496094"/>
       <use xlink:href="#DejaVuSans-73" x="1216.40625"/>
       <use xlink:href="#DejaVuSans-20" x="1268.505859"/>
       <use xlink:href="#DejaVuSans-70" x="1300.292969"/>
       <use xlink:href="#DejaVuSans-6f" x="1363.769531"/>
       <use xlink:href="#DejaVuSans-73" x="1424.951172"/>
       <use xlink:href="#DejaVuSans-74" x="1477.050781"/>
       <use xlink:href="#DejaVuSans-2d" x="1516.259766"/>
       <use xlink:href="#DejaVuSans-63" x="1552.34375"/>
       <use xlink:href="#DejaVuSans-6f" x="1607.324219"/>
       <use xlink:href="#DejaVuSans-6e" x="1668.505859"/>
       <use xlink:href="#DejaVuSans-63" x="1731.884766"/>
       <use xlink:href="#DejaVuSans-65" x="1786.865234"/>
       <use xlink:href="#DejaVuSans-70" x="1848.388672"/>
       <use xlink:href="#DejaVuSans-74" x="1911.865234"/>
       <use xlink:href="#DejaVuSans-69" x="1951.074219"/>
       <use xlink:href="#DejaVuSans-6f" x="1978.857422"/>
       <use xlink:href="#DejaVuSans-6e" x="2040.039062"/>
      </g>
     </g>
    </g>
    <g id="xtick_2">
     <g id="line2d_2">
      <g>
       <use xlink:href="#m629879bcff" x="219.24" y="252" style="stroke: #000000; stroke-width: 0.8"/>
      </g>
     </g>
     <g id="text_2">
      <!-- birth -->
      <g transform="translate(207.492344 266.598437)scale(0.1 -0.1)">
       <defs>
        <path id="DejaVuSans-62" d="M 3116 1747 
Q 3116 2381 2855 2742 
Q 2594 3103 2138 3103 
Q 1681 3103 1420 2742 
Q 1159 2381 1159 1747 
Q 1159 1113 1420 752 
Q 1681 391 2138 391 
Q 2594 391 2855 752 
Q 3116 1113 3116 1747 
z
M 1159 2969 
Q 1341 3281 1617 3432 
Q 1894 3584 2278 3584 
Q 2916 3584 3314 3078 
Q 3713 2572 3713 1747 
Q 3713 922 3314 415 
Q 2916 -91 2278 -91 
Q 1894 -91 1617 61 
Q 1341 213 1159 525 
L 1159 0 
L 581 0 
L 581 4863 
L 1159 4863 
L 1159 2969 
z
" transform="scale(0.015625)"/>
        <path id="DejaVuSans-72" d="M 2631 2963 
Q 2534 3019 2420 3045 
Q 2306 3072 2169 3072 
Q 1681 3072 1420 2755 
Q 1159 2438 1159 1844 
L 1159 0 
L 581 0 
L 581 3500 
L 1159 3500 
L 1159 2956 
Q 1341 3275 1631 3429 
Q 1922 3584 2338 3584 
Q 2397 3584 2469 3576 
Q 2541 3569 2628 3553 
L 2631 2963 
z
" transform="scale(0.015625)"/>
        <path id="DejaVuSans-68" d="M 3513 2113 
L 3513 0 
L 2938 0 
L 2938 2094 
Q 2938 2591 2744 2837 
Q 2550 3084 2163 3084 
Q 1697 3084 1428 2787 
Q 1159 2491 1159 1978 
L 1159 0 
L 581 0 
L 581 4863 
L 1159 4863 
L 1159 2956 
Q 1366 3272 1645 3428 
Q 1925 3584 2291 3584 
Q 2894 3584 3203 3211 
Q 3513 2838 3513 2113 
z
" transform="scale(0.015625)"/>
       </defs>
       <use xlink:href="#DejaVuSans-62"/>
       <use xlink:href="#DejaVuSans-69" x="63.476562"/>
       <use xlink:href="#DejaVuSans-72" x="91.259766"/>
       <use xlink:href="#DejaVuSans-74" x="132.373047"/>
       <use xlink:href="#DejaVuSans-68" x="171.582031"/>
      </g>
     </g>
    </g>
    <g id="xtick_3">
     <g id="line2d_3">
      <g>
       <use xlink:href="#m629879bcff" x="258.3" y="252" style="stroke: #000000; stroke-width: 0.8"/>
      </g>
     </g>
     <g id="text_3">
      <!-- 1 year -->
      <g transform="translate(242.374219 266.598437)scale(0.1 -0.1)">
       <defs>
        <path id="DejaVuSans-31" d="M 794 531 
L 1825 531 
L 1825 4091 
L 703 3866 
L 703 4441 
L 1819 4666 
L 2450 4666 
L 2450 531 
L 3481 531 
L 3481 0 
L 794 0 
L 794 531 
z
" transform="scale(0.015625)"/>
        <path id="DejaVuSans-79" d="M 2059 -325 
Q 1816 -950 1584 -1140 
Q 1353 -1331 966 -1331 
L 506 -1331 
L 506 -850 
L 844 -850 
Q 1081 -850 1212 -737 
Q 1344 -625 1503 -206 
L 1606 56 
L 191 3500 
L 800 3500 
L 1894 763 
L 2988 3500 
L 3597 3500 
L 2059 -325 
z
" transform="scale(0.015625)"/>
        <path id="DejaVuSans-61" d="M 2194 1759 
Q 1497 1759 1228 1600 
Q 959 1441 959 1056 
Q 959 750 1161 570 
Q 1363 391 1709 391 
Q 2188 391 2477 730 
Q 2766 1069 2766 1631 
L 2766 1759 
L 2194 1759 
z
M 3341 1997 
L 3341 0 
L 2766 0 
L 2766 531 
Q 2569 213 2275 61 
Q 1981 -91 1556 -91 
Q 1019 -91 701 211 
Q 384 513 384 1019 
Q 384 1609 779 1909 
Q 1175 2209 1959 2209 
L 2766 2209 
L 2766 2266 
Q 2766 2663 2505 2880 
Q 2244 3097 1772 3097 
Q 1472 3097 1187 3025 
Q 903 2953 641 2809 
L 641 3341 
Q 956 3463 1253 3523 
Q 1550 3584 1831 3584 
Q 2591 3584 2966 3190 
Q 3341 2797 3341 1997 
z
" transform="scale(0.015625)"/>
       </defs>
       <use xlink:href="#DejaVuSans-31"/>
       <use xlink:href="#DejaVuSans-20" x="63.623047"/>
       <use xlink:href="#DejaVuSans-79" x="95.410156"/>
       <use xlink:href="#DejaVuSans-65" x="154.589844"/>
       <use xlink:href="#DejaVuSans-61" x="216.113281"/>
       <use xlink:href="#DejaVuSans-72" x="277.392578"/>
      </g>
     </g>
    </g>
    <g id="xtick_4">
     <g id="line2d_4">
      <g>
       <use xlink:href="#m629879bcff" x="336.42" y="252" style="stroke: #000000; stroke-width: 0.8"/>
      </g>
     </g>
     <g id="text_4">
      <!-- 13 years -->
      <g transform="translate(314.708281 266.598437)scale(0.1 -0.1)">
       <defs>
        <path id="DejaVuSans-33" d="M 2597 2516 
Q 3050 2419 3304 2112 
Q 3559 1806 3559 1356 
Q 3559 666 3084 287 
Q 2609 -91 1734 -91 
Q 1441 -91 1130 -33 
Q 819 25 488 141 
L 488 750 
Q 750 597 1062 519 
Q 1375 441 1716 441 
Q 2309 441 2620 675 
Q 2931 909 2931 1356 
Q 2931 1769 2642 2001 
Q 2353 2234 1838 2234 
L 1294 2234 
L 1294 2753 
L 1863 2753 
Q 2328 2753 2575 2939 
Q 2822 3125 2822 3475 
Q 2822 3834 2567 4026 
Q 2313 4219 1838 4219 
Q 1578 4219 1281 4162 
Q 984 4106 628 3988 
L 628 4550 
Q 988 4650 1302 4700 
Q 1616 4750 1894 4750 
Q 2613 4750 3031 4423 
Q 3450 4097 3450 3541 
Q 3450 3153 3228 2886 
Q 3006 2619 2597 2516 
z
" transform="scale(0.015625)"/>
       </defs>
       <use xlink:href="#DejaVuSans-31"/>
       <use xlink:href="#DejaVuSans-33" x="63.623047"/>
       <use xlink:href="#DejaVuSans-20" x="127.246094"/>
       <use xlink:href="#DejaVuSans-79" x="159.033203"/>
       <use xlink:href="#DejaVuSans-65" x="218.212891"/>
       <use xlink:href="#DejaVuSans-61" x="279.736328"/>
       <use xlink:href="#DejaVuSans-72" x="341.015625"/>
       <use xlink:href="#DejaVuSans-73" x="382.128906"/>
      </g>
     </g>
    </g>
    <g id="xtick_5">
     <g id="line2d_5">
      <g>
       <use xlink:href="#m629879bcff" x="453.6" y="252" style="stroke: #000000; stroke-width: 0.8"/>
      </g>
     </g>
     <g id="text_5">
      <!-- 40 years -->
      <g transform="translate(431.888281 266.598437)scale(0.1 -0.1)">
       <defs>
        <path id="DejaVuSans-34" d="M 2419 4116 
L 825 1625 
L 2419 1625 
L 2419 4116 
z
M 2253 4666 
L 3047 4666 
L 3047 1625 
L 3713 1625 
L 3713 1100 
L 3047 1100 
L 3047 0 
L 2419 0 
L 2419 1100 
L 313 1100 
L 313 1709 
L 2253 4666 
z
" transform="scale(0.015625)"/>
        <path id="DejaVuSans-30" d="M 2034 4250 
Q 1547 4250 1301 3770 
Q 1056 3291 1056 2328 
Q 1056 1369 1301 889 
Q 1547 409 2034 409 
Q 2525 409 2770 889 
Q 3016 1369 3016 2328 
Q 3016 3291 2770 3770 
Q 2525 4250 2034 4250 
z
M 2034 4750 
Q 2819 4750 3233 4129 
Q 3647 3509 3647 2328 
Q 3647 1150 3233 529 
Q 2819 -91 2034 -91 
Q 1250 -91 836 529 
Q 422 1150 422 2328 
Q 422 3509 836 4129 
Q 1250 4750 2034 4750 
z
" transform="scale(0.015625)"/>
       </defs>
       <use xlink:href="#DejaVuSans-34"/>
       <use xlink:href="#DejaVuSans-30" x="63.623047"/>
       <use xlink:href="#DejaVuSans-20" x="127.246094"/>
       <use xlink:href="#DejaVuSans-79" x="159.033203"/>
       <use xlink:href="#DejaVuSans-65" x="218.212891"/>
       <use xlink:href="#DejaVuSans-61" x="279.736328"/>
       <use xlink:href="#DejaVuSans-72" x="341.015625"/>
       <use xlink:href="#DejaVuSans-73" x="382.128906"/>
      </g>
     </g>
    </g>
   </g>
   <g id="matplotlib.axis_2">
    <g id="ytick_1">
     <g id="line2d_6">
      <defs>
       <path id="m9f72ca8dc7" d="M 0 0 
L -3.5 0 
" style="stroke: #000000; stroke-width: 0.8"/>
      </defs>
      <g>
       <use xlink:href="#m9f72ca8dc7" x="63" y="251.724866" style="stroke: #000000; stroke-width: 0.8"/>
      </g>
     </g>
     <g id="text_6">
      <!-- 0.25 -->
      <g transform="translate(33.734375 255.524085)scale(0.1 -0.1)">
       <defs>
        <path id="DejaVuSans-2e" d="M 684 794 
L 1344 794 
L 1344 0 
L 684 0 
L 684 794 
z
" transform="scale(0.015625)"/>
        <path id="DejaVuSans-32" d="M 1228 531 
L 3431 531 
L 3431 0 
L 469 0 
L 469 531 
Q 828 903 1448 1529 
Q 2069 2156 2228 2338 
Q 2531 2678 2651 2914 
Q 2772 3150 2772 3378 
Q 2772 3750 2511 3984 
Q 2250 4219 1831 4219 
Q 1534 4219 1204 4116 
Q 875 4013 500 3803 
L 500 4441 
Q 881 4594 1212 4672 
Q 1544 4750 1819 4750 
Q 2544 4750 2975 4387 
Q 3406 4025 3406 3419 
Q 3406 3131 3298 2873 
Q 3191 2616 2906 2266 
Q 2828 2175 2409 1742 
Q 1991 1309 1228 531 
z
" transform="scale(0.015625)"/>
        <path id="DejaVuSans-35" d="M 691 4666 
L 3169 4666 
L 3169 4134 
L 1269 4134 
L 1269 2991 
Q 1406 3038 1543 3061 
Q 1681 3084 1819 3084 
Q 2600 3084 3056 2656 
Q 3513 2228 3513 1497 
Q 3513 744 3044 326 
Q 2575 -91 1722 -91 
Q 1428 -91 1123 -41 
Q 819 9 494 109 
L 494 744 
Q 775 591 1075 516 
Q 1375 441 1709 441 
Q 2250 441 2565 725 
Q 2881 1009 2881 1497 
Q 2881 1984 2565 2268 
Q 2250 2553 1709 2553 
Q 1456 2553 1204 2497 
Q 953 2441 691 2322 
L 691 4666 
z
" transform="scale(0.015625)"/>
       </defs>
       <use xlink:href="#DejaVuSans-30"/>
       <use xlink:href="#DejaVuSans-2e" x="63.623047"/>
       <use xlink:href="#DejaVuSans-32" x="95.410156"/>
       <use xlink:href="#DejaVuSans-35" x="159.033203"/>
      </g>
     </g>
    </g>
    <g id="ytick_2">
     <g id="line2d_7">
      <g>
       <use xlink:href="#m9f72ca8dc7" x="63" y="216.257419" style="stroke: #000000; stroke-width: 0.8"/>
      </g>
     </g>
     <g id="text_7">
      <!-- 0.50 -->
      <g transform="translate(33.734375 220.056638)scale(0.1 -0.1)">
       <use xlink:href="#DejaVuSans-30"/>
       <use xlink:href="#DejaVuSans-2e" x="63.623047"/>
       <use xlink:href="#DejaVuSans-35" x="95.410156"/>
       <use xlink:href="#DejaVuSans-30" x="159.033203"/>
      </g>
     </g>
    </g>
    <g id="ytick_3">
     <g id="line2d_8">
      <g>
       <use xlink:href="#m9f72ca8dc7" x="63" y="180.789973" style="stroke: #000000; stroke-width: 0.8"/>
      </g>
     </g>
     <g id="text_8">
      <!-- 0.75 -->
      <g transform="translate(33.734375 184.589192)scale(0.1 -0.1)">
       <defs>
        <path id="DejaVuSans-37" d="M 525 4666 
L 3525 4666 
L 3525 4397 
L 1831 0 
L 1172 0 
L 2766 4134 
L 525 4134 
L 525 4666 
z
" transform="scale(0.015625)"/>
       </defs>
       <use xlink:href="#DejaVuSans-30"/>
       <use xlink:href="#DejaVuSans-2e" x="63.623047"/>
       <use xlink:href="#DejaVuSans-37" x="95.410156"/>
       <use xlink:href="#DejaVuSans-35" x="159.033203"/>
      </g>
     </g>
    </g>
    <g id="ytick_4">
     <g id="line2d_9">
      <g>
       <use xlink:href="#m9f72ca8dc7" x="63" y="145.322526" style="stroke: #000000; stroke-width: 0.8"/>
      </g>
     </g>
     <g id="text_9">
      <!-- 1.00 -->
      <g transform="translate(33.734375 149.121745)scale(0.1 -0.1)">
       <use xlink:href="#DejaVuSans-31"/>
       <use xlink:href="#DejaVuSans-2e" x="63.623047"/>
       <use xlink:href="#DejaVuSans-30" x="95.410156"/>
       <use xlink:href="#DejaVuSans-30" x="159.033203"/>
      </g>
     </g>
    </g>
    <g id="ytick_5">
     <g id="line2d_10">
      <g>
       <use xlink:href="#m9f72ca8dc7" x="63" y="109.85508" style="stroke: #000000; stroke-width: 0.8"/>
      </g>
     </g>
     <g id="text_10">
      <!-- 1.25 -->
      <g transform="translate(33.734375 113.654298)scale(0.1 -0.1)">
       <use xlink:href="#DejaVuSans-31"/>
       <use xlink:href="#DejaVuSans-2e" x="63.623047"/>
       <use xlink:href="#DejaVuSans-32" x="95.410156"/>
       <use xlink:href="#DejaVuSans-35" x="159.033203"/>
      </g>
     </g>
    </g>
    <g id="ytick_6">
     <g id="line2d_11">
      <g>
       <use xlink:href="#m9f72ca8dc7" x="63" y="74.387633" style="stroke: #000000; stroke-width: 0.8"/>
      </g>
     </g>
     <g id="text_11">
      <!-- 1.50 -->
      <g transform="translate(33.734375 78.186852)scale(0.1 -0.1)">
       <use xlink:href="#DejaVuSans-31"/>
       <use xlink:href="#DejaVuSans-2e" x="63.623047"/>
       <use xlink:href="#DejaVuSans-35" x="95.410156"/>
       <use xlink:href="#DejaVuSans-30" x="159.033203"/>
      </g>
     </g>
    </g>
    <g id="ytick_7">
     <g id="line2d_12">
      <g>
       <use xlink:href="#m9f72ca8dc7" x="63" y="38.920187" style="stroke: #000000; stroke-width: 0.8"/>
      </g>
     </g>
     <g id="text_12">
      <!-- 1.75 -->
      <g transform="translate(33.734375 42.719405)scale(0.1 -0.1)">
       <use xlink:href="#DejaVuSans-31"/>
       <use xlink:href="#DejaVuSans-2e" x="63.623047"/>
       <use xlink:href="#DejaVuSans-37" x="95.410156"/>
       <use xlink:href="#DejaVuSans-35" x="159.033203"/>
      </g>
     </g>
    </g>
    <g id="text_13">
     <!-- Mean scaled gene-expression -->
     <g transform="translate(27.654687 217.408125)rotate(-90)scale(0.1 -0.1)">
      <defs>
       <path id="DejaVuSans-4d" d="M 628 4666 
L 1569 4666 
L 2759 1491 
L 3956 4666 
L 4897 4666 
L 4897 0 
L 4281 0 
L 4281 4097 
L 3078 897 
L 2444 897 
L 1241 4097 
L 1241 0 
L 628 0 
L 628 4666 
z
" transform="scale(0.015625)"/>
       <path id="DejaVuSans-6c" d="M 603 4863 
L 1178 4863 
L 1178 0 
L 603 0 
L 603 4863 
z
" transform="scale(0.015625)"/>
       <path id="DejaVuSans-64" d="M 2906 2969 
L 2906 4863 
L 3481 4863 
L 3481 0 
L 2906 0 
L 2906 525 
Q 2725 213 2448 61 
Q 2172 -91 1784 -91 
Q 1150 -91 751 415 
Q 353 922 353 1747 
Q 353 2572 751 3078 
Q 1150 3584 1784 3584 
Q 2172 3584 2448 3432 
Q 2725 3281 2906 2969 
z
M 947 1747 
Q 947 1113 1208 752 
Q 1469 391 1925 391 
Q 2381 391 2643 752 
Q 2906 1113 2906 1747 
Q 2906 2381 2643 2742 
Q 2381 3103 1925 3103 
Q 1469 3103 1208 2742 
Q 947 2381 947 1747 
z
" transform="scale(0.015625)"/>
       <path id="DejaVuSans-67" d="M 2906 1791 
Q 2906 2416 2648 2759 
Q 2391 3103 1925 3103 
Q 1463 3103 1205 2759 
Q 947 2416 947 1791 
Q 947 1169 1205 825 
Q 1463 481 1925 481 
Q 2391 481 2648 825 
Q 2906 1169 2906 1791 
z
M 3481 434 
Q 3481 -459 3084 -895 
Q 2688 -1331 1869 -1331 
Q 1566 -1331 1297 -1286 
Q 1028 -1241 775 -1147 
L 775 -588 
Q 1028 -725 1275 -790 
Q 1522 -856 1778 -856 
Q 2344 -856 2625 -561 
Q 2906 -266 2906 331 
L 2906 616 
Q 2728 306 2450 153 
Q 2172 0 1784 0 
Q 1141 0 747 490 
Q 353 981 353 1791 
Q 353 2603 747 3093 
Q 1141 3584 1784 3584 
Q 2172 3584 2450 3431 
Q 2728 3278 2906 2969 
L 2906 3500 
L 3481 3500 
L 3481 434 
z
" transform="scale(0.015625)"/>
       <path id="DejaVuSans-78" d="M 3513 3500 
L 2247 1797 
L 3578 0 
L 2900 0 
L 1881 1375 
L 863 0 
L 184 0 
L 1544 1831 
L 300 3500 
L 978 3500 
L 1906 2253 
L 2834 3500 
L 3513 3500 
z
" transform="scale(0.015625)"/>
      </defs>
      <use xlink:href="#DejaVuSans-4d"/>
      <use xlink:href="#DejaVuSans-65" x="86.279297"/>
      <use xlink:href="#DejaVuSans-61" x="147.802734"/>
      <use xlink:href="#DejaVuSans-6e" x="209.082031"/>
      <use xlink:href="#DejaVuSans-20" x="272.460938"/>
      <use xlink:href="#DejaVuSans-73" x="304.248047"/>
      <use xlink:href="#DejaVuSans-63" x="356.347656"/>
      <use xlink:href="#DejaVuSans-61" x="411.328125"/>
      <use xlink:href="#DejaVuSans-6c" x="472.607422"/>
      <use xlink:href="#DejaVuSans-65" x="500.390625"/>
      <use xlink:href="#DejaVuSans-64" x="561.914062"/>
      <use xlink:href="#DejaVuSans-20" x="625.390625"/>
      <use xlink:href="#DejaVuSans-67" x="657.177734"/>
      <use xlink:href="#DejaVuSans-65" x="720.654297"/>
      <use xlink:href="#DejaVuSans-6e" x="782.177734"/>
      <use xlink:href="#DejaVuSans-65" x="845.556641"/>
      <use xlink:href="#DejaVuSans-2d" x="907.080078"/>
      <use xlink:href="#DejaVuSans-65" x="943.164062"/>
      <use xlink:href="#DejaVuSans-78" x="1002.9375"/>
      <use xlink:href="#DejaVuSans-70" x="1062.117188"/>
      <use xlink:href="#DejaVuSans-72" x="1125.59375"/>
      <use xlink:href="#DejaVuSans-65" x="1164.457031"/>
      <use xlink:href="#DejaVuSans-73" x="1225.980469"/>
      <use xlink:href="#DejaVuSans-73" x="1278.080078"/>
      <use xlink:href="#DejaVuSans-69" x="1330.179688"/>
      <use xlink:href="#DejaVuSans-6f" x="1357.962891"/>
      <use xlink:href="#DejaVuSans-6e" x="1419.144531"/>
     </g>
    </g>
   </g>
   <g id="line2d_13">
    <path d="M 63 212.5425 
L 66.945455 211.80684 
L 70.890909 211.052313 
L 74.836364 210.270568 
L 78.781818 209.453251 
L 82.727273 208.592011 
L 86.672727 207.678503 
L 90.618182 206.706179 
L 94.563636 205.672788 
L 98.509091 204.576703 
L 102.454545 203.416298 
L 106.4 202.189944 
L 110.345455 200.896074 
L 114.290909 199.536137 
L 118.236364 198.116024 
L 122.181818 196.641983 
L 126.127273 195.12026 
L 130.072727 193.557102 
L 134.018182 191.958616 
L 137.963636 190.328123 
L 141.909091 188.66636 
L 145.854545 186.973965 
L 149.8 185.25158 
L 153.745455 183.499844 
L 157.690909 181.719504 
L 161.636364 179.912402 
L 165.581818 178.081013 
L 169.527273 176.227822 
L 173.472727 174.355312 
L 177.418182 172.465967 
L 181.363636 170.56008 
L 185.309091 168.625432 
L 189.254545 166.645371 
L 193.2 164.603242 
L 197.145455 162.482387 
L 201.090909 160.266153 
L 205.036364 157.950551 
L 208.981818 155.574081 
L 212.927273 153.184146 
L 216.872727 150.82815 
L 220.818182 148.553494 
L 224.763636 146.407543 
L 228.709091 144.43229 
L 232.654545 142.658862 
L 236.6 141.117078 
L 240.545455 139.836754 
L 244.490909 138.847708 
L 248.436364 138.178234 
L 252.381818 137.801304 
L 256.327273 137.620213 
L 260.272727 137.533816 
L 264.218182 137.440964 
L 268.163636 137.240513 
L 272.109091 136.834991 
L 276.054545 136.1846 
L 280 135.295327 
L 283.945455 134.174422 
L 287.890909 132.829137 
L 291.836364 131.26672 
L 295.781818 129.498534 
L 299.727273 127.570041 
L 303.672727 125.54356 
L 307.618182 123.481531 
L 311.563636 121.446393 
L 315.509091 119.500588 
L 319.454545 117.698632 
L 323.4 116.057225 
L 327.345455 114.581796 
L 331.290909 113.27777 
L 335.236364 112.150574 
L 339.181818 111.205619 
L 343.127273 110.4364 
L 347.072727 109.802776 
L 351.018182 109.258716 
L 354.963636 108.758186 
L 358.909091 108.255155 
L 362.854545 107.703849 
L 366.8 107.079526 
L 370.745455 106.393663 
L 374.690909 105.661317 
L 378.636364 104.897548 
L 382.581818 104.117412 
L 386.527273 103.335896 
L 390.472727 102.56611 
L 394.418182 101.819133 
L 398.363636 101.105945 
L 402.309091 100.437523 
L 406.254545 99.824848 
L 410.2 99.278341 
L 414.145455 98.801457 
L 418.090909 98.392914 
L 422.036364 98.051343 
L 425.981818 97.775371 
L 429.927273 97.563627 
L 433.872727 97.414109 
L 437.818182 97.320471 
L 441.763636 97.274549 
L 445.709091 97.268174 
L 449.654545 97.293175 
L 453.6 97.341382 
" clip-path="url(#p6a8c9304a6)" style="fill: none; stroke: #ffa500; stroke-width: 1.5; stroke-linecap: square"/>
   </g>
   <g id="line2d_14">
    <path d="M 63 242.116364 
L 66.945455 238.641215 
L 70.890909 235.444997 
L 74.836364 232.574003 
L 78.781818 230.057435 
L 82.727273 227.896994 
L 86.672727 226.059861 
L 90.618182 224.487534 
L 94.563636 223.118173 
L 98.509091 221.883677 
L 102.454545 220.71354 
L 106.4 219.541051 
L 110.345455 218.309168 
L 114.290909 216.989594 
L 118.236364 215.587451 
L 122.181818 214.112987 
L 126.127273 212.574319 
L 130.072727 210.975156 
L 134.018182 209.316202 
L 137.963636 207.608275 
L 141.909091 205.870439 
L 145.854545 204.115438 
L 149.8 202.34628 
L 153.745455 200.556302 
L 157.690909 198.73431 
L 161.636364 196.88618 
L 165.581818 195.026236 
L 169.527273 193.162013 
L 173.472727 191.291913 
L 177.418182 189.406159 
L 181.363636 187.492129 
L 185.309091 185.544802 
L 189.254545 183.55913 
L 193.2 181.522802 
L 197.145455 179.414534 
L 201.090909 177.205487 
L 205.036364 174.882308 
L 208.981818 172.494397 
L 212.927273 170.100426 
L 216.872727 167.751088 
L 220.818182 165.487988 
L 224.763636 163.345671 
L 228.709091 161.360267 
L 232.654545 159.57559 
L 236.6 158.03154 
L 240.545455 156.759538 
L 244.490909 155.781991 
L 248.436364 155.113701 
L 252.381818 154.725621 
L 256.327273 154.534544 
L 260.272727 154.448146 
L 264.218182 154.365282 
L 268.163636 154.17598 
L 272.109091 153.769273 
L 276.054545 153.107384 
L 280 152.209789 
L 283.945455 151.09115 
L 287.890909 149.757114 
L 291.836364 148.204847 
L 295.781818 146.433028 
L 299.727273 144.492979 
L 303.672727 142.459839 
L 307.618182 140.401846 
L 311.563636 138.37815 
L 315.509091 136.439921 
L 319.454545 134.630779 
L 323.4 132.976785 
L 327.345455 131.495555 
L 331.290909 130.197141 
L 335.236364 129.082623 
L 339.181818 128.145811 
L 343.127273 127.373001 
L 347.072727 126.736967 
L 351.018182 126.203939 
L 354.963636 125.731964 
L 358.909091 125.269961 
L 362.854545 124.760307 
L 366.8 124.174226 
L 370.745455 123.535136 
L 374.690909 122.865397 
L 378.636364 122.1777 
L 382.581818 121.474997 
L 386.527273 120.753951 
L 390.472727 120.020169 
L 394.418182 119.290137 
L 398.363636 118.577371 
L 402.309091 117.890981 
L 406.254545 117.237942 
L 410.2 116.629448 
L 414.145455 116.098699 
L 418.090909 115.699888 
L 422.036364 115.496727 
L 425.981818 115.556725 
L 429.927273 115.944986 
L 433.872727 116.719091 
L 437.818182 117.924654 
L 441.763636 119.577985 
L 445.709091 121.660859 
L 449.654545 124.127551 
L 453.6 126.915245 
" clip-path="url(#p6a8c9304a6)" style="fill: none; stroke: #ffa500; stroke-width: 0.4; stroke-linecap: square"/>
   </g>
   <g id="line2d_15">
    <path d="M 63 182.968636 
L 66.945455 184.972464 
L 70.890909 186.659629 
L 74.836364 187.967132 
L 78.781818 188.849067 
L 82.727273 189.287029 
L 86.672727 189.297144 
L 90.618182 188.924824 
L 94.563636 188.227404 
L 98.509091 187.26973 
L 102.454545 186.119055 
L 106.4 184.838837 
L 110.345455 183.48298 
L 114.290909 182.082679 
L 118.236364 180.644598 
L 122.181818 179.170979 
L 126.127273 177.666201 
L 130.072727 176.139047 
L 134.018182 174.601031 
L 137.963636 173.047971 
L 141.909091 171.462281 
L 145.854545 169.832493 
L 149.8 168.156881 
L 153.745455 166.443386 
L 157.690909 164.704698 
L 161.636364 162.938624 
L 165.581818 161.13579 
L 169.527273 159.293631 
L 173.472727 157.418711 
L 177.418182 155.525776 
L 181.363636 153.628031 
L 185.309091 151.706061 
L 189.254545 149.731612 
L 193.2 147.683682 
L 197.145455 145.55024 
L 201.090909 143.32682 
L 205.036364 141.018794 
L 208.981818 138.653765 
L 212.927273 136.267867 
L 216.872727 133.905212 
L 220.818182 131.619 
L 224.763636 129.469416 
L 228.709091 127.504313 
L 232.654545 125.742135 
L 236.6 124.202616 
L 240.545455 122.91397 
L 244.490909 121.913426 
L 248.436364 121.242767 
L 252.381818 120.876986 
L 256.327273 120.705883 
L 260.272727 120.619485 
L 264.218182 120.516647 
L 268.163636 120.305045 
L 272.109091 119.900709 
L 276.054545 119.261816 
L 280 118.380864 
L 283.945455 117.257695 
L 287.890909 115.90116 
L 291.836364 114.328592 
L 295.781818 112.56404 
L 299.727273 110.647103 
L 303.672727 108.62728 
L 307.618182 106.561215 
L 311.563636 104.514637 
L 315.509091 102.561255 
L 319.454545 100.766485 
L 323.4 99.137665 
L 327.345455 97.668037 
L 331.290909 96.3584 
L 335.236364 95.218525 
L 339.181818 94.265427 
L 343.127273 93.499799 
L 347.072727 92.868585 
L 351.018182 92.313492 
L 354.963636 91.784408 
L 358.909091 91.240349 
L 362.854545 90.647391 
L 366.8 89.984826 
L 370.745455 89.25219 
L 374.690909 88.457238 
L 378.636364 87.617396 
L 382.581818 86.759826 
L 386.527273 85.917842 
L 390.472727 85.112051 
L 394.418182 84.348129 
L 398.363636 83.634518 
L 402.309091 82.984066 
L 406.254545 82.411754 
L 410.2 81.927234 
L 414.145455 81.504214 
L 418.090909 81.085941 
L 422.036364 80.605958 
L 425.981818 79.994016 
L 429.927273 79.182269 
L 433.872727 78.109126 
L 437.818182 76.716287 
L 441.763636 74.971113 
L 445.709091 72.87549 
L 449.654545 70.458799 
L 453.6 67.767518 
" clip-path="url(#p6a8c9304a6)" style="fill: none; stroke: #ffa500; stroke-width: 0.4; stroke-linecap: square"/>
   </g>
   <g id="line2d_16">
    <path d="M 63 70.494513 
L 66.945455 71.07233 
L 70.890909 71.707197 
L 74.836364 72.410583 
L 78.781818 73.19396 
L 82.727273 74.068796 
L 86.672727 75.046548 
L 90.618182 76.134736 
L 94.563636 77.331491 
L 98.509091 78.633575 
L 102.454545 80.037751 
L 106.4 81.54078 
L 110.345455 83.139546 
L 114.290909 84.837184 
L 118.236364 86.646034 
L 122.181818 88.579173 
L 126.127273 90.649675 
L 130.072727 92.870618 
L 134.018182 95.254615 
L 137.963636 97.805009 
L 141.909091 100.516552 
L 145.854545 103.383673 
L 149.8 106.400803 
L 153.745455 109.56237 
L 157.690909 112.858898 
L 161.636364 116.241411 
L 165.581818 119.638 
L 169.527273 122.976469 
L 173.472727 126.184626 
L 177.418182 129.190278 
L 181.363636 131.933681 
L 185.309091 134.426173 
L 189.254545 136.704278 
L 193.2 138.804548 
L 197.145455 140.763535 
L 201.090909 142.617794 
L 205.036364 144.405558 
L 208.981818 146.170704 
L 212.927273 147.958293 
L 216.872727 149.813382 
L 220.818182 151.781032 
L 224.763636 153.906132 
L 228.709091 156.20973 
L 232.654545 158.664658 
L 236.6 161.237931 
L 240.545455 163.896563 
L 244.490909 166.607569 
L 248.436364 169.337605 
L 252.381818 172.040288 
L 256.327273 174.652817 
L 260.272727 177.111344 
L 264.218182 179.352018 
L 268.163636 181.310992 
L 272.109091 182.927115 
L 276.054545 184.181536 
L 280 185.088993 
L 283.945455 185.66515 
L 287.890909 185.925668 
L 291.836364 185.886211 
L 295.781818 185.564704 
L 299.727273 184.997824 
L 303.672727 184.231523 
L 307.618182 183.311817 
L 311.563636 182.284722 
L 315.509091 181.196256 
L 319.454545 180.08968 
L 323.4 178.995107 
L 327.345455 177.938734 
L 331.290909 176.946752 
L 335.236364 176.045358 
L 339.181818 175.26073 
L 343.127273 174.607517 
L 347.072727 174.067822 
L 351.018182 173.618046 
L 354.963636 173.234589 
L 358.909091 172.893853 
L 362.854545 172.572351 
L 366.8 172.255723 
L 370.745455 171.945329 
L 374.690909 171.644081 
L 378.636364 171.354893 
L 382.581818 171.080677 
L 386.527273 170.82432 
L 390.472727 170.588011 
L 394.418182 170.373185 
L 398.363636 170.181238 
L 402.309091 170.013569 
L 406.254545 169.871575 
L 410.2 169.756882 
L 414.145455 169.673969 
L 418.090909 169.629256 
L 422.036364 169.629199 
L 425.981818 169.680255 
L 429.927273 169.78888 
L 433.872727 169.960378 
L 437.818182 170.192146 
L 441.763636 170.478267 
L 445.709091 170.812812 
L 449.654545 171.189852 
L 453.6 171.603456 
" clip-path="url(#p6a8c9304a6)" style="fill: none; stroke: #0000ff; stroke-width: 1.5; stroke-linecap: square"/>
   </g>
   <g id="line2d_17">
    <path d="M 63 96.545389 
L 66.945455 94.71006 
L 70.890909 93.194102 
L 74.836364 92.057122 
L 78.781818 91.343669 
L 82.727273 91.074071 
L 86.672727 91.238227 
L 90.618182 91.797887 
L 94.563636 92.698693 
L 98.509091 93.878855 
L 102.454545 95.274459 
L 106.4 96.824937 
L 110.345455 98.478304 
L 114.290909 100.211498 
L 118.236364 102.036177 
L 122.181818 103.968943 
L 126.127273 106.024519 
L 130.072727 108.213746 
L 134.018182 110.544478 
L 137.963636 113.026662 
L 141.909091 115.671194 
L 145.854545 118.483167 
L 149.8 121.459096 
L 153.745455 124.586976 
L 157.690909 127.846814 
L 161.636364 131.193188 
L 165.581818 134.564623 
L 169.527273 137.893374 
L 173.472727 141.103654 
L 177.418182 144.112469 
L 181.363636 146.848699 
L 185.309091 149.330023 
L 189.254545 151.603185 
L 193.2 153.708564 
L 197.145455 155.67864 
L 201.090909 157.539228 
L 205.036364 159.320318 
L 208.981818 161.075387 
L 212.927273 162.85942 
L 216.872727 164.720374 
L 220.818182 166.698204 
L 224.763636 168.826504 
L 228.709091 171.121162 
L 232.654545 173.56618 
L 236.6 176.137458 
L 240.545455 178.80342 
L 244.490909 181.524555 
L 248.436364 184.255634 
L 252.381818 186.948496 
L 256.327273 189.552227 
L 260.272727 192.010754 
L 264.218182 194.260226 
L 268.163636 196.229022 
L 272.109091 197.8441 
L 276.054545 199.088393 
L 280 199.98852 
L 283.945455 200.566672 
L 287.890909 200.8371 
L 291.836364 200.806583 
L 295.781818 200.481876 
L 299.727273 199.904816 
L 303.672727 199.13265 
L 307.618182 198.2165 
L 311.563636 197.199483 
L 315.509091 196.117691 
L 319.454545 195.004784 
L 323.4 193.899124 
L 327.345455 192.837641 
L 331.290909 191.850602 
L 335.236364 190.960376 
L 339.181818 190.182921 
L 343.127273 189.526545 
L 347.072727 188.984727 
L 351.018182 188.544669 
L 354.963636 188.186365 
L 358.909091 187.881769 
L 362.854545 187.596957 
L 366.8 187.314016 
L 370.745455 187.044823 
L 374.690909 186.798724 
L 378.636364 186.576547 
L 382.581818 186.37054 
L 386.527273 186.167449 
L 390.472727 185.962855 
L 394.418182 185.762955 
L 398.363636 185.57138 
L 402.309091 185.387883 
L 406.254545 185.210334 
L 410.2 185.041038 
L 414.145455 184.910677 
L 418.090909 184.874536 
L 422.036364 184.996402 
L 425.981818 185.343406 
L 429.927273 185.980559 
L 433.872727 186.965654 
L 437.818182 188.341856 
L 441.763636 190.124806 
L 445.709091 192.299717 
L 449.654545 194.827581 
L 453.6 197.654332 
" clip-path="url(#p6a8c9304a6)" style="fill: none; stroke: #0000ff; stroke-width: 0.4; stroke-linecap: square"/>
   </g>
   <g id="line2d_18">
    <path d="M 63 44.443636 
L 66.945455 47.4346 
L 70.890909 50.220292 
L 74.836364 52.764045 
L 78.781818 55.04425 
L 82.727273 57.06352 
L 86.672727 58.85487 
L 90.618182 60.471586 
L 94.563636 61.964289 
L 98.509091 63.388296 
L 102.454545 64.801043 
L 106.4 66.256624 
L 110.345455 67.800787 
L 114.290909 69.46287 
L 118.236364 71.255892 
L 122.181818 73.189403 
L 126.127273 75.274832 
L 130.072727 77.52749 
L 134.018182 79.964753 
L 137.963636 82.583355 
L 141.909091 85.361909 
L 145.854545 88.284179 
L 149.8 91.34251 
L 153.745455 94.537763 
L 157.690909 97.870981 
L 161.636364 101.289635 
L 165.581818 104.711377 
L 169.527273 108.059564 
L 173.472727 111.265599 
L 177.418182 114.268087 
L 181.363636 117.018663 
L 185.309091 119.522323 
L 189.254545 121.805371 
L 193.2 123.900531 
L 197.145455 125.848431 
L 201.090909 127.696359 
L 205.036364 129.490797 
L 208.981818 131.266022 
L 212.927273 133.057165 
L 216.872727 134.90639 
L 220.818182 136.86386 
L 224.763636 138.985759 
L 228.709091 141.298299 
L 232.654545 143.763137 
L 236.6 146.338405 
L 240.545455 148.989707 
L 244.490909 151.690584 
L 248.436364 154.419576 
L 252.381818 157.13208 
L 256.327273 159.753407 
L 260.272727 162.211933 
L 264.218182 164.44381 
L 268.163636 166.392963 
L 272.109091 168.01013 
L 276.054545 169.274679 
L 280 170.189467 
L 283.945455 170.763628 
L 287.890909 171.014237 
L 291.836364 170.965839 
L 295.781818 170.647532 
L 299.727273 170.090832 
L 303.672727 169.330396 
L 307.618182 168.407134 
L 311.563636 167.369962 
L 315.509091 166.274821 
L 319.454545 165.174575 
L 323.4 164.091091 
L 327.345455 163.039827 
L 331.290909 162.042902 
L 335.236364 161.13034 
L 339.181818 160.338539 
L 343.127273 159.68849 
L 347.072727 159.150918 
L 351.018182 158.691423 
L 354.963636 158.282813 
L 358.909091 157.905936 
L 362.854545 157.547744 
L 366.8 157.19743 
L 370.745455 156.845835 
L 374.690909 156.489439 
L 378.636364 156.13324 
L 382.581818 155.790815 
L 386.527273 155.481192 
L 390.472727 155.213167 
L 394.418182 154.983414 
L 398.363636 154.791096 
L 402.309091 154.639255 
L 406.254545 154.532816 
L 410.2 154.472726 
L 414.145455 154.437261 
L 418.090909 154.383976 
L 422.036364 154.261997 
L 425.981818 154.017105 
L 429.927273 153.597202 
L 433.872727 152.955102 
L 437.818182 152.042437 
L 441.763636 150.831729 
L 445.709091 149.325907 
L 449.654545 147.552122 
L 453.6 145.55258 
" clip-path="url(#p6a8c9304a6)" style="fill: none; stroke: #0000ff; stroke-width: 0.4; stroke-linecap: square"/>
   </g>
   <g id="line2d_19">
    <path d="M 219.24 252 
L 219.24 34.56 
" clip-path="url(#p6a8c9304a6)" style="fill: none; stroke-dasharray: 5.55,2.4; stroke-dashoffset: 0; stroke: #000000; stroke-opacity: 0.5; stroke-width: 1.5"/>
   </g>
   <g id="patch_3">
    <path d="M 63 252 
L 63 34.56 
" style="fill: none; stroke: #000000; stroke-width: 0.8; stroke-linejoin: miter; stroke-linecap: square"/>
   </g>
   <g id="patch_4">
    <path d="M 453.6 252 
L 453.6 34.56 
" style="fill: none; stroke: #000000; stroke-width: 0.8; stroke-linejoin: miter; stroke-linecap: square"/>
   </g>
   <g id="patch_5">
    <path d="M 63 252 
L 453.6 252 
" style="fill: none; stroke: #000000; stroke-width: 0.8; stroke-linejoin: miter; stroke-linecap: square"/>
   </g>
   <g id="patch_6">
    <path d="M 63 34.56 
L 453.6 34.56 
" style="fill: none; stroke: #000000; stroke-width: 0.8; stroke-linejoin: miter; stroke-linecap: square"/>
   </g>
   <g id="legend_1">
    <g id="line2d_20">
     <path d="M 122.975 25.914437 
L 132.975 25.914437 
L 142.975 25.914437 
" style="fill: none; stroke: #ffa500; stroke-width: 1.5; stroke-linecap: square"/>
    </g>
    <g id="text_14">
     <!-- Cluster 1 (N=3192) -->
     <g transform="translate(150.975 29.414437)scale(0.1 -0.1)">
      <defs>
       <path id="DejaVuSans-43" d="M 4122 4306 
L 4122 3641 
Q 3803 3938 3442 4084 
Q 3081 4231 2675 4231 
Q 1875 4231 1450 3742 
Q 1025 3253 1025 2328 
Q 1025 1406 1450 917 
Q 1875 428 2675 428 
Q 3081 428 3442 575 
Q 3803 722 4122 1019 
L 4122 359 
Q 3791 134 3420 21 
Q 3050 -91 2638 -91 
Q 1578 -91 968 557 
Q 359 1206 359 2328 
Q 359 3453 968 4101 
Q 1578 4750 2638 4750 
Q 3056 4750 3426 4639 
Q 3797 4528 4122 4306 
z
" transform="scale(0.015625)"/>
       <path id="DejaVuSans-75" d="M 544 1381 
L 544 3500 
L 1119 3500 
L 1119 1403 
Q 1119 906 1312 657 
Q 1506 409 1894 409 
Q 2359 409 2629 706 
Q 2900 1003 2900 1516 
L 2900 3500 
L 3475 3500 
L 3475 0 
L 2900 0 
L 2900 538 
Q 2691 219 2414 64 
Q 2138 -91 1772 -91 
Q 1169 -91 856 284 
Q 544 659 544 1381 
z
M 1991 3584 
L 1991 3584 
z
" transform="scale(0.015625)"/>
       <path id="DejaVuSans-28" d="M 1984 4856 
Q 1566 4138 1362 3434 
Q 1159 2731 1159 2009 
Q 1159 1288 1364 580 
Q 1569 -128 1984 -844 
L 1484 -844 
Q 1016 -109 783 600 
Q 550 1309 550 2009 
Q 550 2706 781 3412 
Q 1013 4119 1484 4856 
L 1984 4856 
z
" transform="scale(0.015625)"/>
       <path id="DejaVuSans-4e" d="M 628 4666 
L 1478 4666 
L 3547 763 
L 3547 4666 
L 4159 4666 
L 4159 0 
L 3309 0 
L 1241 3903 
L 1241 0 
L 628 0 
L 628 4666 
z
" transform="scale(0.015625)"/>
       <path id="DejaVuSans-3d" d="M 678 2906 
L 4684 2906 
L 4684 2381 
L 678 2381 
L 678 2906 
z
M 678 1631 
L 4684 1631 
L 4684 1100 
L 678 1100 
L 678 1631 
z
" transform="scale(0.015625)"/>
       <path id="DejaVuSans-39" d="M 703 97 
L 703 672 
Q 941 559 1184 500 
Q 1428 441 1663 441 
Q 2288 441 2617 861 
Q 2947 1281 2994 2138 
Q 2813 1869 2534 1725 
Q 2256 1581 1919 1581 
Q 1219 1581 811 2004 
Q 403 2428 403 3163 
Q 403 3881 828 4315 
Q 1253 4750 1959 4750 
Q 2769 4750 3195 4129 
Q 3622 3509 3622 2328 
Q 3622 1225 3098 567 
Q 2575 -91 1691 -91 
Q 1453 -91 1209 -44 
Q 966 3 703 97 
z
M 1959 2075 
Q 2384 2075 2632 2365 
Q 2881 2656 2881 3163 
Q 2881 3666 2632 3958 
Q 2384 4250 1959 4250 
Q 1534 4250 1286 3958 
Q 1038 3666 1038 3163 
Q 1038 2656 1286 2365 
Q 1534 2075 1959 2075 
z
" transform="scale(0.015625)"/>
       <path id="DejaVuSans-29" d="M 513 4856 
L 1013 4856 
Q 1481 4119 1714 3412 
Q 1947 2706 1947 2009 
Q 1947 1309 1714 600 
Q 1481 -109 1013 -844 
L 513 -844 
Q 928 -128 1133 580 
Q 1338 1288 1338 2009 
Q 1338 2731 1133 3434 
Q 928 4138 513 4856 
z
" transform="scale(0.015625)"/>
      </defs>
      <use xlink:href="#DejaVuSans-43"/>
      <use xlink:href="#DejaVuSans-6c" x="69.824219"/>
      <use xlink:href="#DejaVuSans-75" x="97.607422"/>
      <use xlink:href="#DejaVuSans-73" x="160.986328"/>
      <use xlink:href="#DejaVuSans-74" x="213.085938"/>
      <use xlink:href="#DejaVuSans-65" x="252.294922"/>
      <use xlink:href="#DejaVuSans-72" x="313.818359"/>
      <use xlink:href="#DejaVuSans-20" x="354.931641"/>
      <use xlink:href="#DejaVuSans-31" x="386.71875"/>
      <use xlink:href="#DejaVuSans-20" x="450.341797"/>
      <use xlink:href="#DejaVuSans-28" x="482.128906"/>
      <use xlink:href="#DejaVuSans-4e" x="521.142578"/>
      <use xlink:href="#DejaVuSans-3d" x="595.947266"/>
      <use xlink:href="#DejaVuSans-33" x="679.736328"/>
      <use xlink:href="#DejaVuSans-31" x="743.359375"/>
      <use xlink:href="#DejaVuSans-39" x="806.982422"/>
      <use xlink:href="#DejaVuSans-32" x="870.605469"/>
      <use xlink:href="#DejaVuSans-29" x="934.228516"/>
     </g>
    </g>
    <g id="line2d_21">
     <path d="M 268.3 25.914437 
L 278.3 25.914437 
L 288.3 25.914437 
" style="fill: none; stroke: #0000ff; stroke-width: 1.5; stroke-linecap: square"/>
    </g>
    <g id="text_15">
     <!-- Cluster 2 (N=3249) -->
     <g transform="translate(296.3 29.414437)scale(0.1 -0.1)">
      <use xlink:href="#DejaVuSans-43"/>
      <use xlink:href="#DejaVuSans-6c" x="69.824219"/>
      <use xlink:href="#DejaVuSans-75" x="97.607422"/>
      <use xlink:href="#DejaVuSans-73" x="160.986328"/>
      <use xlink:href="#DejaVuSans-74" x="213.085938"/>
      <use xlink:href="#DejaVuSans-65" x="252.294922"/>
      <use xlink:href="#DejaVuSans-72" x="313.818359"/>
      <use xlink:href="#DejaVuSans-20" x="354.931641"/>
      <use xlink:href="#DejaVuSans-32" x="386.71875"/>
      <use xlink:href="#DejaVuSans-20" x="450.341797"/>
      <use xlink:href="#DejaVuSans-28" x="482.128906"/>
      <use xlink:href="#DejaVuSans-4e" x="521.142578"/>
      <use xlink:href="#DejaVuSans-3d" x="595.947266"/>
      <use xlink:href="#DejaVuSans-33" x="679.736328"/>
      <use xlink:href="#DejaVuSans-32" x="743.359375"/>
      <use xlink:href="#DejaVuSans-34" x="806.982422"/>
      <use xlink:href="#DejaVuSans-39" x="870.605469"/>
      <use xlink:href="#DejaVuSans-29" x="934.228516"/>
     </g>
    </g>
   </g>
  </g>
 </g>
 <defs>
  <clipPath id="p6a8c9304a6">
   <rect x="63" y="34.56" width="390.6" height="217.44"/>
  </clipPath>
 </defs>
</svg>
