<?xml version="1.0" encoding="utf-8" standalone="no"?>
<!DOCTYPE svg PUBLIC "-//W3C//DTD SVG 1.1//EN"
  "http://www.w3.org/Graphics/SVG/1.1/DTD/svg11.dtd">
<svg xmlns:xlink="http://www.w3.org/1999/xlink" width="720pt" height="540pt" viewBox="0 0 720 540" xmlns="http://www.w3.org/2000/svg" version="1.1">
 <metadata>
  <rdf:RDF xmlns:dc="http://purl.org/dc/elements/1.1/" xmlns:cc="http://creativecommons.org/ns#" xmlns:rdf="http://www.w3.org/1999/02/22-rdf-syntax-ns#">
   <cc:Work>
    <dc:type rdf:resource="http://purl.org/dc/dcmitype/StillImage"/>
    <dc:date>2024-06-26T14:58:44.543766</dc:date>
    <dc:format>image/svg+xml</dc:format>
    <dc:creator>
     <cc:Agent>
      <dc:title>Matplotlib v3.5.2, https://matplotlib.org/</dc:title>
     </cc:Agent>
    </dc:creator>
   </cc:Work>
  </rdf:RDF>
 </metadata>
 <defs>
  <style type="text/css">*{stroke-linejoin: round; stroke-linecap: butt}</style>
 </defs>
 <g id="figure_1">
  <g id="patch_1">
   <path d="M 0 540 
L 720 540 
L 720 0 
L 0 0 
L 0 540 
z
" style="fill: none"/>
  </g>
  <g id="axes_1">
   <g id="patch_2">
    <path d="M 52.8 493.2 
L 709.2 493.2 
L 709.2 30.8 
L 52.8 30.8 
z
" style="fill: #ffffff"/>
   </g>
   <g id="matplotlib.axis_1">
    <g id="xtick_1">
     <g id="line2d_1">
      <path d="M 693.837297 493.2 
L 693.837297 30.8 
" clip-path="url(#pbe62844f77)" style="fill: none; stroke: #b0b0b0; stroke-width: 0.8; stroke-linecap: square"/>
     </g>
     <g id="line2d_2">
      <defs>
       <path id="m4f9fe8b406" d="M 0 0 
L 0 3.5 
" style="stroke: #000000; stroke-width: 0.8"/>
      </defs>
      <g>
       <use xlink:href="#m4f9fe8b406" x="693.837297" y="493.2" style="stroke: #000000; stroke-width: 0.8"/>
      </g>
     </g>
     <g id="text_1">
      <!-- 0.1 -->
      <g transform="translate(685.885734 507.798437)scale(0.1 -0.1)">
       <defs>
        <path id="DejaVuSans-30" d="M 2034 4250 
Q 1547 4250 1301 3770 
Q 1056 3291 1056 2328 
Q 1056 1369 1301 889 
Q 1547 409 2034 409 
Q 2525 409 2770 889 
Q 3016 1369 3016 2328 
Q 3016 3291 2770 3770 
Q 2525 4250 2034 4250 
z
M 2034 4750 
Q 2819 4750 3233 4129 
Q 3647 3509 3647 2328 
Q 3647 1150 3233 529 
Q 2819 -91 2034 -91 
Q 1250 -91 836 529 
Q 422 1150 422 2328 
Q 422 3509 836 4129 
Q 1250 4750 2034 4750 
z
" transform="scale(0.015625)"/>
        <path id="DejaVuSans-2e" d="M 684 794 
L 1344 794 
L 1344 0 
L 684 0 
L 684 794 
z
" transform="scale(0.015625)"/>
        <path id="DejaVuSans-31" d="M 794 531 
L 1825 531 
L 1825 4091 
L 703 3866 
L 703 4441 
L 1819 4666 
L 2450 4666 
L 2450 531 
L 3481 531 
L 3481 0 
L 794 0 
L 794 531 
z
" transform="scale(0.015625)"/>
       </defs>
       <use xlink:href="#DejaVuSans-30"/>
       <use xlink:href="#DejaVuSans-2e" x="63.623047"/>
       <use xlink:href="#DejaVuSans-31" x="95.410156"/>
      </g>
     </g>
    </g>
    <g id="xtick_2">
     <g id="line2d_3">
      <path d="M 622.61093 493.2 
L 622.61093 30.8 
" clip-path="url(#pbe62844f77)" style="fill: none; stroke: #b0b0b0; stroke-width: 0.8; stroke-linecap: square"/>
     </g>
     <g id="line2d_4">
      <g>
       <use xlink:href="#m4f9fe8b406" x="622.61093" y="493.2" style="stroke: #000000; stroke-width: 0.8"/>
      </g>
     </g>
     <g id="text_2">
      <!-- 0.2 -->
      <g transform="translate(614.659368 507.798437)scale(0.1 -0.1)">
       <defs>
        <path id="DejaVuSans-32" d="M 1228 531 
L 3431 531 
L 3431 0 
L 469 0 
L 469 531 
Q 828 903 1448 1529 
Q 2069 2156 2228 2338 
Q 2531 2678 2651 2914 
Q 2772 3150 2772 3378 
Q 2772 3750 2511 3984 
Q 2250 4219 1831 4219 
Q 1534 4219 1204 4116 
Q 875 4013 500 3803 
L 500 4441 
Q 881 4594 1212 4672 
Q 1544 4750 1819 4750 
Q 2544 4750 2975 4387 
Q 3406 4025 3406 3419 
Q 3406 3131 3298 2873 
Q 3191 2616 2906 2266 
Q 2828 2175 2409 1742 
Q 1991 1309 1228 531 
z
" transform="scale(0.015625)"/>
       </defs>
       <use xlink:href="#DejaVuSans-30"/>
       <use xlink:href="#DejaVuSans-2e" x="63.623047"/>
       <use xlink:href="#DejaVuSans-32" x="95.410156"/>
      </g>
     </g>
    </g>
    <g id="xtick_3">
     <g id="line2d_5">
      <path d="M 551.384564 493.2 
L 551.384564 30.8 
" clip-path="url(#pbe62844f77)" style="fill: none; stroke: #b0b0b0; stroke-width: 0.8; stroke-linecap: square"/>
     </g>
     <g id="line2d_6">
      <g>
       <use xlink:href="#m4f9fe8b406" x="551.384564" y="493.2" style="stroke: #000000; stroke-width: 0.8"/>
      </g>
     </g>
     <g id="text_3">
      <!-- 0.3 -->
      <g transform="translate(543.433002 507.798437)scale(0.1 -0.1)">
       <defs>
        <path id="DejaVuSans-33" d="M 2597 2516 
Q 3050 2419 3304 2112 
Q 3559 1806 3559 1356 
Q 3559 666 3084 287 
Q 2609 -91 1734 -91 
Q 1441 -91 1130 -33 
Q 819 25 488 141 
L 488 750 
Q 750 597 1062 519 
Q 1375 441 1716 441 
Q 2309 441 2620 675 
Q 2931 909 2931 1356 
Q 2931 1769 2642 2001 
Q 2353 2234 1838 2234 
L 1294 2234 
L 1294 2753 
L 1863 2753 
Q 2328 2753 2575 2939 
Q 2822 3125 2822 3475 
Q 2822 3834 2567 4026 
Q 2313 4219 1838 4219 
Q 1578 4219 1281 4162 
Q 984 4106 628 3988 
L 628 4550 
Q 988 4650 1302 4700 
Q 1616 4750 1894 4750 
Q 2613 4750 3031 4423 
Q 3450 4097 3450 3541 
Q 3450 3153 3228 2886 
Q 3006 2619 2597 2516 
z
" transform="scale(0.015625)"/>
       </defs>
       <use xlink:href="#DejaVuSans-30"/>
       <use xlink:href="#DejaVuSans-2e" x="63.623047"/>
       <use xlink:href="#DejaVuSans-33" x="95.410156"/>
      </g>
     </g>
    </g>
    <g id="xtick_4">
     <g id="line2d_7">
      <path d="M 480.158198 493.2 
L 480.158198 30.8 
" clip-path="url(#pbe62844f77)" style="fill: none; stroke: #b0b0b0; stroke-width: 0.8; stroke-linecap: square"/>
     </g>
     <g id="line2d_8">
      <g>
       <use xlink:href="#m4f9fe8b406" x="480.158198" y="493.2" style="stroke: #000000; stroke-width: 0.8"/>
      </g>
     </g>
     <g id="text_4">
      <!-- 0.4 -->
      <g transform="translate(472.206635 507.798437)scale(0.1 -0.1)">
       <defs>
        <path id="DejaVuSans-34" d="M 2419 4116 
L 825 1625 
L 2419 1625 
L 2419 4116 
z
M 2253 4666 
L 3047 4666 
L 3047 1625 
L 3713 1625 
L 3713 1100 
L 3047 1100 
L 3047 0 
L 2419 0 
L 2419 1100 
L 313 1100 
L 313 1709 
L 2253 4666 
z
" transform="scale(0.015625)"/>
       </defs>
       <use xlink:href="#DejaVuSans-30"/>
       <use xlink:href="#DejaVuSans-2e" x="63.623047"/>
       <use xlink:href="#DejaVuSans-34" x="95.410156"/>
      </g>
     </g>
    </g>
    <g id="xtick_5">
     <g id="line2d_9">
      <path d="M 408.931832 493.2 
L 408.931832 30.8 
" clip-path="url(#pbe62844f77)" style="fill: none; stroke: #b0b0b0; stroke-width: 0.8; stroke-linecap: square"/>
     </g>
     <g id="line2d_10">
      <g>
       <use xlink:href="#m4f9fe8b406" x="408.931832" y="493.2" style="stroke: #000000; stroke-width: 0.8"/>
      </g>
     </g>
     <g id="text_5">
      <!-- 0.5 -->
      <g transform="translate(400.980269 507.798437)scale(0.1 -0.1)">
       <defs>
        <path id="DejaVuSans-35" d="M 691 4666 
L 3169 4666 
L 3169 4134 
L 1269 4134 
L 1269 2991 
Q 1406 3038 1543 3061 
Q 1681 3084 1819 3084 
Q 2600 3084 3056 2656 
Q 3513 2228 3513 1497 
Q 3513 744 3044 326 
Q 2575 -91 1722 -91 
Q 1428 -91 1123 -41 
Q 819 9 494 109 
L 494 744 
Q 775 591 1075 516 
Q 1375 441 1709 441 
Q 2250 441 2565 725 
Q 2881 1009 2881 1497 
Q 2881 1984 2565 2268 
Q 2250 2553 1709 2553 
Q 1456 2553 1204 2497 
Q 953 2441 691 2322 
L 691 4666 
z
" transform="scale(0.015625)"/>
       </defs>
       <use xlink:href="#DejaVuSans-30"/>
       <use xlink:href="#DejaVuSans-2e" x="63.623047"/>
       <use xlink:href="#DejaVuSans-35" x="95.410156"/>
      </g>
     </g>
    </g>
    <g id="xtick_6">
     <g id="line2d_11">
      <path d="M 337.705465 493.2 
L 337.705465 30.8 
" clip-path="url(#pbe62844f77)" style="fill: none; stroke: #b0b0b0; stroke-width: 0.8; stroke-linecap: square"/>
     </g>
     <g id="line2d_12">
      <g>
       <use xlink:href="#m4f9fe8b406" x="337.705465" y="493.2" style="stroke: #000000; stroke-width: 0.8"/>
      </g>
     </g>
     <g id="text_6">
      <!-- 0.6 -->
      <g transform="translate(329.753903 507.798437)scale(0.1 -0.1)">
       <defs>
        <path id="DejaVuSans-36" d="M 2113 2584 
Q 1688 2584 1439 2293 
Q 1191 2003 1191 1497 
Q 1191 994 1439 701 
Q 1688 409 2113 409 
Q 2538 409 2786 701 
Q 3034 994 3034 1497 
Q 3034 2003 2786 2293 
Q 2538 2584 2113 2584 
z
M 3366 4563 
L 3366 3988 
Q 3128 4100 2886 4159 
Q 2644 4219 2406 4219 
Q 1781 4219 1451 3797 
Q 1122 3375 1075 2522 
Q 1259 2794 1537 2939 
Q 1816 3084 2150 3084 
Q 2853 3084 3261 2657 
Q 3669 2231 3669 1497 
Q 3669 778 3244 343 
Q 2819 -91 2113 -91 
Q 1303 -91 875 529 
Q 447 1150 447 2328 
Q 447 3434 972 4092 
Q 1497 4750 2381 4750 
Q 2619 4750 2861 4703 
Q 3103 4656 3366 4563 
z
" transform="scale(0.015625)"/>
       </defs>
       <use xlink:href="#DejaVuSans-30"/>
       <use xlink:href="#DejaVuSans-2e" x="63.623047"/>
       <use xlink:href="#DejaVuSans-36" x="95.410156"/>
      </g>
     </g>
    </g>
    <g id="xtick_7">
     <g id="line2d_13">
      <path d="M 266.479099 493.2 
L 266.479099 30.8 
" clip-path="url(#pbe62844f77)" style="fill: none; stroke: #b0b0b0; stroke-width: 0.8; stroke-linecap: square"/>
     </g>
     <g id="line2d_14">
      <g>
       <use xlink:href="#m4f9fe8b406" x="266.479099" y="493.2" style="stroke: #000000; stroke-width: 0.8"/>
      </g>
     </g>
     <g id="text_7">
      <!-- 0.7 -->
      <g transform="translate(258.527536 507.798437)scale(0.1 -0.1)">
       <defs>
        <path id="DejaVuSans-37" d="M 525 4666 
L 3525 4666 
L 3525 4397 
L 1831 0 
L 1172 0 
L 2766 4134 
L 525 4134 
L 525 4666 
z
" transform="scale(0.015625)"/>
       </defs>
       <use xlink:href="#DejaVuSans-30"/>
       <use xlink:href="#DejaVuSans-2e" x="63.623047"/>
       <use xlink:href="#DejaVuSans-37" x="95.410156"/>
      </g>
     </g>
    </g>
    <g id="xtick_8">
     <g id="line2d_15">
      <path d="M 195.252733 493.2 
L 195.252733 30.8 
" clip-path="url(#pbe62844f77)" style="fill: none; stroke: #b0b0b0; stroke-width: 0.8; stroke-linecap: square"/>
     </g>
     <g id="line2d_16">
      <g>
       <use xlink:href="#m4f9fe8b406" x="195.252733" y="493.2" style="stroke: #000000; stroke-width: 0.8"/>
      </g>
     </g>
     <g id="text_8">
      <!-- 0.8 -->
      <g transform="translate(187.30117 507.798437)scale(0.1 -0.1)">
       <defs>
        <path id="DejaVuSans-38" d="M 2034 2216 
Q 1584 2216 1326 1975 
Q 1069 1734 1069 1313 
Q 1069 891 1326 650 
Q 1584 409 2034 409 
Q 2484 409 2743 651 
Q 3003 894 3003 1313 
Q 3003 1734 2745 1975 
Q 2488 2216 2034 2216 
z
M 1403 2484 
Q 997 2584 770 2862 
Q 544 3141 544 3541 
Q 544 4100 942 4425 
Q 1341 4750 2034 4750 
Q 2731 4750 3128 4425 
Q 3525 4100 3525 3541 
Q 3525 3141 3298 2862 
Q 3072 2584 2669 2484 
Q 3125 2378 3379 2068 
Q 3634 1759 3634 1313 
Q 3634 634 3220 271 
Q 2806 -91 2034 -91 
Q 1263 -91 848 271 
Q 434 634 434 1313 
Q 434 1759 690 2068 
Q 947 2378 1403 2484 
z
M 1172 3481 
Q 1172 3119 1398 2916 
Q 1625 2713 2034 2713 
Q 2441 2713 2670 2916 
Q 2900 3119 2900 3481 
Q 2900 3844 2670 4047 
Q 2441 4250 2034 4250 
Q 1625 4250 1398 4047 
Q 1172 3844 1172 3481 
z
" transform="scale(0.015625)"/>
       </defs>
       <use xlink:href="#DejaVuSans-30"/>
       <use xlink:href="#DejaVuSans-2e" x="63.623047"/>
       <use xlink:href="#DejaVuSans-38" x="95.410156"/>
      </g>
     </g>
    </g>
    <g id="xtick_9">
     <g id="line2d_17">
      <path d="M 124.026366 493.2 
L 124.026366 30.8 
" clip-path="url(#pbe62844f77)" style="fill: none; stroke: #b0b0b0; stroke-width: 0.8; stroke-linecap: square"/>
     </g>
     <g id="line2d_18">
      <g>
       <use xlink:href="#m4f9fe8b406" x="124.026366" y="493.2" style="stroke: #000000; stroke-width: 0.8"/>
      </g>
     </g>
     <g id="text_9">
      <!-- 0.9 -->
      <g transform="translate(116.074804 507.798437)scale(0.1 -0.1)">
       <defs>
        <path id="DejaVuSans-39" d="M 703 97 
L 703 672 
Q 941 559 1184 500 
Q 1428 441 1663 441 
Q 2288 441 2617 861 
Q 2947 1281 2994 2138 
Q 2813 1869 2534 1725 
Q 2256 1581 1919 1581 
Q 1219 1581 811 2004 
Q 403 2428 403 3163 
Q 403 3881 828 4315 
Q 1253 4750 1959 4750 
Q 2769 4750 3195 4129 
Q 3622 3509 3622 2328 
Q 3622 1225 3098 567 
Q 2575 -91 1691 -91 
Q 1453 -91 1209 -44 
Q 966 3 703 97 
z
M 1959 2075 
Q 2384 2075 2632 2365 
Q 2881 2656 2881 3163 
Q 2881 3666 2632 3958 
Q 2384 4250 1959 4250 
Q 1534 4250 1286 3958 
Q 1038 3666 1038 3163 
Q 1038 2656 1286 2365 
Q 1534 2075 1959 2075 
z
" transform="scale(0.015625)"/>
       </defs>
       <use xlink:href="#DejaVuSans-30"/>
       <use xlink:href="#DejaVuSans-2e" x="63.623047"/>
       <use xlink:href="#DejaVuSans-39" x="95.410156"/>
      </g>
     </g>
    </g>
    <g id="xtick_10">
     <g id="line2d_19">
      <path d="M 52.8 493.2 
L 52.8 30.8 
" clip-path="url(#pbe62844f77)" style="fill: none; stroke: #b0b0b0; stroke-width: 0.8; stroke-linecap: square"/>
     </g>
     <g id="line2d_20">
      <g>
       <use xlink:href="#m4f9fe8b406" x="52.8" y="493.2" style="stroke: #000000; stroke-width: 0.8"/>
      </g>
     </g>
     <g id="text_10">
      <!-- 1.0 -->
      <g transform="translate(44.848437 507.798437)scale(0.1 -0.1)">
       <use xlink:href="#DejaVuSans-31"/>
       <use xlink:href="#DejaVuSans-2e" x="63.623047"/>
       <use xlink:href="#DejaVuSans-30" x="95.410156"/>
      </g>
     </g>
    </g>
    <g id="text_11">
     <!-- Locus scaled FLAMES score of highest gene in locus -->
     <g transform="translate(173.46 526.035625)scale(0.16 -0.16)">
      <defs>
       <path id="DejaVuSans-4c" d="M 628 4666 
L 1259 4666 
L 1259 531 
L 3531 531 
L 3531 0 
L 628 0 
L 628 4666 
z
" transform="scale(0.015625)"/>
       <path id="DejaVuSans-6f" d="M 1959 3097 
Q 1497 3097 1228 2736 
Q 959 2375 959 1747 
Q 959 1119 1226 758 
Q 1494 397 1959 397 
Q 2419 397 2687 759 
Q 2956 1122 2956 1747 
Q 2956 2369 2687 2733 
Q 2419 3097 1959 3097 
z
M 1959 3584 
Q 2709 3584 3137 3096 
Q 3566 2609 3566 1747 
Q 3566 888 3137 398 
Q 2709 -91 1959 -91 
Q 1206 -91 779 398 
Q 353 888 353 1747 
Q 353 2609 779 3096 
Q 1206 3584 1959 3584 
z
" transform="scale(0.015625)"/>
       <path id="DejaVuSans-63" d="M 3122 3366 
L 3122 2828 
Q 2878 2963 2633 3030 
Q 2388 3097 2138 3097 
Q 1578 3097 1268 2742 
Q 959 2388 959 1747 
Q 959 1106 1268 751 
Q 1578 397 2138 397 
Q 2388 397 2633 464 
Q 2878 531 3122 666 
L 3122 134 
Q 2881 22 2623 -34 
Q 2366 -91 2075 -91 
Q 1284 -91 818 406 
Q 353 903 353 1747 
Q 353 2603 823 3093 
Q 1294 3584 2113 3584 
Q 2378 3584 2631 3529 
Q 2884 3475 3122 3366 
z
" transform="scale(0.015625)"/>
       <path id="DejaVuSans-75" d="M 544 1381 
L 544 3500 
L 1119 3500 
L 1119 1403 
Q 1119 906 1312 657 
Q 1506 409 1894 409 
Q 2359 409 2629 706 
Q 2900 1003 2900 1516 
L 2900 3500 
L 3475 3500 
L 3475 0 
L 2900 0 
L 2900 538 
Q 2691 219 2414 64 
Q 2138 -91 1772 -91 
Q 1169 -91 856 284 
Q 544 659 544 1381 
z
M 1991 3584 
L 1991 3584 
z
" transform="scale(0.015625)"/>
       <path id="DejaVuSans-73" d="M 2834 3397 
L 2834 2853 
Q 2591 2978 2328 3040 
Q 2066 3103 1784 3103 
Q 1356 3103 1142 2972 
Q 928 2841 928 2578 
Q 928 2378 1081 2264 
Q 1234 2150 1697 2047 
L 1894 2003 
Q 2506 1872 2764 1633 
Q 3022 1394 3022 966 
Q 3022 478 2636 193 
Q 2250 -91 1575 -91 
Q 1294 -91 989 -36 
Q 684 19 347 128 
L 347 722 
Q 666 556 975 473 
Q 1284 391 1588 391 
Q 1994 391 2212 530 
Q 2431 669 2431 922 
Q 2431 1156 2273 1281 
Q 2116 1406 1581 1522 
L 1381 1569 
Q 847 1681 609 1914 
Q 372 2147 372 2553 
Q 372 3047 722 3315 
Q 1072 3584 1716 3584 
Q 2034 3584 2315 3537 
Q 2597 3491 2834 3397 
z
" transform="scale(0.015625)"/>
       <path id="DejaVuSans-20" transform="scale(0.015625)"/>
       <path id="DejaVuSans-61" d="M 2194 1759 
Q 1497 1759 1228 1600 
Q 959 1441 959 1056 
Q 959 750 1161 570 
Q 1363 391 1709 391 
Q 2188 391 2477 730 
Q 2766 1069 2766 1631 
L 2766 1759 
L 2194 1759 
z
M 3341 1997 
L 3341 0 
L 2766 0 
L 2766 531 
Q 2569 213 2275 61 
Q 1981 -91 1556 -91 
Q 1019 -91 701 211 
Q 384 513 384 1019 
Q 384 1609 779 1909 
Q 1175 2209 1959 2209 
L 2766 2209 
L 2766 2266 
Q 2766 2663 2505 2880 
Q 2244 3097 1772 3097 
Q 1472 3097 1187 3025 
Q 903 2953 641 2809 
L 641 3341 
Q 956 3463 1253 3523 
Q 1550 3584 1831 3584 
Q 2591 3584 2966 3190 
Q 3341 2797 3341 1997 
z
" transform="scale(0.015625)"/>
       <path id="DejaVuSans-6c" d="M 603 4863 
L 1178 4863 
L 1178 0 
L 603 0 
L 603 4863 
z
" transform="scale(0.015625)"/>
       <path id="DejaVuSans-65" d="M 3597 1894 
L 3597 1613 
L 953 1613 
Q 991 1019 1311 708 
Q 1631 397 2203 397 
Q 2534 397 2845 478 
Q 3156 559 3463 722 
L 3463 178 
Q 3153 47 2828 -22 
Q 2503 -91 2169 -91 
Q 1331 -91 842 396 
Q 353 884 353 1716 
Q 353 2575 817 3079 
Q 1281 3584 2069 3584 
Q 2775 3584 3186 3129 
Q 3597 2675 3597 1894 
z
M 3022 2063 
Q 3016 2534 2758 2815 
Q 2500 3097 2075 3097 
Q 1594 3097 1305 2825 
Q 1016 2553 972 2059 
L 3022 2063 
z
" transform="scale(0.015625)"/>
       <path id="DejaVuSans-64" d="M 2906 2969 
L 2906 4863 
L 3481 4863 
L 3481 0 
L 2906 0 
L 2906 525 
Q 2725 213 2448 61 
Q 2172 -91 1784 -91 
Q 1150 -91 751 415 
Q 353 922 353 1747 
Q 353 2572 751 3078 
Q 1150 3584 1784 3584 
Q 2172 3584 2448 3432 
Q 2725 3281 2906 2969 
z
M 947 1747 
Q 947 1113 1208 752 
Q 1469 391 1925 391 
Q 2381 391 2643 752 
Q 2906 1113 2906 1747 
Q 2906 2381 2643 2742 
Q 2381 3103 1925 3103 
Q 1469 3103 1208 2742 
Q 947 2381 947 1747 
z
" transform="scale(0.015625)"/>
       <path id="DejaVuSans-46" d="M 628 4666 
L 3309 4666 
L 3309 4134 
L 1259 4134 
L 1259 2759 
L 3109 2759 
L 3109 2228 
L 1259 2228 
L 1259 0 
L 628 0 
L 628 4666 
z
" transform="scale(0.015625)"/>
       <path id="DejaVuSans-41" d="M 2188 4044 
L 1331 1722 
L 3047 1722 
L 2188 4044 
z
M 1831 4666 
L 2547 4666 
L 4325 0 
L 3669 0 
L 3244 1197 
L 1141 1197 
L 716 0 
L 50 0 
L 1831 4666 
z
" transform="scale(0.015625)"/>
       <path id="DejaVuSans-4d" d="M 628 4666 
L 1569 4666 
L 2759 1491 
L 3956 4666 
L 4897 4666 
L 4897 0 
L 4281 0 
L 4281 4097 
L 3078 897 
L 2444 897 
L 1241 4097 
L 1241 0 
L 628 0 
L 628 4666 
z
" transform="scale(0.015625)"/>
       <path id="DejaVuSans-45" d="M 628 4666 
L 3578 4666 
L 3578 4134 
L 1259 4134 
L 1259 2753 
L 3481 2753 
L 3481 2222 
L 1259 2222 
L 1259 531 
L 3634 531 
L 3634 0 
L 628 0 
L 628 4666 
z
" transform="scale(0.015625)"/>
       <path id="DejaVuSans-53" d="M 3425 4513 
L 3425 3897 
Q 3066 4069 2747 4153 
Q 2428 4238 2131 4238 
Q 1616 4238 1336 4038 
Q 1056 3838 1056 3469 
Q 1056 3159 1242 3001 
Q 1428 2844 1947 2747 
L 2328 2669 
Q 3034 2534 3370 2195 
Q 3706 1856 3706 1288 
Q 3706 609 3251 259 
Q 2797 -91 1919 -91 
Q 1588 -91 1214 -16 
Q 841 59 441 206 
L 441 856 
Q 825 641 1194 531 
Q 1563 422 1919 422 
Q 2459 422 2753 634 
Q 3047 847 3047 1241 
Q 3047 1584 2836 1778 
Q 2625 1972 2144 2069 
L 1759 2144 
Q 1053 2284 737 2584 
Q 422 2884 422 3419 
Q 422 4038 858 4394 
Q 1294 4750 2059 4750 
Q 2388 4750 2728 4690 
Q 3069 4631 3425 4513 
z
" transform="scale(0.015625)"/>
       <path id="DejaVuSans-72" d="M 2631 2963 
Q 2534 3019 2420 3045 
Q 2306 3072 2169 3072 
Q 1681 3072 1420 2755 
Q 1159 2438 1159 1844 
L 1159 0 
L 581 0 
L 581 3500 
L 1159 3500 
L 1159 2956 
Q 1341 3275 1631 3429 
Q 1922 3584 2338 3584 
Q 2397 3584 2469 3576 
Q 2541 3569 2628 3553 
L 2631 2963 
z
" transform="scale(0.015625)"/>
       <path id="DejaVuSans-66" d="M 2375 4863 
L 2375 4384 
L 1825 4384 
Q 1516 4384 1395 4259 
Q 1275 4134 1275 3809 
L 1275 3500 
L 2222 3500 
L 2222 3053 
L 1275 3053 
L 1275 0 
L 697 0 
L 697 3053 
L 147 3053 
L 147 3500 
L 697 3500 
L 697 3744 
Q 697 4328 969 4595 
Q 1241 4863 1831 4863 
L 2375 4863 
z
" transform="scale(0.015625)"/>
       <path id="DejaVuSans-68" d="M 3513 2113 
L 3513 0 
L 2938 0 
L 2938 2094 
Q 2938 2591 2744 2837 
Q 2550 3084 2163 3084 
Q 1697 3084 1428 2787 
Q 1159 2491 1159 1978 
L 1159 0 
L 581 0 
L 581 4863 
L 1159 4863 
L 1159 2956 
Q 1366 3272 1645 3428 
Q 1925 3584 2291 3584 
Q 2894 3584 3203 3211 
Q 3513 2838 3513 2113 
z
" transform="scale(0.015625)"/>
       <path id="DejaVuSans-69" d="M 603 3500 
L 1178 3500 
L 1178 0 
L 603 0 
L 603 3500 
z
M 603 4863 
L 1178 4863 
L 1178 4134 
L 603 4134 
L 603 4863 
z
" transform="scale(0.015625)"/>
       <path id="DejaVuSans-67" d="M 2906 1791 
Q 2906 2416 2648 2759 
Q 2391 3103 1925 3103 
Q 1463 3103 1205 2759 
Q 947 2416 947 1791 
Q 947 1169 1205 825 
Q 1463 481 1925 481 
Q 2391 481 2648 825 
Q 2906 1169 2906 1791 
z
M 3481 434 
Q 3481 -459 3084 -895 
Q 2688 -1331 1869 -1331 
Q 1566 -1331 1297 -1286 
Q 1028 -1241 775 -1147 
L 775 -588 
Q 1028 -725 1275 -790 
Q 1522 -856 1778 -856 
Q 2344 -856 2625 -561 
Q 2906 -266 2906 331 
L 2906 616 
Q 2728 306 2450 153 
Q 2172 0 1784 0 
Q 1141 0 747 490 
Q 353 981 353 1791 
Q 353 2603 747 3093 
Q 1141 3584 1784 3584 
Q 2172 3584 2450 3431 
Q 2728 3278 2906 2969 
L 2906 3500 
L 3481 3500 
L 3481 434 
z
" transform="scale(0.015625)"/>
       <path id="DejaVuSans-74" d="M 1172 4494 
L 1172 3500 
L 2356 3500 
L 2356 3053 
L 1172 3053 
L 1172 1153 
Q 1172 725 1289 603 
Q 1406 481 1766 481 
L 2356 481 
L 2356 0 
L 1766 0 
Q 1100 0 847 248 
Q 594 497 594 1153 
L 594 3053 
L 172 3053 
L 172 3500 
L 594 3500 
L 594 4494 
L 1172 4494 
z
" transform="scale(0.015625)"/>
       <path id="DejaVuSans-6e" d="M 3513 2113 
L 3513 0 
L 2938 0 
L 2938 2094 
Q 2938 2591 2744 2837 
Q 2550 3084 2163 3084 
Q 1697 3084 1428 2787 
Q 1159 2491 1159 1978 
L 1159 0 
L 581 0 
L 581 3500 
L 1159 3500 
L 1159 2956 
Q 1366 3272 1645 3428 
Q 1925 3584 2291 3584 
Q 2894 3584 3203 3211 
Q 3513 2838 3513 2113 
z
" transform="scale(0.015625)"/>
      </defs>
      <use xlink:href="#DejaVuSans-4c"/>
      <use xlink:href="#DejaVuSans-6f" x="53.962891"/>
      <use xlink:href="#DejaVuSans-63" x="115.144531"/>
      <use xlink:href="#DejaVuSans-75" x="170.125"/>
      <use xlink:href="#DejaVuSans-73" x="233.503906"/>
      <use xlink:href="#DejaVuSans-20" x="285.603516"/>
      <use xlink:href="#DejaVuSans-73" x="317.390625"/>
      <use xlink:href="#DejaVuSans-63" x="369.490234"/>
      <use xlink:href="#DejaVuSans-61" x="424.470703"/>
      <use xlink:href="#DejaVuSans-6c" x="485.75"/>
      <use xlink:href="#DejaVuSans-65" x="513.533203"/>
      <use xlink:href="#DejaVuSans-64" x="575.056641"/>
      <use xlink:href="#DejaVuSans-20" x="638.533203"/>
      <use xlink:href="#DejaVuSans-46" x="670.320312"/>
      <use xlink:href="#DejaVuSans-4c" x="727.839844"/>
      <use xlink:href="#DejaVuSans-41" x="785.802734"/>
      <use xlink:href="#DejaVuSans-4d" x="854.210938"/>
      <use xlink:href="#DejaVuSans-45" x="940.490234"/>
      <use xlink:href="#DejaVuSans-53" x="1003.673828"/>
      <use xlink:href="#DejaVuSans-20" x="1067.150391"/>
      <use xlink:href="#DejaVuSans-73" x="1098.9375"/>
      <use xlink:href="#DejaVuSans-63" x="1151.037109"/>
      <use xlink:href="#DejaVuSans-6f" x="1206.017578"/>
      <use xlink:href="#DejaVuSans-72" x="1267.199219"/>
      <use xlink:href="#DejaVuSans-65" x="1306.0625"/>
      <use xlink:href="#DejaVuSans-20" x="1367.585938"/>
      <use xlink:href="#DejaVuSans-6f" x="1399.373047"/>
      <use xlink:href="#DejaVuSans-66" x="1460.554688"/>
      <use xlink:href="#DejaVuSans-20" x="1495.759766"/>
      <use xlink:href="#DejaVuSans-68" x="1527.546875"/>
      <use xlink:href="#DejaVuSans-69" x="1590.925781"/>
      <use xlink:href="#DejaVuSans-67" x="1618.708984"/>
      <use xlink:href="#DejaVuSans-68" x="1682.185547"/>
      <use xlink:href="#DejaVuSans-65" x="1745.564453"/>
      <use xlink:href="#DejaVuSans-73" x="1807.087891"/>
      <use xlink:href="#DejaVuSans-74" x="1859.1875"/>
      <use xlink:href="#DejaVuSans-20" x="1898.396484"/>
      <use xlink:href="#DejaVuSans-67" x="1930.183594"/>
      <use xlink:href="#DejaVuSans-65" x="1993.660156"/>
      <use xlink:href="#DejaVuSans-6e" x="2055.183594"/>
      <use xlink:href="#DejaVuSans-65" x="2118.5625"/>
      <use xlink:href="#DejaVuSans-20" x="2180.085938"/>
      <use xlink:href="#DejaVuSans-69" x="2211.873047"/>
      <use xlink:href="#DejaVuSans-6e" x="2239.65625"/>
      <use xlink:href="#DejaVuSans-20" x="2303.035156"/>
      <use xlink:href="#DejaVuSans-6c" x="2334.822266"/>
      <use xlink:href="#DejaVuSans-6f" x="2362.605469"/>
      <use xlink:href="#DejaVuSans-63" x="2423.787109"/>
      <use xlink:href="#DejaVuSans-75" x="2478.767578"/>
      <use xlink:href="#DejaVuSans-73" x="2542.146484"/>
     </g>
    </g>
   </g>
   <g id="matplotlib.axis_2">
    <g id="ytick_1">
     <g id="line2d_21">
      <path d="M 52.8 493.2 
L 709.2 493.2 
" clip-path="url(#pbe62844f77)" style="fill: none; stroke: #b0b0b0; stroke-width: 0.8; stroke-linecap: square"/>
     </g>
     <g id="line2d_22">
      <defs>
       <path id="m8c696b1ab6" d="M 0 0 
L -3.5 0 
" style="stroke: #000000; stroke-width: 0.8"/>
      </defs>
      <g>
       <use xlink:href="#m8c696b1ab6" x="52.8" y="493.2" style="stroke: #000000; stroke-width: 0.8"/>
      </g>
     </g>
     <g id="text_12">
      <!-- 0.0 -->
      <g transform="translate(29.896875 496.999219)scale(0.1 -0.1)">
       <use xlink:href="#DejaVuSans-30"/>
       <use xlink:href="#DejaVuSans-2e" x="63.623047"/>
       <use xlink:href="#DejaVuSans-30" x="95.410156"/>
      </g>
     </g>
    </g>
    <g id="ytick_2">
     <g id="line2d_23">
      <path d="M 52.8 447.417822 
L 709.2 447.417822 
" clip-path="url(#pbe62844f77)" style="fill: none; stroke: #b0b0b0; stroke-width: 0.8; stroke-linecap: square"/>
     </g>
     <g id="line2d_24">
      <g>
       <use xlink:href="#m8c696b1ab6" x="52.8" y="447.417822" style="stroke: #000000; stroke-width: 0.8"/>
      </g>
     </g>
     <g id="text_13">
      <!-- 0.1 -->
      <g transform="translate(29.896875 451.217041)scale(0.1 -0.1)">
       <use xlink:href="#DejaVuSans-30"/>
       <use xlink:href="#DejaVuSans-2e" x="63.623047"/>
       <use xlink:href="#DejaVuSans-31" x="95.410156"/>
      </g>
     </g>
    </g>
    <g id="ytick_3">
     <g id="line2d_25">
      <path d="M 52.8 401.635644 
L 709.2 401.635644 
" clip-path="url(#pbe62844f77)" style="fill: none; stroke: #b0b0b0; stroke-width: 0.8; stroke-linecap: square"/>
     </g>
     <g id="line2d_26">
      <g>
       <use xlink:href="#m8c696b1ab6" x="52.8" y="401.635644" style="stroke: #000000; stroke-width: 0.8"/>
      </g>
     </g>
     <g id="text_14">
      <!-- 0.2 -->
      <g transform="translate(29.896875 405.434862)scale(0.1 -0.1)">
       <use xlink:href="#DejaVuSans-30"/>
       <use xlink:href="#DejaVuSans-2e" x="63.623047"/>
       <use xlink:href="#DejaVuSans-32" x="95.410156"/>
      </g>
     </g>
    </g>
    <g id="ytick_4">
     <g id="line2d_27">
      <path d="M 52.8 355.853465 
L 709.2 355.853465 
" clip-path="url(#pbe62844f77)" style="fill: none; stroke: #b0b0b0; stroke-width: 0.8; stroke-linecap: square"/>
     </g>
     <g id="line2d_28">
      <g>
       <use xlink:href="#m8c696b1ab6" x="52.8" y="355.853465" style="stroke: #000000; stroke-width: 0.8"/>
      </g>
     </g>
     <g id="text_15">
      <!-- 0.3 -->
      <g transform="translate(29.896875 359.652684)scale(0.1 -0.1)">
       <use xlink:href="#DejaVuSans-30"/>
       <use xlink:href="#DejaVuSans-2e" x="63.623047"/>
       <use xlink:href="#DejaVuSans-33" x="95.410156"/>
      </g>
     </g>
    </g>
    <g id="ytick_5">
     <g id="line2d_29">
      <path d="M 52.8 310.071287 
L 709.2 310.071287 
" clip-path="url(#pbe62844f77)" style="fill: none; stroke: #b0b0b0; stroke-width: 0.8; stroke-linecap: square"/>
     </g>
     <g id="line2d_30">
      <g>
       <use xlink:href="#m8c696b1ab6" x="52.8" y="310.071287" style="stroke: #000000; stroke-width: 0.8"/>
      </g>
     </g>
     <g id="text_16">
      <!-- 0.4 -->
      <g transform="translate(29.896875 313.870506)scale(0.1 -0.1)">
       <use xlink:href="#DejaVuSans-30"/>
       <use xlink:href="#DejaVuSans-2e" x="63.623047"/>
       <use xlink:href="#DejaVuSans-34" x="95.410156"/>
      </g>
     </g>
    </g>
    <g id="ytick_6">
     <g id="line2d_31">
      <path d="M 52.8 264.289109 
L 709.2 264.289109 
" clip-path="url(#pbe62844f77)" style="fill: none; stroke: #b0b0b0; stroke-width: 0.8; stroke-linecap: square"/>
     </g>
     <g id="line2d_32">
      <g>
       <use xlink:href="#m8c696b1ab6" x="52.8" y="264.289109" style="stroke: #000000; stroke-width: 0.8"/>
      </g>
     </g>
     <g id="text_17">
      <!-- 0.5 -->
      <g transform="translate(29.896875 268.088328)scale(0.1 -0.1)">
       <use xlink:href="#DejaVuSans-30"/>
       <use xlink:href="#DejaVuSans-2e" x="63.623047"/>
       <use xlink:href="#DejaVuSans-35" x="95.410156"/>
      </g>
     </g>
    </g>
    <g id="ytick_7">
     <g id="line2d_33">
      <path d="M 52.8 218.506931 
L 709.2 218.506931 
" clip-path="url(#pbe62844f77)" style="fill: none; stroke: #b0b0b0; stroke-width: 0.8; stroke-linecap: square"/>
     </g>
     <g id="line2d_34">
      <g>
       <use xlink:href="#m8c696b1ab6" x="52.8" y="218.506931" style="stroke: #000000; stroke-width: 0.8"/>
      </g>
     </g>
     <g id="text_18">
      <!-- 0.6 -->
      <g transform="translate(29.896875 222.306149)scale(0.1 -0.1)">
       <use xlink:href="#DejaVuSans-30"/>
       <use xlink:href="#DejaVuSans-2e" x="63.623047"/>
       <use xlink:href="#DejaVuSans-36" x="95.410156"/>
      </g>
     </g>
    </g>
    <g id="ytick_8">
     <g id="line2d_35">
      <path d="M 52.8 172.724752 
L 709.2 172.724752 
" clip-path="url(#pbe62844f77)" style="fill: none; stroke: #b0b0b0; stroke-width: 0.8; stroke-linecap: square"/>
     </g>
     <g id="line2d_36">
      <g>
       <use xlink:href="#m8c696b1ab6" x="52.8" y="172.724752" style="stroke: #000000; stroke-width: 0.8"/>
      </g>
     </g>
     <g id="text_19">
      <!-- 0.7 -->
      <g transform="translate(29.896875 176.523971)scale(0.1 -0.1)">
       <use xlink:href="#DejaVuSans-30"/>
       <use xlink:href="#DejaVuSans-2e" x="63.623047"/>
       <use xlink:href="#DejaVuSans-37" x="95.410156"/>
      </g>
     </g>
    </g>
    <g id="ytick_9">
     <g id="line2d_37">
      <path d="M 52.8 126.942574 
L 709.2 126.942574 
" clip-path="url(#pbe62844f77)" style="fill: none; stroke: #b0b0b0; stroke-width: 0.8; stroke-linecap: square"/>
     </g>
     <g id="line2d_38">
      <g>
       <use xlink:href="#m8c696b1ab6" x="52.8" y="126.942574" style="stroke: #000000; stroke-width: 0.8"/>
      </g>
     </g>
     <g id="text_20">
      <!-- 0.8 -->
      <g transform="translate(29.896875 130.741793)scale(0.1 -0.1)">
       <use xlink:href="#DejaVuSans-30"/>
       <use xlink:href="#DejaVuSans-2e" x="63.623047"/>
       <use xlink:href="#DejaVuSans-38" x="95.410156"/>
      </g>
     </g>
    </g>
    <g id="ytick_10">
     <g id="line2d_39">
      <path d="M 52.8 81.160396 
L 709.2 81.160396 
" clip-path="url(#pbe62844f77)" style="fill: none; stroke: #b0b0b0; stroke-width: 0.8; stroke-linecap: square"/>
     </g>
     <g id="line2d_40">
      <g>
       <use xlink:href="#m8c696b1ab6" x="52.8" y="81.160396" style="stroke: #000000; stroke-width: 0.8"/>
      </g>
     </g>
     <g id="text_21">
      <!-- 0.9 -->
      <g transform="translate(29.896875 84.959615)scale(0.1 -0.1)">
       <use xlink:href="#DejaVuSans-30"/>
       <use xlink:href="#DejaVuSans-2e" x="63.623047"/>
       <use xlink:href="#DejaVuSans-39" x="95.410156"/>
      </g>
     </g>
    </g>
    <g id="ytick_11">
     <g id="line2d_41">
      <path d="M 52.8 35.378218 
L 709.2 35.378218 
" clip-path="url(#pbe62844f77)" style="fill: none; stroke: #b0b0b0; stroke-width: 0.8; stroke-linecap: square"/>
     </g>
     <g id="line2d_42">
      <g>
       <use xlink:href="#m8c696b1ab6" x="52.8" y="35.378218" style="stroke: #000000; stroke-width: 0.8"/>
      </g>
     </g>
     <g id="text_22">
      <!-- 1.0 -->
      <g transform="translate(29.896875 39.177437)scale(0.1 -0.1)">
       <use xlink:href="#DejaVuSans-31"/>
       <use xlink:href="#DejaVuSans-2e" x="63.623047"/>
       <use xlink:href="#DejaVuSans-30" x="95.410156"/>
      </g>
     </g>
    </g>
    <g id="text_23">
     <!-- Precision and recall -->
     <g transform="translate(22.569375 339.605)rotate(-90)scale(0.16 -0.16)">
      <defs>
       <path id="DejaVuSans-50" d="M 1259 4147 
L 1259 2394 
L 2053 2394 
Q 2494 2394 2734 2622 
Q 2975 2850 2975 3272 
Q 2975 3691 2734 3919 
Q 2494 4147 2053 4147 
L 1259 4147 
z
M 628 4666 
L 2053 4666 
Q 2838 4666 3239 4311 
Q 3641 3956 3641 3272 
Q 3641 2581 3239 2228 
Q 2838 1875 2053 1875 
L 1259 1875 
L 1259 0 
L 628 0 
L 628 4666 
z
" transform="scale(0.015625)"/>
      </defs>
      <use xlink:href="#DejaVuSans-50"/>
      <use xlink:href="#DejaVuSans-72" x="58.552734"/>
      <use xlink:href="#DejaVuSans-65" x="97.416016"/>
      <use xlink:href="#DejaVuSans-63" x="158.939453"/>
      <use xlink:href="#DejaVuSans-69" x="213.919922"/>
      <use xlink:href="#DejaVuSans-73" x="241.703125"/>
      <use xlink:href="#DejaVuSans-69" x="293.802734"/>
      <use xlink:href="#DejaVuSans-6f" x="321.585938"/>
      <use xlink:href="#DejaVuSans-6e" x="382.767578"/>
      <use xlink:href="#DejaVuSans-20" x="446.146484"/>
      <use xlink:href="#DejaVuSans-61" x="477.933594"/>
      <use xlink:href="#DejaVuSans-6e" x="539.212891"/>
      <use xlink:href="#DejaVuSans-64" x="602.591797"/>
      <use xlink:href="#DejaVuSans-20" x="666.068359"/>
      <use xlink:href="#DejaVuSans-72" x="697.855469"/>
      <use xlink:href="#DejaVuSans-65" x="736.71875"/>
      <use xlink:href="#DejaVuSans-63" x="798.242188"/>
      <use xlink:href="#DejaVuSans-61" x="853.222656"/>
      <use xlink:href="#DejaVuSans-6c" x="914.501953"/>
      <use xlink:href="#DejaVuSans-6c" x="942.285156"/>
     </g>
    </g>
   </g>
   <g id="line2d_43">
    <path d="M 588.422275 493.2 
L 588.422275 30.8 
" clip-path="url(#pbe62844f77)" style="fill: none; stroke-dasharray: 5.55,2.4; stroke-dashoffset: 0; stroke: #000000; stroke-opacity: 0.5; stroke-width: 1.5"/>
   </g>
   <g id="line2d_44">
    <path d="M 52.8 36.492837 
L 108.974622 37.23481 
L 119.545405 38.870359 
L 122.431203 41.612891 
L 132.359386 45.582048 
L 145.003138 50.642257 
L 145.152134 56.324355 
L 153.427271 61.89543 
L 159.98619 66.576784 
L 166.423937 69.798282 
L 173.706212 71.362734 
L 177.415349 71.447247 
L 178.471802 70.472416 
L 182.425217 68.934403 
L 192.38768 67.290147 
L 207.0634 65.922458 
L 217.81857 65.158168 
L 220.92547 65.28285 
L 239.295475 66.512692 
L 248.971 68.928869 
L 277.644527 72.415265 
L 286.137706 76.660033 
L 295.388923 81.235086 
L 306.935142 85.730389 
L 308.993457 89.862859 
L 314.12247 93.50584 
L 320.055726 96.637167 
L 325.45868 99.258991 
L 330.291436 101.344969 
L 330.500471 102.846107 
L 332.455745 103.739148 
L 336.870308 104.084315 
L 339.819886 104.053689 
L 345.4083 103.915131 
L 346.915949 103.974612 
L 350.2927 104.501223 
L 358.670451 105.659872 
L 366.197943 107.476855 
L 367.433676 109.846053 
L 369.734928 112.566659 
L 380.211624 115.396843 
L 406.845102 118.103783 
L 407.030832 120.502634 
L 419.109827 122.478138 
L 420.513823 123.984478 
L 429.685804 125.027185 
L 433.868386 125.634397 
L 438.447923 125.832874 
L 440.052192 125.643137 
L 446.123312 125.092358 
L 451.965738 124.232489 
L 452.952668 123.149752 
L 455.905084 121.958021 
L 463.605368 120.782192 
L 487.531578 119.735291 
L 487.763322 118.898264 
L 490.474945 118.304485 
L 497.857178 117.939819 
L 499.629416 117.761649 
L 499.693788 117.734289 
L 516.541986 117.861549 
L 518.30102 118.197646 
L 519.777355 118.826527 
L 528.400768 119.825849 
L 531.673186 121.23907 
L 534.997674 123.069531 
L 539.488446 125.292225 
L 542.772088 127.863516 
L 552.222718 130.719763 
L 561.155185 133.769516 
L 562.62807 136.89532 
L 572.723068 139.970745 
L 582.835872 142.885152 
L 583.344568 145.561898 
L 583.754868 147.963799 
L 587.723832 150.087315 
L 592.722909 151.953847 
L 594.676185 153.603173 
L 594.684898 155.092358 
L 598.608699 156.496762 
L 607.139902 157.908316 
L 607.647547 159.42413 
L 608.429485 161.125005 
L 612.345302 163.051258 
L 612.61378 165.190888 
L 613.841098 167.487755 
L 615.141762 169.865945 
L 616.871573 172.256815 
L 622.481216 174.614737 
L 623.669482 176.918764 
L 625.688596 179.166756 
L 625.780209 181.367968 
L 630.836635 183.539667 
L 632.223388 185.70611 
L 633.244952 187.898136 
L 633.587831 190.148079 
L 635.426485 192.478869 
L 639.153874 194.888615 
L 639.858672 197.336132 
L 643.438315 199.734957 
L 643.4492 201.959823 
L 646.290504 203.866248 
L 646.413277 205.32125 
L 647.298637 206.236719 
L 652.058686 206.596754 
L 653.314499 206.468878 
L 653.969795 205.994242 
L 656.295465 205.358876 
L 659.278576 204.755504 
L 661.763005 204.345598 
L 661.882127 204.232719 
L 663.30752 204.452278 
L 664.39526 204.980123 
L 665.645967 205.754277 
L 666.749707 206.701122 
L 667.634505 207.756498 
L 669.405356 208.876311 
L 671.281095 210.036377 
L 675.858059 211.224047 
L 682.290884 212.427083 
L 683.319936 213.623032 
L 684.768025 214.772846 
L 692.815045 215.819962 
L 693.500166 216.695728 
L 696.623148 217.329799 
L 709.2 217.663575 
" clip-path="url(#pbe62844f77)" style="fill: none; stroke: #1f77b4; stroke-width: 1.5; stroke-linecap: square"/>
   </g>
   <g id="line2d_45">
    <path d="M 52.8 485.057424 
L 108.974622 484.374644 
L 119.545405 483.092231 
L 122.431203 481.350125 
L 132.359386 479.303766 
L 145.003138 477.084636 
L 145.152134 474.776731 
L 153.427271 472.414246 
L 159.98619 469.996693 
L 166.423937 467.510624 
L 173.706212 464.947345 
L 177.415349 462.310948 
L 178.471802 459.617604 
L 182.425217 456.890979 
L 192.38768 454.158914 
L 207.0634 451.453012 
L 217.81857 448.809786 
L 220.92547 446.269064 
L 239.295475 443.866755 
L 248.971 441.623552 
L 277.644527 439.534764 
L 286.137706 437.568758 
L 295.388923 435.6766 
L 306.935142 433.808856 
L 308.993457 431.929527 
L 314.12247 430.019642 
L 320.055726 428.07009 
L 325.45868 426.071307 
L 330.291436 424.007367 
L 330.500471 421.859348 
L 332.455745 419.61525 
L 336.870308 417.281454 
L 339.819886 414.888691 
L 345.4083 412.48959 
L 346.915949 410.147555 
L 350.2927 407.921182 
L 358.670451 405.849184 
L 366.197943 403.941441 
L 367.433676 402.178309 
L 369.734928 400.517143 
L 380.211624 398.903085 
L 406.845102 397.280245 
L 407.030832 395.60131 
L 419.109827 393.833702 
L 420.513823 391.960589 
L 429.685804 389.97699 
L 433.868386 387.882958 
L 438.447923 385.67795 
L 440.052192 383.360508 
L 446.123312 380.932707 
L 451.965738 378.405855 
L 452.952668 375.803445 
L 455.905084 373.159355 
L 463.605368 370.512701 
L 487.531578 367.900456 
L 487.763322 365.350316 
L 490.474945 362.874962 
L 497.857178 360.471556 
L 499.629416 358.128295 
L 499.693788 355.836942 
L 516.541986 353.604412 
L 518.30102 351.456462 
L 519.777355 349.429863 
L 528.400768 347.558977 
L 531.673186 345.865555 
L 534.997674 344.356552 
L 539.488446 343.028191 
L 542.772088 341.868597 
L 552.222718 340.85605 
L 561.155185 339.955111 
L 562.62807 339.11738 
L 572.723068 338.288928 
L 582.835872 337.421049 
L 583.344568 336.478366 
L 583.754868 335.441604 
L 587.723832 334.30569 
L 592.722909 333.07673 
L 594.676185 331.769884 
L 594.684898 330.409635 
L 598.608699 329.030822 
L 607.139902 327.678013 
L 607.647547 326.399668 
L 608.429485 325.236985 
L 612.345302 324.211278 
L 612.61378 323.31761 
L 613.841098 322.528598 
L 615.141762 321.806565 
L 616.871573 321.117125 
L 622.481216 320.437165 
L 623.669482 319.755828 
L 625.688596 319.071738 
L 625.780209 318.389573 
L 630.836635 317.718652 
L 632.223388 317.072737 
L 633.244952 316.46986 
L 633.587831 315.929264 
L 635.426485 315.464659 
L 639.153874 315.07458 
L 639.858672 314.733186 
L 643.438315 314.386013 
L 643.4492 313.953323 
L 646.290504 313.341792 
L 646.413277 312.463626 
L 647.298637 311.258019 
L 652.058686 309.709365 
L 653.314499 307.855661 
L 653.969795 305.783466 
L 656.295465 303.610391 
L 659.278576 301.460858 
L 661.763005 299.441184 
L 661.882127 297.621369 
L 663.30752 296.027362 
L 664.39526 294.645845 
L 665.645967 293.438032 
L 666.749707 292.356899 
L 667.634505 291.361408 
L 669.405356 290.424054 
L 671.281095 289.531738 
L 675.858059 288.681868 
L 682.290884 287.877903 
L 683.319936 287.126653 
L 684.768025 286.439107 
L 692.815045 285.833119 
L 693.500166 285.3351 
L 696.623148 284.97712 
L 709.2 284.789037 
" clip-path="url(#pbe62844f77)" style="fill: none; stroke: #ff7f0e; stroke-width: 1.5; stroke-linecap: square"/>
   </g>
   <g id="line2d_46">
    <path d="M 52.8 150.087315 
L 709.2 150.087315 
" clip-path="url(#pbe62844f77)" style="fill: none; stroke-dasharray: 5.55,2.4; stroke-dashoffset: 0; stroke: #0000ff; stroke-opacity: 0.5; stroke-width: 1.5"/>
   </g>
   <g id="line2d_47">
    <path d="M 52.8 334.30569 
L 709.2 334.30569 
" clip-path="url(#pbe62844f77)" style="fill: none; stroke-dasharray: 5.55,2.4; stroke-dashoffset: 0; stroke: #ffa500; stroke-opacity: 0.5; stroke-width: 1.5"/>
   </g>
   <g id="patch_3">
    <path d="M 52.8 493.2 
L 52.8 30.8 
" style="fill: none; stroke: #000000; stroke-width: 0.8; stroke-linejoin: miter; stroke-linecap: square"/>
   </g>
   <g id="patch_4">
    <path d="M 709.2 493.2 
L 709.2 30.8 
" style="fill: none; stroke: #000000; stroke-width: 0.8; stroke-linejoin: miter; stroke-linecap: square"/>
   </g>
   <g id="patch_5">
    <path d="M 52.8 493.2 
L 709.2 493.2 
" style="fill: none; stroke: #000000; stroke-width: 0.8; stroke-linejoin: miter; stroke-linecap: square"/>
   </g>
   <g id="patch_6">
    <path d="M 52.8 30.8 
L 709.2 30.8 
" style="fill: none; stroke: #000000; stroke-width: 0.8; stroke-linejoin: miter; stroke-linecap: square"/>
   </g>
   <g id="text_24">
    <!-- Precision and recall of best gene in locus by scaled score -->
    <g transform="translate(124.5 24.8)scale(0.18 -0.18)">
     <defs>
      <path id="DejaVuSans-62" d="M 3116 1747 
Q 3116 2381 2855 2742 
Q 2594 3103 2138 3103 
Q 1681 3103 1420 2742 
Q 1159 2381 1159 1747 
Q 1159 1113 1420 752 
Q 1681 391 2138 391 
Q 2594 391 2855 752 
Q 3116 1113 3116 1747 
z
M 1159 2969 
Q 1341 3281 1617 3432 
Q 1894 3584 2278 3584 
Q 2916 3584 3314 3078 
Q 3713 2572 3713 1747 
Q 3713 922 3314 415 
Q 2916 -91 2278 -91 
Q 1894 -91 1617 61 
Q 1341 213 1159 525 
L 1159 0 
L 581 0 
L 581 4863 
L 1159 4863 
L 1159 2969 
z
" transform="scale(0.015625)"/>
      <path id="DejaVuSans-79" d="M 2059 -325 
Q 1816 -950 1584 -1140 
Q 1353 -1331 966 -1331 
L 506 -1331 
L 506 -850 
L 844 -850 
Q 1081 -850 1212 -737 
Q 1344 -625 1503 -206 
L 1606 56 
L 191 3500 
L 800 3500 
L 1894 763 
L 2988 3500 
L 3597 3500 
L 2059 -325 
z
" transform="scale(0.015625)"/>
     </defs>
     <use xlink:href="#DejaVuSans-50"/>
     <use xlink:href="#DejaVuSans-72" x="58.552734"/>
     <use xlink:href="#DejaVuSans-65" x="97.416016"/>
     <use xlink:href="#DejaVuSans-63" x="158.939453"/>
     <use xlink:href="#DejaVuSans-69" x="213.919922"/>
     <use xlink:href="#DejaVuSans-73" x="241.703125"/>
     <use xlink:href="#DejaVuSans-69" x="293.802734"/>
     <use xlink:href="#DejaVuSans-6f" x="321.585938"/>
     <use xlink:href="#DejaVuSans-6e" x="382.767578"/>
     <use xlink:href="#DejaVuSans-20" x="446.146484"/>
     <use xlink:href="#DejaVuSans-61" x="477.933594"/>
     <use xlink:href="#DejaVuSans-6e" x="539.212891"/>
     <use xlink:href="#DejaVuSans-64" x="602.591797"/>
     <use xlink:href="#DejaVuSans-20" x="666.068359"/>
     <use xlink:href="#DejaVuSans-72" x="697.855469"/>
     <use xlink:href="#DejaVuSans-65" x="736.71875"/>
     <use xlink:href="#DejaVuSans-63" x="798.242188"/>
     <use xlink:href="#DejaVuSans-61" x="853.222656"/>
     <use xlink:href="#DejaVuSans-6c" x="914.501953"/>
     <use xlink:href="#DejaVuSans-6c" x="942.285156"/>
     <use xlink:href="#DejaVuSans-20" x="970.068359"/>
     <use xlink:href="#DejaVuSans-6f" x="1001.855469"/>
     <use xlink:href="#DejaVuSans-66" x="1063.037109"/>
     <use xlink:href="#DejaVuSans-20" x="1098.242188"/>
     <use xlink:href="#DejaVuSans-62" x="1130.029297"/>
     <use xlink:href="#DejaVuSans-65" x="1193.505859"/>
     <use xlink:href="#DejaVuSans-73" x="1255.029297"/>
     <use xlink:href="#DejaVuSans-74" x="1307.128906"/>
     <use xlink:href="#DejaVuSans-20" x="1346.337891"/>
     <use xlink:href="#DejaVuSans-67" x="1378.125"/>
     <use xlink:href="#DejaVuSans-65" x="1441.601562"/>
     <use xlink:href="#DejaVuSans-6e" x="1503.125"/>
     <use xlink:href="#DejaVuSans-65" x="1566.503906"/>
     <use xlink:href="#DejaVuSans-20" x="1628.027344"/>
     <use xlink:href="#DejaVuSans-69" x="1659.814453"/>
     <use xlink:href="#DejaVuSans-6e" x="1687.597656"/>
     <use xlink:href="#DejaVuSans-20" x="1750.976562"/>
     <use xlink:href="#DejaVuSans-6c" x="1782.763672"/>
     <use xlink:href="#DejaVuSans-6f" x="1810.546875"/>
     <use xlink:href="#DejaVuSans-63" x="1871.728516"/>
     <use xlink:href="#DejaVuSans-75" x="1926.708984"/>
     <use xlink:href="#DejaVuSans-73" x="1990.087891"/>
     <use xlink:href="#DejaVuSans-20" x="2042.1875"/>
     <use xlink:href="#DejaVuSans-62" x="2073.974609"/>
     <use xlink:href="#DejaVuSans-79" x="2137.451172"/>
     <use xlink:href="#DejaVuSans-20" x="2196.630859"/>
     <use xlink:href="#DejaVuSans-73" x="2228.417969"/>
     <use xlink:href="#DejaVuSans-63" x="2280.517578"/>
     <use xlink:href="#DejaVuSans-61" x="2335.498047"/>
     <use xlink:href="#DejaVuSans-6c" x="2396.777344"/>
     <use xlink:href="#DejaVuSans-65" x="2424.560547"/>
     <use xlink:href="#DejaVuSans-64" x="2486.083984"/>
     <use xlink:href="#DejaVuSans-20" x="2549.560547"/>
     <use xlink:href="#DejaVuSans-73" x="2581.347656"/>
     <use xlink:href="#DejaVuSans-63" x="2633.447266"/>
     <use xlink:href="#DejaVuSans-6f" x="2688.427734"/>
     <use xlink:href="#DejaVuSans-72" x="2749.609375"/>
     <use xlink:href="#DejaVuSans-65" x="2788.472656"/>
    </g>
   </g>
   <g id="legend_1">
    <g id="patch_7">
     <path d="M 59.8 285.517187 
L 241.325 285.517187 
Q 243.325 285.517187 243.325 283.517187 
L 243.325 240.482813 
Q 243.325 238.482813 241.325 238.482813 
L 59.8 238.482813 
Q 57.8 238.482813 57.8 240.482813 
L 57.8 283.517187 
Q 57.8 285.517187 59.8 285.517187 
z
" style="fill: #ffffff; opacity: 0.8; stroke: #cccccc; stroke-linejoin: miter"/>
    </g>
    <g id="line2d_48">
     <path d="M 61.8 246.58125 
L 71.8 246.58125 
L 81.8 246.58125 
" style="fill: none; stroke-dasharray: 5.55,2.4; stroke-dashoffset: 0; stroke: #000000; stroke-opacity: 0.5; stroke-width: 1.5"/>
    </g>
    <g id="text_25">
     <!-- Scaled FLAMES score = 0.248 -->
     <g transform="translate(89.8 250.08125)scale(0.1 -0.1)">
      <defs>
       <path id="DejaVuSans-3d" d="M 678 2906 
L 4684 2906 
L 4684 2381 
L 678 2381 
L 678 2906 
z
M 678 1631 
L 4684 1631 
L 4684 1100 
L 678 1100 
L 678 1631 
z
" transform="scale(0.015625)"/>
      </defs>
      <use xlink:href="#DejaVuSans-53"/>
      <use xlink:href="#DejaVuSans-63" x="63.476562"/>
      <use xlink:href="#DejaVuSans-61" x="118.457031"/>
      <use xlink:href="#DejaVuSans-6c" x="179.736328"/>
      <use xlink:href="#DejaVuSans-65" x="207.519531"/>
      <use xlink:href="#DejaVuSans-64" x="269.042969"/>
      <use xlink:href="#DejaVuSans-20" x="332.519531"/>
      <use xlink:href="#DejaVuSans-46" x="364.306641"/>
      <use xlink:href="#DejaVuSans-4c" x="421.826172"/>
      <use xlink:href="#DejaVuSans-41" x="479.789062"/>
      <use xlink:href="#DejaVuSans-4d" x="548.197266"/>
      <use xlink:href="#DejaVuSans-45" x="634.476562"/>
      <use xlink:href="#DejaVuSans-53" x="697.660156"/>
      <use xlink:href="#DejaVuSans-20" x="761.136719"/>
      <use xlink:href="#DejaVuSans-73" x="792.923828"/>
      <use xlink:href="#DejaVuSans-63" x="845.023438"/>
      <use xlink:href="#DejaVuSans-6f" x="900.003906"/>
      <use xlink:href="#DejaVuSans-72" x="961.185547"/>
      <use xlink:href="#DejaVuSans-65" x="1000.048828"/>
      <use xlink:href="#DejaVuSans-20" x="1061.572266"/>
      <use xlink:href="#DejaVuSans-3d" x="1093.359375"/>
      <use xlink:href="#DejaVuSans-20" x="1177.148438"/>
      <use xlink:href="#DejaVuSans-30" x="1208.935547"/>
      <use xlink:href="#DejaVuSans-2e" x="1272.558594"/>
      <use xlink:href="#DejaVuSans-32" x="1304.345703"/>
      <use xlink:href="#DejaVuSans-34" x="1367.96875"/>
      <use xlink:href="#DejaVuSans-38" x="1431.591797"/>
     </g>
    </g>
    <g id="line2d_49">
     <path d="M 61.8 261.259375 
L 71.8 261.259375 
L 81.8 261.259375 
" style="fill: none; stroke: #1f77b4; stroke-width: 1.5; stroke-linecap: square"/>
    </g>
    <g id="text_26">
     <!-- Precision -->
     <g transform="translate(89.8 264.759375)scale(0.1 -0.1)">
      <use xlink:href="#DejaVuSans-50"/>
      <use xlink:href="#DejaVuSans-72" x="58.552734"/>
      <use xlink:href="#DejaVuSans-65" x="97.416016"/>
      <use xlink:href="#DejaVuSans-63" x="158.939453"/>
      <use xlink:href="#DejaVuSans-69" x="213.919922"/>
      <use xlink:href="#DejaVuSans-73" x="241.703125"/>
      <use xlink:href="#DejaVuSans-69" x="293.802734"/>
      <use xlink:href="#DejaVuSans-6f" x="321.585938"/>
      <use xlink:href="#DejaVuSans-6e" x="382.767578"/>
     </g>
    </g>
    <g id="line2d_50">
     <path d="M 61.8 275.9375 
L 71.8 275.9375 
L 81.8 275.9375 
" style="fill: none; stroke: #ff7f0e; stroke-width: 1.5; stroke-linecap: square"/>
    </g>
    <g id="text_27">
     <!-- Recall -->
     <g transform="translate(89.8 279.4375)scale(0.1 -0.1)">
      <defs>
       <path id="DejaVuSans-52" d="M 2841 2188 
Q 3044 2119 3236 1894 
Q 3428 1669 3622 1275 
L 4263 0 
L 3584 0 
L 2988 1197 
Q 2756 1666 2539 1819 
Q 2322 1972 1947 1972 
L 1259 1972 
L 1259 0 
L 628 0 
L 628 4666 
L 2053 4666 
Q 2853 4666 3247 4331 
Q 3641 3997 3641 3322 
Q 3641 2881 3436 2590 
Q 3231 2300 2841 2188 
z
M 1259 4147 
L 1259 2491 
L 2053 2491 
Q 2509 2491 2742 2702 
Q 2975 2913 2975 3322 
Q 2975 3731 2742 3939 
Q 2509 4147 2053 4147 
L 1259 4147 
z
" transform="scale(0.015625)"/>
      </defs>
      <use xlink:href="#DejaVuSans-52"/>
      <use xlink:href="#DejaVuSans-65" x="64.982422"/>
      <use xlink:href="#DejaVuSans-63" x="126.505859"/>
      <use xlink:href="#DejaVuSans-61" x="181.486328"/>
      <use xlink:href="#DejaVuSans-6c" x="242.765625"/>
      <use xlink:href="#DejaVuSans-6c" x="270.548828"/>
     </g>
    </g>
   </g>
  </g>
 </g>
 <defs>
  <clipPath id="pbe62844f77">
   <rect x="52.8" y="30.8" width="656.4" height="462.4"/>
  </clipPath>
 </defs>
</svg>
